<?xml version="1.0" encoding="UTF-8" standalone="no"?>
<!-- Created with Inkscape (http://www.inkscape.org/) -->

<svg
   xmlns:ns0="http://www.iki.fi/pav/software/textext/"
   xmlns:dc="http://purl.org/dc/elements/1.1/"
   xmlns:cc="http://creativecommons.org/ns#"
   xmlns:rdf="http://www.w3.org/1999/02/22-rdf-syntax-ns#"
   xmlns:svg="http://www.w3.org/2000/svg"
   xmlns="http://www.w3.org/2000/svg"
   xmlns:xlink="http://www.w3.org/1999/xlink"
   xmlns:sodipodi="http://sodipodi.sourceforge.net/DTD/sodipodi-0.dtd"
   xmlns:inkscape="http://www.inkscape.org/namespaces/inkscape"
   width="564.14484"
   height="644.02789"
   id="svg2"
   version="1.1"
   inkscape:version="0.47 r22583"
   sodipodi:docname="2D3D.svg">
  <sodipodi:namedview
     id="base"
     pagecolor="#ffffff"
     bordercolor="#666666"
     borderopacity="1.0"
     inkscape:pageopacity="0.0"
     inkscape:pageshadow="2"
     inkscape:zoom="0.35"
     inkscape:cx="182.0707"
     inkscape:cy="758.13367"
     inkscape:document-units="px"
     inkscape:current-layer="layer1"
     showgrid="false"
     inkscape:window-width="1920"
     inkscape:window-height="1009"
     inkscape:window-x="0"
     inkscape:window-y="25"
     inkscape:window-maximized="1" />
  <defs
     id="defs4">
    <inkscape:perspective
       id="perspective10"
       inkscape:persp3d-origin="372.04724 : 350.78739 : 1"
       inkscape:vp_z="744.09448 : 526.18109 : 1"
       inkscape:vp_y="0 : 1000 : 0"
       inkscape:vp_x="0 : 526.18109 : 1"
       sodipodi:type="inkscape:persp3d" />
  </defs>
  <metadata
     id="metadata7">
    <rdf:RDF>
      <cc:Work
         rdf:about="">
        <dc:format>image/svg+xml</dc:format>
        <dc:type
           rdf:resource="http://purl.org/dc/dcmitype/StillImage" />
        <dc:title />
      </cc:Work>
    </rdf:RDF>
  </metadata>
  <g
     id="layer1"
     inkscape:groupmode="layer"
     inkscape:label="Calque 1"
     transform="translate(-757.31854,-499.56888)">
    <rect
       y="500.81888"
       x="758.56854"
       height="583.86816"
       width="561.64484"
       id="rect4890"
       style="fill:#f2f2f2;fill-opacity:1;stroke:#000000;stroke-width:2.5;stroke-miterlimit:4;stroke-opacity:1;stroke-dasharray:10, 10;stroke-dashoffset:0" />
    <rect
       style="fill:none;stroke:#000000;stroke-width:1;stroke-miterlimit:4;stroke-opacity:1;stroke-dasharray:none;stroke-dashoffset:0"
       id="rect4128"
       width="24.285707"
       height="97.14283"
       x="810"
       y="523.79077" />
    <rect
       y="523.79077"
       x="810"
       height="97.14283"
       width="24.285707"
       id="rect4130"
       style="fill:none;stroke:#000000;stroke-width:1;stroke-miterlimit:4;stroke-opacity:1;stroke-dasharray:none;stroke-dashoffset:0" />
    <rect
       y="523.79077"
       x="850"
       height="97.14283"
       width="24.285707"
       id="rect4132"
       style="fill:none;stroke:#000000;stroke-width:1;stroke-miterlimit:4;stroke-opacity:1;stroke-dasharray:none;stroke-dashoffset:0" />
    <rect
       style="fill:none;stroke:#000000;stroke-width:1;stroke-miterlimit:4;stroke-opacity:1;stroke-dasharray:none;stroke-dashoffset:0"
       id="rect4134"
       width="24.285707"
       height="97.14283"
       x="850"
       y="523.79077" />
    <rect
       style="fill:none;stroke:#000000;stroke-width:1;stroke-miterlimit:4;stroke-opacity:1;stroke-dasharray:none;stroke-dashoffset:0"
       id="rect4136"
       width="24.285707"
       height="97.14283"
       x="890"
       y="523.79077" />
    <rect
       y="523.79077"
       x="890"
       height="97.14283"
       width="24.285707"
       id="rect4138"
       style="fill:none;stroke:#000000;stroke-width:1;stroke-miterlimit:4;stroke-opacity:1;stroke-dasharray:none;stroke-dashoffset:0" />
    <rect
       y="523.79077"
       x="930"
       height="97.14283"
       width="24.285707"
       id="rect4140"
       style="fill:none;stroke:#000000;stroke-width:1;stroke-miterlimit:4;stroke-opacity:1;stroke-dasharray:none;stroke-dashoffset:0" />
    <rect
       style="fill:none;stroke:#000000;stroke-width:1;stroke-miterlimit:4;stroke-opacity:1;stroke-dasharray:none;stroke-dashoffset:0"
       id="rect4142"
       width="24.285707"
       height="97.14283"
       x="930"
       y="523.79077" />
    <rect
       style="fill:none;stroke:#000000;stroke-width:1;stroke-miterlimit:4;stroke-opacity:1;stroke-dasharray:none;stroke-dashoffset:0"
       id="rect4144"
       width="24.285707"
       height="97.14283"
       x="970"
       y="523.79077" />
    <rect
       y="523.79077"
       x="970"
       height="97.14283"
       width="24.285707"
       id="rect4146"
       style="fill:none;stroke:#000000;stroke-width:1;stroke-miterlimit:4;stroke-opacity:1;stroke-dasharray:none;stroke-dashoffset:0" />
    <rect
       y="523.79077"
       x="1010"
       height="97.14283"
       width="24.285707"
       id="rect4148"
       style="fill:none;stroke:#000000;stroke-width:1;stroke-miterlimit:4;stroke-opacity:1;stroke-dasharray:none;stroke-dashoffset:0" />
    <rect
       style="fill:none;stroke:#000000;stroke-width:1;stroke-miterlimit:4;stroke-opacity:1;stroke-dasharray:none;stroke-dashoffset:0"
       id="rect4150"
       width="24.285707"
       height="97.14283"
       x="1010"
       y="523.79077" />
    <rect
       style="fill:none;stroke:#000000;stroke-width:1;stroke-miterlimit:4;stroke-opacity:1;stroke-dasharray:none;stroke-dashoffset:0"
       id="rect4152"
       width="24.285707"
       height="97.14283"
       x="1050"
       y="523.79077" />
    <rect
       y="523.79077"
       x="1050"
       height="97.14283"
       width="24.285707"
       id="rect4154"
       style="fill:none;stroke:#000000;stroke-width:1;stroke-miterlimit:4;stroke-opacity:1;stroke-dasharray:none;stroke-dashoffset:0" />
    <rect
       y="523.79077"
       x="1090"
       height="97.14283"
       width="24.285707"
       id="rect4156"
       style="fill:none;stroke:#000000;stroke-width:1;stroke-miterlimit:4;stroke-opacity:1;stroke-dasharray:none;stroke-dashoffset:0" />
    <rect
       style="fill:none;stroke:#000000;stroke-width:1;stroke-miterlimit:4;stroke-opacity:1;stroke-dasharray:none;stroke-dashoffset:0"
       id="rect4158"
       width="24.285707"
       height="97.14283"
       x="1090"
       y="523.79077" />
    <rect
       style="fill:none;stroke:#000000;stroke-width:1;stroke-miterlimit:4;stroke-opacity:1;stroke-dasharray:none;stroke-dashoffset:0"
       id="rect4160"
       width="24.285707"
       height="97.14283"
       x="1130"
       y="523.79077" />
    <rect
       y="523.79077"
       x="1130"
       height="97.14283"
       width="24.285707"
       id="rect4162"
       style="fill:none;stroke:#000000;stroke-width:1;stroke-miterlimit:4;stroke-opacity:1;stroke-dasharray:none;stroke-dashoffset:0" />
    <rect
       y="523.79077"
       x="1170"
       height="97.14283"
       width="24.285707"
       id="rect4164"
       style="fill:none;stroke:#000000;stroke-width:1;stroke-miterlimit:4;stroke-opacity:1;stroke-dasharray:none;stroke-dashoffset:0" />
    <rect
       style="fill:none;stroke:#000000;stroke-width:1;stroke-miterlimit:4;stroke-opacity:1;stroke-dasharray:none;stroke-dashoffset:0"
       id="rect4166"
       width="24.285707"
       height="97.14283"
       x="1170"
       y="523.79077" />
    <rect
       style="fill:none;stroke:#000000;stroke-width:1;stroke-miterlimit:4;stroke-opacity:1;stroke-dasharray:none;stroke-dashoffset:0"
       id="rect4168"
       width="24.285707"
       height="97.14283"
       x="1210"
       y="523.79077" />
    <rect
       y="523.79077"
       x="1210"
       height="97.14283"
       width="24.285707"
       id="rect4170"
       style="fill:none;stroke:#000000;stroke-width:1;stroke-miterlimit:4;stroke-opacity:1;stroke-dasharray:none;stroke-dashoffset:0" />
    <rect
       y="523.79077"
       x="1250"
       height="97.14283"
       width="24.285707"
       id="rect4172"
       style="fill:none;stroke:#000000;stroke-width:1;stroke-miterlimit:4;stroke-opacity:1;stroke-dasharray:none;stroke-dashoffset:0" />
    <rect
       style="fill:none;stroke:#000000;stroke-width:1;stroke-miterlimit:4;stroke-opacity:1;stroke-dasharray:none;stroke-dashoffset:0"
       id="rect4174"
       width="24.285707"
       height="97.14283"
       x="1250"
       y="523.79077" />
    <rect
       y="943.79077"
       x="810"
       height="97.14283"
       width="24.285707"
       id="rect4176"
       style="fill:none;stroke:#000000;stroke-width:1;stroke-miterlimit:4;stroke-opacity:1;stroke-dasharray:none;stroke-dashoffset:0" />
    <rect
       style="fill:none;stroke:#000000;stroke-width:1;stroke-miterlimit:4;stroke-opacity:1;stroke-dasharray:none;stroke-dashoffset:0"
       id="rect4178"
       width="24.285707"
       height="97.14283"
       x="810"
       y="943.79077" />
    <rect
       style="fill:none;stroke:#000000;stroke-width:1;stroke-miterlimit:4;stroke-opacity:1;stroke-dasharray:none;stroke-dashoffset:0"
       id="rect4180"
       width="24.285707"
       height="97.14283"
       x="850"
       y="943.79077" />
    <rect
       y="943.79077"
       x="850"
       height="97.14283"
       width="24.285707"
       id="rect4182"
       style="fill:none;stroke:#000000;stroke-width:1;stroke-miterlimit:4;stroke-opacity:1;stroke-dasharray:none;stroke-dashoffset:0" />
    <rect
       y="943.79077"
       x="890"
       height="97.14283"
       width="24.285707"
       id="rect4184"
       style="fill:none;stroke:#000000;stroke-width:1;stroke-miterlimit:4;stroke-opacity:1;stroke-dasharray:none;stroke-dashoffset:0" />
    <rect
       style="fill:none;stroke:#000000;stroke-width:1;stroke-miterlimit:4;stroke-opacity:1;stroke-dasharray:none;stroke-dashoffset:0"
       id="rect4186"
       width="24.285707"
       height="97.14283"
       x="890"
       y="943.79077" />
    <rect
       style="fill:none;stroke:#000000;stroke-width:1;stroke-miterlimit:4;stroke-opacity:1;stroke-dasharray:none;stroke-dashoffset:0"
       id="rect4188"
       width="24.285707"
       height="97.14283"
       x="930"
       y="943.79077" />
    <rect
       y="943.79077"
       x="930"
       height="97.14283"
       width="24.285707"
       id="rect4190"
       style="fill:none;stroke:#000000;stroke-width:1;stroke-miterlimit:4;stroke-opacity:1;stroke-dasharray:none;stroke-dashoffset:0" />
    <rect
       y="943.79077"
       x="970"
       height="97.14283"
       width="24.285707"
       id="rect4192"
       style="fill:none;stroke:#000000;stroke-width:1;stroke-miterlimit:4;stroke-opacity:1;stroke-dasharray:none;stroke-dashoffset:0" />
    <rect
       style="fill:none;stroke:#000000;stroke-width:1;stroke-miterlimit:4;stroke-opacity:1;stroke-dasharray:none;stroke-dashoffset:0"
       id="rect4194"
       width="24.285707"
       height="97.14283"
       x="970"
       y="943.79077" />
    <rect
       style="fill:none;stroke:#000000;stroke-width:1;stroke-miterlimit:4;stroke-opacity:1;stroke-dasharray:none;stroke-dashoffset:0"
       id="rect4196"
       width="24.285707"
       height="97.14283"
       x="1010"
       y="943.79077" />
    <rect
       y="943.79077"
       x="1010"
       height="97.14283"
       width="24.285707"
       id="rect4198"
       style="fill:none;stroke:#000000;stroke-width:1;stroke-miterlimit:4;stroke-opacity:1;stroke-dasharray:none;stroke-dashoffset:0" />
    <rect
       y="943.79077"
       x="1050"
       height="97.14283"
       width="24.285707"
       id="rect4200"
       style="fill:none;stroke:#000000;stroke-width:1;stroke-miterlimit:4;stroke-opacity:1;stroke-dasharray:none;stroke-dashoffset:0" />
    <rect
       style="fill:none;stroke:#000000;stroke-width:1;stroke-miterlimit:4;stroke-opacity:1;stroke-dasharray:none;stroke-dashoffset:0"
       id="rect4202"
       width="24.285707"
       height="97.14283"
       x="1050"
       y="943.79077" />
    <rect
       style="fill:none;stroke:#000000;stroke-width:1;stroke-miterlimit:4;stroke-opacity:1;stroke-dasharray:none;stroke-dashoffset:0"
       id="rect4204"
       width="24.285707"
       height="97.14283"
       x="1090"
       y="943.79077" />
    <rect
       y="943.79077"
       x="1090"
       height="97.14283"
       width="24.285707"
       id="rect4206"
       style="fill:none;stroke:#000000;stroke-width:1;stroke-miterlimit:4;stroke-opacity:1;stroke-dasharray:none;stroke-dashoffset:0" />
    <rect
       y="943.79077"
       x="1130"
       height="97.14283"
       width="24.285707"
       id="rect4208"
       style="fill:none;stroke:#000000;stroke-width:1;stroke-miterlimit:4;stroke-opacity:1;stroke-dasharray:none;stroke-dashoffset:0" />
    <rect
       style="fill:none;stroke:#000000;stroke-width:1;stroke-miterlimit:4;stroke-opacity:1;stroke-dasharray:none;stroke-dashoffset:0"
       id="rect4210"
       width="24.285707"
       height="97.14283"
       x="1130"
       y="943.79077" />
    <rect
       style="fill:none;stroke:#000000;stroke-width:1;stroke-miterlimit:4;stroke-opacity:1;stroke-dasharray:none;stroke-dashoffset:0"
       id="rect4212"
       width="24.285707"
       height="97.14283"
       x="1170"
       y="943.79077" />
    <rect
       y="943.79077"
       x="1170"
       height="97.14283"
       width="24.285707"
       id="rect4214"
       style="fill:none;stroke:#000000;stroke-width:1;stroke-miterlimit:4;stroke-opacity:1;stroke-dasharray:none;stroke-dashoffset:0" />
    <rect
       y="943.79077"
       x="1210"
       height="97.14283"
       width="24.285707"
       id="rect4216"
       style="fill:none;stroke:#000000;stroke-width:1;stroke-miterlimit:4;stroke-opacity:1;stroke-dasharray:none;stroke-dashoffset:0" />
    <rect
       style="fill:none;stroke:#000000;stroke-width:1;stroke-miterlimit:4;stroke-opacity:1;stroke-dasharray:none;stroke-dashoffset:0"
       id="rect4218"
       width="24.285707"
       height="97.14283"
       x="1210"
       y="943.79077" />
    <rect
       style="fill:none;stroke:#000000;stroke-width:1;stroke-miterlimit:4;stroke-opacity:1;stroke-dasharray:none;stroke-dashoffset:0"
       id="rect4220"
       width="24.285707"
       height="97.14283"
       x="1250"
       y="943.79077" />
    <rect
       y="943.79077"
       x="1250"
       height="97.14283"
       width="24.285707"
       id="rect4222"
       style="fill:none;stroke:#000000;stroke-width:1;stroke-miterlimit:4;stroke-opacity:1;stroke-dasharray:none;stroke-dashoffset:0" />
    <path
       style="fill:none;stroke:#000000;stroke-width:2.5;stroke-linecap:butt;stroke-linejoin:miter;stroke-miterlimit:4;stroke-opacity:1;stroke-dasharray:none"
       d="m 1015.7143,990.93362 c 0,0 12.8571,-408.57143 12.8571,-408.57143"
       id="path4392"
       sodipodi:nodetypes="cc" />
    <path
       sodipodi:type="arc"
       style="fill:#ff0000;fill-opacity:1;stroke:#000000;stroke-width:1;stroke-miterlimit:4;stroke-opacity:1;stroke-dasharray:none;stroke-dashoffset:0"
       id="path4394"
       sodipodi:cx="156.42857"
       sodipodi:cy="808.79077"
       sodipodi:rx="9.2857141"
       sodipodi:ry="9.2857141"
       d="m 165.71429,808.79077 c 0,5.12836 -4.15736,9.28572 -9.28572,9.28572 -5.12835,0 -9.28571,-4.15736 -9.28571,-9.28572 0,-5.12836 4.15736,-9.28571 9.28571,-9.28571 5.12836,0 9.28572,4.15735 9.28572,9.28571 z"
       transform="translate(866,-4)" />
    <path
       sodipodi:nodetypes="cc"
       id="path4396"
       d="m 1065.7143,986.64791 c 0,0 117.1428,-404.28572 117.1428,-404.28572"
       style="fill:none;stroke:#000000;stroke-width:2.5;stroke-linecap:butt;stroke-linejoin:miter;stroke-miterlimit:4;stroke-opacity:1;stroke-dasharray:none" />
    <path
       transform="translate(962,-4)"
       d="m 165.71429,808.79077 c 0,5.12836 -4.15736,9.28572 -9.28572,9.28572 -5.12835,0 -9.28571,-4.15736 -9.28571,-9.28572 0,-5.12836 4.15736,-9.28571 9.28571,-9.28571 5.12836,0 9.28572,4.15735 9.28572,9.28571 z"
       sodipodi:ry="9.2857141"
       sodipodi:rx="9.2857141"
       sodipodi:cy="808.79077"
       sodipodi:cx="156.42857"
       id="path4398"
       style="fill:#ff0000;fill-opacity:1;stroke:#000000;stroke-width:1;stroke-miterlimit:4;stroke-opacity:1;stroke-dasharray:none;stroke-dashoffset:0"
       sodipodi:type="arc" />
    <g
       id="g4587"
       transform="matrix(5.6620706,0,0,5.6620706,-418.827,369.57759)"
       ns0:preamble=""
       ns0:text="Acquisition 3D">
      <defs
         id="defs4589">
        <g
           id="g4591">
          <symbol
             id="textext-bd57156e-0"
             overflow="visible"
             style="overflow:visible">
            <path
               id="path4594"
               d=""
               style="stroke:none" />
          </symbol>
          <symbol
             id="textext-bd57156e-1"
             overflow="visible"
             style="overflow:visible">
            <path
               id="path4597"
               d="m 3.96875,-6.9375 c -0.046875,-0.125 -0.078125,-0.203125 -0.234375,-0.203125 -0.15625,0 -0.1875,0.0625 -0.234375,0.203125 L 1.4375,-0.984375 C 1.25,-0.46875 0.859375,-0.3125 0.3125,-0.3125 l 0,0.3125 c 0.234375,-0.015625 0.671875,-0.03125 1.015625,-0.03125 0.3125,0 0.828125,0.015625 1.15625,0.03125 l 0,-0.3125 c -0.5,0 -0.75,-0.25 -0.75,-0.5 0,-0.03125 0.015625,-0.140625 0.015625,-0.15625 l 0.46875,-1.296875 2.453125,0 0.53125,1.515625 c 0.015625,0.046875 0.03125,0.109375 0.03125,0.140625 0,0.296875 -0.5625,0.296875 -0.828125,0.296875 l 0,0.3125 c 0.359375,-0.03125 1.0625,-0.03125 1.4375,-0.03125 0.421875,0 0.890625,0.015625 1.296875,0.03125 l 0,-0.3125 -0.171875,0 C 6.375,-0.3125 6.234375,-0.375 6.125,-0.703125 L 3.96875,-6.9375 z m -0.53125,1.109375 1.125,3.25 -2.234375,0 1.109375,-3.25 z m 0,0"
               style="stroke:none" />
          </symbol>
          <symbol
             id="textext-bd57156e-2"
             overflow="visible"
             style="overflow:visible">
            <path
               id="path4600"
               d="m 3.578125,-3.84375 c -0.40625,0.03125 -0.46875,0.328125 -0.46875,0.453125 0,0.265625 0.1875,0.453125 0.453125,0.453125 0.265625,0 0.46875,-0.15625 0.46875,-0.46875 0,-0.671875 -0.765625,-1.0625 -1.53125,-1.0625 -1.25,0 -2.15625,1.078125 -2.15625,2.3125 0,1.28125 0.984375,2.265625 2.140625,2.265625 1.328125,0 1.65625,-1.203125 1.65625,-1.296875 0,-0.09375 -0.109375,-0.09375 -0.140625,-0.09375 -0.078125,0 -0.109375,0.03125 -0.125,0.09375 -0.28125,0.921875 -0.9375,1.046875 -1.296875,1.046875 -0.53125,0 -1.40625,-0.421875 -1.40625,-2.03125 0,-1.625 0.8125,-2.046875 1.34375,-2.046875 0.09375,0 0.71875,0.015625 1.0625,0.375 z m 0,0"
               style="stroke:none" />
          </symbol>
          <symbol
             id="textext-bd57156e-3"
             overflow="visible"
             style="overflow:visible">
            <path
               id="path4603"
               d="m 3.78125,-0.609375 0,1.78125 C 3.78125,1.625 3.671875,1.625 3.015625,1.625 l 0,0.3125 C 3.34375,1.921875 3.875,1.90625 4.125,1.90625 c 0.265625,0 0.78125,0.015625 1.125,0.03125 l 0,-0.3125 c -0.671875,0 -0.78125,0 -0.78125,-0.453125 l 0,-5.578125 -0.21875,0 L 3.875,-3.5 C 3.75,-3.78125 3.34375,-4.40625 2.546875,-4.40625 c -1.15625,0 -2.203125,0.96875 -2.203125,2.265625 0,1.25 0.96875,2.25 2.125,2.25 0.6875,0 1.09375,-0.421875 1.3125,-0.71875 z m 0.03125,-2.15625 0,1.40625 C 3.8125,-1.03125 3.640625,-0.75 3.421875,-0.515625 3.296875,-0.375 2.96875,-0.109375 2.5,-0.109375 1.78125,-0.109375 1.171875,-1 1.171875,-2.140625 c 0,-1.1875 0.6875,-2.015625 1.4375,-2.015625 0.796875,0 1.203125,0.859375 1.203125,1.390625 z m 0,0"
               style="stroke:none" />
          </symbol>
          <symbol
             id="textext-bd57156e-4"
             overflow="visible"
             style="overflow:visible">
            <path
               id="path4606"
               d="m 3.890625,-0.78125 0,0.890625 L 5.328125,0 l 0,-0.3125 C 4.640625,-0.3125 4.5625,-0.375 4.5625,-0.875 l 0,-3.53125 -1.46875,0.109375 0,0.3125 c 0.6875,0 0.78125,0.0625 0.78125,0.5625 l 0,1.765625 c 0,0.875 -0.484375,1.546875 -1.21875,1.546875 -0.828125,0 -0.875,-0.46875 -0.875,-0.984375 l 0,-3.3125 -1.46875,0.109375 0,0.3125 c 0.78125,0 0.78125,0.03125 0.78125,0.90625 l 0,1.5 c 0,0.78125 0,1.6875 1.515625,1.6875 0.5625,0 1,-0.28125 1.28125,-0.890625 z m 0,0"
               style="stroke:none" />
          </symbol>
          <symbol
             id="textext-bd57156e-5"
             overflow="visible"
             style="overflow:visible">
            <path
               id="path4609"
               d="M 1.765625,-4.40625 0.375,-4.296875 l 0,0.3125 c 0.640625,0 0.734375,0.0625 0.734375,0.546875 l 0,2.6875 c 0,0.4375 -0.109375,0.4375 -0.78125,0.4375 l 0,0.3125 C 0.640625,-0.015625 1.1875,-0.03125 1.421875,-0.03125 1.78125,-0.03125 2.125,-0.015625 2.46875,0 l 0,-0.3125 c -0.671875,0 -0.703125,-0.046875 -0.703125,-0.4375 l 0,-3.65625 z m 0.03125,-1.734375 c 0,-0.3125 -0.234375,-0.53125 -0.515625,-0.53125 -0.3125,0 -0.53125,0.265625 -0.53125,0.53125 0,0.265625 0.21875,0.53125 0.53125,0.53125 0.28125,0 0.515625,-0.21875 0.515625,-0.53125 z m 0,0"
               style="stroke:none" />
          </symbol>
          <symbol
             id="textext-bd57156e-6"
             overflow="visible"
             style="overflow:visible">
            <path
               id="path4612"
               d="m 2.078125,-1.9375 c 0.21875,0.046875 1.03125,0.203125 1.03125,0.921875 0,0.5 -0.34375,0.90625 -1.125,0.90625 -0.84375,0 -1.203125,-0.5625 -1.390625,-1.421875 C 0.5625,-1.65625 0.5625,-1.6875 0.453125,-1.6875 c -0.125,0 -0.125,0.0625 -0.125,0.234375 l 0,1.328125 c 0,0.171875 0,0.234375 0.109375,0.234375 0.046875,0 0.0625,-0.015625 0.25,-0.203125 0.015625,-0.015625 0.015625,-0.03125 0.203125,-0.21875 0.4375,0.40625 0.890625,0.421875 1.09375,0.421875 1.140625,0 1.609375,-0.671875 1.609375,-1.390625 0,-0.515625 -0.296875,-0.828125 -0.421875,-0.9375 C 2.84375,-2.546875 2.453125,-2.625 2.03125,-2.703125 1.46875,-2.8125 0.8125,-2.9375 0.8125,-3.515625 c 0,-0.359375 0.25,-0.765625 1.109375,-0.765625 1.09375,0 1.15625,0.90625 1.171875,1.203125 0,0.09375 0.09375,0.09375 0.109375,0.09375 0.140625,0 0.140625,-0.046875 0.140625,-0.234375 l 0,-1.015625 c 0,-0.15625 0,-0.234375 -0.109375,-0.234375 -0.046875,0 -0.078125,0 -0.203125,0.125 -0.03125,0.03125 -0.125,0.125 -0.171875,0.15625 -0.375,-0.28125 -0.78125,-0.28125 -0.9375,-0.28125 -1.21875,0 -1.59375,0.671875 -1.59375,1.234375 0,0.34375 0.15625,0.625 0.421875,0.84375 0.328125,0.25 0.609375,0.3125 1.328125,0.453125 z m 0,0"
               style="stroke:none" />
          </symbol>
          <symbol
             id="textext-bd57156e-7"
             overflow="visible"
             style="overflow:visible">
            <path
               id="path4615"
               d="m 1.71875,-3.984375 1.4375,0 0,-0.3125 -1.4375,0 0,-1.828125 -0.25,0 c 0,0.8125 -0.296875,1.875 -1.28125,1.921875 l 0,0.21875 0.84375,0 0,2.75 c 0,1.21875 0.9375,1.34375 1.296875,1.34375 0.703125,0 0.984375,-0.703125 0.984375,-1.34375 l 0,-0.5625 -0.25,0 0,0.546875 c 0,0.734375 -0.296875,1.109375 -0.671875,1.109375 -0.671875,0 -0.671875,-0.90625 -0.671875,-1.078125 l 0,-2.765625 z m 0,0"
               style="stroke:none" />
          </symbol>
          <symbol
             id="textext-bd57156e-8"
             overflow="visible"
             style="overflow:visible">
            <path
               id="path4618"
               d="M 4.6875,-2.140625 C 4.6875,-3.40625 3.703125,-4.46875 2.5,-4.46875 c -1.25,0 -2.21875,1.09375 -2.21875,2.328125 0,1.296875 1.03125,2.25 2.203125,2.25 1.203125,0 2.203125,-0.984375 2.203125,-2.25 z m -2.1875,2 c -0.4375,0 -0.875,-0.203125 -1.140625,-0.671875 -0.25,-0.4375 -0.25,-1.046875 -0.25,-1.40625 0,-0.390625 0,-0.921875 0.234375,-1.359375 C 1.609375,-4.03125 2.078125,-4.25 2.484375,-4.25 c 0.4375,0 0.859375,0.21875 1.125,0.65625 0.265625,0.421875 0.265625,1 0.265625,1.375 0,0.359375 0,0.90625 -0.21875,1.34375 C 3.421875,-0.421875 2.984375,-0.140625 2.5,-0.140625 z m 0,0"
               style="stroke:none" />
          </symbol>
          <symbol
             id="textext-bd57156e-9"
             overflow="visible"
             style="overflow:visible">
            <path
               id="path4621"
               d="m 1.09375,-3.421875 0,2.671875 c 0,0.4375 -0.109375,0.4375 -0.78125,0.4375 l 0,0.3125 c 0.359375,-0.015625 0.859375,-0.03125 1.140625,-0.03125 0.25,0 0.765625,0.015625 1.109375,0.03125 l 0,-0.3125 c -0.671875,0 -0.78125,0 -0.78125,-0.4375 l 0,-1.84375 C 1.78125,-3.625 2.5,-4.1875 3.125,-4.1875 c 0.640625,0 0.75,0.53125 0.75,1.109375 l 0,2.328125 c 0,0.4375 -0.109375,0.4375 -0.78125,0.4375 l 0,0.3125 c 0.34375,-0.015625 0.859375,-0.03125 1.125,-0.03125 0.25,0 0.78125,0.015625 1.109375,0.03125 l 0,-0.3125 c -0.515625,0 -0.765625,0 -0.765625,-0.296875 l 0,-1.90625 c 0,-0.859375 0,-1.15625 -0.3125,-1.515625 -0.140625,-0.171875 -0.46875,-0.375 -1.046875,-0.375 C 2.46875,-4.40625 2,-3.984375 1.71875,-3.359375 l 0,-1.046875 -1.40625,0.109375 0,0.3125 c 0.703125,0 0.78125,0.0625 0.78125,0.5625 z m 0,0"
               style="stroke:none" />
          </symbol>
          <symbol
             id="textext-bd57156e-10"
             overflow="visible"
             style="overflow:visible">
            <path
               id="path4624"
               d="m 2.890625,-3.515625 c 0.8125,-0.265625 1.390625,-0.953125 1.390625,-1.75 0,-0.8125 -0.875,-1.375 -1.828125,-1.375 -1,0 -1.765625,0.59375 -1.765625,1.359375 0,0.328125 0.21875,0.515625 0.515625,0.515625 0.296875,0 0.5,-0.21875 0.5,-0.515625 0,-0.484375 -0.46875,-0.484375 -0.609375,-0.484375 0.296875,-0.5 0.953125,-0.625 1.3125,-0.625 0.421875,0 0.96875,0.21875 0.96875,1.109375 0,0.125 -0.03125,0.703125 -0.28125,1.140625 C 2.796875,-3.65625 2.453125,-3.625 2.203125,-3.625 2.125,-3.609375 1.890625,-3.59375 1.8125,-3.59375 c -0.078125,0.015625 -0.140625,0.03125 -0.140625,0.125 0,0.109375 0.0625,0.109375 0.234375,0.109375 l 0.4375,0 c 0.8125,0 1.1875,0.671875 1.1875,1.65625 0,1.359375 -0.6875,1.640625 -1.125,1.640625 -0.4375,0 -1.1875,-0.171875 -1.53125,-0.75 0.34375,0.046875 0.65625,-0.171875 0.65625,-0.546875 0,-0.359375 -0.265625,-0.5625 -0.546875,-0.5625 -0.25,0 -0.5625,0.140625 -0.5625,0.578125 0,0.90625 0.921875,1.5625 2.015625,1.5625 1.21875,0 2.125,-0.90625 2.125,-1.921875 0,-0.8125 -0.640625,-1.59375 -1.671875,-1.8125 z m 0,0"
               style="stroke:none" />
          </symbol>
          <symbol
             id="textext-bd57156e-11"
             overflow="visible"
             style="overflow:visible">
            <path
               id="path4627"
               d="m 0.34375,-6.8125 0,0.3125 0.25,0 c 0.765625,0 0.78125,0.109375 0.78125,0.46875 l 0,5.25 c 0,0.359375 -0.015625,0.46875 -0.78125,0.46875 l -0.25,0 0,0.3125 L 4,0 C 5.671875,0 7.046875,-1.46875 7.046875,-3.34375 7.046875,-5.25 5.703125,-6.8125 4,-6.8125 l -3.65625,0 z m 2.375,6.5 C 2.25,-0.3125 2.234375,-0.375 2.234375,-0.703125 l 0,-5.390625 C 2.234375,-6.4375 2.25,-6.5 2.71875,-6.5 l 1,0 c 0.625,0 1.3125,0.21875 1.8125,0.921875 0.4375,0.59375 0.515625,1.453125 0.515625,2.234375 0,1.09375 -0.1875,1.703125 -0.546875,2.1875 -0.203125,0.265625 -0.765625,0.84375 -1.765625,0.84375 l -1.015625,0 z m 0,0"
               style="stroke:none" />
          </symbol>
        </g>
      </defs>
      <g
         id="textext-bd57156e-12">
        <g
           id="g4630"
           style="fill:#000000;fill-opacity:1">
          <use
             id="use4632"
             y="134.765"
             x="223.43201"
             xlink:href="#textext-bd57156e-1"
             width="744.09448"
             height="1052.3622" />
          <use
             id="use4634"
             y="134.765"
             x="230.90395"
             xlink:href="#textext-bd57156e-2"
             width="744.09448"
             height="1052.3622" />
          <use
             id="use4636"
             y="134.765"
             x="235.33133"
             xlink:href="#textext-bd57156e-3"
             width="744.09448"
             height="1052.3622" />
          <use
             id="use4638"
             y="134.765"
             x="240.58958"
             xlink:href="#textext-bd57156e-4"
             width="744.09448"
             height="1052.3622" />
          <use
             id="use4640"
             y="134.765"
             x="246.12482"
             xlink:href="#textext-bd57156e-5"
             width="744.09448"
             height="1052.3622" />
          <use
             id="use4642"
             y="134.765"
             x="248.89243"
             xlink:href="#textext-bd57156e-6"
             width="744.09448"
             height="1052.3622" />
          <use
             id="use4644"
             y="134.765"
             x="252.82167"
             xlink:href="#textext-bd57156e-5"
             width="744.09448"
             height="1052.3622" />
          <use
             id="use4646"
             y="134.765"
             x="255.58928"
             xlink:href="#textext-bd57156e-7"
             width="744.09448"
             height="1052.3622" />
          <use
             id="use4648"
             y="134.765"
             x="259.46375"
             xlink:href="#textext-bd57156e-5"
             width="744.09448"
             height="1052.3622" />
          <use
             id="use4650"
             y="134.765"
             x="262.23135"
             xlink:href="#textext-bd57156e-8"
             width="744.09448"
             height="1052.3622" />
          <use
             id="use4652"
             y="134.765"
             x="267.21265"
             xlink:href="#textext-bd57156e-9"
             width="744.09448"
             height="1052.3622" />
        </g>
        <g
           id="g4654"
           style="fill:#000000;fill-opacity:1">
          <use
             id="use4656"
             y="134.765"
             x="276.0654"
             xlink:href="#textext-bd57156e-10"
             width="744.09448"
             height="1052.3622" />
          <use
             id="use4658"
             y="134.765"
             x="281.04672"
             xlink:href="#textext-bd57156e-11"
             width="744.09448"
             height="1052.3622" />
        </g>
      </g>
    </g>
    <path
       sodipodi:nodetypes="cc"
       id="path3090"
       d="m 820.55691,996.99454 c 0,0 43.16168,-414.63235 43.16168,-414.63235"
       style="fill:none;stroke:#000000;stroke-width:2.5;stroke-linecap:butt;stroke-linejoin:miter;stroke-miterlimit:4;stroke-opacity:1;stroke-dasharray:none" />
    <path
       transform="translate(694.07612,-102.86868)"
       d="m 165.71429,808.79077 c 0,5.12836 -4.15736,9.28572 -9.28572,9.28572 -5.12835,0 -9.28571,-4.15736 -9.28571,-9.28572 0,-5.12836 4.15736,-9.28571 9.28571,-9.28571 5.12836,0 9.28572,4.15735 9.28572,9.28571 z"
       sodipodi:ry="9.2857141"
       sodipodi:rx="9.2857141"
       sodipodi:cy="808.79077"
       sodipodi:cx="156.42857"
       id="path3092"
       style="fill:#ff0000;fill-opacity:1;stroke:#000000;stroke-width:1;stroke-miterlimit:4;stroke-opacity:1;stroke-dasharray:none;stroke-dashoffset:0"
       sodipodi:type="arc" />
  </g>
</svg>
