<?xml version="1.0" encoding="UTF-8" standalone="no"?>
<!-- Created with Inkscape (http://www.inkscape.org/) -->

<svg
   xmlns:ns0="http://www.iki.fi/pav/software/textext/"
   xmlns:dc="http://purl.org/dc/elements/1.1/"
   xmlns:cc="http://creativecommons.org/ns#"
   xmlns:rdf="http://www.w3.org/1999/02/22-rdf-syntax-ns#"
   xmlns:svg="http://www.w3.org/2000/svg"
   xmlns="http://www.w3.org/2000/svg"
   xmlns:xlink="http://www.w3.org/1999/xlink"
   xmlns:sodipodi="http://sodipodi.sourceforge.net/DTD/sodipodi-0.dtd"
   xmlns:inkscape="http://www.inkscape.org/namespaces/inkscape"
   id="svg2"
   version="1.1"
   inkscape:version="0.47 r22583"
   width="2093.4998"
   height="1490.3339"
   sodipodi:docname="Bspline.svg">
  <sodipodi:namedview
     pagecolor="#ffffff"
     bordercolor="#666666"
     borderopacity="1"
     objecttolerance="10"
     gridtolerance="10"
     guidetolerance="10"
     inkscape:pageopacity="0"
     inkscape:pageshadow="2"
     inkscape:window-width="1920"
     inkscape:window-height="1009"
     id="namedview4"
     showgrid="false"
     inkscape:zoom="0.36971583"
     inkscape:cx="1151.3031"
     inkscape:cy="580.30079"
     inkscape:window-x="0"
     inkscape:window-y="25"
     inkscape:window-maximized="1"
     inkscape:current-layer="svg2" />
  <metadata
     id="metadata8">
    <rdf:RDF>
      <cc:Work
         rdf:about="">
        <dc:format>image/svg+xml</dc:format>
        <dc:type
           rdf:resource="http://purl.org/dc/dcmitype/StillImage" />
        <dc:title />
      </cc:Work>
    </rdf:RDF>
  </metadata>
  <defs
     id="defs6">
    <marker
       style="overflow:visible"
       id="Arrow1Lstart"
       refX="0.0"
       refY="0.0"
       orient="auto"
       inkscape:stockid="Arrow1Lstart">
      <path
         transform="scale(0.8) translate(12.5,0)"
         style="fill-rule:evenodd;stroke:#000000;stroke-width:1.0pt;marker-start:none"
         d="M 0.0,0.0 L 5.0,-5.0 L -12.5,0.0 L 5.0,5.0 L 0.0,0.0 z "
         id="path4167" />
    </marker>
    <marker
       inkscape:stockid="Arrow1Lend"
       orient="auto"
       refY="0"
       refX="0"
       id="Arrow1Lend"
       style="overflow:visible">
      <path
         id="path6253"
         d="M 0,0 5,-5 -12.5,0 5,5 0,0 z"
         style="fill-rule:evenodd;stroke:#000000;stroke-width:1pt;marker-start:none"
         transform="matrix(-0.8,0,0,-0.8,-10,0)" />
    </marker>
    <inkscape:perspective
       sodipodi:type="inkscape:persp3d"
       inkscape:vp_x="0 : 0.5 : 1"
       inkscape:vp_y="0 : 1000 : 0"
       inkscape:vp_z="1 : 0.5 : 1"
       inkscape:persp3d-origin="0.5 : 0.33333333 : 1"
       id="perspective10" />
    <clipPath
       clipPathUnits="userSpaceOnUse"
       id="clipPath2841">
      <rect
         style="fill:#c8b7b7;fill-opacity:1;stroke:none"
         id="rect2843"
         width="2069.1567"
         height="1455.1716"
         x="-2.7047803"
         y="2.1235588" />
    </clipPath>
  </defs>
  <image
     transform="translate(27.0478,14.105122)"
     xlink:href="file:///home/marache/documentation/Th%C3%A8se/rapportBiblio/images/Bspline_data.png"
     width="4200"
     height="1460"
     id="image12"
     x="0"
     y="0"
     clip-path="url(#clipPath2841)" />
  <rect
     y="511.20343"
     x="0"
     height="427.35526"
     width="102.78164"
     id="rect3763"
     style="fill:#ffffff;fill-opacity:1;stroke:none" />
  <rect
     y="0"
     x="884.46307"
     height="67.619499"
     width="467.92694"
     id="rect3765"
     style="fill:#ffffff;fill-opacity:1;stroke:none" />
  <rect
     y="1420.0095"
     x="1014.2925"
     height="70.32428"
     width="200.15372"
     id="rect3767"
     style="fill:#ffffff;fill-opacity:1;stroke:none" />
  <rect
     y="137.94379"
     x="1522.7913"
     height="43.276482"
     width="497.67953"
     id="rect3769"
     style="fill:#ffffff;fill-opacity:1;stroke:none" />
  <g
     id="g3927"
     style="fill:#000000;fill-opacity:1"
     transform="matrix(5.4819627,0,0,5.4819627,-467.40807,704.3894)"
     ns0:preamble=""
     ns0:text="Position dans le volume">
    <defs
       id="defs3929">
      <g
         id="g3931">
        <symbol
           id="textext-f6e54f6a-0"
           overflow="visible"
           style="overflow:visible">
          <path
             id="path3934"
             d=""
             style="stroke:none" />
        </symbol>
        <symbol
           id="textext-f6e54f6a-1"
           overflow="visible"
           style="overflow:visible">
          <path
             id="path3937"
             d="m 2.265625,-3.15625 1.6875,0 c 1.1875,0 2.265625,-0.796875 2.265625,-1.796875 C 6.21875,-5.9375 5.234375,-6.8125 3.875,-6.8125 l -3.53125,0 0,0.3125 0.25,0 c 0.765625,0 0.78125,0.109375 0.78125,0.46875 l 0,5.25 c 0,0.359375 -0.015625,0.46875 -0.78125,0.46875 l -0.25,0 0,0.3125 c 0.359375,-0.03125 1.09375,-0.03125 1.46875,-0.03125 0.375,0 1.125,0 1.484375,0.03125 l 0,-0.3125 -0.25,0 c -0.765625,0 -0.78125,-0.109375 -0.78125,-0.46875 l 0,-2.375 z m -0.03125,-0.25 0,-2.6875 C 2.234375,-6.4375 2.25,-6.5 2.71875,-6.5 l 0.890625,0 c 1.578125,0 1.578125,1.0625 1.578125,1.546875 0,0.46875 0,1.546875 -1.578125,1.546875 l -1.375,0 z m 0,0"
             style="stroke:none" />
        </symbol>
        <symbol
           id="textext-f6e54f6a-2"
           overflow="visible"
           style="overflow:visible">
          <path
             id="path3940"
             d="M 4.6875,-2.140625 C 4.6875,-3.40625 3.703125,-4.46875 2.5,-4.46875 c -1.25,0 -2.21875,1.09375 -2.21875,2.328125 0,1.296875 1.03125,2.25 2.203125,2.25 1.203125,0 2.203125,-0.984375 2.203125,-2.25 z m -2.1875,2 c -0.4375,0 -0.875,-0.203125 -1.140625,-0.671875 -0.25,-0.4375 -0.25,-1.046875 -0.25,-1.40625 0,-0.390625 0,-0.921875 0.234375,-1.359375 C 1.609375,-4.03125 2.078125,-4.25 2.484375,-4.25 c 0.4375,0 0.859375,0.21875 1.125,0.65625 0.265625,0.421875 0.265625,1 0.265625,1.375 0,0.359375 0,0.90625 -0.21875,1.34375 C 3.421875,-0.421875 2.984375,-0.140625 2.5,-0.140625 z m 0,0"
             style="stroke:none" />
        </symbol>
        <symbol
           id="textext-f6e54f6a-3"
           overflow="visible"
           style="overflow:visible">
          <path
             id="path3943"
             d="m 2.078125,-1.9375 c 0.21875,0.046875 1.03125,0.203125 1.03125,0.921875 0,0.5 -0.34375,0.90625 -1.125,0.90625 -0.84375,0 -1.203125,-0.5625 -1.390625,-1.421875 C 0.5625,-1.65625 0.5625,-1.6875 0.453125,-1.6875 c -0.125,0 -0.125,0.0625 -0.125,0.234375 l 0,1.328125 c 0,0.171875 0,0.234375 0.109375,0.234375 0.046875,0 0.0625,-0.015625 0.25,-0.203125 0.015625,-0.015625 0.015625,-0.03125 0.203125,-0.21875 0.4375,0.40625 0.890625,0.421875 1.09375,0.421875 1.140625,0 1.609375,-0.671875 1.609375,-1.390625 0,-0.515625 -0.296875,-0.828125 -0.421875,-0.9375 C 2.84375,-2.546875 2.453125,-2.625 2.03125,-2.703125 1.46875,-2.8125 0.8125,-2.9375 0.8125,-3.515625 c 0,-0.359375 0.25,-0.765625 1.109375,-0.765625 1.09375,0 1.15625,0.90625 1.171875,1.203125 0,0.09375 0.09375,0.09375 0.109375,0.09375 0.140625,0 0.140625,-0.046875 0.140625,-0.234375 l 0,-1.015625 c 0,-0.15625 0,-0.234375 -0.109375,-0.234375 -0.046875,0 -0.078125,0 -0.203125,0.125 -0.03125,0.03125 -0.125,0.125 -0.171875,0.15625 -0.375,-0.28125 -0.78125,-0.28125 -0.9375,-0.28125 -1.21875,0 -1.59375,0.671875 -1.59375,1.234375 0,0.34375 0.15625,0.625 0.421875,0.84375 0.328125,0.25 0.609375,0.3125 1.328125,0.453125 z m 0,0"
             style="stroke:none" />
        </symbol>
        <symbol
           id="textext-f6e54f6a-4"
           overflow="visible"
           style="overflow:visible">
          <path
             id="path3946"
             d="M 1.765625,-4.40625 0.375,-4.296875 l 0,0.3125 c 0.640625,0 0.734375,0.0625 0.734375,0.546875 l 0,2.6875 c 0,0.4375 -0.109375,0.4375 -0.78125,0.4375 l 0,0.3125 C 0.640625,-0.015625 1.1875,-0.03125 1.421875,-0.03125 1.78125,-0.03125 2.125,-0.015625 2.46875,0 l 0,-0.3125 c -0.671875,0 -0.703125,-0.046875 -0.703125,-0.4375 l 0,-3.65625 z m 0.03125,-1.734375 c 0,-0.3125 -0.234375,-0.53125 -0.515625,-0.53125 -0.3125,0 -0.53125,0.265625 -0.53125,0.53125 0,0.265625 0.21875,0.53125 0.53125,0.53125 0.28125,0 0.515625,-0.21875 0.515625,-0.53125 z m 0,0"
             style="stroke:none" />
        </symbol>
        <symbol
           id="textext-f6e54f6a-5"
           overflow="visible"
           style="overflow:visible">
          <path
             id="path3949"
             d="m 1.71875,-3.984375 1.4375,0 0,-0.3125 -1.4375,0 0,-1.828125 -0.25,0 c 0,0.8125 -0.296875,1.875 -1.28125,1.921875 l 0,0.21875 0.84375,0 0,2.75 c 0,1.21875 0.9375,1.34375 1.296875,1.34375 0.703125,0 0.984375,-0.703125 0.984375,-1.34375 l 0,-0.5625 -0.25,0 0,0.546875 c 0,0.734375 -0.296875,1.109375 -0.671875,1.109375 -0.671875,0 -0.671875,-0.90625 -0.671875,-1.078125 l 0,-2.765625 z m 0,0"
             style="stroke:none" />
        </symbol>
        <symbol
           id="textext-f6e54f6a-6"
           overflow="visible"
           style="overflow:visible">
          <path
             id="path3952"
             d="m 1.09375,-3.421875 0,2.671875 c 0,0.4375 -0.109375,0.4375 -0.78125,0.4375 l 0,0.3125 c 0.359375,-0.015625 0.859375,-0.03125 1.140625,-0.03125 0.25,0 0.765625,0.015625 1.109375,0.03125 l 0,-0.3125 c -0.671875,0 -0.78125,0 -0.78125,-0.4375 l 0,-1.84375 C 1.78125,-3.625 2.5,-4.1875 3.125,-4.1875 c 0.640625,0 0.75,0.53125 0.75,1.109375 l 0,2.328125 c 0,0.4375 -0.109375,0.4375 -0.78125,0.4375 l 0,0.3125 c 0.34375,-0.015625 0.859375,-0.03125 1.125,-0.03125 0.25,0 0.78125,0.015625 1.109375,0.03125 l 0,-0.3125 c -0.515625,0 -0.765625,0 -0.765625,-0.296875 l 0,-1.90625 c 0,-0.859375 0,-1.15625 -0.3125,-1.515625 -0.140625,-0.171875 -0.46875,-0.375 -1.046875,-0.375 C 2.46875,-4.40625 2,-3.984375 1.71875,-3.359375 l 0,-1.046875 -1.40625,0.109375 0,0.3125 c 0.703125,0 0.78125,0.0625 0.78125,0.5625 z m 0,0"
             style="stroke:none" />
        </symbol>
        <symbol
           id="textext-f6e54f6a-7"
           overflow="visible"
           style="overflow:visible">
          <path
             id="path3955"
             d="m 3.78125,-0.546875 0,0.65625 L 5.25,0 l 0,-0.3125 c -0.6875,0 -0.78125,-0.0625 -0.78125,-0.5625 l 0,-6.046875 -1.421875,0.109375 0,0.3125 c 0.6875,0 0.765625,0.0625 0.765625,0.5625 l 0,2.15625 c -0.28125,-0.359375 -0.71875,-0.625 -1.25,-0.625 -1.171875,0 -2.21875,0.984375 -2.21875,2.265625 0,1.265625 0.96875,2.25 2.109375,2.25 0.640625,0 1.078125,-0.34375 1.328125,-0.65625 z m 0,-2.671875 0,2.046875 c 0,0.171875 0,0.1875 -0.109375,0.359375 C 3.375,-0.328125 2.9375,-0.109375 2.5,-0.109375 2.046875,-0.109375 1.6875,-0.375 1.453125,-0.75 1.203125,-1.15625 1.171875,-1.71875 1.171875,-2.140625 1.171875,-2.5 1.1875,-3.09375 1.46875,-3.546875 1.6875,-3.859375 2.0625,-4.1875 2.609375,-4.1875 c 0.34375,0 0.765625,0.15625 1.0625,0.59375 0.109375,0.171875 0.109375,0.1875 0.109375,0.375 z m 0,0"
             style="stroke:none" />
        </symbol>
        <symbol
           id="textext-f6e54f6a-8"
           overflow="visible"
           style="overflow:visible">
          <path
             id="path3958"
             d="m 3.3125,-0.75 c 0.046875,0.390625 0.3125,0.8125 0.78125,0.8125 0.21875,0 0.828125,-0.140625 0.828125,-0.953125 l 0,-0.5625 -0.25,0 0,0.5625 c 0,0.578125 -0.25,0.640625 -0.359375,0.640625 -0.328125,0 -0.375,-0.453125 -0.375,-0.5 l 0,-1.984375 c 0,-0.421875 0,-0.8125 -0.359375,-1.1875 C 3.1875,-4.3125 2.6875,-4.46875 2.21875,-4.46875 c -0.828125,0 -1.515625,0.46875 -1.515625,1.125 0,0.296875 0.203125,0.46875 0.46875,0.46875 0.28125,0 0.453125,-0.203125 0.453125,-0.453125 0,-0.125 -0.046875,-0.453125 -0.515625,-0.453125 C 1.390625,-4.140625 1.875,-4.25 2.1875,-4.25 c 0.5,0 1.0625,0.390625 1.0625,1.28125 l 0,0.359375 c -0.515625,0.03125 -1.203125,0.0625 -1.828125,0.359375 -0.75,0.34375 -1,0.859375 -1,1.296875 0,0.8125 0.96875,1.0625 1.59375,1.0625 0.65625,0 1.109375,-0.40625 1.296875,-0.859375 z M 3.25,-2.390625 l 0,1 c 0,0.9375 -0.71875,1.28125 -1.171875,1.28125 -0.484375,0 -0.890625,-0.34375 -0.890625,-0.84375 0,-0.546875 0.421875,-1.375 2.0625,-1.4375 z m 0,0"
             style="stroke:none" />
        </symbol>
        <symbol
           id="textext-f6e54f6a-9"
           overflow="visible"
           style="overflow:visible">
          <path
             id="path3961"
             d="m 1.765625,-6.921875 -1.4375,0.109375 0,0.3125 c 0.703125,0 0.78125,0.0625 0.78125,0.5625 l 0,5.1875 c 0,0.4375 -0.109375,0.4375 -0.78125,0.4375 l 0,0.3125 C 0.65625,-0.015625 1.1875,-0.03125 1.4375,-0.03125 c 0.25,0 0.734375,0.015625 1.109375,0.03125 l 0,-0.3125 c -0.671875,0 -0.78125,0 -0.78125,-0.4375 l 0,-6.171875 z m 0,0"
             style="stroke:none" />
        </symbol>
        <symbol
           id="textext-f6e54f6a-10"
           overflow="visible"
           style="overflow:visible">
          <path
             id="path3964"
             d="m 3.890625,-2.296875 c 0.21875,0 0.25,0 0.25,-0.21875 0,-0.984375 -0.546875,-1.953125 -1.78125,-1.953125 -1.15625,0 -2.078125,1.03125 -2.078125,2.28125 0,1.328125 1.046875,2.296875 2.1875,2.296875 C 3.6875,0.109375 4.140625,-1 4.140625,-1.1875 4.140625,-1.28125 4.0625,-1.3125 4,-1.3125 c -0.078125,0 -0.109375,0.0625 -0.125,0.140625 -0.34375,1.03125 -1.25,1.03125 -1.34375,1.03125 -0.5,0 -0.890625,-0.296875 -1.125,-0.671875 -0.296875,-0.46875 -0.296875,-1.125 -0.296875,-1.484375 l 2.78125,0 z m -2.78125,-0.21875 C 1.171875,-4 2.015625,-4.25 2.359375,-4.25 c 1.015625,0 1.125,1.34375 1.125,1.734375 l -2.375,0 z m 0,0"
             style="stroke:none" />
        </symbol>
        <symbol
           id="textext-f6e54f6a-11"
           overflow="visible"
           style="overflow:visible">
          <path
             id="path3967"
             d="M 4.140625,-3.3125 C 4.234375,-3.546875 4.40625,-3.984375 5.0625,-3.984375 l 0,-0.3125 c -0.234375,0.015625 -0.515625,0.03125 -0.75,0.03125 -0.234375,0 -0.6875,-0.015625 -0.859375,-0.03125 l 0,0.3125 c 0.359375,0 0.46875,0.234375 0.46875,0.421875 0,0.09375 -0.015625,0.140625 -0.046875,0.25 L 2.84375,-0.78125 1.734375,-3.5625 c -0.0625,-0.125 -0.0625,-0.140625 -0.0625,-0.171875 0,-0.25 0.390625,-0.25 0.578125,-0.25 l 0,-0.3125 c -0.3125,0.015625 -0.859375,0.03125 -1.09375,0.03125 -0.265625,0 -0.671875,-0.015625 -0.96875,-0.03125 l 0,0.3125 c 0.625,0 0.671875,0.0625 0.796875,0.359375 l 1.4375,3.546875 C 2.484375,0.0625 2.5,0.109375 2.625,0.109375 c 0.140625,0 0.171875,-0.09375 0.21875,-0.1875 L 4.140625,-3.3125 z m 0,0"
             style="stroke:none" />
        </symbol>
        <symbol
           id="textext-f6e54f6a-12"
           overflow="visible"
           style="overflow:visible">
          <path
             id="path3970"
             d="m 3.890625,-0.78125 0,0.890625 L 5.328125,0 l 0,-0.3125 C 4.640625,-0.3125 4.5625,-0.375 4.5625,-0.875 l 0,-3.53125 -1.46875,0.109375 0,0.3125 c 0.6875,0 0.78125,0.0625 0.78125,0.5625 l 0,1.765625 c 0,0.875 -0.484375,1.546875 -1.21875,1.546875 -0.828125,0 -0.875,-0.46875 -0.875,-0.984375 l 0,-3.3125 -1.46875,0.109375 0,0.3125 c 0.78125,0 0.78125,0.03125 0.78125,0.90625 l 0,1.5 c 0,0.78125 0,1.6875 1.515625,1.6875 0.5625,0 1,-0.28125 1.28125,-0.890625 z m 0,0"
             style="stroke:none" />
        </symbol>
        <symbol
           id="textext-f6e54f6a-13"
           overflow="visible"
           style="overflow:visible">
          <path
             id="path3973"
             d="m 1.09375,-3.421875 0,2.671875 c 0,0.4375 -0.109375,0.4375 -0.78125,0.4375 l 0,0.3125 c 0.359375,-0.015625 0.859375,-0.03125 1.140625,-0.03125 0.25,0 0.765625,0.015625 1.109375,0.03125 l 0,-0.3125 c -0.671875,0 -0.78125,0 -0.78125,-0.4375 l 0,-1.84375 C 1.78125,-3.625 2.5,-4.1875 3.125,-4.1875 c 0.640625,0 0.75,0.53125 0.75,1.109375 l 0,2.328125 c 0,0.4375 -0.109375,0.4375 -0.78125,0.4375 l 0,0.3125 c 0.34375,-0.015625 0.859375,-0.03125 1.125,-0.03125 0.25,0 0.78125,0.015625 1.109375,0.03125 l 0,-0.3125 c -0.65625,0 -0.765625,0 -0.765625,-0.4375 l 0,-1.84375 c 0,-1.03125 0.703125,-1.59375 1.34375,-1.59375 0.625,0 0.734375,0.53125 0.734375,1.109375 l 0,2.328125 c 0,0.4375 -0.109375,0.4375 -0.78125,0.4375 l 0,0.3125 c 0.34375,-0.015625 0.859375,-0.03125 1.125,-0.03125 0.265625,0 0.78125,0.015625 1.125,0.03125 l 0,-0.3125 c -0.515625,0 -0.765625,0 -0.78125,-0.296875 l 0,-1.90625 c 0,-0.859375 0,-1.15625 -0.3125,-1.515625 -0.140625,-0.171875 -0.46875,-0.375 -1.046875,-0.375 -0.828125,0 -1.28125,0.59375 -1.4375,0.984375 C 4.390625,-4.296875 3.65625,-4.40625 3.203125,-4.40625 2.46875,-4.40625 2,-3.984375 1.71875,-3.359375 l 0,-1.046875 -1.40625,0.109375 0,0.3125 c 0.703125,0 0.78125,0.0625 0.78125,0.5625 z m 0,0"
             style="stroke:none" />
        </symbol>
      </g>
    </defs>
    <g
       id="textext-f6e54f6a-14">
      <g
         id="g3976"
         style="fill:#000000;fill-opacity:1">
        <use
           id="use3978"
           y="134.765"
           x="223.43201"
           xlink:href="#textext-f6e54f6a-1"
           width="4200"
           height="1460" />
      </g>
      <g
         id="g3980"
         style="fill:#000000;fill-opacity:1">
        <use
           id="use3982"
           y="134.765"
           x="229.93359"
           xlink:href="#textext-f6e54f6a-2"
           width="4200"
           height="1460" />
        <use
           id="use3984"
           y="134.765"
           x="234.91489"
           xlink:href="#textext-f6e54f6a-3"
           width="4200"
           height="1460" />
        <use
           id="use3986"
           y="134.765"
           x="238.84415"
           xlink:href="#textext-f6e54f6a-4"
           width="4200"
           height="1460" />
        <use
           id="use3988"
           y="134.765"
           x="241.61176"
           xlink:href="#textext-f6e54f6a-5"
           width="4200"
           height="1460" />
        <use
           id="use3990"
           y="134.765"
           x="245.48621"
           xlink:href="#textext-f6e54f6a-4"
           width="4200"
           height="1460" />
        <use
           id="use3992"
           y="134.765"
           x="248.25381"
           xlink:href="#textext-f6e54f6a-2"
           width="4200"
           height="1460" />
        <use
           id="use3994"
           y="134.765"
           x="253.23512"
           xlink:href="#textext-f6e54f6a-6"
           width="4200"
           height="1460" />
      </g>
      <g
         id="g3996"
         style="fill:#000000;fill-opacity:1">
        <use
           id="use3998"
           y="134.765"
           x="262.08789"
           xlink:href="#textext-f6e54f6a-7"
           width="4200"
           height="1460" />
        <use
           id="use4000"
           y="134.765"
           x="267.62311"
           xlink:href="#textext-f6e54f6a-8"
           width="4200"
           height="1460" />
        <use
           id="use4002"
           y="134.765"
           x="272.6044"
           xlink:href="#textext-f6e54f6a-6"
           width="4200"
           height="1460" />
        <use
           id="use4004"
           y="134.765"
           x="278.13962"
           xlink:href="#textext-f6e54f6a-3"
           width="4200"
           height="1460" />
      </g>
      <g
         id="g4006"
         style="fill:#000000;fill-opacity:1">
        <use
           id="use4008"
           y="134.765"
           x="285.39639"
           xlink:href="#textext-f6e54f6a-9"
           width="4200"
           height="1460" />
        <use
           id="use4010"
           y="134.765"
           x="288.164"
           xlink:href="#textext-f6e54f6a-10"
           width="4200"
           height="1460" />
      </g>
      <g
         id="g4012"
         style="fill:#000000;fill-opacity:1">
        <use
           id="use4014"
           y="134.765"
           x="295.90891"
           xlink:href="#textext-f6e54f6a-11"
           width="4200"
           height="1460" />
      </g>
      <g
         id="g4016"
         style="fill:#000000;fill-opacity:1">
        <use
           id="use4018"
           y="134.765"
           x="300.88821"
           xlink:href="#textext-f6e54f6a-2"
           width="4200"
           height="1460" />
        <use
           id="use4020"
           y="134.765"
           x="305.86954"
           xlink:href="#textext-f6e54f6a-9"
           width="4200"
           height="1460" />
        <use
           id="use4022"
           y="134.765"
           x="308.63715"
           xlink:href="#textext-f6e54f6a-12"
           width="4200"
           height="1460" />
        <use
           id="use4024"
           y="134.765"
           x="314.17236"
           xlink:href="#textext-f6e54f6a-13"
           width="4200"
           height="1460" />
        <use
           id="use4026"
           y="134.765"
           x="322.47418"
           xlink:href="#textext-f6e54f6a-10"
           width="4200"
           height="1460" />
      </g>
    </g>
  </g>
  <g
     ns0:text="D\\\'eplacement"
     ns0:preamble=""
     transform="matrix(0,-5.4819627,5.4819627,0,-642.17469,2201.4726)"
     style="fill:#000000;fill-opacity:1"
     id="g4214">
    <defs
       id="defs4216">
      <g
         id="g4218">
        <symbol
           style="overflow:visible"
           overflow="visible"
           id="textext-057a78ff-0">
          <path
             style="stroke:none"
             d=""
             id="path4221" />
        </symbol>
        <symbol
           style="overflow:visible"
           overflow="visible"
           id="textext-057a78ff-1">
          <path
             style="stroke:none"
             d="m 0.34375,-6.8125 0,0.3125 0.25,0 c 0.765625,0 0.78125,0.109375 0.78125,0.46875 l 0,5.25 c 0,0.359375 -0.015625,0.46875 -0.78125,0.46875 l -0.25,0 0,0.3125 L 4,0 C 5.671875,0 7.046875,-1.46875 7.046875,-3.34375 7.046875,-5.25 5.703125,-6.8125 4,-6.8125 l -3.65625,0 z m 2.375,6.5 C 2.25,-0.3125 2.234375,-0.375 2.234375,-0.703125 l 0,-5.390625 C 2.234375,-6.4375 2.25,-6.5 2.71875,-6.5 l 1,0 c 0.625,0 1.3125,0.21875 1.8125,0.921875 0.4375,0.59375 0.515625,1.453125 0.515625,2.234375 0,1.09375 -0.1875,1.703125 -0.546875,2.1875 -0.203125,0.265625 -0.765625,0.84375 -1.765625,0.84375 l -1.015625,0 z m 0,0"
             id="path4224" />
        </symbol>
        <symbol
           style="overflow:visible"
           overflow="visible"
           id="textext-057a78ff-2">
          <path
             style="stroke:none"
             d="M 3.734375,-6.296875 C 3.828125,-6.375 3.90625,-6.484375 3.90625,-6.59375 c 0,-0.1875 -0.171875,-0.359375 -0.359375,-0.359375 -0.140625,0 -0.25,0.109375 -0.296875,0.171875 l -1.203125,1.515625 0.171875,0.1875 1.515625,-1.21875 z m 0,0"
             id="path4227" />
        </symbol>
        <symbol
           style="overflow:visible"
           overflow="visible"
           id="textext-057a78ff-3">
          <path
             style="stroke:none"
             d="m 3.890625,-2.296875 c 0.21875,0 0.25,0 0.25,-0.21875 0,-0.984375 -0.546875,-1.953125 -1.78125,-1.953125 -1.15625,0 -2.078125,1.03125 -2.078125,2.28125 0,1.328125 1.046875,2.296875 2.1875,2.296875 C 3.6875,0.109375 4.140625,-1 4.140625,-1.1875 4.140625,-1.28125 4.0625,-1.3125 4,-1.3125 c -0.078125,0 -0.109375,0.0625 -0.125,0.140625 -0.34375,1.03125 -1.25,1.03125 -1.34375,1.03125 -0.5,0 -0.890625,-0.296875 -1.125,-0.671875 -0.296875,-0.46875 -0.296875,-1.125 -0.296875,-1.484375 l 2.78125,0 z m -2.78125,-0.21875 C 1.171875,-4 2.015625,-4.25 2.359375,-4.25 c 1.015625,0 1.125,1.34375 1.125,1.734375 l -2.375,0 z m 0,0"
             id="path4230" />
        </symbol>
        <symbol
           style="overflow:visible"
           overflow="visible"
           id="textext-057a78ff-4">
          <path
             style="stroke:none"
             d="M 1.75,-3.359375 C 2.03125,-3.875 2.515625,-4.15625 3.03125,-4.15625 c 0.734375,0 1.328125,0.875 1.328125,2 0,1.203125 -0.6875,2.046875 -1.421875,2.046875 -0.40625,0 -0.78125,-0.203125 -1.046875,-0.609375 C 1.75,-0.921875 1.75,-0.9375 1.75,-1.140625 l 0,-2.21875 z m 0,2.765625 c 0.046875,0.171875 0.46875,0.703125 1.21875,0.703125 1.1875,0 2.21875,-0.984375 2.21875,-2.265625 0,-1.265625 -0.953125,-2.25 -2.078125,-2.25 -0.78125,0 -1.203125,0.4375 -1.390625,0.65625 l 0,-0.65625 -1.4375,0.109375 0,0.3125 c 0.703125,0 0.78125,0.0625 0.78125,0.5 l 0,4.65625 C 1.0625,1.625 0.953125,1.625 0.28125,1.625 l 0,0.3125 C 0.625,1.921875 1.140625,1.90625 1.390625,1.90625 c 0.28125,0 0.78125,0.015625 1.125,0.03125 l 0,-0.3125 C 1.859375,1.625 1.75,1.625 1.75,1.171875 l 0,-1.671875 0,-0.09375 z m 0,0"
             id="path4233" />
        </symbol>
        <symbol
           style="overflow:visible"
           overflow="visible"
           id="textext-057a78ff-5">
          <path
             style="stroke:none"
             d="m 1.765625,-6.921875 -1.4375,0.109375 0,0.3125 c 0.703125,0 0.78125,0.0625 0.78125,0.5625 l 0,5.1875 c 0,0.4375 -0.109375,0.4375 -0.78125,0.4375 l 0,0.3125 C 0.65625,-0.015625 1.1875,-0.03125 1.4375,-0.03125 c 0.25,0 0.734375,0.015625 1.109375,0.03125 l 0,-0.3125 c -0.671875,0 -0.78125,0 -0.78125,-0.4375 l 0,-6.171875 z m 0,0"
             id="path4236" />
        </symbol>
        <symbol
           style="overflow:visible"
           overflow="visible"
           id="textext-057a78ff-6">
          <path
             style="stroke:none"
             d="m 3.3125,-0.75 c 0.046875,0.390625 0.3125,0.8125 0.78125,0.8125 0.21875,0 0.828125,-0.140625 0.828125,-0.953125 l 0,-0.5625 -0.25,0 0,0.5625 c 0,0.578125 -0.25,0.640625 -0.359375,0.640625 -0.328125,0 -0.375,-0.453125 -0.375,-0.5 l 0,-1.984375 c 0,-0.421875 0,-0.8125 -0.359375,-1.1875 C 3.1875,-4.3125 2.6875,-4.46875 2.21875,-4.46875 c -0.828125,0 -1.515625,0.46875 -1.515625,1.125 0,0.296875 0.203125,0.46875 0.46875,0.46875 0.28125,0 0.453125,-0.203125 0.453125,-0.453125 0,-0.125 -0.046875,-0.453125 -0.515625,-0.453125 C 1.390625,-4.140625 1.875,-4.25 2.1875,-4.25 c 0.5,0 1.0625,0.390625 1.0625,1.28125 l 0,0.359375 c -0.515625,0.03125 -1.203125,0.0625 -1.828125,0.359375 -0.75,0.34375 -1,0.859375 -1,1.296875 0,0.8125 0.96875,1.0625 1.59375,1.0625 0.65625,0 1.109375,-0.40625 1.296875,-0.859375 z M 3.25,-2.390625 l 0,1 c 0,0.9375 -0.71875,1.28125 -1.171875,1.28125 -0.484375,0 -0.890625,-0.34375 -0.890625,-0.84375 0,-0.546875 0.421875,-1.375 2.0625,-1.4375 z m 0,0"
             id="path4239" />
        </symbol>
        <symbol
           style="overflow:visible"
           overflow="visible"
           id="textext-057a78ff-7">
          <path
             style="stroke:none"
             d="m 3.578125,-3.84375 c -0.40625,0.03125 -0.46875,0.328125 -0.46875,0.453125 0,0.265625 0.1875,0.453125 0.453125,0.453125 0.265625,0 0.46875,-0.15625 0.46875,-0.46875 0,-0.671875 -0.765625,-1.0625 -1.53125,-1.0625 -1.25,0 -2.15625,1.078125 -2.15625,2.3125 0,1.28125 0.984375,2.265625 2.140625,2.265625 1.328125,0 1.65625,-1.203125 1.65625,-1.296875 0,-0.09375 -0.109375,-0.09375 -0.140625,-0.09375 -0.078125,0 -0.109375,0.03125 -0.125,0.09375 -0.28125,0.921875 -0.9375,1.046875 -1.296875,1.046875 -0.53125,0 -1.40625,-0.421875 -1.40625,-2.03125 0,-1.625 0.8125,-2.046875 1.34375,-2.046875 0.09375,0 0.71875,0.015625 1.0625,0.375 z m 0,0"
             id="path4242" />
        </symbol>
        <symbol
           style="overflow:visible"
           overflow="visible"
           id="textext-057a78ff-8">
          <path
             style="stroke:none"
             d="m 1.09375,-3.421875 0,2.671875 c 0,0.4375 -0.109375,0.4375 -0.78125,0.4375 l 0,0.3125 c 0.359375,-0.015625 0.859375,-0.03125 1.140625,-0.03125 0.25,0 0.765625,0.015625 1.109375,0.03125 l 0,-0.3125 c -0.671875,0 -0.78125,0 -0.78125,-0.4375 l 0,-1.84375 C 1.78125,-3.625 2.5,-4.1875 3.125,-4.1875 c 0.640625,0 0.75,0.53125 0.75,1.109375 l 0,2.328125 c 0,0.4375 -0.109375,0.4375 -0.78125,0.4375 l 0,0.3125 c 0.34375,-0.015625 0.859375,-0.03125 1.125,-0.03125 0.25,0 0.78125,0.015625 1.109375,0.03125 l 0,-0.3125 c -0.65625,0 -0.765625,0 -0.765625,-0.4375 l 0,-1.84375 c 0,-1.03125 0.703125,-1.59375 1.34375,-1.59375 0.625,0 0.734375,0.53125 0.734375,1.109375 l 0,2.328125 c 0,0.4375 -0.109375,0.4375 -0.78125,0.4375 l 0,0.3125 c 0.34375,-0.015625 0.859375,-0.03125 1.125,-0.03125 0.265625,0 0.78125,0.015625 1.125,0.03125 l 0,-0.3125 c -0.515625,0 -0.765625,0 -0.78125,-0.296875 l 0,-1.90625 c 0,-0.859375 0,-1.15625 -0.3125,-1.515625 -0.140625,-0.171875 -0.46875,-0.375 -1.046875,-0.375 -0.828125,0 -1.28125,0.59375 -1.4375,0.984375 C 4.390625,-4.296875 3.65625,-4.40625 3.203125,-4.40625 2.46875,-4.40625 2,-3.984375 1.71875,-3.359375 l 0,-1.046875 -1.40625,0.109375 0,0.3125 c 0.703125,0 0.78125,0.0625 0.78125,0.5625 z m 0,0"
             id="path4245" />
        </symbol>
        <symbol
           style="overflow:visible"
           overflow="visible"
           id="textext-057a78ff-9">
          <path
             style="stroke:none"
             d="m 1.09375,-3.421875 0,2.671875 c 0,0.4375 -0.109375,0.4375 -0.78125,0.4375 l 0,0.3125 c 0.359375,-0.015625 0.859375,-0.03125 1.140625,-0.03125 0.25,0 0.765625,0.015625 1.109375,0.03125 l 0,-0.3125 c -0.671875,0 -0.78125,0 -0.78125,-0.4375 l 0,-1.84375 C 1.78125,-3.625 2.5,-4.1875 3.125,-4.1875 c 0.640625,0 0.75,0.53125 0.75,1.109375 l 0,2.328125 c 0,0.4375 -0.109375,0.4375 -0.78125,0.4375 l 0,0.3125 c 0.34375,-0.015625 0.859375,-0.03125 1.125,-0.03125 0.25,0 0.78125,0.015625 1.109375,0.03125 l 0,-0.3125 c -0.515625,0 -0.765625,0 -0.765625,-0.296875 l 0,-1.90625 c 0,-0.859375 0,-1.15625 -0.3125,-1.515625 -0.140625,-0.171875 -0.46875,-0.375 -1.046875,-0.375 C 2.46875,-4.40625 2,-3.984375 1.71875,-3.359375 l 0,-1.046875 -1.40625,0.109375 0,0.3125 c 0.703125,0 0.78125,0.0625 0.78125,0.5625 z m 0,0"
             id="path4248" />
        </symbol>
        <symbol
           style="overflow:visible"
           overflow="visible"
           id="textext-057a78ff-10">
          <path
             style="stroke:none"
             d="m 1.71875,-3.984375 1.4375,0 0,-0.3125 -1.4375,0 0,-1.828125 -0.25,0 c 0,0.8125 -0.296875,1.875 -1.28125,1.921875 l 0,0.21875 0.84375,0 0,2.75 c 0,1.21875 0.9375,1.34375 1.296875,1.34375 0.703125,0 0.984375,-0.703125 0.984375,-1.34375 l 0,-0.5625 -0.25,0 0,0.546875 c 0,0.734375 -0.296875,1.109375 -0.671875,1.109375 -0.671875,0 -0.671875,-0.90625 -0.671875,-1.078125 l 0,-2.765625 z m 0,0"
             id="path4251" />
        </symbol>
      </g>
    </defs>
    <g
       id="textext-057a78ff-11">
      <g
         style="fill:#000000;fill-opacity:1"
         id="g4254">
        <use
           height="1460"
           width="4200"
           xlink:href="#textext-057a78ff-1"
           x="223.43201"
           y="134.765"
           id="use4256" />
      </g>
      <g
         style="fill:#000000;fill-opacity:1"
         id="g4258">
        <use
           height="1460"
           width="4200"
           xlink:href="#textext-057a78ff-2"
           x="230.76347"
           y="134.765"
           id="use4260" />
      </g>
      <g
         style="fill:#000000;fill-opacity:1"
         id="g4262">
        <use
           height="1460"
           width="4200"
           xlink:href="#textext-057a78ff-3"
           x="231.04243"
           y="134.765"
           id="use4264" />
        <use
           height="1460"
           width="4200"
           xlink:href="#textext-057a78ff-4"
           x="235.4698"
           y="134.765"
           id="use4266" />
        <use
           height="1460"
           width="4200"
           xlink:href="#textext-057a78ff-5"
           x="241.00504"
           y="134.765"
           id="use4268" />
        <use
           height="1460"
           width="4200"
           xlink:href="#textext-057a78ff-6"
           x="243.77264"
           y="134.765"
           id="use4270" />
        <use
           height="1460"
           width="4200"
           xlink:href="#textext-057a78ff-7"
           x="248.75394"
           y="134.765"
           id="use4272" />
        <use
           height="1460"
           width="4200"
           xlink:href="#textext-057a78ff-3"
           x="253.18132"
           y="134.765"
           id="use4274" />
        <use
           height="1460"
           width="4200"
           xlink:href="#textext-057a78ff-8"
           x="257.6087"
           y="134.765"
           id="use4276" />
        <use
           height="1460"
           width="4200"
           xlink:href="#textext-057a78ff-3"
           x="265.91052"
           y="134.765"
           id="use4278" />
        <use
           height="1460"
           width="4200"
           xlink:href="#textext-057a78ff-9"
           x="270.33792"
           y="134.765"
           id="use4280" />
      </g>
      <g
         style="fill:#000000;fill-opacity:1"
         id="g4282">
        <use
           height="1460"
           width="4200"
           xlink:href="#textext-057a78ff-10"
           x="275.59418"
           y="134.765"
           id="use4284" />
      </g>
    </g>
  </g>
  <g
     id="g5981"
     transform="matrix(8.8884308,0,0,8.8884308,-2017.2772,-491.73743)"
     ns0:preamble=""
     ns0:text="$$c_4\\beta^n\\left(\\frac{x}{h}-4\\right)$$">
    <defs
       id="defs5983">
      <g
         id="g5985">
        <symbol
           id="textext-8bc21bd9-0"
           overflow="visible"
           style="overflow:visible">
          <path
             id="path5988"
             d=""
             style="stroke:none" />
        </symbol>
        <symbol
           id="textext-8bc21bd9-1"
           overflow="visible"
           style="overflow:visible">
          <path
             id="path5991"
             d="m 3.953125,-3.78125 c -0.171875,0 -0.296875,0 -0.4375,0.125 -0.171875,0.15625 -0.1875,0.328125 -0.1875,0.390625 0,0.25 0.1875,0.359375 0.375,0.359375 0.28125,0 0.546875,-0.25 0.546875,-0.640625 0,-0.484375 -0.46875,-0.859375 -1.171875,-0.859375 -1.34375,0 -2.671875,1.421875 -2.671875,2.828125 0,0.90625 0.578125,1.6875 1.625,1.6875 1.421875,0 2.25,-1.0625 2.25,-1.171875 0,-0.0625 -0.046875,-0.140625 -0.109375,-0.140625 -0.0625,0 -0.078125,0.03125 -0.140625,0.109375 -0.78125,0.984375 -1.875,0.984375 -1.984375,0.984375 -0.625,0 -0.90625,-0.484375 -0.90625,-1.09375 0,-0.40625 0.203125,-1.375 0.546875,-1.984375 0.3125,-0.578125 0.859375,-1 1.40625,-1 0.328125,0 0.71875,0.125 0.859375,0.40625 z m 0,0"
             style="stroke:none" />
        </symbol>
        <symbol
           id="textext-8bc21bd9-2"
           overflow="visible"
           style="overflow:visible">
          <path
             id="path5994"
             d="M 0.28125,1.6875 C 0.265625,1.71875 0.25,1.78125 0.25,1.828125 0.25,1.9375 0.34375,1.9375 0.375,1.9375 0.421875,1.9375 0.4375,1.921875 0.46875,1.890625 0.515625,1.84375 0.796875,0.5625 1.21875,-1.046875 1.375,-0.46875 1.890625,0.125 2.828125,0.125 c 1.3125,0 2.640625,-1.34375 2.640625,-2.75 0,-0.71875 -0.3125,-1.15625 -0.65625,-1.390625 C 5.5,-4.4375 5.875,-5.140625 5.875,-5.75 c 0,-0.65625 -0.453125,-1.28125 -1.328125,-1.28125 -1.296875,0 -2.421875,1.375 -2.75,2.671875 L 0.28125,1.6875 z M 3.265625,-4 C 3.375,-4.046875 3.4375,-4.078125 3.78125,-4.078125 c 0.140625,0 0.265625,0 0.390625,0.0625 C 4,-3.9375 3.78125,-3.9375 3.703125,-3.9375 c -0.25,0 -0.265625,0 -0.4375,-0.0625 z m 1.21875,-0.203125 c -0.28125,-0.09375 -0.59375,-0.09375 -0.6875,-0.09375 -0.234375,0 -0.78125,0 -0.78125,0.3125 0,0.265625 0.4375,0.265625 0.6875,0.265625 0.140625,0 0.421875,0 0.75,-0.125 C 4.671875,-3.625 4.75,-3.328125 4.75,-3.015625 c 0,0.40625 -0.203125,1.34375 -0.5,1.890625 -0.21875,0.421875 -0.734375,1.03125 -1.453125,1.03125 -0.890625,0 -1.390625,-0.65625 -1.390625,-1.46875 0,-0.234375 0.046875,-0.375 0.125,-0.734375 C 1.625,-2.671875 1.9375,-3.921875 2,-4.140625 2.46875,-5.984375 3.65625,-6.8125 4.53125,-6.8125 4.828125,-6.8125 5.25,-6.65625 5.25,-6 c 0,0.234375 -0.109375,1.3125 -0.765625,1.796875 z m 0,0"
             style="stroke:none" />
        </symbol>
        <symbol
           id="textext-8bc21bd9-3"
           overflow="visible"
           style="overflow:visible">
          <path
             id="path5997"
             d="M 3.328125,-3.015625 C 3.390625,-3.265625 3.625,-4.1875 4.3125,-4.1875 c 0.046875,0 0.296875,0 0.5,0.125 C 4.53125,-4 4.34375,-3.765625 4.34375,-3.515625 c 0,0.15625 0.109375,0.34375 0.375,0.34375 0.21875,0 0.53125,-0.171875 0.53125,-0.578125 0,-0.515625 -0.578125,-0.65625 -0.921875,-0.65625 -0.578125,0 -0.921875,0.53125 -1.046875,0.75 -0.25,-0.65625 -0.78125,-0.75 -1.078125,-0.75 -1.03125,0 -1.609375,1.28125 -1.609375,1.53125 0,0.109375 0.109375,0.109375 0.125,0.109375 0.078125,0 0.109375,-0.03125 0.125,-0.109375 0.34375,-1.0625 1,-1.3125 1.34375,-1.3125 0.1875,0 0.53125,0.09375 0.53125,0.671875 0,0.3125 -0.171875,0.96875 -0.53125,2.375 -0.15625,0.609375 -0.515625,1.03125 -0.953125,1.03125 -0.0625,0 -0.28125,0 -0.5,-0.125 0.25,-0.0625 0.46875,-0.265625 0.46875,-0.546875 0,-0.265625 -0.21875,-0.34375 -0.359375,-0.34375 -0.3125,0 -0.546875,0.25 -0.546875,0.578125 0,0.453125 0.484375,0.65625 0.921875,0.65625 0.671875,0 1.03125,-0.703125 1.046875,-0.75 0.125,0.359375 0.484375,0.75 1.078125,0.75 1.03125,0 1.59375,-1.28125 1.59375,-1.53125 0,-0.109375 -0.078125,-0.109375 -0.109375,-0.109375 -0.09375,0 -0.109375,0.046875 -0.140625,0.109375 -0.328125,1.078125 -1,1.3125 -1.3125,1.3125 -0.390625,0 -0.546875,-0.3125 -0.546875,-0.65625 0,-0.21875 0.046875,-0.4375 0.15625,-0.875 l 0.34375,-1.375 z m 0,0"
             style="stroke:none" />
        </symbol>
        <symbol
           id="textext-8bc21bd9-4"
           overflow="visible"
           style="overflow:visible">
          <path
             id="path6000"
             d="m 2.859375,-6.8125 c 0,0 0,-0.109375 -0.125,-0.109375 -0.234375,0 -0.953125,0.078125 -1.21875,0.109375 -0.078125,0 -0.1875,0.015625 -0.1875,0.1875 0,0.125 0.09375,0.125 0.234375,0.125 0.484375,0 0.5,0.0625 0.5,0.171875 L 2.03125,-6.125 0.59375,-0.390625 c -0.046875,0.140625 -0.046875,0.15625 -0.046875,0.21875 0,0.234375 0.203125,0.28125 0.296875,0.28125 0.15625,0 0.3125,-0.125 0.359375,-0.265625 l 0.1875,-0.75 C 1.46875,-1.203125 1.546875,-1.5 1.609375,-1.796875 1.671875,-2.03125 1.734375,-2.25 1.78125,-2.46875 1.796875,-2.53125 1.890625,-2.859375 1.890625,-2.921875 1.921875,-3.015625 2.234375,-3.5625 2.578125,-3.84375 2.796875,-4 3.09375,-4.1875 3.53125,-4.1875 c 0.421875,0 0.53125,0.34375 0.53125,0.703125 0,0.53125 -0.375,1.625 -0.609375,2.234375 C 3.375,-1.03125 3.3125,-0.90625 3.3125,-0.703125 c 0,0.46875 0.359375,0.8125 0.828125,0.8125 0.9375,0 1.296875,-1.453125 1.296875,-1.53125 0,-0.109375 -0.078125,-0.109375 -0.109375,-0.109375 -0.109375,0 -0.109375,0.03125 -0.15625,0.1875 -0.140625,0.53125 -0.46875,1.234375 -1.015625,1.234375 -0.171875,0 -0.234375,-0.09375 -0.234375,-0.328125 0,-0.25 0.078125,-0.484375 0.171875,-0.703125 0.15625,-0.4375 0.609375,-1.625 0.609375,-2.203125 0,-0.640625 -0.390625,-1.0625 -1.140625,-1.0625 -0.625,0 -1.109375,0.3125 -1.484375,0.765625 L 2.859375,-6.8125 z m 0,0"
             style="stroke:none" />
        </symbol>
        <symbol
           id="textext-8bc21bd9-5"
           overflow="visible"
           style="overflow:visible">
          <path
             id="path6003"
             d=""
             style="stroke:none" />
        </symbol>
        <symbol
           id="textext-8bc21bd9-6"
           overflow="visible"
           style="overflow:visible">
          <path
             id="path6006"
             d="m 3.6875,-1.140625 0,-0.25 -0.78125,0 0,-3.109375 c 0,-0.140625 0,-0.203125 -0.140625,-0.203125 -0.09375,0 -0.125,0 -0.1875,0.109375 l -2.3125,3.203125 0,0.25 2.0625,0 0,0.5625 c 0,0.25 0,0.328125 -0.578125,0.328125 l -0.1875,0 0,0.25 C 1.921875,-0.015625 2.359375,-0.03125 2.609375,-0.03125 2.875,-0.03125 3.3125,-0.015625 3.671875,0 l 0,-0.25 -0.1875,0 C 2.90625,-0.25 2.90625,-0.328125 2.90625,-0.578125 l 0,-0.5625 0.78125,0 z M 2.375,-3.9375 l 0,2.546875 -1.84375,0 L 2.375,-3.9375 z m 0,0"
             style="stroke:none" />
        </symbol>
        <symbol
           id="textext-8bc21bd9-7"
           overflow="visible"
           style="overflow:visible">
          <path
             id="path6009"
             d=""
             style="stroke:none" />
        </symbol>
        <symbol
           id="textext-8bc21bd9-8"
           overflow="visible"
           style="overflow:visible">
          <path
             id="path6012"
             d="m 0.84375,-0.4375 c -0.015625,0.09375 -0.0625,0.265625 -0.0625,0.28125 0,0.15625 0.125,0.21875 0.234375,0.21875 0.125,0 0.234375,-0.078125 0.28125,-0.140625 0.03125,-0.0625 0.078125,-0.296875 0.125,-0.4375 0.03125,-0.125 0.109375,-0.453125 0.140625,-0.625 0.046875,-0.15625 0.09375,-0.3125 0.125,-0.46875 0.078125,-0.28125 0.09375,-0.34375 0.296875,-0.625 C 2.171875,-2.515625 2.5,-2.875 3.03125,-2.875 c 0.390625,0 0.40625,0.359375 0.40625,0.484375 0,0.421875 -0.296875,1.1875 -0.40625,1.484375 -0.078125,0.203125 -0.109375,0.265625 -0.109375,0.375 0,0.375 0.296875,0.59375 0.65625,0.59375 0.703125,0 1,-0.953125 1,-1.0625 0,-0.09375 -0.078125,-0.09375 -0.109375,-0.09375 -0.09375,0 -0.09375,0.046875 -0.125,0.125 C 4.1875,-0.40625 3.875,-0.125 3.609375,-0.125 c -0.15625,0 -0.1875,-0.09375 -0.1875,-0.25 0,-0.15625 0.046875,-0.25 0.171875,-0.5625 0.078125,-0.21875 0.359375,-0.953125 0.359375,-1.34375 0,-0.671875 -0.53125,-0.796875 -0.90625,-0.796875 -0.578125,0 -0.96875,0.359375 -1.171875,0.640625 -0.046875,-0.484375 -0.453125,-0.640625 -0.75,-0.640625 -0.296875,0 -0.453125,0.21875 -0.546875,0.375 -0.15625,0.265625 -0.25,0.65625 -0.25,0.703125 0,0.078125 0.09375,0.078125 0.125,0.078125 0.09375,0 0.09375,-0.015625 0.140625,-0.203125 0.109375,-0.40625 0.25,-0.75 0.515625,-0.75 0.1875,0 0.234375,0.15625 0.234375,0.34375 0,0.125 -0.0625,0.390625 -0.125,0.578125 -0.046875,0.1875 -0.109375,0.46875 -0.140625,0.625 L 0.84375,-0.4375 z m 0,0"
             style="stroke:none" />
        </symbol>
        <symbol
           id="textext-8bc21bd9-9"
           overflow="visible"
           style="overflow:visible">
          <path
             id="path6015"
             d=""
             style="stroke:none" />
        </symbol>
        <symbol
           id="textext-8bc21bd9-10"
           overflow="visible"
           style="overflow:visible">
          <path
             id="path6018"
             d="M 5.140625,17.421875 C 5.15625,17.4375 5.25,17.53125 5.25,17.53125 l 0.21875,0 c 0.03125,0 0.109375,0 0.109375,-0.09375 0,-0.04687 -0.015625,-0.0625 -0.03125,-0.09375 -0.359375,-0.359375 -0.90625,-0.90625 -1.515625,-2 -1.078125,-1.921875 -1.484375,-4.375 -1.484375,-6.765625 0,-4.4375 1.265625,-7.03125 3,-8.796875 0.03125,-0.03125 0.03125,-0.0625 0.03125,-0.078125 0,-0.109375 -0.0625,-0.109375 -0.1875,-0.109375 -0.125,0 -0.140625,0 -0.234375,0.09375 C 4.203125,0.5 3.140625,1.890625 2.453125,3.984375 2.03125,5.296875 1.796875,6.90625 1.796875,8.5625 c 0,2.359375 0.421875,5.03125 1.984375,7.34375 0.28125,0.390625 0.640625,0.796875 0.640625,0.8125 C 4.53125,16.84375 4.671875,17 4.75,17.0625 l 0.390625,0.359375 z m 0,0"
             style="stroke:none" />
        </symbol>
        <symbol
           id="textext-8bc21bd9-11"
           overflow="visible"
           style="overflow:visible">
          <path
             id="path6021"
             d="m 4.140625,8.5625 c 0,-2.859375 -0.65625,-5.90625 -2.625,-8.140625 C 1.375,0.265625 1,-0.125 0.765625,-0.34375 c -0.0625,-0.0625 -0.09375,-0.0625 -0.21875,-0.0625 -0.09375,0 -0.1875,0 -0.1875,0.109375 0,0.03125 0.046875,0.078125 0.0625,0.09375 0.328125,0.359375 0.875,0.90625 1.484375,2 1.078125,1.90625 1.484375,4.375 1.484375,6.765625 0,4.328125 -1.203125,6.96875 -2.984375,8.796875 C 0.375,17.375 0.359375,17.40625 0.359375,17.4375 c 0,0.09375 0.09375,0.09375 0.1875,0.09375 0.125,0 0.15625,0 0.234375,-0.07813 0.953125,-0.8125 2.015625,-2.203125 2.703125,-4.296875 0.4375,-1.375 0.65625,-2.984375 0.65625,-4.59375 z m 0,0"
             style="stroke:none" />
        </symbol>
        <symbol
           id="textext-8bc21bd9-12"
           overflow="visible"
           style="overflow:visible">
          <path
             id="path6024"
             d=""
             style="stroke:none" />
        </symbol>
        <symbol
           id="textext-8bc21bd9-13"
           overflow="visible"
           style="overflow:visible">
          <path
             id="path6027"
             d="m 6.59375,-2.296875 c 0.140625,0 0.328125,0 0.328125,-0.203125 0,-0.1875 -0.1875,-0.1875 -0.328125,-0.1875 l -5.4375,0 c -0.140625,0 -0.328125,0 -0.328125,0.1875 0,0.203125 0.1875,0.203125 0.328125,0.203125 l 5.4375,0 z m 0,0"
             style="stroke:none" />
        </symbol>
        <symbol
           id="textext-8bc21bd9-14"
           overflow="visible"
           style="overflow:visible">
          <path
             id="path6030"
             d=""
             style="stroke:none" />
        </symbol>
        <symbol
           id="textext-8bc21bd9-15"
           overflow="visible"
           style="overflow:visible">
          <path
             id="path6033"
             d="m 0.28125,-1.640625 2.65625,0 0,0.859375 c 0,0.359375 -0.03125,0.46875 -0.765625,0.46875 l -0.203125,0 0,0.3125 C 2.375,-0.03125 2.890625,-0.03125 3.3125,-0.03125 c 0.421875,0 0.9375,0 1.359375,0.03125 l 0,-0.3125 -0.21875,0 c -0.734375,0 -0.75,-0.109375 -0.75,-0.46875 l 0,-0.859375 0.984375,0 0,-0.3125 -0.984375,0 0,-4.53125 c 0,-0.203125 0,-0.265625 -0.171875,-0.265625 -0.078125,0 -0.109375,0 -0.1875,0.125 l -3.0625,4.671875 0,0.3125 z m 2.703125,-0.3125 -2.421875,0 2.421875,-3.71875 0,3.71875 z m 0,0"
             style="stroke:none" />
        </symbol>
      </g>
    </defs>
    <g
       id="textext-8bc21bd9-16">
      <g
         id="g6036"
         style="fill:#000000;fill-opacity:1">
        <use
           id="use6038"
           y="136.259"
           x="365.681"
           xlink:href="#textext-8bc21bd9-1"
           width="4200"
           height="1460" />
      </g>
      <g
         id="g6040"
         style="fill:#000000;fill-opacity:1">
        <use
           id="use6042"
           y="137.754"
           x="369.992"
           xlink:href="#textext-8bc21bd9-6"
           width="4200"
           height="1460" />
      </g>
      <g
         id="g6044"
         style="fill:#000000;fill-opacity:1">
        <use
           id="use6046"
           y="136.259"
           x="374.46201"
           xlink:href="#textext-8bc21bd9-2"
           width="4200"
           height="1460" />
      </g>
      <g
         id="g6048"
         style="fill:#000000;fill-opacity:1">
        <use
           id="use6050"
           y="132.146"
           x="380.62201"
           xlink:href="#textext-8bc21bd9-8"
           width="4200"
           height="1460" />
      </g>
      <g
         id="g6052"
         style="fill:#000000;fill-opacity:1">
        <use
           id="use6054"
           y="125.201"
           x="387.70599"
           xlink:href="#textext-8bc21bd9-10"
           width="4200"
           height="1460" />
      </g>
      <g
         id="g6056"
         style="fill:#000000;fill-opacity:1">
        <use
           id="use6058"
           y="129.52"
           x="394.87399"
           xlink:href="#textext-8bc21bd9-3"
           width="4200"
           height="1460" />
      </g>
      <path
         id="path6060"
         transform="matrix(1,0,0,-1,394.851,133.769)"
         d="m 5.625e-4,-5.3125e-4 5.7382815,0"
         style="fill:none;stroke:#000000;stroke-width:0.398;stroke-linecap:butt;stroke-linejoin:miter;stroke-miterlimit:10;stroke-opacity:1" />
      <g
         id="g6062"
         style="fill:#000000;fill-opacity:1">
        <use
           id="use6064"
           y="143.093"
           x="394.85101"
           xlink:href="#textext-8bc21bd9-4"
           width="4200"
           height="1460" />
      </g>
      <g
         id="g6066"
         style="fill:#000000;fill-opacity:1">
        <use
           id="use6068"
           y="136.259"
           x="404.00101"
           xlink:href="#textext-8bc21bd9-13"
           width="4200"
           height="1460" />
      </g>
      <g
         id="g6070"
         style="fill:#000000;fill-opacity:1">
        <use
           id="use6072"
           y="136.259"
           x="413.96301"
           xlink:href="#textext-8bc21bd9-15"
           width="4200"
           height="1460" />
      </g>
      <g
         id="g6074"
         style="fill:#000000;fill-opacity:1">
        <use
           id="use6076"
           y="125.201"
           x="418.94501"
           xlink:href="#textext-8bc21bd9-11"
           width="4200"
           height="1460" />
      </g>
    </g>
  </g>
  <path
     style="fill:none;stroke:#000000;stroke-width:3;stroke-linecap:butt;stroke-linejoin:miter;stroke-miterlimit:4;stroke-opacity:1;stroke-dasharray:none;marker-end:url(#Arrow1Lend)"
     d="M 1184.6936,695.12847 881.75829,589.64205"
     id="path6245"
     sodipodi:nodetypes="cc" />
  <path
     id="path2998"
     d="m 513.90821,1225.2654 0,-390.8407"
     style="fill:none;stroke:#000000;stroke-width:1px;stroke-linecap:butt;stroke-linejoin:miter;stroke-opacity:1" />
  <path
     sodipodi:nodetypes="cc"
     style="fill:none;stroke:#000000;stroke-width:1px;stroke-linecap:butt;stroke-linejoin:miter;stroke-opacity:1"
     d="m 671.20343,1225.2654 0,-586.93725"
     id="path3000" />
  <path
     id="path3002"
     d="m 833.20343,1225.2654 0,-712.70952"
     style="fill:none;stroke:#000000;stroke-width:1px;stroke-linecap:butt;stroke-linejoin:miter;stroke-opacity:1"
     sodipodi:nodetypes="cc" />
  <path
     sodipodi:nodetypes="cc"
     style="fill:none;stroke:#000000;stroke-width:1px;stroke-linecap:butt;stroke-linejoin:miter;stroke-opacity:1"
     d="m 995.20343,1225.2654 0,-150.1153"
     id="path3004" />
  <path
     id="path3006"
     d="m 1153.2034,1225.2654 0,-186.6298"
     style="fill:none;stroke:#000000;stroke-width:1px;stroke-linecap:butt;stroke-linejoin:miter;stroke-opacity:1"
     sodipodi:nodetypes="cc" />
  <path
     sodipodi:nodetypes="cc"
     style="fill:none;stroke:#000000;stroke-width:1px;stroke-linecap:butt;stroke-linejoin:miter;stroke-opacity:1"
     d="m 1313.2034,1225.2654 0,-160.9344"
     id="path3008" />
  <path
     id="path3010"
     d="m 1473.2034,1225.2654 0,-152.8201"
     style="fill:none;stroke:#000000;stroke-width:1px;stroke-linecap:butt;stroke-linejoin:miter;stroke-opacity:1"
     sodipodi:nodetypes="cc" />
  <path
     transform="translate(32.457361,-2.36271)"
     d="m 494.97474,1227.9702 a 13.5239,13.5239 0 1 1 -27.0478,0 13.5239,13.5239 0 1 1 27.0478,0 z"
     sodipodi:ry="13.5239"
     sodipodi:rx="13.5239"
     sodipodi:cy="1227.9702"
     sodipodi:cx="481.45084"
     id="path2978"
     style="fill:#ff0000;fill-opacity:1;stroke:none"
     sodipodi:type="arc" />
  <path
     sodipodi:nodetypes="cc"
     style="fill:none;stroke:#000000;stroke-width:1px;stroke-linecap:butt;stroke-linejoin:miter;stroke-opacity:1"
     d="m 1631.2034,1225.2654 0,-133.8866"
     id="path3012" />
  <path
     sodipodi:type="arc"
     style="fill:#ff0000;fill-opacity:1;stroke:none"
     id="path2980"
     sodipodi:cx="481.45084"
     sodipodi:cy="1227.9702"
     sodipodi:rx="13.5239"
     sodipodi:ry="13.5239"
     d="m 494.97474,1227.9702 a 13.5239,13.5239 0 1 1 -27.0478,0 13.5239,13.5239 0 1 1 27.0478,0 z"
     transform="translate(190.68699,-2.36271)" />
  <path
     id="path3014"
     d="m 1773.2034,1225.2654 0,-119.0103"
     style="fill:none;stroke:#000000;stroke-width:1px;stroke-linecap:butt;stroke-linejoin:miter;stroke-opacity:1"
     sodipodi:nodetypes="cc" />
  <path
     transform="translate(352.97379,-2.36271)"
     d="m 494.97474,1227.9702 a 13.5239,13.5239 0 1 1 -27.0478,0 13.5239,13.5239 0 1 1 27.0478,0 z"
     sodipodi:ry="13.5239"
     sodipodi:rx="13.5239"
     sodipodi:cy="1227.9702"
     sodipodi:cx="481.45084"
     id="path2982"
     style="fill:#ff0000;fill-opacity:1;stroke:none"
     sodipodi:type="arc" />
  <path
     sodipodi:type="arc"
     style="fill:#ff0000;fill-opacity:1;stroke:none"
     id="path2984"
     sodipodi:cx="481.45084"
     sodipodi:cy="1227.9702"
     sodipodi:rx="13.5239"
     sodipodi:ry="13.5239"
     d="m 494.97474,1227.9702 a 13.5239,13.5239 0 1 1 -27.0478,0 13.5239,13.5239 0 1 1 27.0478,0 z"
     transform="translate(513.9082,-2.36271)" />
  <path
     transform="translate(672.13783,-2.36271)"
     d="m 494.97474,1227.9702 a 13.5239,13.5239 0 1 1 -27.0478,0 13.5239,13.5239 0 1 1 27.0478,0 z"
     sodipodi:ry="13.5239"
     sodipodi:rx="13.5239"
     sodipodi:cy="1227.9702"
     sodipodi:cx="481.45084"
     id="path2986"
     style="fill:#ff0000;fill-opacity:1;stroke:none"
     sodipodi:type="arc" />
  <path
     sodipodi:type="arc"
     style="fill:#ff0000;fill-opacity:1;stroke:none"
     id="path2988"
     sodipodi:cx="481.45084"
     sodipodi:cy="1227.9702"
     sodipodi:rx="13.5239"
     sodipodi:ry="13.5239"
     d="m 494.97474,1227.9702 a 13.5239,13.5239 0 1 1 -27.0478,0 13.5239,13.5239 0 1 1 27.0478,0 z"
     transform="translate(831.71985,-2.36271)" />
  <path
     transform="translate(992.65426,-2.36271)"
     d="m 494.97474,1227.9702 a 13.5239,13.5239 0 1 1 -27.0478,0 13.5239,13.5239 0 1 1 27.0478,0 z"
     sodipodi:ry="13.5239"
     sodipodi:rx="13.5239"
     sodipodi:cy="1227.9702"
     sodipodi:cx="481.45084"
     id="path2990"
     style="fill:#ff0000;fill-opacity:1;stroke:none"
     sodipodi:type="arc" />
  <path
     sodipodi:type="arc"
     style="fill:#ff0000;fill-opacity:1;stroke:none"
     id="path2992"
     sodipodi:cx="481.45084"
     sodipodi:cy="1227.9702"
     sodipodi:rx="13.5239"
     sodipodi:ry="13.5239"
     d="m 494.97474,1227.9702 a 13.5239,13.5239 0 1 1 -27.0478,0 13.5239,13.5239 0 1 1 27.0478,0 z"
     transform="translate(1149.5315,-2.36271)" />
  <path
     transform="translate(1291.5325,-2.36271)"
     d="m 494.97474,1227.9702 a 13.5239,13.5239 0 1 1 -27.0478,0 13.5239,13.5239 0 1 1 27.0478,0 z"
     sodipodi:ry="13.5239"
     sodipodi:rx="13.5239"
     sodipodi:cy="1227.9702"
     sodipodi:cx="481.45084"
     id="path2994"
     style="fill:#ff0000;fill-opacity:1;stroke:none"
     sodipodi:type="arc" />
  <path
     id="path4614"
     d="m 512.21772,1253.6656 157.89154,-0.3381"
     style="fill:none;stroke:#000000;stroke-width:2;stroke-linecap:butt;stroke-linejoin:miter;stroke-opacity:1;marker-start:url(#Arrow1Lstart);marker-mid:none;marker-end:url(#Arrow1Lend);stroke-miterlimit:4;stroke-dasharray:none" />
  <g
     id="g5483"
     style="fill:#000000;fill-opacity:1"
     transform="matrix(5.4819627,0,0,5.4819627,-658.09506,561.03606)"
     ns0:preamble=""
     ns0:text="$h$">
    <defs
       id="defs5485">
      <g
         id="g5487">
        <symbol
           id="textext-590a2061-0"
           overflow="visible"
           style="overflow:visible">
          <path
             id="path5490"
             d=""
             style="stroke:none" />
        </symbol>
        <symbol
           id="textext-590a2061-1"
           overflow="visible"
           style="overflow:visible">
          <path
             id="path5493"
             d="m 2.859375,-6.8125 c 0,0 0,-0.109375 -0.125,-0.109375 -0.234375,0 -0.953125,0.078125 -1.21875,0.109375 -0.078125,0 -0.1875,0.015625 -0.1875,0.1875 0,0.125 0.09375,0.125 0.234375,0.125 0.484375,0 0.5,0.0625 0.5,0.171875 L 2.03125,-6.125 0.59375,-0.390625 c -0.046875,0.140625 -0.046875,0.15625 -0.046875,0.21875 0,0.234375 0.203125,0.28125 0.296875,0.28125 0.15625,0 0.3125,-0.125 0.359375,-0.265625 l 0.1875,-0.75 C 1.46875,-1.203125 1.546875,-1.5 1.609375,-1.796875 1.671875,-2.03125 1.734375,-2.25 1.78125,-2.46875 1.796875,-2.53125 1.890625,-2.859375 1.890625,-2.921875 1.921875,-3.015625 2.234375,-3.5625 2.578125,-3.84375 2.796875,-4 3.09375,-4.1875 3.53125,-4.1875 c 0.421875,0 0.53125,0.34375 0.53125,0.703125 0,0.53125 -0.375,1.625 -0.609375,2.234375 C 3.375,-1.03125 3.3125,-0.90625 3.3125,-0.703125 c 0,0.46875 0.359375,0.8125 0.828125,0.8125 0.9375,0 1.296875,-1.453125 1.296875,-1.53125 0,-0.109375 -0.078125,-0.109375 -0.109375,-0.109375 -0.109375,0 -0.109375,0.03125 -0.15625,0.1875 -0.140625,0.53125 -0.46875,1.234375 -1.015625,1.234375 -0.171875,0 -0.234375,-0.09375 -0.234375,-0.328125 0,-0.25 0.078125,-0.484375 0.171875,-0.703125 0.15625,-0.4375 0.609375,-1.625 0.609375,-2.203125 0,-0.640625 -0.390625,-1.0625 -1.140625,-1.0625 -0.625,0 -1.109375,0.3125 -1.484375,0.765625 L 2.859375,-6.8125 z m 0,0"
             style="stroke:none" />
        </symbol>
      </g>
    </defs>
    <g
       id="textext-590a2061-2">
      <g
         id="g5496"
         style="fill:#000000;fill-opacity:1">
        <use
           id="use5498"
           y="134.765"
           x="223.43201"
           xlink:href="#textext-590a2061-1"
           width="2093.4998"
           height="1490.3339" />
      </g>
    </g>
  </g>
</svg>
