<?xml version="1.0" encoding="UTF-8" standalone="no"?>
<!-- Created with Inkscape (http://www.inkscape.org/) -->

<svg
   xmlns:ns0="http://www.iki.fi/pav/software/textext/"
   xmlns:dc="http://purl.org/dc/elements/1.1/"
   xmlns:cc="http://creativecommons.org/ns#"
   xmlns:rdf="http://www.w3.org/1999/02/22-rdf-syntax-ns#"
   xmlns:svg="http://www.w3.org/2000/svg"
   xmlns="http://www.w3.org/2000/svg"
   xmlns:xlink="http://www.w3.org/1999/xlink"
   xmlns:sodipodi="http://sodipodi.sourceforge.net/DTD/sodipodi-0.dtd"
   xmlns:inkscape="http://www.inkscape.org/namespaces/inkscape"
   id="svg2876"
   version="1.1"
   inkscape:version="0.47 r22583"
   width="764.68616"
   height="648.02631"
   sodipodi:docname="cheminementCAD.svg">
  <sodipodi:namedview
     pagecolor="#ffffff"
     bordercolor="#666666"
     borderopacity="1"
     objecttolerance="10"
     gridtolerance="10"
     guidetolerance="10"
     inkscape:pageopacity="0"
     inkscape:pageshadow="2"
     inkscape:window-width="1440"
     inkscape:window-height="829"
     id="namedview2878"
     showgrid="false"
     inkscape:zoom="0.69476744"
     inkscape:cx="508.7896"
     inkscape:cy="340.78678"
     inkscape:window-x="0"
     inkscape:window-y="25"
     inkscape:window-maximized="1"
     inkscape:current-layer="svg2876" />
  <metadata
     id="metadata2882">
    <rdf:RDF>
      <cc:Work
         rdf:about="">
        <dc:format>image/svg+xml</dc:format>
        <dc:type
           rdf:resource="http://purl.org/dc/dcmitype/StillImage" />
        <dc:title></dc:title>
      </cc:Work>
    </rdf:RDF>
  </metadata>
  <defs
     id="defs2880">
    <marker
       inkscape:stockid="EmptyTriangleOutL"
       orient="auto"
       refY="0"
       refX="0"
       id="EmptyTriangleOutL"
       style="overflow:visible">
      <path
         id="path6097"
         d="m 5.77,0 -8.65,5 0,-10 8.65,5 z"
         style="fill:#ffffff;fill-rule:evenodd;stroke:#000000;stroke-width:1pt;marker-start:none"
         transform="matrix(0.8,0,0,0.8,-4.8,0)" />
    </marker>
    <marker
       inkscape:stockid="Arrow1Mend"
       orient="auto"
       refY="0"
       refX="0"
       id="Arrow1Mend"
       style="overflow:visible">
      <path
         id="path5945"
         d="M 0,0 5,-5 -12.5,0 5,5 0,0 z"
         style="fill-rule:evenodd;stroke:#000000;stroke-width:1pt;marker-start:none"
         transform="matrix(-0.4,0,0,-0.4,-4,0)" />
    </marker>
    <marker
       inkscape:stockid="Arrow1Lend"
       orient="auto"
       refY="0"
       refX="0"
       id="Arrow1Lend"
       style="overflow:visible">
      <path
         id="path5939"
         d="M 0,0 5,-5 -12.5,0 5,5 0,0 z"
         style="fill-rule:evenodd;stroke:#000000;stroke-width:1pt;marker-start:none"
         transform="matrix(-0.8,0,0,-0.8,-10,0)" />
    </marker>
    <inkscape:perspective
       id="perspective2884"
       inkscape:persp3d-origin="0.5 : 0.33333333 : 1"
       inkscape:vp_z="1 : 0.5 : 1"
       inkscape:vp_y="0 : 1000 : 0"
       inkscape:vp_x="0 : 0.5 : 1"
       sodipodi:type="inkscape:persp3d" />
    <inkscape:perspective
       sodipodi:type="inkscape:persp3d"
       inkscape:vp_x="0 : 0.5 : 1"
       inkscape:vp_y="0 : 1000 : 0"
       inkscape:vp_z="1 : 0.5 : 1"
       inkscape:persp3d-origin="0.5 : 0.33333333 : 1"
       id="perspective2974" />
    <inkscape:perspective
       sodipodi:type="inkscape:persp3d"
       inkscape:vp_x="0 : 0.5 : 1"
       inkscape:vp_y="0 : 1000 : 0"
       inkscape:vp_z="1 : 0.5 : 1"
       inkscape:persp3d-origin="0.5 : 0.33333333 : 1"
       id="perspective3237" />
    <inkscape:perspective
       sodipodi:type="inkscape:persp3d"
       inkscape:vp_x="0 : 0.5 : 1"
       inkscape:vp_y="0 : 1000 : 0"
       inkscape:vp_z="1 : 0.5 : 1"
       inkscape:persp3d-origin="0.5 : 0.33333333 : 1"
       id="perspective3311" />
    <clipPath
       id="clipPath3333"
       clipPathUnits="userSpaceOnUse">
      <rect
         transform="scale(-1,-1)"
         y="64.769875"
         x="74.845192"
         height="155.44769"
         width="244.68619"
         id="rect3335"
         style="fill:none;stroke:#fc0000;stroke-width:3;stroke-miterlimit:4;stroke-opacity:1;stroke-dasharray:none;stroke-dashoffset:0" />
    </clipPath>
    <clipPath
       id="clipPath3341"
       clipPathUnits="userSpaceOnUse">
      <rect
         transform="scale(-1,-1)"
         style="fill:none;stroke:#fc0000;stroke-width:3;stroke-miterlimit:4;stroke-opacity:1;stroke-dasharray:none;stroke-dashoffset:0"
         id="rect3343"
         width="244.68619"
         height="155.44769"
         x="74.845192"
         y="64.769875" />
    </clipPath>
    <clipPath
       id="clipPath3345"
       clipPathUnits="userSpaceOnUse">
      <rect
         transform="scale(-1,-1)"
         y="64.769875"
         x="74.845192"
         height="155.44769"
         width="244.68619"
         id="rect3347"
         style="fill:none;stroke:#fc0000;stroke-width:3;stroke-miterlimit:4;stroke-opacity:1;stroke-dasharray:none;stroke-dashoffset:0" />
    </clipPath>
    <clipPath
       id="clipPath3349"
       clipPathUnits="userSpaceOnUse">
      <rect
         transform="scale(-1,-1)"
         style="fill:none;stroke:#fc0000;stroke-width:3;stroke-miterlimit:4;stroke-opacity:1;stroke-dasharray:none;stroke-dashoffset:0"
         id="rect3351"
         width="244.68619"
         height="155.44769"
         x="74.845192"
         y="64.769875" />
    </clipPath>
    <inkscape:perspective
       id="perspective7248"
       inkscape:persp3d-origin="0.5 : 0.33333333 : 1"
       inkscape:vp_z="1 : 0.5 : 1"
       inkscape:vp_y="0 : 1000 : 0"
       inkscape:vp_x="0 : 0.5 : 1"
       sodipodi:type="inkscape:persp3d" />
    <clipPath
       clipPathUnits="userSpaceOnUse"
       id="clipPath7256">
      <rect
         style="fill:#ffffff;fill-opacity:1;stroke:#ffffff;stroke-width:1.79999995;stroke-miterlimit:4;stroke-opacity:1;stroke-dasharray:none;stroke-dashoffset:0"
         id="rect7258"
         width="233.17155"
         height="159.76569"
         x="218.77824"
         y="325.61627" />
    </clipPath>
  </defs>
  <image
     clip-path="url(#clipPath3345)"
     transform="matrix(-1,0,0,-1,-74.845192,382.96988)"
     xlink:href="file:///media/Iomega%20HDD/SVM/Static/seuillageTEP.png"
     width="343"
     height="344"
     id="image3239"
     x="-369.41736"
     y="-344" />
  <image
     clip-path="url(#clipPath3341)"
     transform="matrix(-1,0,0,-1,445.15481,382.96988)"
     xlink:href="file:///media/Iomega%20HDD/SVM/Static/labelsTEP.png"
     width="343"
     height="344"
     id="image3313"
     x="-369.41736"
     y="-344" />
  <image
     clip-path="url(#clipPath3349)"
     transform="matrix(-1,0,0,-1,445.15481,22.96988)"
     xlink:href="file:///media/Iomega%20HDD/SVM/Static/scoreTEP.png"
     width="343"
     height="344"
     id="image2976"
     x="-369.41736"
     y="-344" />
  <g
     id="g3373"
     ns0:preamble=""
     ns0:text="Image\\\\Originale"
     transform="matrix(3.4897301,0,0,3.4897301,-735.36219,-445.75631)">
    <defs
       id="defs3375">
      <g
         id="g3377">
        <symbol
           id="textext-d24154cf-0"
           overflow="visible"
           style="overflow:visible">
          <path
             id="path3380"
             d=""
             style="stroke:none" />
        </symbol>
        <symbol
           id="textext-d24154cf-1"
           overflow="visible"
           style="overflow:visible">
          <path
             id="path3383"
             d="M 2.25,-6.03125 C 2.25,-6.390625 2.265625,-6.5 3.0625,-6.5 l 0.25,0 0,-0.3125 c -0.34375,0.03125 -1.125,0.03125 -1.515625,0.03125 -0.375,0 -1.171875,0 -1.515625,-0.03125 l 0,0.3125 0.25,0 c 0.796875,0 0.828125,0.109375 0.828125,0.46875 l 0,5.25 c 0,0.359375 -0.03125,0.46875 -0.828125,0.46875 l -0.25,0 0,0.3125 c 0.34375,-0.03125 1.140625,-0.03125 1.515625,-0.03125 0.390625,0 1.171875,0 1.515625,0.03125 l 0,-0.3125 -0.25,0 C 2.265625,-0.3125 2.25,-0.421875 2.25,-0.78125 l 0,-5.25 z m 0,0"
             style="stroke:none" />
        </symbol>
        <symbol
           id="textext-d24154cf-2"
           overflow="visible"
           style="overflow:visible">
          <path
             id="path3386"
             d="m 1.09375,-3.421875 0,2.671875 c 0,0.4375 -0.109375,0.4375 -0.78125,0.4375 l 0,0.3125 c 0.359375,-0.015625 0.859375,-0.03125 1.140625,-0.03125 0.25,0 0.765625,0.015625 1.109375,0.03125 l 0,-0.3125 c -0.671875,0 -0.78125,0 -0.78125,-0.4375 l 0,-1.84375 C 1.78125,-3.625 2.5,-4.1875 3.125,-4.1875 c 0.640625,0 0.75,0.53125 0.75,1.109375 l 0,2.328125 c 0,0.4375 -0.109375,0.4375 -0.78125,0.4375 l 0,0.3125 c 0.34375,-0.015625 0.859375,-0.03125 1.125,-0.03125 0.25,0 0.78125,0.015625 1.109375,0.03125 l 0,-0.3125 c -0.65625,0 -0.765625,0 -0.765625,-0.4375 l 0,-1.84375 c 0,-1.03125 0.703125,-1.59375 1.34375,-1.59375 0.625,0 0.734375,0.53125 0.734375,1.109375 l 0,2.328125 c 0,0.4375 -0.109375,0.4375 -0.78125,0.4375 l 0,0.3125 c 0.34375,-0.015625 0.859375,-0.03125 1.125,-0.03125 0.265625,0 0.78125,0.015625 1.125,0.03125 l 0,-0.3125 c -0.515625,0 -0.765625,0 -0.78125,-0.296875 l 0,-1.90625 c 0,-0.859375 0,-1.15625 -0.3125,-1.515625 -0.140625,-0.171875 -0.46875,-0.375 -1.046875,-0.375 -0.828125,0 -1.28125,0.59375 -1.4375,0.984375 C 4.390625,-4.296875 3.65625,-4.40625 3.203125,-4.40625 2.46875,-4.40625 2,-3.984375 1.71875,-3.359375 l 0,-1.046875 -1.40625,0.109375 0,0.3125 c 0.703125,0 0.78125,0.0625 0.78125,0.5625 z m 0,0"
             style="stroke:none" />
        </symbol>
        <symbol
           id="textext-d24154cf-3"
           overflow="visible"
           style="overflow:visible">
          <path
             id="path3389"
             d="m 3.3125,-0.75 c 0.046875,0.390625 0.3125,0.8125 0.78125,0.8125 0.21875,0 0.828125,-0.140625 0.828125,-0.953125 l 0,-0.5625 -0.25,0 0,0.5625 c 0,0.578125 -0.25,0.640625 -0.359375,0.640625 -0.328125,0 -0.375,-0.453125 -0.375,-0.5 l 0,-1.984375 c 0,-0.421875 0,-0.8125 -0.359375,-1.1875 C 3.1875,-4.3125 2.6875,-4.46875 2.21875,-4.46875 c -0.828125,0 -1.515625,0.46875 -1.515625,1.125 0,0.296875 0.203125,0.46875 0.46875,0.46875 0.28125,0 0.453125,-0.203125 0.453125,-0.453125 0,-0.125 -0.046875,-0.453125 -0.515625,-0.453125 C 1.390625,-4.140625 1.875,-4.25 2.1875,-4.25 c 0.5,0 1.0625,0.390625 1.0625,1.28125 l 0,0.359375 c -0.515625,0.03125 -1.203125,0.0625 -1.828125,0.359375 -0.75,0.34375 -1,0.859375 -1,1.296875 0,0.8125 0.96875,1.0625 1.59375,1.0625 0.65625,0 1.109375,-0.40625 1.296875,-0.859375 z M 3.25,-2.390625 l 0,1 c 0,0.9375 -0.71875,1.28125 -1.171875,1.28125 -0.484375,0 -0.890625,-0.34375 -0.890625,-0.84375 0,-0.546875 0.421875,-1.375 2.0625,-1.4375 z m 0,0"
             style="stroke:none" />
        </symbol>
        <symbol
           id="textext-d24154cf-4"
           overflow="visible"
           style="overflow:visible">
          <path
             id="path3392"
             d="m 2.21875,-1.71875 c -0.875,0 -0.875,-1 -0.875,-1.21875 0,-0.265625 0.015625,-0.59375 0.15625,-0.84375 0.078125,-0.109375 0.3125,-0.390625 0.71875,-0.390625 0.859375,0 0.859375,0.984375 0.859375,1.21875 0,0.265625 0,0.59375 -0.15625,0.84375 C 2.84375,-2 2.609375,-1.71875 2.21875,-1.71875 z m -1,-0.078125 c 0.390625,0.28125 0.8125,0.3125 1,0.3125 0.921875,0 1.609375,-0.6875 1.609375,-1.453125 0,-0.375 -0.15625,-0.734375 -0.40625,-0.96875 C 3.78125,-4.25 4.140625,-4.296875 4.3125,-4.296875 c 0.03125,0 0.078125,0 0.109375,0.015625 C 4.3125,-4.25 4.25,-4.140625 4.25,-4.015625 c 0,0.171875 0.140625,0.28125 0.296875,0.28125 0.09375,0 0.28125,-0.0625 0.28125,-0.296875 0,-0.171875 -0.109375,-0.484375 -0.5,-0.484375 -0.203125,0 -0.640625,0.0625 -1.0625,0.46875 C 2.84375,-4.375 2.4375,-4.40625 2.21875,-4.40625 c -0.9375,0 -1.625,0.6875 -1.625,1.453125 0,0.4375 0.21875,0.8125 0.46875,1.03125 -0.125,0.140625 -0.3125,0.46875 -0.3125,0.828125 0,0.3125 0.140625,0.6875 0.453125,0.890625 -0.609375,0.15625 -0.921875,0.59375 -0.921875,0.984375 0,0.71875 0.984375,1.265625 2.203125,1.265625 1.171875,0 2.203125,-0.5 2.203125,-1.28125 0,-0.34375 -0.125,-0.859375 -0.640625,-1.140625 -0.53125,-0.265625 -1.109375,-0.265625 -1.71875,-0.265625 -0.25,0 -0.671875,0 -0.75,-0.015625 C 1.265625,-0.703125 1.0625,-1 1.0625,-1.328125 c 0,-0.03125 0,-0.265625 0.15625,-0.46875 z M 2.5,1.828125 c -1.015625,0 -1.703125,-0.515625 -1.703125,-1.046875 0,-0.453125 0.375,-0.828125 0.8125,-0.84375 l 0.59375,0 c 0.859375,0 1.96875,0 1.96875,0.84375 0,0.546875 -0.703125,1.046875 -1.671875,1.046875 z m 0,0"
             style="stroke:none" />
        </symbol>
        <symbol
           id="textext-d24154cf-5"
           overflow="visible"
           style="overflow:visible">
          <path
             id="path3395"
             d="m 3.890625,-2.296875 c 0.21875,0 0.25,0 0.25,-0.21875 0,-0.984375 -0.546875,-1.953125 -1.78125,-1.953125 -1.15625,0 -2.078125,1.03125 -2.078125,2.28125 0,1.328125 1.046875,2.296875 2.1875,2.296875 C 3.6875,0.109375 4.140625,-1 4.140625,-1.1875 4.140625,-1.28125 4.0625,-1.3125 4,-1.3125 c -0.078125,0 -0.109375,0.0625 -0.125,0.140625 -0.34375,1.03125 -1.25,1.03125 -1.34375,1.03125 -0.5,0 -0.890625,-0.296875 -1.125,-0.671875 -0.296875,-0.46875 -0.296875,-1.125 -0.296875,-1.484375 l 2.78125,0 z m -2.78125,-0.21875 C 1.171875,-4 2.015625,-4.25 2.359375,-4.25 c 1.015625,0 1.125,1.34375 1.125,1.734375 l -2.375,0 z m 0,0"
             style="stroke:none" />
        </symbol>
        <symbol
           id="textext-d24154cf-6"
           overflow="visible"
           style="overflow:visible">
          <path
             id="path3398"
             d="m 7.1875,-3.375 c 0,-2.03125 -1.5,-3.65625 -3.3125,-3.65625 -1.796875,0 -3.3125,1.59375 -3.3125,3.65625 0,2.046875 1.53125,3.59375 3.3125,3.59375 1.8125,0 3.3125,-1.578125 3.3125,-3.59375 z M 3.875,-0.046875 c -0.953125,0 -2.296875,-0.875 -2.296875,-3.46875 0,-2.578125 1.46875,-3.265625 2.296875,-3.265625 0.859375,0 2.28125,0.703125 2.28125,3.265625 0,2.640625 -1.359375,3.46875 -2.28125,3.46875 z m 0,0"
             style="stroke:none" />
        </symbol>
        <symbol
           id="textext-d24154cf-7"
           overflow="visible"
           style="overflow:visible">
          <path
             id="path3401"
             d="m 1.71875,-0.78125 0,-1.53125 c 0,-0.984375 0.421875,-1.875 1.171875,-1.875 0.0625,0 0.09375,0 0.109375,0.015625 -0.03125,0 -0.234375,0.125 -0.234375,0.390625 0,0.265625 0.21875,0.421875 0.4375,0.421875 0.171875,0 0.421875,-0.125 0.421875,-0.4375 0,-0.3125 -0.3125,-0.609375 -0.734375,-0.609375 -0.734375,0 -1.09375,0.671875 -1.21875,1.09375 l 0,-1.09375 -1.390625,0.109375 0,0.3125 c 0.703125,0 0.78125,0.0625 0.78125,0.5625 l 0,2.671875 c 0,0.4375 -0.109375,0.4375 -0.78125,0.4375 l 0,0.3125 c 0.390625,-0.015625 0.859375,-0.03125 1.140625,-0.03125 0.390625,0 0.859375,0 1.265625,0.03125 l 0,-0.3125 -0.21875,0 c -0.734375,0 -0.75,-0.109375 -0.75,-0.46875 z m 0,0"
             style="stroke:none" />
        </symbol>
        <symbol
           id="textext-d24154cf-8"
           overflow="visible"
           style="overflow:visible">
          <path
             id="path3404"
             d="M 1.765625,-4.40625 0.375,-4.296875 l 0,0.3125 c 0.640625,0 0.734375,0.0625 0.734375,0.546875 l 0,2.6875 c 0,0.4375 -0.109375,0.4375 -0.78125,0.4375 l 0,0.3125 C 0.640625,-0.015625 1.1875,-0.03125 1.421875,-0.03125 1.78125,-0.03125 2.125,-0.015625 2.46875,0 l 0,-0.3125 c -0.671875,0 -0.703125,-0.046875 -0.703125,-0.4375 l 0,-3.65625 z m 0.03125,-1.734375 c 0,-0.3125 -0.234375,-0.53125 -0.515625,-0.53125 -0.3125,0 -0.53125,0.265625 -0.53125,0.53125 0,0.265625 0.21875,0.53125 0.53125,0.53125 0.28125,0 0.515625,-0.21875 0.515625,-0.53125 z m 0,0"
             style="stroke:none" />
        </symbol>
        <symbol
           id="textext-d24154cf-9"
           overflow="visible"
           style="overflow:visible">
          <path
             id="path3407"
             d="m 1.09375,-3.421875 0,2.671875 c 0,0.4375 -0.109375,0.4375 -0.78125,0.4375 l 0,0.3125 c 0.359375,-0.015625 0.859375,-0.03125 1.140625,-0.03125 0.25,0 0.765625,0.015625 1.109375,0.03125 l 0,-0.3125 c -0.671875,0 -0.78125,0 -0.78125,-0.4375 l 0,-1.84375 C 1.78125,-3.625 2.5,-4.1875 3.125,-4.1875 c 0.640625,0 0.75,0.53125 0.75,1.109375 l 0,2.328125 c 0,0.4375 -0.109375,0.4375 -0.78125,0.4375 l 0,0.3125 c 0.34375,-0.015625 0.859375,-0.03125 1.125,-0.03125 0.25,0 0.78125,0.015625 1.109375,0.03125 l 0,-0.3125 c -0.515625,0 -0.765625,0 -0.765625,-0.296875 l 0,-1.90625 c 0,-0.859375 0,-1.15625 -0.3125,-1.515625 -0.140625,-0.171875 -0.46875,-0.375 -1.046875,-0.375 C 2.46875,-4.40625 2,-3.984375 1.71875,-3.359375 l 0,-1.046875 -1.40625,0.109375 0,0.3125 c 0.703125,0 0.78125,0.0625 0.78125,0.5625 z m 0,0"
             style="stroke:none" />
        </symbol>
        <symbol
           id="textext-d24154cf-10"
           overflow="visible"
           style="overflow:visible">
          <path
             id="path3410"
             d="m 1.765625,-6.921875 -1.4375,0.109375 0,0.3125 c 0.703125,0 0.78125,0.0625 0.78125,0.5625 l 0,5.1875 c 0,0.4375 -0.109375,0.4375 -0.78125,0.4375 l 0,0.3125 C 0.65625,-0.015625 1.1875,-0.03125 1.4375,-0.03125 c 0.25,0 0.734375,0.015625 1.109375,0.03125 l 0,-0.3125 c -0.671875,0 -0.78125,0 -0.78125,-0.4375 l 0,-6.171875 z m 0,0"
             style="stroke:none" />
        </symbol>
      </g>
    </defs>
    <g
       id="textext-d24154cf-11">
      <g
         id="g3413"
         style="fill:#000000;fill-opacity:1">
        <use
           id="use3415"
           y="134.765"
           x="223.43201"
           xlink:href="#textext-d24154cf-1"
           width="343"
           height="344" />
        <use
           id="use3417"
           y="134.765"
           x="227.0295"
           xlink:href="#textext-d24154cf-2"
           width="343"
           height="344" />
        <use
           id="use3419"
           y="134.765"
           x="235.33133"
           xlink:href="#textext-d24154cf-3"
           width="343"
           height="344" />
        <use
           id="use3421"
           y="134.765"
           x="240.31262"
           xlink:href="#textext-d24154cf-4"
           width="343"
           height="344" />
        <use
           id="use3423"
           y="134.765"
           x="245.29393"
           xlink:href="#textext-d24154cf-5"
           width="343"
           height="344" />
      </g>
      <g
         id="g3425"
         style="fill:#000000;fill-opacity:1">
        <use
           id="use3427"
           y="146.72"
           x="223.43201"
           xlink:href="#textext-d24154cf-6"
           width="343"
           height="344" />
        <use
           id="use3429"
           y="146.72"
           x="231.18091"
           xlink:href="#textext-d24154cf-7"
           width="343"
           height="344" />
        <use
           id="use3431"
           y="146.72"
           x="235.08327"
           xlink:href="#textext-d24154cf-8"
           width="343"
           height="344" />
        <use
           id="use3433"
           y="146.72"
           x="237.85088"
           xlink:href="#textext-d24154cf-4"
           width="343"
           height="344" />
        <use
           id="use3435"
           y="146.72"
           x="242.83217"
           xlink:href="#textext-d24154cf-8"
           width="343"
           height="344" />
        <use
           id="use3437"
           y="146.72"
           x="245.59978"
           xlink:href="#textext-d24154cf-9"
           width="343"
           height="344" />
        <use
           id="use3439"
           y="146.72"
           x="251.13499"
           xlink:href="#textext-d24154cf-3"
           width="343"
           height="344" />
        <use
           id="use3441"
           y="146.72"
           x="256.1163"
           xlink:href="#textext-d24154cf-10"
           width="343"
           height="344" />
        <use
           id="use3443"
           y="146.72"
           x="258.88391"
           xlink:href="#textext-d24154cf-5"
           width="343"
           height="344" />
      </g>
    </g>
  </g>
  <g
     ns0:text="Carte de\\\\Score"
     ns0:preamble=""
     transform="matrix(3.4897301,0,0,3.4897301,-195.36219,-445.75631)"
     id="g3651">
    <defs
       id="defs3653">
      <g
         id="g3655">
        <symbol
           style="overflow:visible"
           overflow="visible"
           id="textext-075db371-0">
          <path
             style="stroke:none"
             d=""
             id="path3658" />
        </symbol>
        <symbol
           style="overflow:visible"
           overflow="visible"
           id="textext-075db371-1">
          <path
             style="stroke:none"
             d="m 6.625,-6.78125 c 0,-0.171875 0,-0.25 -0.109375,-0.25 -0.03125,0 -0.078125,0 -0.15625,0.125 l -0.5,0.734375 C 5.5,-6.53125 4.984375,-7.03125 4.03125,-7.03125 c -1.875,0 -3.46875,1.59375 -3.46875,3.625 0,2.0625 1.609375,3.625 3.46875,3.625 1.625,0 2.59375,-1.390625 2.59375,-2.546875 C 6.625,-2.421875 6.625,-2.5 6.5,-2.5 6.390625,-2.5 6.390625,-2.4375 6.375,-2.328125 6.296875,-0.90625 5.234375,-0.09375 4.140625,-0.09375 c -0.609375,0 -2.5625,-0.328125 -2.5625,-3.3125 0,-2.96875 1.953125,-3.3125 2.5625,-3.3125 1.078125,0 1.96875,0.90625 2.171875,2.359375 0.015625,0.140625 0.015625,0.171875 0.15625,0.171875 0.15625,0 0.15625,-0.03125 0.15625,-0.234375 l 0,-2.359375 z m 0,0"
             id="path3661" />
        </symbol>
        <symbol
           style="overflow:visible"
           overflow="visible"
           id="textext-075db371-2">
          <path
             style="stroke:none"
             d="m 3.3125,-0.75 c 0.046875,0.390625 0.3125,0.8125 0.78125,0.8125 0.21875,0 0.828125,-0.140625 0.828125,-0.953125 l 0,-0.5625 -0.25,0 0,0.5625 c 0,0.578125 -0.25,0.640625 -0.359375,0.640625 -0.328125,0 -0.375,-0.453125 -0.375,-0.5 l 0,-1.984375 c 0,-0.421875 0,-0.8125 -0.359375,-1.1875 C 3.1875,-4.3125 2.6875,-4.46875 2.21875,-4.46875 c -0.828125,0 -1.515625,0.46875 -1.515625,1.125 0,0.296875 0.203125,0.46875 0.46875,0.46875 0.28125,0 0.453125,-0.203125 0.453125,-0.453125 0,-0.125 -0.046875,-0.453125 -0.515625,-0.453125 C 1.390625,-4.140625 1.875,-4.25 2.1875,-4.25 c 0.5,0 1.0625,0.390625 1.0625,1.28125 l 0,0.359375 c -0.515625,0.03125 -1.203125,0.0625 -1.828125,0.359375 -0.75,0.34375 -1,0.859375 -1,1.296875 0,0.8125 0.96875,1.0625 1.59375,1.0625 0.65625,0 1.109375,-0.40625 1.296875,-0.859375 z M 3.25,-2.390625 l 0,1 c 0,0.9375 -0.71875,1.28125 -1.171875,1.28125 -0.484375,0 -0.890625,-0.34375 -0.890625,-0.84375 0,-0.546875 0.421875,-1.375 2.0625,-1.4375 z m 0,0"
             id="path3664" />
        </symbol>
        <symbol
           style="overflow:visible"
           overflow="visible"
           id="textext-075db371-3">
          <path
             style="stroke:none"
             d="m 1.71875,-0.78125 0,-1.53125 c 0,-0.984375 0.421875,-1.875 1.171875,-1.875 0.0625,0 0.09375,0 0.109375,0.015625 -0.03125,0 -0.234375,0.125 -0.234375,0.390625 0,0.265625 0.21875,0.421875 0.4375,0.421875 0.171875,0 0.421875,-0.125 0.421875,-0.4375 0,-0.3125 -0.3125,-0.609375 -0.734375,-0.609375 -0.734375,0 -1.09375,0.671875 -1.21875,1.09375 l 0,-1.09375 -1.390625,0.109375 0,0.3125 c 0.703125,0 0.78125,0.0625 0.78125,0.5625 l 0,2.671875 c 0,0.4375 -0.109375,0.4375 -0.78125,0.4375 l 0,0.3125 c 0.390625,-0.015625 0.859375,-0.03125 1.140625,-0.03125 0.390625,0 0.859375,0 1.265625,0.03125 l 0,-0.3125 -0.21875,0 c -0.734375,0 -0.75,-0.109375 -0.75,-0.46875 z m 0,0"
             id="path3667" />
        </symbol>
        <symbol
           style="overflow:visible"
           overflow="visible"
           id="textext-075db371-4">
          <path
             style="stroke:none"
             d="m 1.71875,-3.984375 1.4375,0 0,-0.3125 -1.4375,0 0,-1.828125 -0.25,0 c 0,0.8125 -0.296875,1.875 -1.28125,1.921875 l 0,0.21875 0.84375,0 0,2.75 c 0,1.21875 0.9375,1.34375 1.296875,1.34375 0.703125,0 0.984375,-0.703125 0.984375,-1.34375 l 0,-0.5625 -0.25,0 0,0.546875 c 0,0.734375 -0.296875,1.109375 -0.671875,1.109375 -0.671875,0 -0.671875,-0.90625 -0.671875,-1.078125 l 0,-2.765625 z m 0,0"
             id="path3670" />
        </symbol>
        <symbol
           style="overflow:visible"
           overflow="visible"
           id="textext-075db371-5">
          <path
             style="stroke:none"
             d="m 3.890625,-2.296875 c 0.21875,0 0.25,0 0.25,-0.21875 0,-0.984375 -0.546875,-1.953125 -1.78125,-1.953125 -1.15625,0 -2.078125,1.03125 -2.078125,2.28125 0,1.328125 1.046875,2.296875 2.1875,2.296875 C 3.6875,0.109375 4.140625,-1 4.140625,-1.1875 4.140625,-1.28125 4.0625,-1.3125 4,-1.3125 c -0.078125,0 -0.109375,0.0625 -0.125,0.140625 -0.34375,1.03125 -1.25,1.03125 -1.34375,1.03125 -0.5,0 -0.890625,-0.296875 -1.125,-0.671875 -0.296875,-0.46875 -0.296875,-1.125 -0.296875,-1.484375 l 2.78125,0 z m -2.78125,-0.21875 C 1.171875,-4 2.015625,-4.25 2.359375,-4.25 c 1.015625,0 1.125,1.34375 1.125,1.734375 l -2.375,0 z m 0,0"
             id="path3673" />
        </symbol>
        <symbol
           style="overflow:visible"
           overflow="visible"
           id="textext-075db371-6">
          <path
             style="stroke:none"
             d="m 3.78125,-0.546875 0,0.65625 L 5.25,0 l 0,-0.3125 c -0.6875,0 -0.78125,-0.0625 -0.78125,-0.5625 l 0,-6.046875 -1.421875,0.109375 0,0.3125 c 0.6875,0 0.765625,0.0625 0.765625,0.5625 l 0,2.15625 c -0.28125,-0.359375 -0.71875,-0.625 -1.25,-0.625 -1.171875,0 -2.21875,0.984375 -2.21875,2.265625 0,1.265625 0.96875,2.25 2.109375,2.25 0.640625,0 1.078125,-0.34375 1.328125,-0.65625 z m 0,-2.671875 0,2.046875 c 0,0.171875 0,0.1875 -0.109375,0.359375 C 3.375,-0.328125 2.9375,-0.109375 2.5,-0.109375 2.046875,-0.109375 1.6875,-0.375 1.453125,-0.75 1.203125,-1.15625 1.171875,-1.71875 1.171875,-2.140625 1.171875,-2.5 1.1875,-3.09375 1.46875,-3.546875 1.6875,-3.859375 2.0625,-4.1875 2.609375,-4.1875 c 0.34375,0 0.765625,0.15625 1.0625,0.59375 0.109375,0.171875 0.109375,0.1875 0.109375,0.375 z m 0,0"
             id="path3676" />
        </symbol>
        <symbol
           style="overflow:visible"
           overflow="visible"
           id="textext-075db371-7">
          <path
             style="stroke:none"
             d="m 3.484375,-3.875 -1.28125,-0.296875 c -0.625,-0.15625 -1,-0.6875 -1,-1.265625 0,-0.703125 0.53125,-1.3125 1.3125,-1.3125 1.65625,0 1.875,1.640625 1.9375,2.078125 0.015625,0.0625 0.015625,0.125 0.125,0.125 0.125,0 0.125,-0.046875 0.125,-0.234375 l 0,-2 c 0,-0.171875 0,-0.25 -0.109375,-0.25 -0.0625,0 -0.078125,0.015625 -0.140625,0.140625 l -0.359375,0.5625 C 3.796875,-6.625 3.390625,-7.03125 2.5,-7.03125 c -1.109375,0 -1.9375,0.875 -1.9375,1.9375 0,0.828125 0.53125,1.5625 1.296875,1.828125 0.109375,0.03125 0.625,0.15625 1.328125,0.328125 0.265625,0.0625 0.5625,0.140625 0.84375,0.5 0.203125,0.265625 0.3125,0.59375 0.3125,0.921875 0,0.703125 -0.5,1.421875 -1.34375,1.421875 -0.28125,0 -1.046875,-0.046875 -1.578125,-0.53125 C 0.84375,-1.171875 0.8125,-1.796875 0.8125,-2.15625 0.796875,-2.265625 0.71875,-2.265625 0.6875,-2.265625 c -0.125,0 -0.125,0.078125 -0.125,0.25 l 0,2 c 0,0.171875 0,0.234375 0.109375,0.234375 0.0625,0 0.078125,-0.015625 0.140625,-0.125 0,-0.015625 0.03125,-0.046875 0.359375,-0.578125 0.3125,0.34375 0.953125,0.703125 1.84375,0.703125 1.15625,0 1.953125,-0.96875 1.953125,-2.078125 0,-0.984375 -0.65625,-1.8125 -1.484375,-2.015625 z m 0,0"
             id="path3679" />
        </symbol>
        <symbol
           style="overflow:visible"
           overflow="visible"
           id="textext-075db371-8">
          <path
             style="stroke:none"
             d="m 3.578125,-3.84375 c -0.40625,0.03125 -0.46875,0.328125 -0.46875,0.453125 0,0.265625 0.1875,0.453125 0.453125,0.453125 0.265625,0 0.46875,-0.15625 0.46875,-0.46875 0,-0.671875 -0.765625,-1.0625 -1.53125,-1.0625 -1.25,0 -2.15625,1.078125 -2.15625,2.3125 0,1.28125 0.984375,2.265625 2.140625,2.265625 1.328125,0 1.65625,-1.203125 1.65625,-1.296875 0,-0.09375 -0.109375,-0.09375 -0.140625,-0.09375 -0.078125,0 -0.109375,0.03125 -0.125,0.09375 -0.28125,0.921875 -0.9375,1.046875 -1.296875,1.046875 -0.53125,0 -1.40625,-0.421875 -1.40625,-2.03125 0,-1.625 0.8125,-2.046875 1.34375,-2.046875 0.09375,0 0.71875,0.015625 1.0625,0.375 z m 0,0"
             id="path3682" />
        </symbol>
        <symbol
           style="overflow:visible"
           overflow="visible"
           id="textext-075db371-9">
          <path
             style="stroke:none"
             d="M 4.6875,-2.140625 C 4.6875,-3.40625 3.703125,-4.46875 2.5,-4.46875 c -1.25,0 -2.21875,1.09375 -2.21875,2.328125 0,1.296875 1.03125,2.25 2.203125,2.25 1.203125,0 2.203125,-0.984375 2.203125,-2.25 z m -2.1875,2 c -0.4375,0 -0.875,-0.203125 -1.140625,-0.671875 -0.25,-0.4375 -0.25,-1.046875 -0.25,-1.40625 0,-0.390625 0,-0.921875 0.234375,-1.359375 C 1.609375,-4.03125 2.078125,-4.25 2.484375,-4.25 c 0.4375,0 0.859375,0.21875 1.125,0.65625 0.265625,0.421875 0.265625,1 0.265625,1.375 0,0.359375 0,0.90625 -0.21875,1.34375 C 3.421875,-0.421875 2.984375,-0.140625 2.5,-0.140625 z m 0,0"
             id="path3685" />
        </symbol>
      </g>
    </defs>
    <g
       id="textext-075db371-10">
      <g
         style="fill:#000000;fill-opacity:1"
         id="g3688">
        <use
           height="344"
           width="343"
           xlink:href="#textext-075db371-1"
           x="223.43201"
           y="134.765"
           id="use3690" />
        <use
           height="344"
           width="343"
           xlink:href="#textext-075db371-2"
           x="230.62698"
           y="134.765"
           id="use3692" />
        <use
           height="344"
           width="343"
           xlink:href="#textext-075db371-3"
           x="235.60829"
           y="134.765"
           id="use3694" />
        <use
           height="344"
           width="343"
           xlink:href="#textext-075db371-4"
           x="239.51064"
           y="134.765"
           id="use3696" />
        <use
           height="344"
           width="343"
           xlink:href="#textext-075db371-5"
           x="243.3851"
           y="134.765"
           id="use3698" />
      </g>
      <g
         style="fill:#000000;fill-opacity:1"
         id="g3700">
        <use
           height="344"
           width="343"
           xlink:href="#textext-075db371-6"
           x="251.13002"
           y="134.765"
           id="use3702" />
        <use
           height="344"
           width="343"
           xlink:href="#textext-075db371-5"
           x="256.66525"
           y="134.765"
           id="use3704" />
      </g>
      <g
         style="fill:#000000;fill-opacity:1"
         id="g3706">
        <use
           height="344"
           width="343"
           xlink:href="#textext-075db371-7"
           x="223.43201"
           y="146.72"
           id="use3708" />
        <use
           height="344"
           width="343"
           xlink:href="#textext-075db371-8"
           x="228.96722"
           y="146.72"
           id="use3710" />
        <use
           height="344"
           width="343"
           xlink:href="#textext-075db371-9"
           x="233.39461"
           y="146.72"
           id="use3712" />
        <use
           height="344"
           width="343"
           xlink:href="#textext-075db371-3"
           x="238.3759"
           y="146.72"
           id="use3714" />
        <use
           height="344"
           width="343"
           xlink:href="#textext-075db371-5"
           x="242.27824"
           y="146.72"
           id="use3716" />
      </g>
    </g>
  </g>
  <g
     id="g3996"
     transform="matrix(3.4897301,0,0,3.4897301,-715.36219,-85.75631)"
     ns0:preamble=""
     ns0:text="Carte\\\\binaire">
    <defs
       id="defs3998">
      <g
         id="g4000">
        <symbol
           id="textext-1222e122-0"
           overflow="visible"
           style="overflow:visible">
          <path
             id="path4003"
             d=""
             style="stroke:none" />
        </symbol>
        <symbol
           id="textext-1222e122-1"
           overflow="visible"
           style="overflow:visible">
          <path
             id="path4006"
             d="m 6.625,-6.78125 c 0,-0.171875 0,-0.25 -0.109375,-0.25 -0.03125,0 -0.078125,0 -0.15625,0.125 l -0.5,0.734375 C 5.5,-6.53125 4.984375,-7.03125 4.03125,-7.03125 c -1.875,0 -3.46875,1.59375 -3.46875,3.625 0,2.0625 1.609375,3.625 3.46875,3.625 1.625,0 2.59375,-1.390625 2.59375,-2.546875 C 6.625,-2.421875 6.625,-2.5 6.5,-2.5 6.390625,-2.5 6.390625,-2.4375 6.375,-2.328125 6.296875,-0.90625 5.234375,-0.09375 4.140625,-0.09375 c -0.609375,0 -2.5625,-0.328125 -2.5625,-3.3125 0,-2.96875 1.953125,-3.3125 2.5625,-3.3125 1.078125,0 1.96875,0.90625 2.171875,2.359375 0.015625,0.140625 0.015625,0.171875 0.15625,0.171875 0.15625,0 0.15625,-0.03125 0.15625,-0.234375 l 0,-2.359375 z m 0,0"
             style="stroke:none" />
        </symbol>
        <symbol
           id="textext-1222e122-2"
           overflow="visible"
           style="overflow:visible">
          <path
             id="path4009"
             d="m 3.3125,-0.75 c 0.046875,0.390625 0.3125,0.8125 0.78125,0.8125 0.21875,0 0.828125,-0.140625 0.828125,-0.953125 l 0,-0.5625 -0.25,0 0,0.5625 c 0,0.578125 -0.25,0.640625 -0.359375,0.640625 -0.328125,0 -0.375,-0.453125 -0.375,-0.5 l 0,-1.984375 c 0,-0.421875 0,-0.8125 -0.359375,-1.1875 C 3.1875,-4.3125 2.6875,-4.46875 2.21875,-4.46875 c -0.828125,0 -1.515625,0.46875 -1.515625,1.125 0,0.296875 0.203125,0.46875 0.46875,0.46875 0.28125,0 0.453125,-0.203125 0.453125,-0.453125 0,-0.125 -0.046875,-0.453125 -0.515625,-0.453125 C 1.390625,-4.140625 1.875,-4.25 2.1875,-4.25 c 0.5,0 1.0625,0.390625 1.0625,1.28125 l 0,0.359375 c -0.515625,0.03125 -1.203125,0.0625 -1.828125,0.359375 -0.75,0.34375 -1,0.859375 -1,1.296875 0,0.8125 0.96875,1.0625 1.59375,1.0625 0.65625,0 1.109375,-0.40625 1.296875,-0.859375 z M 3.25,-2.390625 l 0,1 c 0,0.9375 -0.71875,1.28125 -1.171875,1.28125 -0.484375,0 -0.890625,-0.34375 -0.890625,-0.84375 0,-0.546875 0.421875,-1.375 2.0625,-1.4375 z m 0,0"
             style="stroke:none" />
        </symbol>
        <symbol
           id="textext-1222e122-3"
           overflow="visible"
           style="overflow:visible">
          <path
             id="path4012"
             d="m 1.71875,-0.78125 0,-1.53125 c 0,-0.984375 0.421875,-1.875 1.171875,-1.875 0.0625,0 0.09375,0 0.109375,0.015625 -0.03125,0 -0.234375,0.125 -0.234375,0.390625 0,0.265625 0.21875,0.421875 0.4375,0.421875 0.171875,0 0.421875,-0.125 0.421875,-0.4375 0,-0.3125 -0.3125,-0.609375 -0.734375,-0.609375 -0.734375,0 -1.09375,0.671875 -1.21875,1.09375 l 0,-1.09375 -1.390625,0.109375 0,0.3125 c 0.703125,0 0.78125,0.0625 0.78125,0.5625 l 0,2.671875 c 0,0.4375 -0.109375,0.4375 -0.78125,0.4375 l 0,0.3125 c 0.390625,-0.015625 0.859375,-0.03125 1.140625,-0.03125 0.390625,0 0.859375,0 1.265625,0.03125 l 0,-0.3125 -0.21875,0 c -0.734375,0 -0.75,-0.109375 -0.75,-0.46875 z m 0,0"
             style="stroke:none" />
        </symbol>
        <symbol
           id="textext-1222e122-4"
           overflow="visible"
           style="overflow:visible">
          <path
             id="path4015"
             d="m 1.71875,-3.984375 1.4375,0 0,-0.3125 -1.4375,0 0,-1.828125 -0.25,0 c 0,0.8125 -0.296875,1.875 -1.28125,1.921875 l 0,0.21875 0.84375,0 0,2.75 c 0,1.21875 0.9375,1.34375 1.296875,1.34375 0.703125,0 0.984375,-0.703125 0.984375,-1.34375 l 0,-0.5625 -0.25,0 0,0.546875 c 0,0.734375 -0.296875,1.109375 -0.671875,1.109375 -0.671875,0 -0.671875,-0.90625 -0.671875,-1.078125 l 0,-2.765625 z m 0,0"
             style="stroke:none" />
        </symbol>
        <symbol
           id="textext-1222e122-5"
           overflow="visible"
           style="overflow:visible">
          <path
             id="path4018"
             d="m 3.890625,-2.296875 c 0.21875,0 0.25,0 0.25,-0.21875 0,-0.984375 -0.546875,-1.953125 -1.78125,-1.953125 -1.15625,0 -2.078125,1.03125 -2.078125,2.28125 0,1.328125 1.046875,2.296875 2.1875,2.296875 C 3.6875,0.109375 4.140625,-1 4.140625,-1.1875 4.140625,-1.28125 4.0625,-1.3125 4,-1.3125 c -0.078125,0 -0.109375,0.0625 -0.125,0.140625 -0.34375,1.03125 -1.25,1.03125 -1.34375,1.03125 -0.5,0 -0.890625,-0.296875 -1.125,-0.671875 -0.296875,-0.46875 -0.296875,-1.125 -0.296875,-1.484375 l 2.78125,0 z m -2.78125,-0.21875 C 1.171875,-4 2.015625,-4.25 2.359375,-4.25 c 1.015625,0 1.125,1.34375 1.125,1.734375 l -2.375,0 z m 0,0"
             style="stroke:none" />
        </symbol>
        <symbol
           id="textext-1222e122-6"
           overflow="visible"
           style="overflow:visible">
          <path
             id="path4021"
             d="m 1.71875,-3.765625 0,-3.15625 -1.4375,0.109375 0,0.3125 c 0.703125,0 0.78125,0.0625 0.78125,0.5625 l 0,5.9375 0.25,0 c 0,-0.015625 0.078125,-0.15625 0.359375,-0.625 0.140625,0.234375 0.5625,0.734375 1.296875,0.734375 1.1875,0 2.21875,-0.984375 2.21875,-2.265625 0,-1.265625 -0.96875,-2.25 -2.109375,-2.25 -0.78125,0 -1.203125,0.46875 -1.359375,0.640625 z m 0.03125,2.625 0,-2.046875 c 0,-0.1875 0,-0.203125 0.109375,-0.359375 C 2.25,-4.109375 2.796875,-4.1875 3.03125,-4.1875 c 0.453125,0 0.8125,0.265625 1.046875,0.640625 0.265625,0.40625 0.28125,0.96875 0.28125,1.390625 0,0.359375 -0.015625,0.953125 -0.296875,1.40625 -0.21875,0.3125 -0.59375,0.640625 -1.125,0.640625 -0.453125,0 -0.8125,-0.234375 -1.046875,-0.609375 C 1.75,-0.921875 1.75,-0.953125 1.75,-1.140625 z m 0,0"
             style="stroke:none" />
        </symbol>
        <symbol
           id="textext-1222e122-7"
           overflow="visible"
           style="overflow:visible">
          <path
             id="path4024"
             d="M 1.765625,-4.40625 0.375,-4.296875 l 0,0.3125 c 0.640625,0 0.734375,0.0625 0.734375,0.546875 l 0,2.6875 c 0,0.4375 -0.109375,0.4375 -0.78125,0.4375 l 0,0.3125 C 0.640625,-0.015625 1.1875,-0.03125 1.421875,-0.03125 1.78125,-0.03125 2.125,-0.015625 2.46875,0 l 0,-0.3125 c -0.671875,0 -0.703125,-0.046875 -0.703125,-0.4375 l 0,-3.65625 z m 0.03125,-1.734375 c 0,-0.3125 -0.234375,-0.53125 -0.515625,-0.53125 -0.3125,0 -0.53125,0.265625 -0.53125,0.53125 0,0.265625 0.21875,0.53125 0.53125,0.53125 0.28125,0 0.515625,-0.21875 0.515625,-0.53125 z m 0,0"
             style="stroke:none" />
        </symbol>
        <symbol
           id="textext-1222e122-8"
           overflow="visible"
           style="overflow:visible">
          <path
             id="path4027"
             d="m 1.09375,-3.421875 0,2.671875 c 0,0.4375 -0.109375,0.4375 -0.78125,0.4375 l 0,0.3125 c 0.359375,-0.015625 0.859375,-0.03125 1.140625,-0.03125 0.25,0 0.765625,0.015625 1.109375,0.03125 l 0,-0.3125 c -0.671875,0 -0.78125,0 -0.78125,-0.4375 l 0,-1.84375 C 1.78125,-3.625 2.5,-4.1875 3.125,-4.1875 c 0.640625,0 0.75,0.53125 0.75,1.109375 l 0,2.328125 c 0,0.4375 -0.109375,0.4375 -0.78125,0.4375 l 0,0.3125 c 0.34375,-0.015625 0.859375,-0.03125 1.125,-0.03125 0.25,0 0.78125,0.015625 1.109375,0.03125 l 0,-0.3125 c -0.515625,0 -0.765625,0 -0.765625,-0.296875 l 0,-1.90625 c 0,-0.859375 0,-1.15625 -0.3125,-1.515625 -0.140625,-0.171875 -0.46875,-0.375 -1.046875,-0.375 C 2.46875,-4.40625 2,-3.984375 1.71875,-3.359375 l 0,-1.046875 -1.40625,0.109375 0,0.3125 c 0.703125,0 0.78125,0.0625 0.78125,0.5625 z m 0,0"
             style="stroke:none" />
        </symbol>
      </g>
    </defs>
    <g
       id="textext-1222e122-9">
      <g
         id="g4030"
         style="fill:#000000;fill-opacity:1">
        <use
           id="use4032"
           y="134.765"
           x="223.43201"
           xlink:href="#textext-1222e122-1"
           width="343"
           height="344" />
        <use
           id="use4034"
           y="134.765"
           x="230.62698"
           xlink:href="#textext-1222e122-2"
           width="343"
           height="344" />
        <use
           id="use4036"
           y="134.765"
           x="235.60829"
           xlink:href="#textext-1222e122-3"
           width="343"
           height="344" />
        <use
           id="use4038"
           y="134.765"
           x="239.51064"
           xlink:href="#textext-1222e122-4"
           width="343"
           height="344" />
        <use
           id="use4040"
           y="134.765"
           x="243.3851"
           xlink:href="#textext-1222e122-5"
           width="343"
           height="344" />
      </g>
      <g
         id="g4042"
         style="fill:#000000;fill-opacity:1">
        <use
           id="use4044"
           y="146.72"
           x="223.43201"
           xlink:href="#textext-1222e122-6"
           width="343"
           height="344" />
        <use
           id="use4046"
           y="146.72"
           x="228.96722"
           xlink:href="#textext-1222e122-7"
           width="343"
           height="344" />
        <use
           id="use4048"
           y="146.72"
           x="231.73483"
           xlink:href="#textext-1222e122-8"
           width="343"
           height="344" />
        <use
           id="use4050"
           y="146.72"
           x="237.27005"
           xlink:href="#textext-1222e122-2"
           width="343"
           height="344" />
        <use
           id="use4052"
           y="146.72"
           x="242.25136"
           xlink:href="#textext-1222e122-7"
           width="343"
           height="344" />
        <use
           id="use4054"
           y="146.72"
           x="245.01897"
           xlink:href="#textext-1222e122-3"
           width="343"
           height="344" />
        <use
           id="use4056"
           y="146.72"
           x="248.92131"
           xlink:href="#textext-1222e122-5"
           width="343"
           height="344" />
      </g>
    </g>
  </g>
  <g
     id="g4744"
     transform="matrix(3.4897301,0,0,3.4897301,-195.36219,-85.75631)"
     ns0:preamble=""
     ns0:text="Agr\\\'egats">
    <defs
       id="defs4746">
      <g
         id="g4748">
        <symbol
           id="textext-9b87169a-0"
           overflow="visible"
           style="overflow:visible">
          <path
             id="path4751"
             d=""
             style="stroke:none" />
        </symbol>
        <symbol
           id="textext-9b87169a-1"
           overflow="visible"
           style="overflow:visible">
          <path
             id="path4754"
             d="m 3.96875,-6.9375 c -0.046875,-0.125 -0.078125,-0.203125 -0.234375,-0.203125 -0.15625,0 -0.1875,0.0625 -0.234375,0.203125 L 1.4375,-0.984375 C 1.25,-0.46875 0.859375,-0.3125 0.3125,-0.3125 l 0,0.3125 c 0.234375,-0.015625 0.671875,-0.03125 1.015625,-0.03125 0.3125,0 0.828125,0.015625 1.15625,0.03125 l 0,-0.3125 c -0.5,0 -0.75,-0.25 -0.75,-0.5 0,-0.03125 0.015625,-0.140625 0.015625,-0.15625 l 0.46875,-1.296875 2.453125,0 0.53125,1.515625 c 0.015625,0.046875 0.03125,0.109375 0.03125,0.140625 0,0.296875 -0.5625,0.296875 -0.828125,0.296875 l 0,0.3125 c 0.359375,-0.03125 1.0625,-0.03125 1.4375,-0.03125 0.421875,0 0.890625,0.015625 1.296875,0.03125 l 0,-0.3125 -0.171875,0 C 6.375,-0.3125 6.234375,-0.375 6.125,-0.703125 L 3.96875,-6.9375 z m -0.53125,1.109375 1.125,3.25 -2.234375,0 1.109375,-3.25 z m 0,0"
             style="stroke:none" />
        </symbol>
        <symbol
           id="textext-9b87169a-2"
           overflow="visible"
           style="overflow:visible">
          <path
             id="path4757"
             d="m 2.21875,-1.71875 c -0.875,0 -0.875,-1 -0.875,-1.21875 0,-0.265625 0.015625,-0.59375 0.15625,-0.84375 0.078125,-0.109375 0.3125,-0.390625 0.71875,-0.390625 0.859375,0 0.859375,0.984375 0.859375,1.21875 0,0.265625 0,0.59375 -0.15625,0.84375 C 2.84375,-2 2.609375,-1.71875 2.21875,-1.71875 z m -1,-0.078125 c 0.390625,0.28125 0.8125,0.3125 1,0.3125 0.921875,0 1.609375,-0.6875 1.609375,-1.453125 0,-0.375 -0.15625,-0.734375 -0.40625,-0.96875 C 3.78125,-4.25 4.140625,-4.296875 4.3125,-4.296875 c 0.03125,0 0.078125,0 0.109375,0.015625 C 4.3125,-4.25 4.25,-4.140625 4.25,-4.015625 c 0,0.171875 0.140625,0.28125 0.296875,0.28125 0.09375,0 0.28125,-0.0625 0.28125,-0.296875 0,-0.171875 -0.109375,-0.484375 -0.5,-0.484375 -0.203125,0 -0.640625,0.0625 -1.0625,0.46875 C 2.84375,-4.375 2.4375,-4.40625 2.21875,-4.40625 c -0.9375,0 -1.625,0.6875 -1.625,1.453125 0,0.4375 0.21875,0.8125 0.46875,1.03125 -0.125,0.140625 -0.3125,0.46875 -0.3125,0.828125 0,0.3125 0.140625,0.6875 0.453125,0.890625 -0.609375,0.15625 -0.921875,0.59375 -0.921875,0.984375 0,0.71875 0.984375,1.265625 2.203125,1.265625 1.171875,0 2.203125,-0.5 2.203125,-1.28125 0,-0.34375 -0.125,-0.859375 -0.640625,-1.140625 -0.53125,-0.265625 -1.109375,-0.265625 -1.71875,-0.265625 -0.25,0 -0.671875,0 -0.75,-0.015625 C 1.265625,-0.703125 1.0625,-1 1.0625,-1.328125 c 0,-0.03125 0,-0.265625 0.15625,-0.46875 z M 2.5,1.828125 c -1.015625,0 -1.703125,-0.515625 -1.703125,-1.046875 0,-0.453125 0.375,-0.828125 0.8125,-0.84375 l 0.59375,0 c 0.859375,0 1.96875,0 1.96875,0.84375 0,0.546875 -0.703125,1.046875 -1.671875,1.046875 z m 0,0"
             style="stroke:none" />
        </symbol>
        <symbol
           id="textext-9b87169a-3"
           overflow="visible"
           style="overflow:visible">
          <path
             id="path4760"
             d="m 1.71875,-0.78125 0,-1.53125 c 0,-0.984375 0.421875,-1.875 1.171875,-1.875 0.0625,0 0.09375,0 0.109375,0.015625 -0.03125,0 -0.234375,0.125 -0.234375,0.390625 0,0.265625 0.21875,0.421875 0.4375,0.421875 0.171875,0 0.421875,-0.125 0.421875,-0.4375 0,-0.3125 -0.3125,-0.609375 -0.734375,-0.609375 -0.734375,0 -1.09375,0.671875 -1.21875,1.09375 l 0,-1.09375 -1.390625,0.109375 0,0.3125 c 0.703125,0 0.78125,0.0625 0.78125,0.5625 l 0,2.671875 c 0,0.4375 -0.109375,0.4375 -0.78125,0.4375 l 0,0.3125 c 0.390625,-0.015625 0.859375,-0.03125 1.140625,-0.03125 0.390625,0 0.859375,0 1.265625,0.03125 l 0,-0.3125 -0.21875,0 c -0.734375,0 -0.75,-0.109375 -0.75,-0.46875 z m 0,0"
             style="stroke:none" />
        </symbol>
        <symbol
           id="textext-9b87169a-4"
           overflow="visible"
           style="overflow:visible">
          <path
             id="path4763"
             d="M 3.734375,-6.296875 C 3.828125,-6.375 3.90625,-6.484375 3.90625,-6.59375 c 0,-0.1875 -0.171875,-0.359375 -0.359375,-0.359375 -0.140625,0 -0.25,0.109375 -0.296875,0.171875 l -1.203125,1.515625 0.171875,0.1875 1.515625,-1.21875 z m 0,0"
             style="stroke:none" />
        </symbol>
        <symbol
           id="textext-9b87169a-5"
           overflow="visible"
           style="overflow:visible">
          <path
             id="path4766"
             d="m 3.890625,-2.296875 c 0.21875,0 0.25,0 0.25,-0.21875 0,-0.984375 -0.546875,-1.953125 -1.78125,-1.953125 -1.15625,0 -2.078125,1.03125 -2.078125,2.28125 0,1.328125 1.046875,2.296875 2.1875,2.296875 C 3.6875,0.109375 4.140625,-1 4.140625,-1.1875 4.140625,-1.28125 4.0625,-1.3125 4,-1.3125 c -0.078125,0 -0.109375,0.0625 -0.125,0.140625 -0.34375,1.03125 -1.25,1.03125 -1.34375,1.03125 -0.5,0 -0.890625,-0.296875 -1.125,-0.671875 -0.296875,-0.46875 -0.296875,-1.125 -0.296875,-1.484375 l 2.78125,0 z m -2.78125,-0.21875 C 1.171875,-4 2.015625,-4.25 2.359375,-4.25 c 1.015625,0 1.125,1.34375 1.125,1.734375 l -2.375,0 z m 0,0"
             style="stroke:none" />
        </symbol>
        <symbol
           id="textext-9b87169a-6"
           overflow="visible"
           style="overflow:visible">
          <path
             id="path4769"
             d="m 3.3125,-0.75 c 0.046875,0.390625 0.3125,0.8125 0.78125,0.8125 0.21875,0 0.828125,-0.140625 0.828125,-0.953125 l 0,-0.5625 -0.25,0 0,0.5625 c 0,0.578125 -0.25,0.640625 -0.359375,0.640625 -0.328125,0 -0.375,-0.453125 -0.375,-0.5 l 0,-1.984375 c 0,-0.421875 0,-0.8125 -0.359375,-1.1875 C 3.1875,-4.3125 2.6875,-4.46875 2.21875,-4.46875 c -0.828125,0 -1.515625,0.46875 -1.515625,1.125 0,0.296875 0.203125,0.46875 0.46875,0.46875 0.28125,0 0.453125,-0.203125 0.453125,-0.453125 0,-0.125 -0.046875,-0.453125 -0.515625,-0.453125 C 1.390625,-4.140625 1.875,-4.25 2.1875,-4.25 c 0.5,0 1.0625,0.390625 1.0625,1.28125 l 0,0.359375 c -0.515625,0.03125 -1.203125,0.0625 -1.828125,0.359375 -0.75,0.34375 -1,0.859375 -1,1.296875 0,0.8125 0.96875,1.0625 1.59375,1.0625 0.65625,0 1.109375,-0.40625 1.296875,-0.859375 z M 3.25,-2.390625 l 0,1 c 0,0.9375 -0.71875,1.28125 -1.171875,1.28125 -0.484375,0 -0.890625,-0.34375 -0.890625,-0.84375 0,-0.546875 0.421875,-1.375 2.0625,-1.4375 z m 0,0"
             style="stroke:none" />
        </symbol>
        <symbol
           id="textext-9b87169a-7"
           overflow="visible"
           style="overflow:visible">
          <path
             id="path4772"
             d="m 1.71875,-3.984375 1.4375,0 0,-0.3125 -1.4375,0 0,-1.828125 -0.25,0 c 0,0.8125 -0.296875,1.875 -1.28125,1.921875 l 0,0.21875 0.84375,0 0,2.75 c 0,1.21875 0.9375,1.34375 1.296875,1.34375 0.703125,0 0.984375,-0.703125 0.984375,-1.34375 l 0,-0.5625 -0.25,0 0,0.546875 c 0,0.734375 -0.296875,1.109375 -0.671875,1.109375 -0.671875,0 -0.671875,-0.90625 -0.671875,-1.078125 l 0,-2.765625 z m 0,0"
             style="stroke:none" />
        </symbol>
        <symbol
           id="textext-9b87169a-8"
           overflow="visible"
           style="overflow:visible">
          <path
             id="path4775"
             d="m 2.078125,-1.9375 c 0.21875,0.046875 1.03125,0.203125 1.03125,0.921875 0,0.5 -0.34375,0.90625 -1.125,0.90625 -0.84375,0 -1.203125,-0.5625 -1.390625,-1.421875 C 0.5625,-1.65625 0.5625,-1.6875 0.453125,-1.6875 c -0.125,0 -0.125,0.0625 -0.125,0.234375 l 0,1.328125 c 0,0.171875 0,0.234375 0.109375,0.234375 0.046875,0 0.0625,-0.015625 0.25,-0.203125 0.015625,-0.015625 0.015625,-0.03125 0.203125,-0.21875 0.4375,0.40625 0.890625,0.421875 1.09375,0.421875 1.140625,0 1.609375,-0.671875 1.609375,-1.390625 0,-0.515625 -0.296875,-0.828125 -0.421875,-0.9375 C 2.84375,-2.546875 2.453125,-2.625 2.03125,-2.703125 1.46875,-2.8125 0.8125,-2.9375 0.8125,-3.515625 c 0,-0.359375 0.25,-0.765625 1.109375,-0.765625 1.09375,0 1.15625,0.90625 1.171875,1.203125 0,0.09375 0.09375,0.09375 0.109375,0.09375 0.140625,0 0.140625,-0.046875 0.140625,-0.234375 l 0,-1.015625 c 0,-0.15625 0,-0.234375 -0.109375,-0.234375 -0.046875,0 -0.078125,0 -0.203125,0.125 -0.03125,0.03125 -0.125,0.125 -0.171875,0.15625 -0.375,-0.28125 -0.78125,-0.28125 -0.9375,-0.28125 -1.21875,0 -1.59375,0.671875 -1.59375,1.234375 0,0.34375 0.15625,0.625 0.421875,0.84375 0.328125,0.25 0.609375,0.3125 1.328125,0.453125 z m 0,0"
             style="stroke:none" />
        </symbol>
      </g>
    </defs>
    <g
       id="textext-9b87169a-9">
      <g
         id="g4778"
         style="fill:#000000;fill-opacity:1">
        <use
           id="use4780"
           y="134.765"
           x="223.43201"
           xlink:href="#textext-9b87169a-1"
           width="343"
           height="344" />
        <use
           id="use4782"
           y="134.765"
           x="230.90395"
           xlink:href="#textext-9b87169a-2"
           width="343"
           height="344" />
        <use
           id="use4784"
           y="134.765"
           x="235.88525"
           xlink:href="#textext-9b87169a-3"
           width="343"
           height="344" />
      </g>
      <g
         id="g4786"
         style="fill:#000000;fill-opacity:1">
        <use
           id="use4788"
           y="134.765"
           x="239.50865"
           xlink:href="#textext-9b87169a-4"
           width="343"
           height="344" />
      </g>
      <g
         id="g4790"
         style="fill:#000000;fill-opacity:1">
        <use
           id="use4792"
           y="134.765"
           x="239.7876"
           xlink:href="#textext-9b87169a-5"
           width="343"
           height="344" />
        <use
           id="use4794"
           y="134.765"
           x="244.21498"
           xlink:href="#textext-9b87169a-2"
           width="343"
           height="344" />
        <use
           id="use4796"
           y="134.765"
           x="249.19627"
           xlink:href="#textext-9b87169a-6"
           width="343"
           height="344" />
        <use
           id="use4798"
           y="134.765"
           x="254.17758"
           xlink:href="#textext-9b87169a-7"
           width="343"
           height="344" />
        <use
           id="use4800"
           y="134.765"
           x="258.05203"
           xlink:href="#textext-9b87169a-8"
           width="343"
           height="344" />
      </g>
    </g>
  </g>
  <text
     xml:space="preserve"
     style="font-size:40px;font-style:normal;font-weight:normal;fill:#000000;fill-opacity:1;stroke:none;font-family:Bitstream Vera Sans"
     x="221.44769"
     y="42.526367"
     id="text4973"><tspan
       sodipodi:role="line"
       id="tspan4975"
       x="221.44769"
       y="42.526367">a) Classification</tspan></text>
  <path
     style="fill:none;stroke:#000000;stroke-width:1.79999995;stroke-linecap:butt;stroke-linejoin:miter;stroke-miterlimit:4;stroke-opacity:1;stroke-dasharray:none;marker-mid:none;marker-end:url(#Arrow1Lend)"
     d="m 256.60251,101.44687 c 114.44714,-114.447144 243.24686,0 243.24686,0"
     id="path4977"
     sodipodi:nodetypes="cc" />
  <text
     id="text6565"
     y="510.31519"
     x="58.075203"
     style="font-size:40px;font-style:normal;font-weight:normal;fill:#000000;fill-opacity:1;stroke:none;font-family:Bitstream Vera Sans"
     xml:space="preserve"
     transform="matrix(0.8497036,-0.52726065,0.52726065,0.8497036,0,0)"><tspan
       y="510.31519"
       x="58.075203"
       id="tspan6567"
       sodipodi:role="line">b) Seuillage</tspan></text>
  <path
     sodipodi:nodetypes="cc"
     id="path6569"
     d="M 604.9205,260.45943 C 312.0371,433.87838 259.48117,451.89038 259.48117,451.89038"
     style="fill:none;stroke:#000000;stroke-width:1.79999995;stroke-linecap:butt;stroke-linejoin:miter;stroke-miterlimit:4;stroke-opacity:1;stroke-dasharray:none;marker-mid:none;marker-end:url(#Arrow1Lend)" />
  <text
     transform="matrix(0.99949523,-0.03176932,0.03176932,0.99949523,0,0)"
     xml:space="preserve"
     style="font-size:40px;font-style:normal;font-weight:normal;fill:#000000;fill-opacity:1;stroke:none;font-family:Bitstream Vera Sans"
     x="208.43372"
     y="649.30615"
     id="text6571"><tspan
       sodipodi:role="line"
       id="tspan6573"
       x="208.43372"
       y="649.30615">c) Aggrgation</tspan></text>
  <path
     style="fill:none;stroke:#000000;stroke-width:1.79999995;stroke-linecap:butt;stroke-linejoin:miter;stroke-miterlimit:4;stroke-opacity:1;stroke-dasharray:none;marker-mid:none;marker-end:url(#Arrow1Lend)"
     d="m 256.60251,577.79834 c 59.75258,39.56121 249.00418,4.31798 249.00418,4.31798"
     id="path6575"
     sodipodi:nodetypes="cc" />
  <g
     id="g6583"
     style="fill:none;stroke:#ff0000;stroke-opacity:1"
     transform="translate(445.15481,22.96988)">
    <path
       sodipodi:nodetypes="cccsscsccc"
       id="path6579"
       d="m -394.7364,64.769874 c -28.42678,6.117155 -31.30544,153.648536 -31.30544,153.648536 l 12.59414,0.35983 c 0,0 -3.95816,-49.6569 10.79498,-64.05021 14.75314,-14.3933 55.41423,-1.79916 61.17155,10.43515 3.58669,7.62171 11.87448,-5.39749 11.87448,-5.39749 0,0 -16.19247,-11.87447 -16.19247,-31.66527 0,-19.79079 19.79079,-26.26778 19.79079,-26.26778 l -0.71966,-37.124504 -68.00837,0.06174 z"
       style="fill:none;stroke:#ff0000;stroke-width:1px;stroke-linecap:butt;stroke-linejoin:miter;stroke-opacity:1" />
    <path
       style="fill:none;stroke:#ff0000;stroke-width:1px;stroke-linecap:butt;stroke-linejoin:miter;stroke-opacity:1"
       d="m -311.79917,65.849372 60.98131,-0.73137 c 0,0 26.58279,41.989398 23.52951,103.563898 0,0 -62.92086,-11.79487 -68.67818,0.43944 -3.58669,7.62171 -11.51465,-6.83682 -11.51465,-6.83682 0,0 33.82427,-10.79497 33.82427,-30.58577 0,-19.79079 -37.42259,-35.2636 -37.42259,-35.2636 l -0.71967,-30.585778"
       id="path6581"
       sodipodi:nodetypes="cccscscc" />
  </g>
  <g
     style="fill:none;stroke:#ff0000;stroke-opacity:1"
     id="g6587"
     transform="translate(965.15481,22.96988)">
    <path
       style="fill:none;stroke:#ff0000;stroke-width:1px;stroke-linecap:butt;stroke-linejoin:miter;stroke-opacity:1"
       d="m -394.7364,64.769874 c -28.42678,6.117155 -31.30544,153.648536 -31.30544,153.648536 l 12.59414,0.35983 c 0,0 -3.95816,-49.6569 10.79498,-64.05021 14.75314,-14.3933 55.41423,-1.79916 61.17155,10.43515 3.58669,7.62171 11.87448,-5.39749 11.87448,-5.39749 0,0 -16.19247,-11.87447 -16.19247,-31.66527 0,-19.79079 19.79079,-26.26778 19.79079,-26.26778 l -0.71966,-37.124504 -68.00837,0.06174 z"
       id="path6589"
       sodipodi:nodetypes="cccsscsccc" />
    <path
       sodipodi:nodetypes="cccscscc"
       id="path6591"
       d="m -311.79917,65.849372 60.98131,-0.73137 c 0,0 26.58279,41.989398 23.52951,103.563898 0,0 -62.92086,-11.79487 -68.67818,0.43944 -3.58669,7.62171 -11.51465,-6.83682 -11.51465,-6.83682 0,0 33.82427,-10.79497 33.82427,-30.58577 0,-19.79079 -37.42259,-35.2636 -37.42259,-35.2636 l -0.71967,-30.585778"
       style="fill:none;stroke:#ff0000;stroke-width:1px;stroke-linecap:butt;stroke-linejoin:miter;stroke-opacity:1" />
  </g>
  <g
     transform="translate(965.15481,382.96988)"
     id="g6593"
     style="fill:none;stroke:#ff0000;stroke-opacity:1">
    <path
       sodipodi:nodetypes="cccsscsccc"
       id="path6595"
       d="m -394.7364,64.769874 c -28.42678,6.117155 -31.30544,153.648536 -31.30544,153.648536 l 12.59414,0.35983 c 0,0 -3.95816,-49.6569 10.79498,-64.05021 14.75314,-14.3933 55.41423,-1.79916 61.17155,10.43515 3.58669,7.62171 11.87448,-5.39749 11.87448,-5.39749 0,0 -16.19247,-11.87447 -16.19247,-31.66527 0,-19.79079 19.79079,-26.26778 19.79079,-26.26778 l -0.71966,-37.124504 -68.00837,0.06174 z"
       style="fill:none;stroke:#ff0000;stroke-width:1px;stroke-linecap:butt;stroke-linejoin:miter;stroke-opacity:1" />
    <path
       style="fill:none;stroke:#ff0000;stroke-width:1px;stroke-linecap:butt;stroke-linejoin:miter;stroke-opacity:1"
       d="m -311.79917,65.849372 60.98131,-0.73137 c 0,0 26.58279,41.989398 23.52951,103.563898 0,0 -62.92086,-11.79487 -68.67818,0.43944 -3.58669,7.62171 -11.51465,-6.83682 -11.51465,-6.83682 0,0 33.82427,-10.79497 33.82427,-30.58577 0,-19.79079 -37.42259,-35.2636 -37.42259,-35.2636 l -0.71967,-30.585778"
       id="path6597"
       sodipodi:nodetypes="cccscscc" />
  </g>
  <g
     style="fill:none;stroke:#ff0000;stroke-opacity:1"
     id="g6599"
     transform="translate(445.15481,382.96988)">
    <path
       style="fill:none;stroke:#ff0000;stroke-width:1px;stroke-linecap:butt;stroke-linejoin:miter;stroke-opacity:1"
       d="m -394.7364,64.769874 c -28.42678,6.117155 -31.30544,153.648536 -31.30544,153.648536 l 12.59414,0.35983 c 0,0 -3.95816,-49.6569 10.79498,-64.05021 14.75314,-14.3933 55.41423,-1.79916 61.17155,10.43515 3.58669,7.62171 11.87448,-5.39749 11.87448,-5.39749 0,0 -16.19247,-11.87447 -16.19247,-31.66527 0,-19.79079 19.79079,-26.26778 19.79079,-26.26778 l -0.71966,-37.124504 -68.00837,0.06174 z"
       id="path6601"
       sodipodi:nodetypes="cccsscsccc" />
    <path
       sodipodi:nodetypes="cccscscc"
       id="path6603"
       d="m -311.79917,65.849372 60.98131,-0.73137 c 0,0 26.58279,41.989398 23.52951,103.563898 0,0 -62.92086,-11.79487 -68.67818,0.43944 -3.58669,7.62171 -11.51465,-6.83682 -11.51465,-6.83682 0,0 33.82427,-10.79497 33.82427,-30.58577 0,-19.79079 -37.42259,-35.2636 -37.42259,-35.2636 l -0.71967,-30.585778"
       style="fill:none;stroke:#ff0000;stroke-width:1px;stroke-linecap:butt;stroke-linejoin:miter;stroke-opacity:1" />
  </g>
  <path
     style="fill:none;stroke:#000000;stroke-width:1px;stroke-linecap:butt;stroke-linejoin:miter;stroke-opacity:1;marker-end:url(#Arrow1Lend)"
     d="m 46.460248,129.48034 c 23.02929,15.83264 23.02929,15.83264 23.02929,15.83264"
     id="path6605" />
  <path
     id="path6981"
     d="m 164.46025,143.48034 c 23.02929,15.83264 23.02929,15.83264 23.02929,15.83264"
     style="fill:none;stroke:#000000;stroke-width:1px;stroke-linecap:butt;stroke-linejoin:miter;stroke-opacity:1;marker-end:url(#Arrow1Lend)" />
  <path
     id="path6983"
     d="m 566.46025,489.48034 c 23.02929,15.83264 23.02929,15.83264 23.02929,15.83264"
     style="fill:#ffffff;fill-opacity:1;stroke:#ffffff;stroke-width:1px;stroke-linecap:butt;stroke-linejoin:miter;stroke-opacity:1;marker-end:url(#EmptyTriangleOutL)" />
  <path
     style="fill:#ffffff;fill-opacity:1;stroke:#ffffff;stroke-width:1px;stroke-linecap:butt;stroke-linejoin:miter;stroke-opacity:1;marker-end:url(#EmptyTriangleOutL)"
     d="m 684.46025,503.48034 c 23.02929,15.83264 23.02929,15.83264 23.02929,15.83264"
     id="path6985" />
  <image
     y="241.48447"
     x="213.38284"
     id="image7250"
     height="649"
     width="765"
     xlink:href="file:///media/Iomega%20HDD/SVM/Static/imageTEP.png"
     clip-path="url(#clipPath7256)"
     transform="translate(-200,-240)" />
</svg>
