<?xml version="1.0" encoding="UTF-8" standalone="no"?>
<!-- Created with Inkscape (http://www.inkscape.org/) -->

<svg
   xmlns:ns0="http://www.iki.fi/pav/software/textext/"
   xmlns:dc="http://purl.org/dc/elements/1.1/"
   xmlns:cc="http://creativecommons.org/ns#"
   xmlns:rdf="http://www.w3.org/1999/02/22-rdf-syntax-ns#"
   xmlns:svg="http://www.w3.org/2000/svg"
   xmlns="http://www.w3.org/2000/svg"
   xmlns:xlink="http://www.w3.org/1999/xlink"
   xmlns:sodipodi="http://sodipodi.sourceforge.net/DTD/sodipodi-0.dtd"
   xmlns:inkscape="http://www.inkscape.org/namespaces/inkscape"
   id="svg2"
   version="1.1"
   inkscape:version="0.47 r22583"
   width="1293.4655"
   height="311.72119"
   sodipodi:docname="courbesRespi.svg">
  <sodipodi:namedview
     pagecolor="#ffffff"
     bordercolor="#666666"
     borderopacity="1"
     objecttolerance="10"
     gridtolerance="10"
     guidetolerance="10"
     inkscape:pageopacity="0"
     inkscape:pageshadow="2"
     inkscape:window-width="1920"
     inkscape:window-height="1009"
     id="namedview4"
     showgrid="false"
     inkscape:zoom="1.7400951"
     inkscape:cx="274.33113"
     inkscape:cy="98.864469"
     inkscape:window-x="0"
     inkscape:window-y="25"
     inkscape:window-maximized="1"
     inkscape:current-layer="svg2" />
  <metadata
     id="metadata8">
    <rdf:RDF>
      <cc:Work
         rdf:about="">
        <dc:format>image/svg+xml</dc:format>
        <dc:type
           rdf:resource="http://purl.org/dc/dcmitype/StillImage" />
        <dc:title></dc:title>
      </cc:Work>
    </rdf:RDF>
  </metadata>
  <defs
     id="defs6">
    <inkscape:perspective
       sodipodi:type="inkscape:persp3d"
       inkscape:vp_x="0 : 0.5 : 1"
       inkscape:vp_y="0 : 1000 : 0"
       inkscape:vp_z="1 : 0.5 : 1"
       inkscape:persp3d-origin="0.5 : 0.33333333 : 1"
       id="perspective10" />
  </defs>
  <image
     xlink:href="file:///home/marache/documentation/Th%C3%A8se/rapportBiblio/images/courbesRespi_data.png"
     width="1262"
     height="261"
     id="image12"
     x="31.465456"
     y="0" />
  <g
     ns0:text="\\textit{Temps (secondes)}"
     ns0:preamble=""
     transform="matrix(4.1985222,0,0,4.1985222,-471.93188,-264.58896)"
     id="g3169">
    <defs
       id="defs3171">
      <g
         id="g3173">
        <symbol
           style="overflow:visible"
           overflow="visible"
           id="textext-a2b110b3-0">
          <path
             style="stroke:none"
             d=""
             id="path3176" />
        </symbol>
        <symbol
           style="overflow:visible"
           overflow="visible"
           id="textext-a2b110b3-1">
          <path
             style="stroke:none"
             d="M 5.5,-6.09375 C 5.578125,-6.390625 5.65625,-6.40625 5.734375,-6.421875 5.8125,-6.4375 6.078125,-6.4375 6.25,-6.4375 c 1.03125,0 1.265625,0.140625 1.265625,0.75 0,0.125 0,0.3125 -0.09375,0.90625 -0.03125,0.109375 -0.03125,0.125 -0.03125,0.140625 C 7.390625,-4.5 7.5,-4.5 7.546875,-4.5 c 0.125,0 0.15625,-0.03125 0.171875,-0.21875 L 8.03125,-6.5 c 0,-0.046875 0,-0.09375 0,-0.125 0,-0.125 -0.09375,-0.125 -0.25,-0.125 l -5.109375,0 C 2.46875,-6.75 2.4375,-6.75 2.375,-6.5625 L 1.796875,-4.78125 C 1.75,-4.65625 1.75,-4.640625 1.75,-4.609375 1.75,-4.5 1.859375,-4.5 1.890625,-4.5 1.9375,-4.5 1.96875,-4.5 2,-4.53125 2.03125,-4.5625 2.03125,-4.5625 2.140625,-4.828125 2.609375,-6.234375 2.875,-6.4375 4.171875,-6.4375 l 0.328125,0 c 0.234375,0 0.234375,0.03125 0.234375,0.109375 0,0.0625 -0.015625,0.15625 -0.046875,0.21875 L 3.359375,-0.75 c -0.09375,0.34375 -0.171875,0.4375 -1.0625,0.4375 l -0.15625,0 c -0.171875,0 -0.28125,0 -0.28125,0.1875 C 1.859375,0 1.984375,0 2.03125,0 2.546875,0 3.078125,-0.03125 3.578125,-0.03125 4.09375,-0.03125 4.640625,0 5.140625,0 c 0.09375,0 0.21875,0 0.21875,-0.203125 0,-0.109375 -0.109375,-0.109375 -0.25,-0.109375 l -0.15625,0 c -0.15625,0 -0.46875,-0.015625 -0.5,-0.015625 C 4.171875,-0.359375 4.125,-0.40625 4.125,-0.53125 c 0,-0.03125 0,-0.0625 0.046875,-0.203125 L 5.5,-6.09375 z m 0,0"
             id="path3179" />
        </symbol>
        <symbol
           style="overflow:visible"
           overflow="visible"
           id="textext-a2b110b3-2">
          <path
             style="stroke:none"
             d="m 2.375,-2.296875 c 0.3125,0 0.96875,-0.03125 1.453125,-0.21875 0.78125,-0.328125 0.78125,-0.96875 0.78125,-1.046875 0,-0.453125 -0.359375,-0.84375 -1,-0.84375 -1.046875,0 -2.46875,1 -2.46875,2.765625 0,0.90625 0.46875,1.75 1.421875,1.75 1.28125,0 2.109375,-1 2.109375,-1.140625 0,-0.0625 -0.09375,-0.171875 -0.171875,-0.171875 -0.03125,0 -0.046875,0.015625 -0.125,0.109375 -0.734375,0.9375 -1.625,0.984375 -1.796875,0.984375 -0.640625,0 -0.75,-0.703125 -0.75,-1.09375 0,-0.375 0.09375,-0.828125 0.171875,-1.09375 l 0.375,0 z m -0.328125,-0.21875 c 0.4375,-1.640625 1.46875,-1.671875 1.5625,-1.671875 0.390625,0 0.625,0.265625 0.625,0.609375 0,1.0625 -1.640625,1.0625 -1.96875,1.0625 l -0.21875,0 z m 0,0"
             id="path3182" />
        </symbol>
        <symbol
           style="overflow:visible"
           overflow="visible"
           id="textext-a2b110b3-3">
          <path
             style="stroke:none"
             d="m 2.296875,-1.75 c 0.046875,-0.21875 0.109375,-0.421875 0.15625,-0.640625 0.125,-0.484375 0.125,-0.515625 0.25,-0.71875 0.28125,-0.5 0.71875,-1.078125 1.40625,-1.078125 0.453125,0 0.453125,0.515625 0.453125,0.65625 0,0.265625 -0.0625,0.5625 -0.09375,0.65625 l -0.640625,2.578125 c -0.015625,0.0625 -0.03125,0.125 -0.03125,0.140625 0,0.109375 0.078125,0.265625 0.28125,0.265625 0.125,0 0.28125,-0.0625 0.359375,-0.265625 L 4.828125,-1.75 C 4.890625,-1.96875 4.9375,-2.171875 5,-2.390625 5.125,-2.875 5.125,-2.90625 5.25,-3.109375 c 0.28125,-0.5 0.71875,-1.078125 1.40625,-1.078125 0.453125,0 0.453125,0.515625 0.453125,0.65625 0,0.625 -0.4375,1.8125 -0.578125,2.203125 -0.125,0.34375 -0.15625,0.4375 -0.15625,0.640625 0,0.4375 0.28125,0.796875 0.75,0.796875 0.9375,0 1.265625,-1.484375 1.265625,-1.53125 0,-0.109375 -0.078125,-0.109375 -0.140625,-0.109375 -0.140625,0 -0.140625,0.03125 -0.171875,0.171875 -0.078125,0.265625 -0.359375,1.25 -0.9375,1.25 -0.203125,0 -0.21875,-0.15625 -0.21875,-0.296875 0,-0.234375 0.109375,-0.5 0.1875,-0.734375 C 7.3125,-1.671875 7.71875,-2.796875 7.71875,-3.375 c 0,-0.828125 -0.578125,-1.03125 -1.046875,-1.03125 -0.703125,0 -1.203125,0.4375 -1.5,0.875 -0.078125,-0.6875 -0.59375,-0.875 -1.046875,-0.875 -0.59375,0 -1.078125,0.328125 -1.421875,0.78125 C 2.625,-4.109375 2.296875,-4.40625 1.859375,-4.40625 1.5,-4.40625 1.3125,-4.171875 1.140625,-3.875 c -0.1875,0.390625 -0.3125,0.984375 -0.3125,1 0,0.109375 0.09375,0.109375 0.15625,0.109375 0.125,0 0.125,-0.015625 0.1875,-0.234375 0.171875,-0.703125 0.359375,-1.1875 0.671875,-1.1875 0.265625,0 0.265625,0.296875 0.265625,0.40625 0,0.15625 -0.03125,0.34375 -0.078125,0.5 l -0.75,2.984375 c -0.015625,0.0625 -0.03125,0.125 -0.03125,0.140625 0,0.109375 0.078125,0.265625 0.28125,0.265625 0.125,0 0.296875,-0.0625 0.359375,-0.265625 L 2.296875,-1.75 z m 0,0"
             id="path3185" />
        </symbol>
        <symbol
           style="overflow:visible"
           overflow="visible"
           id="textext-a2b110b3-4">
          <path
             style="stroke:none"
             d="M 0.890625,1.28125 C 0.8125,1.578125 0.734375,1.609375 0.34375,1.625 c -0.078125,0 -0.203125,0 -0.203125,0.1875 0,0.078125 0.046875,0.125 0.125,0.125 0.265625,0 0.546875,-0.03125 0.828125,-0.03125 0.328125,0 0.65625,0.03125 0.96875,0.03125 0.0625,0 0.1875,0 0.1875,-0.1875 C 2.25,1.625 2.15625,1.625 2.015625,1.625 1.5,1.625 1.5,1.5625 1.5,1.46875 1.5,1.40625 1.578125,1.140625 1.609375,0.984375 L 1.96875,-0.46875 c 0.078125,0.171875 0.328125,0.578125 0.84375,0.578125 1.078125,0 2.265625,-1.46875 2.265625,-2.953125 0,-1.078125 -0.59375,-1.5625 -1.1875,-1.5625 -0.484375,0 -0.921875,0.359375 -1.203125,0.703125 C 2.5625,-4.28125 2.109375,-4.40625 1.859375,-4.40625 1.5,-4.40625 1.3125,-4.171875 1.140625,-3.875 c -0.1875,0.390625 -0.3125,0.984375 -0.3125,1 0,0.109375 0.09375,0.109375 0.15625,0.109375 0.125,0 0.125,-0.015625 0.1875,-0.234375 0.171875,-0.703125 0.359375,-1.1875 0.671875,-1.1875 0.265625,0 0.265625,0.296875 0.265625,0.40625 0,0.046875 0,0.21875 -0.078125,0.484375 L 0.890625,1.28125 z M 2.625,-3.0625 c 0.078125,-0.34375 0.6875,-1.125 1.25,-1.125 0.4375,0 0.546875,0.5625 0.546875,0.890625 0,0.421875 -0.28125,1.609375 -0.5625,2.234375 -0.125,0.25 -0.546875,0.953125 -1.0625,0.953125 -0.578125,0 -0.671875,-0.84375 -0.671875,-0.921875 0,-0.03125 0.015625,-0.0625 0.03125,-0.140625 L 2.625,-3.0625 z m 0,0"
             id="path3188" />
        </symbol>
        <symbol
           style="overflow:visible"
           overflow="visible"
           id="textext-a2b110b3-5">
          <path
             style="stroke:none"
             d="m 3.84375,-3.703125 c -0.3125,0.046875 -0.390625,0.3125 -0.390625,0.40625 0,0.109375 0.0625,0.28125 0.296875,0.28125 0.171875,0 0.421875,-0.109375 0.421875,-0.546875 0,-0.453125 -0.40625,-0.84375 -1.0625,-0.84375 -1.171875,0 -1.578125,0.953125 -1.578125,1.46875 0,0.78125 0.65625,0.90625 0.9375,0.96875 0.4375,0.109375 0.875,0.203125 0.875,0.75 0,0.3125 -0.265625,1.109375 -1.296875,1.109375 -0.21875,0 -0.796875,-0.046875 -0.953125,-0.5625 0.515625,-0.046875 0.515625,-0.46875 0.515625,-0.484375 0,-0.1875 -0.140625,-0.3125 -0.34375,-0.3125 -0.234375,0 -0.515625,0.15625 -0.515625,0.609375 0,0.609375 0.578125,0.96875 1.296875,0.96875 1.484375,0 1.875,-1.21875 1.875,-1.671875 0,-0.875 -0.78125,-1.046875 -1.1875,-1.140625 -0.28125,-0.0625 -0.640625,-0.140625 -0.640625,-0.5625 0,-0.25 0.203125,-0.921875 1,-0.921875 0.28125,0 0.640625,0.09375 0.75,0.484375 z m 0,0"
             id="path3191" />
        </symbol>
        <symbol
           style="overflow:visible"
           overflow="visible"
           id="textext-a2b110b3-6">
          <path
             style="stroke:none"
             d="M 2.703125,2.390625 C 2.703125,2.375 2.703125,2.359375 2.625,2.25 2.09375,1.4375 2.015625,0.59375 2.015625,-0.109375 2.015625,-1.46875 2.609375,-5.15625 5,-7.203125 5.140625,-7.34375 5.140625,-7.34375 5.140625,-7.375 c 0,-0.078125 -0.03125,-0.109375 -0.09375,-0.109375 -0.109375,0 -1.265625,0.8125 -2.125,2.234375 -1.09375,1.796875 -1.40625,3.71875 -1.40625,4.78125 0,0.59375 0.09375,1.21875 0.265625,1.71875 0.25,0.65625 0.6875,1.25 0.828125,1.25 0.046875,0 0.09375,-0.046875 0.09375,-0.109375 z m 0,0"
             id="path3194" />
        </symbol>
        <symbol
           style="overflow:visible"
           overflow="visible"
           id="textext-a2b110b3-7">
          <path
             style="stroke:none"
             d="m 4.34375,-3.765625 c -0.5,0.0625 -0.5,0.46875 -0.5,0.5 0,0.15625 0.109375,0.3125 0.328125,0.3125 0.28125,0 0.515625,-0.21875 0.515625,-0.59375 0,-0.484375 -0.4375,-0.859375 -1.0625,-0.859375 -1.25,0 -2.53125,1.421875 -2.53125,2.875 0,0.984375 0.59375,1.640625 1.46875,1.640625 1.28125,0 2.109375,-1 2.109375,-1.140625 0,-0.0625 -0.09375,-0.171875 -0.171875,-0.171875 -0.03125,0 -0.046875,0.015625 -0.125,0.109375 -0.734375,0.9375 -1.625,0.984375 -1.796875,0.984375 -0.53125,0 -0.78125,-0.453125 -0.78125,-1.03125 0,-0.53125 0.265625,-1.578125 0.53125,-2.046875 0.359375,-0.65625 0.859375,-1 1.296875,-1 0.109375,0 0.5625,0.015625 0.71875,0.421875 z m 0,0"
             id="path3197" />
        </symbol>
        <symbol
           style="overflow:visible"
           overflow="visible"
           id="textext-a2b110b3-8">
          <path
             style="stroke:none"
             d="m 5.078125,-2.765625 c 0,-0.953125 -0.59375,-1.640625 -1.453125,-1.640625 -1.25,0 -2.53125,1.421875 -2.53125,2.875 0,1.015625 0.625,1.640625 1.453125,1.640625 1.234375,0 2.53125,-1.421875 2.53125,-2.875 z m -2.53125,2.65625 c -0.390625,0 -0.75,-0.3125 -0.75,-1.03125 0,-0.5 0.25,-1.59375 0.578125,-2.140625 0.359375,-0.609375 0.84375,-0.90625 1.234375,-0.90625 0.484375,0 0.765625,0.4375 0.765625,1.03125 0,0.421875 -0.21875,1.453125 -0.53125,2.046875 -0.296875,0.546875 -0.796875,1 -1.296875,1 z m 0,0"
             id="path3200" />
        </symbol>
        <symbol
           style="overflow:visible"
           overflow="visible"
           id="textext-a2b110b3-9">
          <path
             style="stroke:none"
             d="M 2.296875,-1.75 C 2.34375,-1.96875 2.40625,-2.171875 2.453125,-2.390625 2.578125,-2.90625 2.578125,-2.90625 2.75,-3.203125 2.890625,-3.4375 3.34375,-4.1875 4.09375,-4.1875 c 0.4375,0 0.46875,0.453125 0.46875,0.65625 0,0.625 -0.453125,1.8125 -0.578125,2.203125 -0.140625,0.34375 -0.171875,0.4375 -0.171875,0.640625 0,0.4375 0.28125,0.796875 0.765625,0.796875 0.921875,0 1.265625,-1.484375 1.265625,-1.53125 0,-0.109375 -0.078125,-0.109375 -0.15625,-0.109375 -0.125,0 -0.125,0.03125 -0.171875,0.171875 -0.078125,0.265625 -0.34375,1.25 -0.921875,1.25 -0.203125,0 -0.21875,-0.15625 -0.21875,-0.296875 0,-0.234375 0.09375,-0.5 0.1875,-0.734375 0.1875,-0.53125 0.59375,-1.65625 0.59375,-2.234375 0,-0.8125 -0.546875,-1.03125 -1.03125,-1.03125 -0.8125,0 -1.296875,0.59375 -1.421875,0.78125 C 2.625,-4.109375 2.296875,-4.40625 1.859375,-4.40625 1.5,-4.40625 1.3125,-4.171875 1.140625,-3.875 c -0.1875,0.390625 -0.3125,0.984375 -0.3125,1 0,0.109375 0.09375,0.109375 0.15625,0.109375 0.125,0 0.125,-0.015625 0.1875,-0.234375 0.171875,-0.703125 0.359375,-1.1875 0.671875,-1.1875 0.265625,0 0.265625,0.296875 0.265625,0.40625 0,0.15625 -0.03125,0.34375 -0.078125,0.5 l -0.75,2.984375 c -0.015625,0.0625 -0.03125,0.125 -0.03125,0.140625 0,0.109375 0.078125,0.265625 0.28125,0.265625 0.125,0 0.296875,-0.0625 0.359375,-0.265625 L 2.296875,-1.75 z m 0,0"
             id="path3203" />
        </symbol>
        <symbol
           style="overflow:visible"
           overflow="visible"
           id="textext-a2b110b3-10">
          <path
             style="stroke:none"
             d="m 5.546875,-6.671875 c 0.015625,-0.03125 0.03125,-0.109375 0.03125,-0.125 0,-0.09375 -0.0625,-0.125 -0.140625,-0.125 -0.03125,0 -0.125,0.015625 -0.15625,0.03125 L 4.296875,-6.8125 c -0.125,0 -0.234375,0.015625 -0.234375,0.203125 C 4.0625,-6.5 4.171875,-6.5 4.3125,-6.5 c 0.46875,0 0.5,0.0625 0.5,0.171875 0,0.03125 -0.03125,0.15625 -0.03125,0.171875 l -0.578125,2.328125 c -0.15625,-0.3125 -0.421875,-0.578125 -0.84375,-0.578125 -1.109375,0 -2.28125,1.515625 -2.28125,2.96875 0,0.84375 0.453125,1.546875 1.203125,1.546875 0.359375,0 0.796875,-0.203125 1.203125,-0.703125 0.109375,0.5 0.46875,0.703125 0.828125,0.703125 0.359375,0 0.578125,-0.25 0.71875,-0.5625 0.1875,-0.375 0.296875,-0.953125 0.296875,-0.96875 0,-0.109375 -0.078125,-0.109375 -0.140625,-0.109375 -0.125,0 -0.140625,0.015625 -0.1875,0.234375 -0.140625,0.5625 -0.328125,1.1875 -0.671875,1.1875 -0.265625,0 -0.265625,-0.265625 -0.265625,-0.40625 0,-0.078125 0,-0.21875 0.0625,-0.46875 l 1.421875,-5.6875 z M 3.53125,-1.21875 C 3.453125,-0.90625 2.84375,-0.109375 2.296875,-0.109375 1.828125,-0.109375 1.75,-0.703125 1.75,-1 1.75,-1.5 2.0625,-2.65625 2.25,-3.078125 2.5,-3.6875 2.953125,-4.1875 3.359375,-4.1875 c 0.078125,0 0.3125,0.015625 0.484375,0.296875 0.109375,0.15625 0.203125,0.4375 0.203125,0.625 0,0.03125 -0.015625,0.078125 -0.03125,0.140625 L 3.53125,-1.21875 z m 0,0"
             id="path3206" />
        </symbol>
        <symbol
           style="overflow:visible"
           overflow="visible"
           id="textext-a2b110b3-11">
          <path
             style="stroke:none"
             d="m 3.8125,-4.515625 c 0,-0.59375 -0.09375,-1.21875 -0.28125,-1.71875 -0.234375,-0.65625 -0.671875,-1.25 -0.8125,-1.25 -0.0625,0 -0.09375,0.046875 -0.09375,0.109375 0,0.015625 0,0.03125 0.0625,0.140625 0.546875,0.8125 0.625,1.65625 0.625,2.359375 0,1.359375 -0.59375,5.046875 -2.984375,7.09375 C 0.1875,2.359375 0.171875,2.359375 0.171875,2.390625 0.171875,2.46875 0.21875,2.5 0.28125,2.5 c 0.109375,0 1.25,-0.8125 2.125,-2.234375 C 3.5,-1.53125 3.8125,-3.453125 3.8125,-4.515625 z m 0,0"
             id="path3209" />
        </symbol>
      </g>
    </defs>
    <g
       id="textext-a2b110b3-12">
      <g
         style="fill:#000000;fill-opacity:1"
         id="g3212">
        <use
           height="261"
           width="1262"
           xlink:href="#textext-a2b110b3-1"
           x="223.43201"
           y="134.765"
           id="use3214" />
      </g>
      <g
         style="fill:#000000;fill-opacity:1"
         id="g3216">
        <use
           height="261"
           width="1262"
           xlink:href="#textext-a2b110b3-2"
           x="229.79411"
           y="134.765"
           id="use3218" />
        <use
           height="261"
           width="1262"
           xlink:href="#textext-a2b110b3-3"
           x="234.37691"
           y="134.765"
           id="use3220" />
        <use
           height="261"
           width="1262"
           xlink:href="#textext-a2b110b3-4"
           x="242.52432"
           y="134.765"
           id="use3222" />
        <use
           height="261"
           width="1262"
           xlink:href="#textext-a2b110b3-5"
           x="247.61621"
           y="134.765"
           id="use3224" />
      </g>
      <g
         style="fill:#000000;fill-opacity:1"
         id="g3226">
        <use
           height="261"
           width="1262"
           xlink:href="#textext-a2b110b3-6"
           x="255.25653"
           y="134.765"
           id="use3228" />
        <use
           height="261"
           width="1262"
           xlink:href="#textext-a2b110b3-5"
           x="259.33023"
           y="134.765"
           id="use3230" />
        <use
           height="261"
           width="1262"
           xlink:href="#textext-a2b110b3-2"
           x="263.40393"
           y="134.765"
           id="use3232" />
      </g>
      <g
         style="fill:#000000;fill-opacity:1"
         id="g3234">
        <use
           height="261"
           width="1262"
           xlink:href="#textext-a2b110b3-7"
           x="267.47864"
           y="134.765"
           id="use3236" />
      </g>
      <g
         style="fill:#000000;fill-opacity:1"
         id="g3238">
        <use
           height="261"
           width="1262"
           xlink:href="#textext-a2b110b3-8"
           x="271.55334"
           y="134.765"
           id="use3240" />
        <use
           height="261"
           width="1262"
           xlink:href="#textext-a2b110b3-9"
           x="276.64523"
           y="134.765"
           id="use3242" />
        <use
           height="261"
           width="1262"
           xlink:href="#textext-a2b110b3-10"
           x="282.24622"
           y="134.765"
           id="use3244" />
        <use
           height="261"
           width="1262"
           xlink:href="#textext-a2b110b3-2"
           x="287.3381"
           y="134.765"
           id="use3246" />
        <use
           height="261"
           width="1262"
           xlink:href="#textext-a2b110b3-5"
           x="291.9209"
           y="134.765"
           id="use3248" />
        <use
           height="261"
           width="1262"
           xlink:href="#textext-a2b110b3-11"
           x="295.9946"
           y="134.765"
           id="use3250" />
      </g>
    </g>
  </g>
  <g
     id="g2947"
     transform="matrix(0,-4.1985222,4.1985222,0,-534.68659,1138.836)"
     ns0:preamble=""
     ns0:text="\\textit{Amplitude}">
    <defs
       id="defs2949">
      <g
         id="g2951">
        <symbol
           id="textext-add32c7f-0"
           overflow="visible"
           style="overflow:visible">
          <path
             id="path2954"
             d=""
             style="stroke:none" />
        </symbol>
        <symbol
           id="textext-add32c7f-1"
           overflow="visible"
           style="overflow:visible">
          <path
             id="path2957"
             d="M 1.90625,-1.125 C 1.484375,-0.375 1.0625,-0.328125 0.703125,-0.3125 0.59375,-0.296875 0.59375,-0.125 0.59375,-0.125 c 0,0.03125 0,0.125 0.109375,0.125 C 0.953125,0 1.25,-0.03125 1.5,-0.03125 1.8125,-0.03125 2.140625,0 2.4375,0 c 0.046875,0 0.171875,0 0.171875,-0.1875 0,-0.109375 -0.078125,-0.109375 -0.15625,-0.125 -0.0625,0 -0.421875,-0.03125 -0.421875,-0.328125 0,-0.09375 0.046875,-0.21875 0.140625,-0.390625 0.234375,-0.421875 0.484375,-0.828125 0.71875,-1.25 l 2.265625,0 0.125,1.65625 c 0,0.203125 -0.25,0.3125 -0.671875,0.3125 C 4.5,-0.3125 4.375,-0.3125 4.375,-0.125 4.375,0 4.5,0 4.53125,0 4.890625,0 5.296875,-0.03125 5.671875,-0.03125 6.015625,-0.03125 6.375,0 6.71875,0 6.78125,0 6.890625,0 6.890625,-0.171875 6.890625,-0.3125 6.8125,-0.3125 6.65625,-0.3125 c -0.515625,0 -0.546875,-0.078125 -0.5625,-0.328125 l -0.4375,-6.25 c 0,-0.21875 -0.015625,-0.25 -0.171875,-0.25 -0.15625,0 -0.203125,0.078125 -0.265625,0.1875 L 1.90625,-1.125 z m 3.015625,-4.734375 0.21875,3.265625 -2.078125,0 1.859375,-3.265625 z m 0,0"
             style="stroke:none" />
        </symbol>
        <symbol
           id="textext-add32c7f-2"
           overflow="visible"
           style="overflow:visible">
          <path
             id="path2960"
             d="m 2.296875,-1.75 c 0.046875,-0.21875 0.109375,-0.421875 0.15625,-0.640625 0.125,-0.484375 0.125,-0.515625 0.25,-0.71875 0.28125,-0.5 0.71875,-1.078125 1.40625,-1.078125 0.453125,0 0.453125,0.515625 0.453125,0.65625 0,0.265625 -0.0625,0.5625 -0.09375,0.65625 l -0.640625,2.578125 c -0.015625,0.0625 -0.03125,0.125 -0.03125,0.140625 0,0.109375 0.078125,0.265625 0.28125,0.265625 0.125,0 0.28125,-0.0625 0.359375,-0.265625 L 4.828125,-1.75 C 4.890625,-1.96875 4.9375,-2.171875 5,-2.390625 5.125,-2.875 5.125,-2.90625 5.25,-3.109375 c 0.28125,-0.5 0.71875,-1.078125 1.40625,-1.078125 0.453125,0 0.453125,0.515625 0.453125,0.65625 0,0.625 -0.4375,1.8125 -0.578125,2.203125 -0.125,0.34375 -0.15625,0.4375 -0.15625,0.640625 0,0.4375 0.28125,0.796875 0.75,0.796875 0.9375,0 1.265625,-1.484375 1.265625,-1.53125 0,-0.109375 -0.078125,-0.109375 -0.140625,-0.109375 -0.140625,0 -0.140625,0.03125 -0.171875,0.171875 -0.078125,0.265625 -0.359375,1.25 -0.9375,1.25 -0.203125,0 -0.21875,-0.15625 -0.21875,-0.296875 0,-0.234375 0.109375,-0.5 0.1875,-0.734375 C 7.3125,-1.671875 7.71875,-2.796875 7.71875,-3.375 c 0,-0.828125 -0.578125,-1.03125 -1.046875,-1.03125 -0.703125,0 -1.203125,0.4375 -1.5,0.875 -0.078125,-0.6875 -0.59375,-0.875 -1.046875,-0.875 -0.59375,0 -1.078125,0.328125 -1.421875,0.78125 C 2.625,-4.109375 2.296875,-4.40625 1.859375,-4.40625 1.5,-4.40625 1.3125,-4.171875 1.140625,-3.875 c -0.1875,0.390625 -0.3125,0.984375 -0.3125,1 0,0.109375 0.09375,0.109375 0.15625,0.109375 0.125,0 0.125,-0.015625 0.1875,-0.234375 0.171875,-0.703125 0.359375,-1.1875 0.671875,-1.1875 0.265625,0 0.265625,0.296875 0.265625,0.40625 0,0.15625 -0.03125,0.34375 -0.078125,0.5 l -0.75,2.984375 c -0.015625,0.0625 -0.03125,0.125 -0.03125,0.140625 0,0.109375 0.078125,0.265625 0.28125,0.265625 0.125,0 0.296875,-0.0625 0.359375,-0.265625 L 2.296875,-1.75 z m 0,0"
             style="stroke:none" />
        </symbol>
        <symbol
           id="textext-add32c7f-3"
           overflow="visible"
           style="overflow:visible">
          <path
             id="path2963"
             d="M 0.890625,1.28125 C 0.8125,1.578125 0.734375,1.609375 0.34375,1.625 c -0.078125,0 -0.203125,0 -0.203125,0.1875 0,0.078125 0.046875,0.125 0.125,0.125 0.265625,0 0.546875,-0.03125 0.828125,-0.03125 0.328125,0 0.65625,0.03125 0.96875,0.03125 0.0625,0 0.1875,0 0.1875,-0.1875 C 2.25,1.625 2.15625,1.625 2.015625,1.625 1.5,1.625 1.5,1.5625 1.5,1.46875 1.5,1.40625 1.578125,1.140625 1.609375,0.984375 L 1.96875,-0.46875 c 0.078125,0.171875 0.328125,0.578125 0.84375,0.578125 1.078125,0 2.265625,-1.46875 2.265625,-2.953125 0,-1.078125 -0.59375,-1.5625 -1.1875,-1.5625 -0.484375,0 -0.921875,0.359375 -1.203125,0.703125 C 2.5625,-4.28125 2.109375,-4.40625 1.859375,-4.40625 1.5,-4.40625 1.3125,-4.171875 1.140625,-3.875 c -0.1875,0.390625 -0.3125,0.984375 -0.3125,1 0,0.109375 0.09375,0.109375 0.15625,0.109375 0.125,0 0.125,-0.015625 0.1875,-0.234375 0.171875,-0.703125 0.359375,-1.1875 0.671875,-1.1875 0.265625,0 0.265625,0.296875 0.265625,0.40625 0,0.046875 0,0.21875 -0.078125,0.484375 L 0.890625,1.28125 z M 2.625,-3.0625 c 0.078125,-0.34375 0.6875,-1.125 1.25,-1.125 0.4375,0 0.546875,0.5625 0.546875,0.890625 0,0.421875 -0.28125,1.609375 -0.5625,2.234375 -0.125,0.25 -0.546875,0.953125 -1.0625,0.953125 -0.578125,0 -0.671875,-0.84375 -0.671875,-0.921875 0,-0.03125 0.015625,-0.0625 0.03125,-0.140625 L 2.625,-3.0625 z m 0,0"
             style="stroke:none" />
        </symbol>
        <symbol
           id="textext-add32c7f-4"
           overflow="visible"
           style="overflow:visible">
          <path
             id="path2966"
             d="m 3.015625,-6.671875 c 0.015625,-0.03125 0.03125,-0.109375 0.03125,-0.125 0,-0.09375 -0.0625,-0.125 -0.140625,-0.125 -0.03125,0 -0.125,0.015625 -0.15625,0.03125 L 1.765625,-6.8125 c -0.125,0 -0.234375,0.015625 -0.234375,0.203125 0,0.109375 0.109375,0.109375 0.25,0.109375 0.46875,0 0.484375,0.0625 0.484375,0.171875 0,0.03125 -0.015625,0.15625 -0.015625,0.171875 L 1,-1.171875 c -0.015625,0.03125 -0.0625,0.234375 -0.0625,0.390625 0,0.515625 0.359375,0.890625 0.84375,0.890625 0.375,0 0.578125,-0.265625 0.703125,-0.515625 0.171875,-0.34375 0.3125,-0.984375 0.3125,-1.015625 0,-0.109375 -0.078125,-0.109375 -0.15625,-0.109375 -0.046875,0 -0.109375,0 -0.140625,0.0625 l -0.0625,0.25 c -0.171875,0.6875 -0.359375,1.109375 -0.640625,1.109375 -0.265625,0 -0.265625,-0.265625 -0.265625,-0.40625 0,-0.078125 0,-0.21875 0.0625,-0.46875 l 1.421875,-5.6875 z m 0,0"
             style="stroke:none" />
        </symbol>
        <symbol
           id="textext-add32c7f-5"
           overflow="visible"
           style="overflow:visible">
          <path
             id="path2969"
             d="m 3.296875,-1.421875 c 0,-0.109375 -0.078125,-0.109375 -0.140625,-0.109375 -0.140625,0 -0.140625,0.03125 -0.171875,0.171875 -0.078125,0.296875 -0.359375,1.25 -0.9375,1.25 -0.078125,0 -0.21875,-0.015625 -0.21875,-0.28125 0,-0.25 0.140625,-0.59375 0.265625,-0.953125 0.21875,-0.5625 0.421875,-1.140625 0.640625,-1.703125 0.09375,-0.296875 0.109375,-0.375 0.109375,-0.5625 0,-0.546875 -0.375,-0.796875 -0.734375,-0.796875 -0.9375,0 -1.28125,1.484375 -1.28125,1.53125 0,0.109375 0.09375,0.109375 0.15625,0.109375 0.125,0 0.125,-0.03125 0.171875,-0.171875 0.09375,-0.328125 0.34375,-1.25 0.921875,-1.25 0.109375,0 0.21875,0.046875 0.21875,0.28125 0,0.234375 -0.109375,0.53125 -0.171875,0.71875 -0.109375,0.3125 -0.21875,0.59375 -0.296875,0.828125 -0.140625,0.328125 -0.25,0.65625 -0.375,0.984375 C 1.3125,-1 1.28125,-0.890625 1.28125,-0.6875 c 0,0.390625 0.234375,0.796875 0.75,0.796875 0.9375,0 1.265625,-1.5 1.265625,-1.53125 z M 3.25,-6.203125 c 0,-0.25 -0.203125,-0.34375 -0.34375,-0.34375 -0.203125,0 -0.46875,0.203125 -0.46875,0.484375 0,0.25 0.1875,0.328125 0.328125,0.328125 0.203125,0 0.484375,-0.1875 0.484375,-0.46875 z m 0,0"
             style="stroke:none" />
        </symbol>
        <symbol
           id="textext-add32c7f-6"
           overflow="visible"
           style="overflow:visible">
          <path
             id="path2972"
             d="m 2.59375,-3.984375 0.84375,0 c 0.171875,0 0.28125,0 0.28125,-0.1875 0,-0.125 -0.09375,-0.125 -0.25,-0.125 l -0.796875,0 0.375,-1.46875 c 0.03125,-0.140625 0.03125,-0.171875 0.03125,-0.21875 0,-0.203125 -0.171875,-0.25 -0.265625,-0.25 -0.25,0 -0.34375,0.203125 -0.390625,0.359375 l -0.390625,1.578125 -0.84375,0 c -0.171875,0 -0.28125,0 -0.28125,0.1875 0,0.125 0.09375,0.125 0.25,0.125 l 0.796875,0 L 1.234375,-1.125 C 1.21875,-1.09375 1.1875,-0.921875 1.1875,-0.78125 c 0,0.484375 0.328125,0.890625 0.84375,0.890625 1.015625,0 1.515625,-1.484375 1.515625,-1.53125 0,-0.109375 -0.078125,-0.109375 -0.140625,-0.109375 -0.125,0 -0.125,0.015625 -0.203125,0.203125 -0.1875,0.46875 -0.578125,1.21875 -1.15625,1.21875 -0.265625,0 -0.265625,-0.25 -0.265625,-0.40625 0,-0.078125 0,-0.234375 0.078125,-0.515625 L 2.59375,-3.984375 z m 0,0"
             style="stroke:none" />
        </symbol>
        <symbol
           id="textext-add32c7f-7"
           overflow="visible"
           style="overflow:visible">
          <path
             id="path2975"
             d="M 5.109375,-3.890625 C 5.140625,-3.953125 5.140625,-4 5.140625,-4.03125 5.140625,-4.140625 5.0625,-4.296875 4.859375,-4.296875 4.5625,-4.296875 4.5,-4 4.46875,-3.921875 L 3.75,-1.015625 C 3.703125,-0.84375 3.703125,-0.8125 3.609375,-0.6875 3.421875,-0.40625 3.125,-0.109375 2.6875,-0.109375 c -0.4375,0 -0.53125,-0.4375 -0.53125,-0.765625 0,-0.609375 0.328125,-1.5 0.578125,-2.1875 0.078125,-0.203125 0.125,-0.34375 0.125,-0.53125 0,-0.5 -0.328125,-0.8125 -0.75,-0.8125 -0.9375,0 -1.28125,1.46875 -1.28125,1.53125 0,0.109375 0.09375,0.109375 0.15625,0.109375 0.125,0 0.125,-0.03125 0.171875,-0.171875 0.078125,-0.296875 0.34375,-1.25 0.921875,-1.25 0.109375,0 0.21875,0.03125 0.21875,0.296875 0,0.234375 -0.09375,0.5 -0.234375,0.890625 -0.265625,0.703125 -0.515625,1.4375 -0.515625,1.953125 0,0.875 0.578125,1.15625 1.109375,1.15625 0.53125,0 0.875,-0.296875 1.109375,-0.59375 0.1875,0.53125 0.609375,0.59375 0.796875,0.59375 0.375,0 0.578125,-0.25 0.734375,-0.5625 0.171875,-0.375 0.296875,-0.953125 0.296875,-0.96875 0,-0.109375 -0.078125,-0.109375 -0.15625,-0.109375 -0.109375,0 -0.125,0.015625 -0.1875,0.234375 -0.140625,0.5625 -0.328125,1.1875 -0.671875,1.1875 -0.25,0 -0.25,-0.265625 -0.25,-0.40625 0,-0.078125 0,-0.234375 0.0625,-0.515625 l 0.71875,-2.859375 z m 0,0"
             style="stroke:none" />
        </symbol>
        <symbol
           id="textext-add32c7f-8"
           overflow="visible"
           style="overflow:visible">
          <path
             id="path2978"
             d="m 5.546875,-6.671875 c 0.015625,-0.03125 0.03125,-0.109375 0.03125,-0.125 0,-0.09375 -0.0625,-0.125 -0.140625,-0.125 -0.03125,0 -0.125,0.015625 -0.15625,0.03125 L 4.296875,-6.8125 c -0.125,0 -0.234375,0.015625 -0.234375,0.203125 C 4.0625,-6.5 4.171875,-6.5 4.3125,-6.5 c 0.46875,0 0.5,0.0625 0.5,0.171875 0,0.03125 -0.03125,0.15625 -0.03125,0.171875 l -0.578125,2.328125 c -0.15625,-0.3125 -0.421875,-0.578125 -0.84375,-0.578125 -1.109375,0 -2.28125,1.515625 -2.28125,2.96875 0,0.84375 0.453125,1.546875 1.203125,1.546875 0.359375,0 0.796875,-0.203125 1.203125,-0.703125 0.109375,0.5 0.46875,0.703125 0.828125,0.703125 0.359375,0 0.578125,-0.25 0.71875,-0.5625 0.1875,-0.375 0.296875,-0.953125 0.296875,-0.96875 0,-0.109375 -0.078125,-0.109375 -0.140625,-0.109375 -0.125,0 -0.140625,0.015625 -0.1875,0.234375 -0.140625,0.5625 -0.328125,1.1875 -0.671875,1.1875 -0.265625,0 -0.265625,-0.265625 -0.265625,-0.40625 0,-0.078125 0,-0.21875 0.0625,-0.46875 l 1.421875,-5.6875 z M 3.53125,-1.21875 C 3.453125,-0.90625 2.84375,-0.109375 2.296875,-0.109375 1.828125,-0.109375 1.75,-0.703125 1.75,-1 1.75,-1.5 2.0625,-2.65625 2.25,-3.078125 2.5,-3.6875 2.953125,-4.1875 3.359375,-4.1875 c 0.078125,0 0.3125,0.015625 0.484375,0.296875 0.109375,0.15625 0.203125,0.4375 0.203125,0.625 0,0.03125 -0.015625,0.078125 -0.03125,0.140625 L 3.53125,-1.21875 z m 0,0"
             style="stroke:none" />
        </symbol>
        <symbol
           id="textext-add32c7f-9"
           overflow="visible"
           style="overflow:visible">
          <path
             id="path2981"
             d="m 2.375,-2.296875 c 0.3125,0 0.96875,-0.03125 1.453125,-0.21875 0.78125,-0.328125 0.78125,-0.96875 0.78125,-1.046875 0,-0.453125 -0.359375,-0.84375 -1,-0.84375 -1.046875,0 -2.46875,1 -2.46875,2.765625 0,0.90625 0.46875,1.75 1.421875,1.75 1.28125,0 2.109375,-1 2.109375,-1.140625 0,-0.0625 -0.09375,-0.171875 -0.171875,-0.171875 -0.03125,0 -0.046875,0.015625 -0.125,0.109375 -0.734375,0.9375 -1.625,0.984375 -1.796875,0.984375 -0.640625,0 -0.75,-0.703125 -0.75,-1.09375 0,-0.375 0.09375,-0.828125 0.171875,-1.09375 l 0.375,0 z m -0.328125,-0.21875 c 0.4375,-1.640625 1.46875,-1.671875 1.5625,-1.671875 0.390625,0 0.625,0.265625 0.625,0.609375 0,1.0625 -1.640625,1.0625 -1.96875,1.0625 l -0.21875,0 z m 0,0"
             style="stroke:none" />
        </symbol>
      </g>
    </defs>
    <g
       id="textext-add32c7f-10">
      <g
         id="g2984"
         style="fill:#000000;fill-opacity:1">
        <use
           id="use2986"
           y="134.765"
           x="223.43201"
           xlink:href="#textext-add32c7f-1"
           width="1293.4655"
           height="311.72119" />
      </g>
      <g
         id="g2988"
         style="fill:#000000;fill-opacity:1">
        <use
           id="use2990"
           y="134.765"
           x="230.57817"
           xlink:href="#textext-add32c7f-2"
           width="1293.4655"
           height="311.72119" />
        <use
           id="use2992"
           y="134.765"
           x="238.72559"
           xlink:href="#textext-add32c7f-3"
           width="1293.4655"
           height="311.72119" />
        <use
           id="use2994"
           y="134.765"
           x="243.81747"
           xlink:href="#textext-add32c7f-4"
           width="1293.4655"
           height="311.72119" />
        <use
           id="use2996"
           y="134.765"
           x="246.36391"
           xlink:href="#textext-add32c7f-5"
           width="1293.4655"
           height="311.72119" />
        <use
           id="use2998"
           y="134.765"
           x="249.41945"
           xlink:href="#textext-add32c7f-6"
           width="1293.4655"
           height="311.72119" />
        <use
           id="use3000"
           y="134.765"
           x="252.72902"
           xlink:href="#textext-add32c7f-7"
           width="1293.4655"
           height="311.72119" />
        <use
           id="use3002"
           y="134.765"
           x="258.07596"
           xlink:href="#textext-add32c7f-8"
           width="1293.4655"
           height="311.72119" />
        <use
           id="use3004"
           y="134.765"
           x="263.16782"
           xlink:href="#textext-add32c7f-9"
           width="1293.4655"
           height="311.72119" />
      </g>
    </g>
  </g>
</svg>
