<?xml version="1.0" encoding="UTF-8" standalone="no"?>
<!-- Created with Inkscape (http://www.inkscape.org/) -->

<svg
   xmlns:ns0="http://www.iki.fi/pav/software/textext/"
   xmlns:dc="http://purl.org/dc/elements/1.1/"
   xmlns:cc="http://creativecommons.org/ns#"
   xmlns:rdf="http://www.w3.org/1999/02/22-rdf-syntax-ns#"
   xmlns:svg="http://www.w3.org/2000/svg"
   xmlns="http://www.w3.org/2000/svg"
   xmlns:xlink="http://www.w3.org/1999/xlink"
   xmlns:sodipodi="http://sodipodi.sourceforge.net/DTD/sodipodi-0.dtd"
   xmlns:inkscape="http://www.inkscape.org/namespaces/inkscape"
   width="643.01587"
   height="491.13864"
   id="svg2"
   version="1.1"
   inkscape:version="0.47 r22583"
   sodipodi:docname="exempleImageReconMouvement.svg">
  <sodipodi:namedview
     id="base"
     pagecolor="#ffffff"
     bordercolor="#666666"
     borderopacity="1.0"
     inkscape:pageopacity="0.0"
     inkscape:pageshadow="2"
     inkscape:zoom="0.7"
     inkscape:cx="141.99283"
     inkscape:cy="264.43254"
     inkscape:document-units="px"
     inkscape:current-layer="layer1"
     showgrid="false"
     inkscape:window-width="1920"
     inkscape:window-height="1009"
     inkscape:window-x="0"
     inkscape:window-y="25"
     inkscape:window-maximized="1" />
  <defs
     id="defs4">
    <marker
       inkscape:stockid="Arrow1Lend"
       orient="auto"
       refY="0"
       refX="0"
       id="Arrow1Lend"
       style="overflow:visible">
      <path
         id="path5739"
         d="M 0,0 5,-5 -12.5,0 5,5 0,0 z"
         style="fill-rule:evenodd;stroke:#000000;stroke-width:1pt;marker-start:none"
         transform="matrix(-0.8,0,0,-0.8,-10,0)" />
    </marker>
    <inkscape:perspective
       sodipodi:type="inkscape:persp3d"
       inkscape:vp_x="0 : 526.18109 : 1"
       inkscape:vp_y="0 : 1000 : 0"
       inkscape:vp_z="744.09448 : 526.18109 : 1"
       inkscape:persp3d-origin="372.04724 : 350.78739 : 1"
       id="perspective10" />
    <inkscape:perspective
       id="perspective3340"
       inkscape:persp3d-origin="0.5 : 0.33333333 : 1"
       inkscape:vp_z="1 : 0.5 : 1"
       inkscape:vp_y="0 : 1000 : 0"
       inkscape:vp_x="0 : 0.5 : 1"
       sodipodi:type="inkscape:persp3d" />
    <inkscape:perspective
       id="perspective3354"
       inkscape:persp3d-origin="0.5 : 0.33333333 : 1"
       inkscape:vp_z="1 : 0.5 : 1"
       inkscape:vp_y="0 : 1000 : 0"
       inkscape:vp_x="0 : 0.5 : 1"
       sodipodi:type="inkscape:persp3d" />
    <inkscape:perspective
       id="perspective3368"
       inkscape:persp3d-origin="0.5 : 0.33333333 : 1"
       inkscape:vp_z="1 : 0.5 : 1"
       inkscape:vp_y="0 : 1000 : 0"
       inkscape:vp_x="0 : 0.5 : 1"
       sodipodi:type="inkscape:persp3d" />
    <inkscape:perspective
       id="perspective3382"
       inkscape:persp3d-origin="0.5 : 0.33333333 : 1"
       inkscape:vp_z="1 : 0.5 : 1"
       inkscape:vp_y="0 : 1000 : 0"
       inkscape:vp_x="0 : 0.5 : 1"
       sodipodi:type="inkscape:persp3d" />
    <inkscape:perspective
       id="perspective3396"
       inkscape:persp3d-origin="0.5 : 0.33333333 : 1"
       inkscape:vp_z="1 : 0.5 : 1"
       inkscape:vp_y="0 : 1000 : 0"
       inkscape:vp_x="0 : 0.5 : 1"
       sodipodi:type="inkscape:persp3d" />
    <inkscape:perspective
       id="perspective3410"
       inkscape:persp3d-origin="0.5 : 0.33333333 : 1"
       inkscape:vp_z="1 : 0.5 : 1"
       inkscape:vp_y="0 : 1000 : 0"
       inkscape:vp_x="0 : 0.5 : 1"
       sodipodi:type="inkscape:persp3d" />
  </defs>
  <metadata
     id="metadata7">
    <rdf:RDF>
      <cc:Work
         rdf:about="">
        <dc:format>image/svg+xml</dc:format>
        <dc:type
           rdf:resource="http://purl.org/dc/dcmitype/StillImage" />
        <dc:title />
      </cc:Work>
    </rdf:RDF>
  </metadata>
  <g
     inkscape:label="Calque 1"
     inkscape:groupmode="layer"
     id="layer1"
     transform="translate(264.44876,-294.09131)">
    <g
       id="g2938">
      <image
         xlink:href="file:///media/Iomega%20HDD/PET/imagesReconstruites/bou_pat/bou_pat_Respi_St.jpg"
         width="333"
         height="209"
         id="image3342"
         x="-264.44876"
         y="294.09131" />
      <image
         xlink:href="file:///media/Iomega%20HDD/PET/imagesReconstruites/bou_pat/bou_pat_Respi_T1.jpg"
         width="333"
         height="209"
         id="image3356"
         x="45.56707"
         y="294.09131" />
      <g
         ns0:text="a)"
         ns0:preamble=""
         transform="matrix(2.4592362,0,0,2.4592362,-657.59983,195.12475)"
         id="g3600">
        <defs
           id="defs3602">
          <g
             id="g3604">
            <symbol
               style="overflow:visible"
               overflow="visible"
               id="textext-423dd455-0">
              <path
                 style="stroke:none"
                 d=""
                 id="path3607" />
            </symbol>
            <symbol
               style="overflow:visible"
               overflow="visible"
               id="textext-423dd455-1">
              <path
                 style="stroke:none"
                 d="m 3.3125,-0.75 c 0.046875,0.390625 0.3125,0.8125 0.78125,0.8125 0.21875,0 0.828125,-0.140625 0.828125,-0.953125 l 0,-0.5625 -0.25,0 0,0.5625 c 0,0.578125 -0.25,0.640625 -0.359375,0.640625 -0.328125,0 -0.375,-0.453125 -0.375,-0.5 l 0,-1.984375 c 0,-0.421875 0,-0.8125 -0.359375,-1.1875 C 3.1875,-4.3125 2.6875,-4.46875 2.21875,-4.46875 c -0.828125,0 -1.515625,0.46875 -1.515625,1.125 0,0.296875 0.203125,0.46875 0.46875,0.46875 0.28125,0 0.453125,-0.203125 0.453125,-0.453125 0,-0.125 -0.046875,-0.453125 -0.515625,-0.453125 C 1.390625,-4.140625 1.875,-4.25 2.1875,-4.25 c 0.5,0 1.0625,0.390625 1.0625,1.28125 l 0,0.359375 c -0.515625,0.03125 -1.203125,0.0625 -1.828125,0.359375 -0.75,0.34375 -1,0.859375 -1,1.296875 0,0.8125 0.96875,1.0625 1.59375,1.0625 0.65625,0 1.109375,-0.40625 1.296875,-0.859375 z M 3.25,-2.390625 l 0,1 c 0,0.9375 -0.71875,1.28125 -1.171875,1.28125 -0.484375,0 -0.890625,-0.34375 -0.890625,-0.84375 0,-0.546875 0.421875,-1.375 2.0625,-1.4375 z m 0,0"
                 id="path3610" />
            </symbol>
            <symbol
               style="overflow:visible"
               overflow="visible"
               id="textext-423dd455-2">
              <path
                 style="stroke:none"
                 d="m 2.875,-2.5 c 0,-0.765625 -0.109375,-1.96875 -0.65625,-3.109375 -0.59375,-1.21875 -1.453125,-1.875 -1.546875,-1.875 -0.0625,0 -0.109375,0.046875 -0.109375,0.109375 0,0.03125 0,0.046875 0.1875,0.234375 0.984375,0.984375 1.546875,2.5625 1.546875,4.640625 0,1.71875 -0.359375,3.46875 -1.59375,4.71875 C 0.5625,2.34375 0.5625,2.359375 0.5625,2.390625 0.5625,2.453125 0.609375,2.5 0.671875,2.5 0.765625,2.5 1.671875,1.8125 2.25,0.546875 2.765625,-0.546875 2.875,-1.65625 2.875,-2.5 z m 0,0"
                 id="path3613" />
            </symbol>
          </g>
        </defs>
        <g
           id="textext-423dd455-3">
          <g
             style="fill:#000000;fill-opacity:1"
             id="g3616">
            <use
               height="1052.3622"
               width="744.09448"
               xlink:href="#textext-423dd455-1"
               x="223.43201"
               y="134.765"
               id="use3618" />
            <use
               height="1052.3622"
               width="744.09448"
               xlink:href="#textext-423dd455-2"
               x="228.4133"
               y="134.765"
               id="use3620" />
          </g>
        </g>
      </g>
      <g
         id="g3714"
         transform="matrix(2.4592362,0,0,2.4592362,-348.0922,191.08414)"
         ns0:preamble=""
         ns0:text="b)">
        <defs
           id="defs3716">
          <g
             id="g3718">
            <symbol
               id="textext-97c94eee-0"
               overflow="visible"
               style="overflow:visible">
              <path
                 id="path3721"
                 d=""
                 style="stroke:none" />
            </symbol>
            <symbol
               id="textext-97c94eee-1"
               overflow="visible"
               style="overflow:visible">
              <path
                 id="path3724"
                 d="m 1.71875,-3.765625 0,-3.15625 -1.4375,0.109375 0,0.3125 c 0.703125,0 0.78125,0.0625 0.78125,0.5625 l 0,5.9375 0.25,0 c 0,-0.015625 0.078125,-0.15625 0.359375,-0.625 0.140625,0.234375 0.5625,0.734375 1.296875,0.734375 1.1875,0 2.21875,-0.984375 2.21875,-2.265625 0,-1.265625 -0.96875,-2.25 -2.109375,-2.25 -0.78125,0 -1.203125,0.46875 -1.359375,0.640625 z m 0.03125,2.625 0,-2.046875 c 0,-0.1875 0,-0.203125 0.109375,-0.359375 C 2.25,-4.109375 2.796875,-4.1875 3.03125,-4.1875 c 0.453125,0 0.8125,0.265625 1.046875,0.640625 0.265625,0.40625 0.28125,0.96875 0.28125,1.390625 0,0.359375 -0.015625,0.953125 -0.296875,1.40625 -0.21875,0.3125 -0.59375,0.640625 -1.125,0.640625 -0.453125,0 -0.8125,-0.234375 -1.046875,-0.609375 C 1.75,-0.921875 1.75,-0.953125 1.75,-1.140625 z m 0,0"
                 style="stroke:none" />
            </symbol>
            <symbol
               id="textext-97c94eee-2"
               overflow="visible"
               style="overflow:visible">
              <path
                 id="path3727"
                 d="m 2.875,-2.5 c 0,-0.765625 -0.109375,-1.96875 -0.65625,-3.109375 -0.59375,-1.21875 -1.453125,-1.875 -1.546875,-1.875 -0.0625,0 -0.109375,0.046875 -0.109375,0.109375 0,0.03125 0,0.046875 0.1875,0.234375 0.984375,0.984375 1.546875,2.5625 1.546875,4.640625 0,1.71875 -0.359375,3.46875 -1.59375,4.71875 C 0.5625,2.34375 0.5625,2.359375 0.5625,2.390625 0.5625,2.453125 0.609375,2.5 0.671875,2.5 0.765625,2.5 1.671875,1.8125 2.25,0.546875 2.765625,-0.546875 2.875,-1.65625 2.875,-2.5 z m 0,0"
                 style="stroke:none" />
            </symbol>
          </g>
        </defs>
        <g
           id="textext-97c94eee-3">
          <g
             id="g3730"
             style="fill:#000000;fill-opacity:1">
            <use
               id="use3732"
               y="134.765"
               x="223.43201"
               xlink:href="#textext-97c94eee-1"
               width="744.09448"
               height="1052.3622" />
            <use
               id="use3734"
               y="134.765"
               x="228.96722"
               xlink:href="#textext-97c94eee-2"
               width="744.09448"
               height="1052.3622" />
          </g>
        </g>
      </g>
      <path
         sodipodi:nodetypes="cc"
         style="fill:none;stroke:#000000;stroke-width:2;stroke-linecap:butt;stroke-linejoin:miter;stroke-miterlimit:4;stroke-opacity:1;stroke-dasharray:4, 2;stroke-dashoffset:0"
         d="m -241.46707,393.74273 597.00016,0"
         id="path4552" />
    </g>
    <g
       id="g4929">
      <image
         xlink:href="file:///media/Iomega%20HDD/PET/imagesReconstruites/bou_pat/bou_pat_Respi_T3.jpg"
         width="333"
         height="209"
         id="image3384"
         x="-264.44876"
         y="550.67004" />
      <image
         xlink:href="file:///media/Iomega%20HDD/PET/imagesReconstruites/bou_pat/bou_pat_Respi_T4.jpg"
         width="333"
         height="209"
         id="image3398"
         x="45.567108"
         y="550.67004" />
      <g
         ns0:text="e)"
         ns0:preamble=""
         transform="matrix(2.4592362,0,0,2.4592362,-346.72998,447.66288)"
         id="g4212">
        <defs
           id="defs4214">
          <g
             id="g4216">
            <symbol
               overflow="visible"
               id="textext-2968bccd-0"
               style="overflow:visible">
              <path
                 style="stroke:none"
                 d=""
                 id="path4219" />
            </symbol>
            <symbol
               overflow="visible"
               id="textext-2968bccd-1"
               style="overflow:visible">
              <path
                 style="stroke:none"
                 d="m 3.890625,-2.296875 c 0.21875,0 0.25,0 0.25,-0.21875 0,-0.984375 -0.546875,-1.953125 -1.78125,-1.953125 -1.15625,0 -2.078125,1.03125 -2.078125,2.28125 0,1.328125 1.046875,2.296875 2.1875,2.296875 C 3.6875,0.109375 4.140625,-1 4.140625,-1.1875 4.140625,-1.28125 4.0625,-1.3125 4,-1.3125 c -0.078125,0 -0.109375,0.0625 -0.125,0.140625 -0.34375,1.03125 -1.25,1.03125 -1.34375,1.03125 -0.5,0 -0.890625,-0.296875 -1.125,-0.671875 -0.296875,-0.46875 -0.296875,-1.125 -0.296875,-1.484375 l 2.78125,0 z m -2.78125,-0.21875 C 1.171875,-4 2.015625,-4.25 2.359375,-4.25 c 1.015625,0 1.125,1.34375 1.125,1.734375 l -2.375,0 z m 0,0"
                 id="path4222" />
            </symbol>
            <symbol
               overflow="visible"
               id="textext-2968bccd-2"
               style="overflow:visible">
              <path
                 style="stroke:none"
                 d="m 2.875,-2.5 c 0,-0.765625 -0.109375,-1.96875 -0.65625,-3.109375 -0.59375,-1.21875 -1.453125,-1.875 -1.546875,-1.875 -0.0625,0 -0.109375,0.046875 -0.109375,0.109375 0,0.03125 0,0.046875 0.1875,0.234375 0.984375,0.984375 1.546875,2.5625 1.546875,4.640625 0,1.71875 -0.359375,3.46875 -1.59375,4.71875 C 0.5625,2.34375 0.5625,2.359375 0.5625,2.390625 0.5625,2.453125 0.609375,2.5 0.671875,2.5 0.765625,2.5 1.671875,1.8125 2.25,0.546875 2.765625,-0.546875 2.875,-1.65625 2.875,-2.5 z m 0,0"
                 id="path4225" />
            </symbol>
          </g>
        </defs>
        <g
           id="textext-2968bccd-3">
          <g
             style="fill:#000000;fill-opacity:1"
             id="g4228">
            <use
               xlink:href="#textext-2968bccd-1"
               x="223.43201"
               y="134.765"
               id="use4230"
               width="744.09448"
               height="1052.3622" />
            <use
               xlink:href="#textext-2968bccd-2"
               x="227.85938"
               y="134.765"
               id="use4232"
               width="744.09448"
               height="1052.3622" />
          </g>
        </g>
      </g>
      <g
         ns0:text="c)"
         ns0:preamble=""
         transform="matrix(2.4592362,0,0,2.4592362,-658.18489,445.64257)"
         id="g4809">
        <defs
           id="defs4811">
          <g
             id="g4813">
            <symbol
               style="overflow:visible"
               overflow="visible"
               id="textext-709bf70f-0">
              <path
                 style="stroke:none"
                 d=""
                 id="path4816" />
            </symbol>
            <symbol
               style="overflow:visible"
               overflow="visible"
               id="textext-709bf70f-1">
              <path
                 style="stroke:none"
                 d="m 3.578125,-3.84375 c -0.40625,0.03125 -0.46875,0.328125 -0.46875,0.453125 0,0.265625 0.1875,0.453125 0.453125,0.453125 0.265625,0 0.46875,-0.15625 0.46875,-0.46875 0,-0.671875 -0.765625,-1.0625 -1.53125,-1.0625 -1.25,0 -2.15625,1.078125 -2.15625,2.3125 0,1.28125 0.984375,2.265625 2.140625,2.265625 1.328125,0 1.65625,-1.203125 1.65625,-1.296875 0,-0.09375 -0.109375,-0.09375 -0.140625,-0.09375 -0.078125,0 -0.109375,0.03125 -0.125,0.09375 -0.28125,0.921875 -0.9375,1.046875 -1.296875,1.046875 -0.53125,0 -1.40625,-0.421875 -1.40625,-2.03125 0,-1.625 0.8125,-2.046875 1.34375,-2.046875 0.09375,0 0.71875,0.015625 1.0625,0.375 z m 0,0"
                 id="path4819" />
            </symbol>
            <symbol
               style="overflow:visible"
               overflow="visible"
               id="textext-709bf70f-2">
              <path
                 style="stroke:none"
                 d="m 2.875,-2.5 c 0,-0.765625 -0.109375,-1.96875 -0.65625,-3.109375 -0.59375,-1.21875 -1.453125,-1.875 -1.546875,-1.875 -0.0625,0 -0.109375,0.046875 -0.109375,0.109375 0,0.03125 0,0.046875 0.1875,0.234375 0.984375,0.984375 1.546875,2.5625 1.546875,4.640625 0,1.71875 -0.359375,3.46875 -1.59375,4.71875 C 0.5625,2.34375 0.5625,2.359375 0.5625,2.390625 0.5625,2.453125 0.609375,2.5 0.671875,2.5 0.765625,2.5 1.671875,1.8125 2.25,0.546875 2.765625,-0.546875 2.875,-1.65625 2.875,-2.5 z m 0,0"
                 id="path4822" />
            </symbol>
          </g>
        </defs>
        <g
           id="textext-709bf70f-3">
          <g
             style="fill:#000000;fill-opacity:1"
             id="g4825">
            <use
               height="1052.3622"
               width="744.09448"
               xlink:href="#textext-709bf70f-1"
               x="223.43201"
               y="134.765"
               id="use4827" />
            <use
               height="1052.3622"
               width="744.09448"
               xlink:href="#textext-709bf70f-2"
               x="227.85938"
               y="134.765"
               id="use4829" />
          </g>
        </g>
      </g>
    </g>
    <path
       style="fill:none;stroke:#000000;stroke-width:2;stroke-linecap:butt;stroke-linejoin:miter;stroke-miterlimit:4;stroke-opacity:1;stroke-dasharray:4, 2;stroke-dashoffset:0"
       d="m -225.35565,650.32148 585.88848,0"
       id="path4649"
       sodipodi:nodetypes="cc" />
    <path
       style="fill:none;stroke:#000000;stroke-width:1px;stroke-linecap:butt;stroke-linejoin:miter;stroke-opacity:1;marker-end:url(#Arrow1Lend)"
       d="m -162.38202,390.20719 c 20.20305,20.20305 20.20305,20.20305 20.20305,20.20305"
       id="path5731" />
    <path
       id="path6183"
       d="m -168.94801,351.31632 c 20.20305,20.20305 20.20305,20.20305 20.20305,20.20305"
       style="fill:none;stroke:#000000;stroke-width:1px;stroke-linecap:butt;stroke-linejoin:miter;stroke-opacity:1;marker-end:url(#Arrow1Lend)" />
    <path
       style="fill:none;stroke:#000000;stroke-width:1px;stroke-linecap:butt;stroke-linejoin:miter;stroke-opacity:1;marker-end:url(#Arrow1Lend)"
       d="m -109.98036,385.66151 c 0,0 -2.65165,22.72843 -2.65165,22.72843"
       id="path6185"
       sodipodi:nodetypes="cc" />
    <path
       sodipodi:nodetypes="cc"
       id="path6187"
       d="m -159.16058,425.57264 c 0,0 27.64976,2.25264 27.64976,2.25264"
       style="fill:none;stroke:#000000;stroke-width:1px;stroke-linecap:butt;stroke-linejoin:miter;stroke-opacity:1;marker-end:url(#Arrow1Lend)" />
    <g
       ns0:text="L1"
       ns0:preamble=""
       transform="matrix(1.4561428,0,0,1.4561428,-510.67672,149.48932)"
       id="g3047">
      <defs
         id="defs3049">
        <g
           id="g3051">
          <symbol
             style="overflow:visible"
             overflow="visible"
             id="textext-b341d146-0">
            <path
               style="stroke:none"
               d=""
               id="path3054" />
          </symbol>
          <symbol
             style="overflow:visible"
             overflow="visible"
             id="textext-b341d146-1">
            <path
               style="stroke:none"
               d="m 5.796875,-2.578125 -0.25,0 c -0.109375,1.015625 -0.25,2.265625 -2,2.265625 l -0.8125,0 C 2.265625,-0.3125 2.25,-0.375 2.25,-0.703125 l 0,-5.3125 C 2.25,-6.359375 2.25,-6.5 3.1875,-6.5 l 0.328125,0 0,-0.3125 C 3.15625,-6.78125 2.25,-6.78125 1.84375,-6.78125 c -0.390625,0 -1.171875,0 -1.515625,-0.03125 l 0,0.3125 0.234375,0 c 0.765625,0 0.796875,0.109375 0.796875,0.46875 l 0,5.25 c 0,0.359375 -0.03125,0.46875 -0.796875,0.46875 l -0.234375,0 0,0.3125 5.1875,0 0.28125,-2.578125 z m 0,0"
               id="path3057" />
          </symbol>
          <symbol
             style="overflow:visible"
             overflow="visible"
             id="textext-b341d146-2">
            <path
               style="stroke:none"
               d="m 2.9375,-6.375 c 0,-0.25 0,-0.265625 -0.234375,-0.265625 C 2.078125,-6 1.203125,-6 0.890625,-6 l 0,0.3125 c 0.203125,0 0.78125,0 1.296875,-0.265625 l 0,5.171875 c 0,0.359375 -0.03125,0.46875 -0.921875,0.46875 l -0.3125,0 0,0.3125 c 0.34375,-0.03125 1.203125,-0.03125 1.609375,-0.03125 0.390625,0 1.265625,0 1.609375,0.03125 l 0,-0.3125 -0.3125,0 c -0.90625,0 -0.921875,-0.109375 -0.921875,-0.46875 l 0,-5.59375 z m 0,0"
               id="path3060" />
          </symbol>
        </g>
      </defs>
      <g
         id="textext-b341d146-3">
        <g
           style="fill:#000000;fill-opacity:1"
           id="g3063">
          <use
             height="491.13864"
             width="643.01587"
             xlink:href="#textext-b341d146-1"
             x="223.43201"
             y="134.765"
             id="use3065" />
          <use
             height="491.13864"
             width="643.01587"
             xlink:href="#textext-b341d146-2"
             x="229.65863"
             y="134.765"
             id="use3067" />
        </g>
      </g>
    </g>
    <g
       id="g3353"
       transform="matrix(1.4561428,0,0,1.4561428,-443.12277,186.7387)"
       ns0:preamble=""
       ns0:text="L2">
      <defs
         id="defs3355">
        <g
           id="g3357">
          <symbol
             id="textext-01139b5a-0"
             overflow="visible"
             style="overflow:visible">
            <path
               id="path3360"
               d=""
               style="stroke:none" />
          </symbol>
          <symbol
             id="textext-01139b5a-1"
             overflow="visible"
             style="overflow:visible">
            <path
               id="path3363"
               d="m 5.796875,-2.578125 -0.25,0 c -0.109375,1.015625 -0.25,2.265625 -2,2.265625 l -0.8125,0 C 2.265625,-0.3125 2.25,-0.375 2.25,-0.703125 l 0,-5.3125 C 2.25,-6.359375 2.25,-6.5 3.1875,-6.5 l 0.328125,0 0,-0.3125 C 3.15625,-6.78125 2.25,-6.78125 1.84375,-6.78125 c -0.390625,0 -1.171875,0 -1.515625,-0.03125 l 0,0.3125 0.234375,0 c 0.765625,0 0.796875,0.109375 0.796875,0.46875 l 0,5.25 c 0,0.359375 -0.03125,0.46875 -0.796875,0.46875 l -0.234375,0 0,0.3125 5.1875,0 0.28125,-2.578125 z m 0,0"
               style="stroke:none" />
          </symbol>
          <symbol
             id="textext-01139b5a-2"
             overflow="visible"
             style="overflow:visible">
            <path
               id="path3366"
               d="m 4.46875,-1.734375 -0.234375,0 C 4.171875,-1.4375 4.109375,-1 4,-0.84375 3.9375,-0.765625 3.28125,-0.765625 3.0625,-0.765625 l -1.796875,0 1.0625,-1.03125 c 1.546875,-1.375 2.140625,-1.90625 2.140625,-2.90625 0,-1.140625 -0.890625,-1.9375 -2.109375,-1.9375 -1.125,0 -1.859375,0.921875 -1.859375,1.8125 0,0.546875 0.5,0.546875 0.53125,0.546875 0.171875,0 0.515625,-0.109375 0.515625,-0.53125 0,-0.25 -0.1875,-0.515625 -0.53125,-0.515625 -0.078125,0 -0.09375,0 -0.125,0.015625 0.21875,-0.65625 0.765625,-1.015625 1.34375,-1.015625 0.90625,0 1.328125,0.8125 1.328125,1.625 C 3.5625,-3.90625 3.078125,-3.125 2.515625,-2.5 l -1.90625,2.125 C 0.5,-0.265625 0.5,-0.234375 0.5,0 L 4.203125,0 4.46875,-1.734375 z m 0,0"
               style="stroke:none" />
          </symbol>
        </g>
      </defs>
      <g
         id="textext-01139b5a-3">
        <g
           id="g3369"
           style="fill:#000000;fill-opacity:1">
          <use
             id="use3371"
             y="134.765"
             x="223.43201"
             xlink:href="#textext-01139b5a-1"
             width="643.01587"
             height="491.13864" />
          <use
             id="use3373"
             y="134.765"
             x="229.65863"
             xlink:href="#textext-01139b5a-2"
             width="643.01587"
             height="491.13864" />
        </g>
      </g>
    </g>
    <g
       ns0:text="L3"
       ns0:preamble=""
       transform="matrix(1.4561428,0,0,1.4561428,-499.43877,192.54708)"
       id="g3620">
      <defs
         id="defs3622">
        <g
           id="g3624">
          <symbol
             overflow="visible"
             id="textext-b376cb66-0">
            <path
               style="stroke:none;"
               d=""
               id="path3627" />
          </symbol>
          <symbol
             overflow="visible"
             id="textext-b376cb66-1">
            <path
               style="stroke:none;"
               d="M 5.796875 -2.578125 L 5.546875 -2.578125 C 5.4375 -1.5625 5.296875 -0.3125 3.546875 -0.3125 L 2.734375 -0.3125 C 2.265625 -0.3125 2.25 -0.375 2.25 -0.703125 L 2.25 -6.015625 C 2.25 -6.359375 2.25 -6.5 3.1875 -6.5 L 3.515625 -6.5 L 3.515625 -6.8125 C 3.15625 -6.78125 2.25 -6.78125 1.84375 -6.78125 C 1.453125 -6.78125 0.671875 -6.78125 0.328125 -6.8125 L 0.328125 -6.5 L 0.5625 -6.5 C 1.328125 -6.5 1.359375 -6.390625 1.359375 -6.03125 L 1.359375 -0.78125 C 1.359375 -0.421875 1.328125 -0.3125 0.5625 -0.3125 L 0.328125 -0.3125 L 0.328125 0 L 5.515625 0 L 5.796875 -2.578125 Z M 5.796875 -2.578125 "
               id="path3630" />
          </symbol>
          <symbol
             overflow="visible"
             id="textext-b376cb66-2">
            <path
               style="stroke:none;"
               d="M 2.890625 -3.515625 C 3.703125 -3.78125 4.28125 -4.46875 4.28125 -5.265625 C 4.28125 -6.078125 3.40625 -6.640625 2.453125 -6.640625 C 1.453125 -6.640625 0.6875 -6.046875 0.6875 -5.28125 C 0.6875 -4.953125 0.90625 -4.765625 1.203125 -4.765625 C 1.5 -4.765625 1.703125 -4.984375 1.703125 -5.28125 C 1.703125 -5.765625 1.234375 -5.765625 1.09375 -5.765625 C 1.390625 -6.265625 2.046875 -6.390625 2.40625 -6.390625 C 2.828125 -6.390625 3.375 -6.171875 3.375 -5.28125 C 3.375 -5.15625 3.34375 -4.578125 3.09375 -4.140625 C 2.796875 -3.65625 2.453125 -3.625 2.203125 -3.625 C 2.125 -3.609375 1.890625 -3.59375 1.8125 -3.59375 C 1.734375 -3.578125 1.671875 -3.5625 1.671875 -3.46875 C 1.671875 -3.359375 1.734375 -3.359375 1.90625 -3.359375 L 2.34375 -3.359375 C 3.15625 -3.359375 3.53125 -2.6875 3.53125 -1.703125 C 3.53125 -0.34375 2.84375 -0.0625 2.40625 -0.0625 C 1.96875 -0.0625 1.21875 -0.234375 0.875 -0.8125 C 1.21875 -0.765625 1.53125 -0.984375 1.53125 -1.359375 C 1.53125 -1.71875 1.265625 -1.921875 0.984375 -1.921875 C 0.734375 -1.921875 0.421875 -1.78125 0.421875 -1.34375 C 0.421875 -0.4375 1.34375 0.21875 2.4375 0.21875 C 3.65625 0.21875 4.5625 -0.6875 4.5625 -1.703125 C 4.5625 -2.515625 3.921875 -3.296875 2.890625 -3.515625 Z M 2.890625 -3.515625 "
               id="path3633" />
          </symbol>
        </g>
      </defs>
      <g
         id="textext-b376cb66-3">
        <g
           style="fill:rgb(0%,0%,0%);fill-opacity:1;"
           id="g3636">
          <use
             xlink:href="#textext-b376cb66-1"
             x="223.432"
             y="134.765"
             id="use3638" />
          <use
             xlink:href="#textext-b376cb66-2"
             x="229.658625"
             y="134.765"
             id="use3640" />
        </g>
      </g>
    </g>
    <g
       id="g3887"
       transform="matrix(1.4561428,0,0,1.4561428,-502.21669,231.69049)"
       ns0:preamble=""
       ns0:text="L4">
      <defs
         id="defs3889">
        <g
           id="g3891">
          <symbol
             id="textext-ea640790-0"
             overflow="visible">
            <path
               id="path3894"
               d=""
               style="stroke:none;" />
          </symbol>
          <symbol
             id="textext-ea640790-1"
             overflow="visible">
            <path
               id="path3897"
               d="M 5.796875 -2.578125 L 5.546875 -2.578125 C 5.4375 -1.5625 5.296875 -0.3125 3.546875 -0.3125 L 2.734375 -0.3125 C 2.265625 -0.3125 2.25 -0.375 2.25 -0.703125 L 2.25 -6.015625 C 2.25 -6.359375 2.25 -6.5 3.1875 -6.5 L 3.515625 -6.5 L 3.515625 -6.8125 C 3.15625 -6.78125 2.25 -6.78125 1.84375 -6.78125 C 1.453125 -6.78125 0.671875 -6.78125 0.328125 -6.8125 L 0.328125 -6.5 L 0.5625 -6.5 C 1.328125 -6.5 1.359375 -6.390625 1.359375 -6.03125 L 1.359375 -0.78125 C 1.359375 -0.421875 1.328125 -0.3125 0.5625 -0.3125 L 0.328125 -0.3125 L 0.328125 0 L 5.515625 0 L 5.796875 -2.578125 Z M 5.796875 -2.578125 "
               style="stroke:none;" />
          </symbol>
          <symbol
             id="textext-ea640790-2"
             overflow="visible">
            <path
               id="path3900"
               d="M 0.28125 -1.640625 L 2.9375 -1.640625 L 2.9375 -0.78125 C 2.9375 -0.421875 2.90625 -0.3125 2.171875 -0.3125 L 1.96875 -0.3125 L 1.96875 0 C 2.375 -0.03125 2.890625 -0.03125 3.3125 -0.03125 C 3.734375 -0.03125 4.25 -0.03125 4.671875 0 L 4.671875 -0.3125 L 4.453125 -0.3125 C 3.71875 -0.3125 3.703125 -0.421875 3.703125 -0.78125 L 3.703125 -1.640625 L 4.6875 -1.640625 L 4.6875 -1.953125 L 3.703125 -1.953125 L 3.703125 -6.484375 C 3.703125 -6.6875 3.703125 -6.75 3.53125 -6.75 C 3.453125 -6.75 3.421875 -6.75 3.34375 -6.625 L 0.28125 -1.953125 L 0.28125 -1.640625 Z M 2.984375 -1.953125 L 0.5625 -1.953125 L 2.984375 -5.671875 L 2.984375 -1.953125 Z M 2.984375 -1.953125 "
               style="stroke:none;" />
          </symbol>
        </g>
      </defs>
      <g
         id="textext-ea640790-3">
        <g
           id="g3903"
           style="fill:rgb(0%,0%,0%);fill-opacity:1;">
          <use
             id="use3905"
             y="134.765"
             x="223.432"
             xlink:href="#textext-ea640790-1" />
          <use
             id="use3907"
             y="134.765"
             x="229.658625"
             xlink:href="#textext-ea640790-2" />
        </g>
      </g>
    </g>
  </g>
</svg>
