<?xml version="1.0" encoding="UTF-8" standalone="no"?>
<!-- Created with Inkscape (http://www.inkscape.org/) -->

<svg
   xmlns:ns0="http://www.iki.fi/pav/software/textext/"
   xmlns:dc="http://purl.org/dc/elements/1.1/"
   xmlns:cc="http://creativecommons.org/ns#"
   xmlns:rdf="http://www.w3.org/1999/02/22-rdf-syntax-ns#"
   xmlns:svg="http://www.w3.org/2000/svg"
   xmlns="http://www.w3.org/2000/svg"
   xmlns:xlink="http://www.w3.org/1999/xlink"
   xmlns:sodipodi="http://sodipodi.sourceforge.net/DTD/sodipodi-0.dtd"
   xmlns:inkscape="http://www.inkscape.org/namespaces/inkscape"
   width="564.56635"
   height="285.93332"
   id="svg2"
   version="1.1"
   inkscape:version="0.47 r22583"
   sodipodi:docname="FROC.svg">
  <sodipodi:namedview
     id="base"
     pagecolor="#ffffff"
     bordercolor="#666666"
     borderopacity="1.0"
     inkscape:pageopacity="0.0"
     inkscape:pageshadow="2"
     inkscape:zoom="0.9899495"
     inkscape:cx="542.94638"
     inkscape:cy="83.071983"
     inkscape:document-units="px"
     inkscape:current-layer="layer1"
     showgrid="false"
     inkscape:window-width="1920"
     inkscape:window-height="1009"
     inkscape:window-x="0"
     inkscape:window-y="25"
     inkscape:window-maximized="1" />
  <defs
     id="defs4">
    <marker
       inkscape:stockid="Arrow1Lstart"
       orient="auto"
       refY="0"
       refX="0"
       id="Arrow1Lstart"
       style="overflow:visible">
      <path
         id="path3595"
         d="M 0,0 5,-5 -12.5,0 5,5 0,0 z"
         style="fill-rule:evenodd;stroke:#000000;stroke-width:1pt;marker-start:none"
         transform="matrix(0.8,0,0,0.8,10,0)" />
    </marker>
    <marker
       inkscape:stockid="Arrow1Lend"
       orient="auto"
       refY="0"
       refX="0"
       id="Arrow1Lend"
       style="overflow:visible">
      <path
         id="path3598"
         d="M 0,0 5,-5 -12.5,0 5,5 0,0 z"
         style="fill-rule:evenodd;stroke:#000000;stroke-width:1pt;marker-start:none"
         transform="matrix(-0.8,0,0,-0.8,-10,0)" />
    </marker>
    <inkscape:perspective
       sodipodi:type="inkscape:persp3d"
       inkscape:vp_x="0 : 526.18109 : 1"
       inkscape:vp_y="0 : 1000 : 0"
       inkscape:vp_z="744.09448 : 526.18109 : 1"
       inkscape:persp3d-origin="372.04724 : 350.78739 : 1"
       id="perspective10" />
    <inkscape:perspective
       id="perspective4434"
       inkscape:persp3d-origin="0.5 : 0.33333333 : 1"
       inkscape:vp_z="1 : 0.5 : 1"
       inkscape:vp_y="0 : 1000 : 0"
       inkscape:vp_x="0 : 0.5 : 1"
       sodipodi:type="inkscape:persp3d" />
    <inkscape:perspective
       id="perspective4459"
       inkscape:persp3d-origin="0.5 : 0.33333333 : 1"
       inkscape:vp_z="1 : 0.5 : 1"
       inkscape:vp_y="0 : 1000 : 0"
       inkscape:vp_x="0 : 0.5 : 1"
       sodipodi:type="inkscape:persp3d" />
    <inkscape:perspective
       id="perspective4489"
       inkscape:persp3d-origin="0.5 : 0.33333333 : 1"
       inkscape:vp_z="1 : 0.5 : 1"
       inkscape:vp_y="0 : 1000 : 0"
       inkscape:vp_x="0 : 0.5 : 1"
       sodipodi:type="inkscape:persp3d" />
  </defs>
  <metadata
     id="metadata7">
    <rdf:RDF>
      <cc:Work
         rdf:about="">
        <dc:format>image/svg+xml</dc:format>
        <dc:type
           rdf:resource="http://purl.org/dc/dcmitype/StillImage" />
        <dc:title />
      </cc:Work>
    </rdf:RDF>
  </metadata>
  <g
     inkscape:label="Calque 1"
     inkscape:groupmode="layer"
     id="layer1"
     transform="translate(-94.505089,-263.29075)">
    <path
       style="fill:none;stroke:#000000;stroke-width:1.07873201;stroke-linecap:butt;stroke-linejoin:miter;stroke-opacity:1;marker-start:url(#Arrow1Lstart);marker-end:url(#Arrow1Lend);stroke-miterlimit:4;stroke-dasharray:none;stroke-dashoffset:10.78732014000000028"
       d="m 658.53206,518.03832 c 0,0 0,0 -532.12233,0 0,-254.2082 0,-254.2082 0,-254.2082"
       id="path2818" />
    <text
       xml:space="preserve"
       style="font-size:15px;font-style:normal;font-weight:normal;fill:#000000;fill-opacity:1;stroke:none;font-family:Bitstream Vera Sans;stroke-width:1;stroke-miterlimit:4;stroke-dasharray:6,6;stroke-dashoffset:10"
       x="92.85714"
       y="291.64789"
       id="text4420"><tspan
         sodipodi:role="line"
         id="tspan4422"
         x="92.85714"
         y="291.64789">1.0</tspan></text>
    <path
       style="fill:none;stroke:#000000;stroke-width:1;stroke-linecap:butt;stroke-linejoin:miter;stroke-opacity:1;stroke-miterlimit:4;stroke-dasharray:6,6;stroke-dashoffset:10"
       d="m 121.42857,287.20195 c 8.57143,0 8.57143,0 8.57143,0"
       id="path4424" />
    <text
       xml:space="preserve"
       style="font-size:15px;font-style:normal;font-weight:normal;fill:#000000;fill-opacity:1;stroke:none;font-family:Bitstream Vera Sans;stroke-width:1;stroke-miterlimit:4;stroke-dasharray:6,6;stroke-dashoffset:10"
       x="114.16782"
       y="529.25098"
       id="text4420-8"><tspan
         sodipodi:role="line"
         id="tspan4422-4"
         x="114.16782"
         y="529.25098">0</tspan></text>
    <path
       style="fill:none;stroke:#000000;stroke-width:1;stroke-linecap:butt;stroke-linejoin:miter;stroke-opacity:1;stroke-miterlimit:4;stroke-dasharray:6,6;stroke-dashoffset:10"
       d="m 629.25334,522.24074 c 0,-8.57143 0,-8.57143 0,-8.57143"
       id="path4424-5" />
    <text
       xml:space="preserve"
       style="font-size:15px;font-style:normal;font-weight:normal;fill:#000000;fill-opacity:1;stroke:none;font-family:Bitstream Vera Sans;stroke-width:1;stroke-miterlimit:4;stroke-dasharray:6,6;stroke-dashoffset:10"
       x="622.85718"
       y="538.07648"
       id="text4473"><tspan
         sodipodi:role="line"
         x="622.85718"
         y="538.07648"
         id="tspan4477">N</tspan></text>
    <path
       style="fill:none;stroke:#000000;stroke-width:0.8;stroke-linecap:butt;stroke-linejoin:miter;stroke-miterlimit:4;stroke-opacity:1;stroke-dasharray:4.8,4.8;stroke-dashoffset:7.99999988"
       d="m 133.79,287.20195 c 503.28733,0 503.28733,0 503.28733,0"
       id="path4424-3" />
    <path
       style="fill:none;stroke:#000000;stroke-width:1.3;stroke-linecap:butt;stroke-linejoin:miter;stroke-opacity:1;stroke-miterlimit:4;stroke-dasharray:none"
       d="m 31.886161,254.78377 c 0,0 77.042419,-226.707594 502.399559,-230.636165"
       id="path4503"
       transform="translate(94.505089,263.29075)"
       sodipodi:nodetypes="cs" />
    <g
       ns0:text="Fraction des Non-L\\\'esions"
       ns0:preamble=""
       transform="matrix(1.9128469,0,0,1.9128469,-158.75652,277.60531)"
       id="g3395">
      <defs
         id="defs3397">
        <g
           id="g3399">
          <symbol
             overflow="visible"
             id="textext-80cbd74d-0"
             style="overflow:visible">
            <path
               style="stroke:none"
               d=""
               id="path3402" />
          </symbol>
          <symbol
             overflow="visible"
             id="textext-80cbd74d-1"
             style="overflow:visible">
            <path
               style="stroke:none"
               d="m 5.796875,-6.78125 -5.46875,0 0,0.3125 0.234375,0 c 0.765625,0 0.796875,0.109375 0.796875,0.46875 l 0,5.21875 c 0,0.359375 -0.03125,0.46875 -0.796875,0.46875 l -0.234375,0 0,0.3125 c 0.34375,-0.03125 1.125,-0.03125 1.515625,-0.03125 0.40625,0 1.3125,0 1.671875,0.03125 l 0,-0.3125 -0.328125,0 C 2.25,-0.3125 2.25,-0.4375 2.25,-0.78125 l 0,-2.453125 0.84375,0 c 0.96875,0 1.0625,0.3125 1.0625,1.15625 l 0.25,0 0,-2.640625 -0.25,0 c 0,0.84375 -0.09375,1.171875 -1.0625,1.171875 l -0.84375,0 0,-2.53125 c 0,-0.328125 0.015625,-0.390625 0.484375,-0.390625 l 1.1875,0 c 1.5,0 1.75,0.5625 1.90625,1.9375 l 0.25,0 -0.28125,-2.25 z m 0,0"
               id="path3405" />
          </symbol>
          <symbol
             overflow="visible"
             id="textext-80cbd74d-2"
             style="overflow:visible">
            <path
               style="stroke:none"
               d="m 1.71875,-0.78125 0,-1.53125 c 0,-0.984375 0.421875,-1.875 1.171875,-1.875 0.0625,0 0.09375,0 0.109375,0.015625 -0.03125,0 -0.234375,0.125 -0.234375,0.390625 0,0.265625 0.21875,0.421875 0.4375,0.421875 0.171875,0 0.421875,-0.125 0.421875,-0.4375 0,-0.3125 -0.3125,-0.609375 -0.734375,-0.609375 -0.734375,0 -1.09375,0.671875 -1.21875,1.09375 l 0,-1.09375 -1.390625,0.109375 0,0.3125 c 0.703125,0 0.78125,0.0625 0.78125,0.5625 l 0,2.671875 c 0,0.4375 -0.109375,0.4375 -0.78125,0.4375 l 0,0.3125 c 0.390625,-0.015625 0.859375,-0.03125 1.140625,-0.03125 0.390625,0 0.859375,0 1.265625,0.03125 l 0,-0.3125 -0.21875,0 c -0.734375,0 -0.75,-0.109375 -0.75,-0.46875 z m 0,0"
               id="path3408" />
          </symbol>
          <symbol
             overflow="visible"
             id="textext-80cbd74d-3"
             style="overflow:visible">
            <path
               style="stroke:none"
               d="m 3.3125,-0.75 c 0.046875,0.390625 0.3125,0.8125 0.78125,0.8125 0.21875,0 0.828125,-0.140625 0.828125,-0.953125 l 0,-0.5625 -0.25,0 0,0.5625 c 0,0.578125 -0.25,0.640625 -0.359375,0.640625 -0.328125,0 -0.375,-0.453125 -0.375,-0.5 l 0,-1.984375 c 0,-0.421875 0,-0.8125 -0.359375,-1.1875 C 3.1875,-4.3125 2.6875,-4.46875 2.21875,-4.46875 c -0.828125,0 -1.515625,0.46875 -1.515625,1.125 0,0.296875 0.203125,0.46875 0.46875,0.46875 0.28125,0 0.453125,-0.203125 0.453125,-0.453125 0,-0.125 -0.046875,-0.453125 -0.515625,-0.453125 C 1.390625,-4.140625 1.875,-4.25 2.1875,-4.25 c 0.5,0 1.0625,0.390625 1.0625,1.28125 l 0,0.359375 c -0.515625,0.03125 -1.203125,0.0625 -1.828125,0.359375 -0.75,0.34375 -1,0.859375 -1,1.296875 0,0.8125 0.96875,1.0625 1.59375,1.0625 0.65625,0 1.109375,-0.40625 1.296875,-0.859375 z M 3.25,-2.390625 l 0,1 c 0,0.9375 -0.71875,1.28125 -1.171875,1.28125 -0.484375,0 -0.890625,-0.34375 -0.890625,-0.84375 0,-0.546875 0.421875,-1.375 2.0625,-1.4375 z m 0,0"
               id="path3411" />
          </symbol>
          <symbol
             overflow="visible"
             id="textext-80cbd74d-4"
             style="overflow:visible">
            <path
               style="stroke:none"
               d="m 3.578125,-3.84375 c -0.40625,0.03125 -0.46875,0.328125 -0.46875,0.453125 0,0.265625 0.1875,0.453125 0.453125,0.453125 0.265625,0 0.46875,-0.15625 0.46875,-0.46875 0,-0.671875 -0.765625,-1.0625 -1.53125,-1.0625 -1.25,0 -2.15625,1.078125 -2.15625,2.3125 0,1.28125 0.984375,2.265625 2.140625,2.265625 1.328125,0 1.65625,-1.203125 1.65625,-1.296875 0,-0.09375 -0.109375,-0.09375 -0.140625,-0.09375 -0.078125,0 -0.109375,0.03125 -0.125,0.09375 -0.28125,0.921875 -0.9375,1.046875 -1.296875,1.046875 -0.53125,0 -1.40625,-0.421875 -1.40625,-2.03125 0,-1.625 0.8125,-2.046875 1.34375,-2.046875 0.09375,0 0.71875,0.015625 1.0625,0.375 z m 0,0"
               id="path3414" />
          </symbol>
          <symbol
             overflow="visible"
             id="textext-80cbd74d-5"
             style="overflow:visible">
            <path
               style="stroke:none"
               d="m 1.71875,-3.984375 1.4375,0 0,-0.3125 -1.4375,0 0,-1.828125 -0.25,0 c 0,0.8125 -0.296875,1.875 -1.28125,1.921875 l 0,0.21875 0.84375,0 0,2.75 c 0,1.21875 0.9375,1.34375 1.296875,1.34375 0.703125,0 0.984375,-0.703125 0.984375,-1.34375 l 0,-0.5625 -0.25,0 0,0.546875 c 0,0.734375 -0.296875,1.109375 -0.671875,1.109375 -0.671875,0 -0.671875,-0.90625 -0.671875,-1.078125 l 0,-2.765625 z m 0,0"
               id="path3417" />
          </symbol>
          <symbol
             overflow="visible"
             id="textext-80cbd74d-6"
             style="overflow:visible">
            <path
               style="stroke:none"
               d="M 1.765625,-4.40625 0.375,-4.296875 l 0,0.3125 c 0.640625,0 0.734375,0.0625 0.734375,0.546875 l 0,2.6875 c 0,0.4375 -0.109375,0.4375 -0.78125,0.4375 l 0,0.3125 C 0.640625,-0.015625 1.1875,-0.03125 1.421875,-0.03125 1.78125,-0.03125 2.125,-0.015625 2.46875,0 l 0,-0.3125 c -0.671875,0 -0.703125,-0.046875 -0.703125,-0.4375 l 0,-3.65625 z m 0.03125,-1.734375 c 0,-0.3125 -0.234375,-0.53125 -0.515625,-0.53125 -0.3125,0 -0.53125,0.265625 -0.53125,0.53125 0,0.265625 0.21875,0.53125 0.53125,0.53125 0.28125,0 0.515625,-0.21875 0.515625,-0.53125 z m 0,0"
               id="path3420" />
          </symbol>
          <symbol
             overflow="visible"
             id="textext-80cbd74d-7"
             style="overflow:visible">
            <path
               style="stroke:none"
               d="M 4.6875,-2.140625 C 4.6875,-3.40625 3.703125,-4.46875 2.5,-4.46875 c -1.25,0 -2.21875,1.09375 -2.21875,2.328125 0,1.296875 1.03125,2.25 2.203125,2.25 1.203125,0 2.203125,-0.984375 2.203125,-2.25 z m -2.1875,2 c -0.4375,0 -0.875,-0.203125 -1.140625,-0.671875 -0.25,-0.4375 -0.25,-1.046875 -0.25,-1.40625 0,-0.390625 0,-0.921875 0.234375,-1.359375 C 1.609375,-4.03125 2.078125,-4.25 2.484375,-4.25 c 0.4375,0 0.859375,0.21875 1.125,0.65625 0.265625,0.421875 0.265625,1 0.265625,1.375 0,0.359375 0,0.90625 -0.21875,1.34375 C 3.421875,-0.421875 2.984375,-0.140625 2.5,-0.140625 z m 0,0"
               id="path3423" />
          </symbol>
          <symbol
             overflow="visible"
             id="textext-80cbd74d-8"
             style="overflow:visible">
            <path
               style="stroke:none"
               d="m 1.09375,-3.421875 0,2.671875 c 0,0.4375 -0.109375,0.4375 -0.78125,0.4375 l 0,0.3125 c 0.359375,-0.015625 0.859375,-0.03125 1.140625,-0.03125 0.25,0 0.765625,0.015625 1.109375,0.03125 l 0,-0.3125 c -0.671875,0 -0.78125,0 -0.78125,-0.4375 l 0,-1.84375 C 1.78125,-3.625 2.5,-4.1875 3.125,-4.1875 c 0.640625,0 0.75,0.53125 0.75,1.109375 l 0,2.328125 c 0,0.4375 -0.109375,0.4375 -0.78125,0.4375 l 0,0.3125 c 0.34375,-0.015625 0.859375,-0.03125 1.125,-0.03125 0.25,0 0.78125,0.015625 1.109375,0.03125 l 0,-0.3125 c -0.515625,0 -0.765625,0 -0.765625,-0.296875 l 0,-1.90625 c 0,-0.859375 0,-1.15625 -0.3125,-1.515625 -0.140625,-0.171875 -0.46875,-0.375 -1.046875,-0.375 C 2.46875,-4.40625 2,-3.984375 1.71875,-3.359375 l 0,-1.046875 -1.40625,0.109375 0,0.3125 c 0.703125,0 0.78125,0.0625 0.78125,0.5625 z m 0,0"
               id="path3426" />
          </symbol>
          <symbol
             overflow="visible"
             id="textext-80cbd74d-9"
             style="overflow:visible">
            <path
               style="stroke:none"
               d="m 3.78125,-0.546875 0,0.65625 L 5.25,0 l 0,-0.3125 c -0.6875,0 -0.78125,-0.0625 -0.78125,-0.5625 l 0,-6.046875 -1.421875,0.109375 0,0.3125 c 0.6875,0 0.765625,0.0625 0.765625,0.5625 l 0,2.15625 c -0.28125,-0.359375 -0.71875,-0.625 -1.25,-0.625 -1.171875,0 -2.21875,0.984375 -2.21875,2.265625 0,1.265625 0.96875,2.25 2.109375,2.25 0.640625,0 1.078125,-0.34375 1.328125,-0.65625 z m 0,-2.671875 0,2.046875 c 0,0.171875 0,0.1875 -0.109375,0.359375 C 3.375,-0.328125 2.9375,-0.109375 2.5,-0.109375 2.046875,-0.109375 1.6875,-0.375 1.453125,-0.75 1.203125,-1.15625 1.171875,-1.71875 1.171875,-2.140625 1.171875,-2.5 1.1875,-3.09375 1.46875,-3.546875 1.6875,-3.859375 2.0625,-4.1875 2.609375,-4.1875 c 0.34375,0 0.765625,0.15625 1.0625,0.59375 0.109375,0.171875 0.109375,0.1875 0.109375,0.375 z m 0,0"
               id="path3429" />
          </symbol>
          <symbol
             overflow="visible"
             id="textext-80cbd74d-10"
             style="overflow:visible">
            <path
               style="stroke:none"
               d="m 3.890625,-2.296875 c 0.21875,0 0.25,0 0.25,-0.21875 0,-0.984375 -0.546875,-1.953125 -1.78125,-1.953125 -1.15625,0 -2.078125,1.03125 -2.078125,2.28125 0,1.328125 1.046875,2.296875 2.1875,2.296875 C 3.6875,0.109375 4.140625,-1 4.140625,-1.1875 4.140625,-1.28125 4.0625,-1.3125 4,-1.3125 c -0.078125,0 -0.109375,0.0625 -0.125,0.140625 -0.34375,1.03125 -1.25,1.03125 -1.34375,1.03125 -0.5,0 -0.890625,-0.296875 -1.125,-0.671875 -0.296875,-0.46875 -0.296875,-1.125 -0.296875,-1.484375 l 2.78125,0 z m -2.78125,-0.21875 C 1.171875,-4 2.015625,-4.25 2.359375,-4.25 c 1.015625,0 1.125,1.34375 1.125,1.734375 l -2.375,0 z m 0,0"
               id="path3432" />
          </symbol>
          <symbol
             overflow="visible"
             id="textext-80cbd74d-11"
             style="overflow:visible">
            <path
               style="stroke:none"
               d="m 2.078125,-1.9375 c 0.21875,0.046875 1.03125,0.203125 1.03125,0.921875 0,0.5 -0.34375,0.90625 -1.125,0.90625 -0.84375,0 -1.203125,-0.5625 -1.390625,-1.421875 C 0.5625,-1.65625 0.5625,-1.6875 0.453125,-1.6875 c -0.125,0 -0.125,0.0625 -0.125,0.234375 l 0,1.328125 c 0,0.171875 0,0.234375 0.109375,0.234375 0.046875,0 0.0625,-0.015625 0.25,-0.203125 0.015625,-0.015625 0.015625,-0.03125 0.203125,-0.21875 0.4375,0.40625 0.890625,0.421875 1.09375,0.421875 1.140625,0 1.609375,-0.671875 1.609375,-1.390625 0,-0.515625 -0.296875,-0.828125 -0.421875,-0.9375 C 2.84375,-2.546875 2.453125,-2.625 2.03125,-2.703125 1.46875,-2.8125 0.8125,-2.9375 0.8125,-3.515625 c 0,-0.359375 0.25,-0.765625 1.109375,-0.765625 1.09375,0 1.15625,0.90625 1.171875,1.203125 0,0.09375 0.09375,0.09375 0.109375,0.09375 0.140625,0 0.140625,-0.046875 0.140625,-0.234375 l 0,-1.015625 c 0,-0.15625 0,-0.234375 -0.109375,-0.234375 -0.046875,0 -0.078125,0 -0.203125,0.125 -0.03125,0.03125 -0.125,0.125 -0.171875,0.15625 -0.375,-0.28125 -0.78125,-0.28125 -0.9375,-0.28125 -1.21875,0 -1.59375,0.671875 -1.59375,1.234375 0,0.34375 0.15625,0.625 0.421875,0.84375 0.328125,0.25 0.609375,0.3125 1.328125,0.453125 z m 0,0"
               id="path3435" />
          </symbol>
          <symbol
             overflow="visible"
             id="textext-80cbd74d-12"
             style="overflow:visible">
            <path
               style="stroke:none"
               d="M 2.3125,-6.671875 C 2.21875,-6.796875 2.21875,-6.8125 2.03125,-6.8125 l -1.703125,0 0,0.3125 0.296875,0 c 0.140625,0 0.34375,0.015625 0.484375,0.015625 0.234375,0.03125 0.25,0.046875 0.25,0.234375 l 0,5.203125 c 0,0.265625 0,0.734375 -1.03125,0.734375 l 0,0.3125 C 0.671875,-0.015625 1.171875,-0.03125 1.5,-0.03125 c 0.328125,0 0.8125,0.015625 1.15625,0.03125 l 0,-0.3125 c -1.015625,0 -1.015625,-0.46875 -1.015625,-0.734375 l 0,-5.1875 c 0.046875,0.046875 0.046875,0.0625 0.09375,0.125 L 5.796875,-0.125 C 5.890625,-0.015625 5.90625,0 5.96875,0 6.109375,0 6.109375,-0.0625 6.109375,-0.265625 l 0,-5.5 c 0,-0.265625 0,-0.734375 1.03125,-0.734375 l 0,-0.3125 c -0.359375,0.015625 -0.84375,0.03125 -1.171875,0.03125 -0.328125,0 -0.8125,-0.015625 -1.15625,-0.03125 l 0,0.3125 c 1.015625,0 1.015625,0.46875 1.015625,0.734375 l 0,4.265625 L 2.3125,-6.671875 z m 0,0"
               id="path3438" />
          </symbol>
          <symbol
             overflow="visible"
             id="textext-80cbd74d-13"
             style="overflow:visible">
            <path
               style="stroke:none"
               d="m 2.75,-1.859375 0,-0.578125 -2.640625,0 0,0.578125 2.640625,0 z m 0,0"
               id="path3441" />
          </symbol>
          <symbol
             overflow="visible"
             id="textext-80cbd74d-14"
             style="overflow:visible">
            <path
               style="stroke:none"
               d="m 5.796875,-2.578125 -0.25,0 c -0.109375,1.015625 -0.25,2.265625 -2,2.265625 l -0.8125,0 C 2.265625,-0.3125 2.25,-0.375 2.25,-0.703125 l 0,-5.3125 C 2.25,-6.359375 2.25,-6.5 3.1875,-6.5 l 0.328125,0 0,-0.3125 C 3.15625,-6.78125 2.25,-6.78125 1.84375,-6.78125 c -0.390625,0 -1.171875,0 -1.515625,-0.03125 l 0,0.3125 0.234375,0 c 0.765625,0 0.796875,0.109375 0.796875,0.46875 l 0,5.25 c 0,0.359375 -0.03125,0.46875 -0.796875,0.46875 l -0.234375,0 0,0.3125 5.1875,0 0.28125,-2.578125 z m 0,0"
               id="path3444" />
          </symbol>
          <symbol
             overflow="visible"
             id="textext-80cbd74d-15"
             style="overflow:visible">
            <path
               style="stroke:none"
               d="M 3.734375,-6.296875 C 3.828125,-6.375 3.90625,-6.484375 3.90625,-6.59375 c 0,-0.1875 -0.171875,-0.359375 -0.359375,-0.359375 -0.140625,0 -0.25,0.109375 -0.296875,0.171875 l -1.203125,1.515625 0.171875,0.1875 1.515625,-1.21875 z m 0,0"
               id="path3447" />
          </symbol>
        </g>
      </defs>
      <g
         id="textext-80cbd74d-16">
        <g
           style="fill:#000000;fill-opacity:1"
           id="g3450">
          <use
             xlink:href="#textext-80cbd74d-1"
             x="223.43201"
             y="134.765"
             id="use3452"
             width="564.56635"
             height="285.93332" />
        </g>
        <g
           style="fill:#000000;fill-opacity:1"
           id="g3454">
          <use
             xlink:href="#textext-80cbd74d-2"
             x="229.10869"
             y="134.765"
             id="use3456"
             width="564.56635"
             height="285.93332" />
          <use
             xlink:href="#textext-80cbd74d-3"
             x="233.01105"
             y="134.765"
             id="use3458"
             width="564.56635"
             height="285.93332" />
          <use
             xlink:href="#textext-80cbd74d-4"
             x="237.99234"
             y="134.765"
             id="use3460"
             width="564.56635"
             height="285.93332" />
          <use
             xlink:href="#textext-80cbd74d-5"
             x="242.41972"
             y="134.765"
             id="use3462"
             width="564.56635"
             height="285.93332" />
          <use
             xlink:href="#textext-80cbd74d-6"
             x="246.29417"
             y="134.765"
             id="use3464"
             width="564.56635"
             height="285.93332" />
          <use
             xlink:href="#textext-80cbd74d-7"
             x="249.06178"
             y="134.765"
             id="use3466"
             width="564.56635"
             height="285.93332" />
          <use
             xlink:href="#textext-80cbd74d-8"
             x="254.04309"
             y="134.765"
             id="use3468"
             width="564.56635"
             height="285.93332" />
        </g>
        <g
           style="fill:#000000;fill-opacity:1"
           id="g3470">
          <use
             xlink:href="#textext-80cbd74d-9"
             x="262.89584"
             y="134.765"
             id="use3472"
             width="564.56635"
             height="285.93332" />
          <use
             xlink:href="#textext-80cbd74d-10"
             x="268.43106"
             y="134.765"
             id="use3474"
             width="564.56635"
             height="285.93332" />
          <use
             xlink:href="#textext-80cbd74d-11"
             x="272.85846"
             y="134.765"
             id="use3476"
             width="564.56635"
             height="285.93332" />
        </g>
        <g
           style="fill:#000000;fill-opacity:1"
           id="g3478">
          <use
             xlink:href="#textext-80cbd74d-12"
             x="280.10526"
             y="134.765"
             id="use3480"
             width="564.56635"
             height="285.93332" />
          <use
             xlink:href="#textext-80cbd74d-7"
             x="287.57721"
             y="134.765"
             id="use3482"
             width="564.56635"
             height="285.93332" />
          <use
             xlink:href="#textext-80cbd74d-8"
             x="292.5585"
             y="134.765"
             id="use3484"
             width="564.56635"
             height="285.93332" />
          <use
             xlink:href="#textext-80cbd74d-13"
             x="298.09372"
             y="134.765"
             id="use3486"
             width="564.56635"
             height="285.93332" />
          <use
             xlink:href="#textext-80cbd74d-14"
             x="301.41425"
             y="134.765"
             id="use3488"
             width="564.56635"
             height="285.93332" />
        </g>
        <g
           style="fill:#000000;fill-opacity:1"
           id="g3490">
          <use
             xlink:href="#textext-80cbd74d-15"
             x="307.37189"
             y="134.765"
             id="use3492"
             width="564.56635"
             height="285.93332" />
        </g>
        <g
           style="fill:#000000;fill-opacity:1"
           id="g3494">
          <use
             xlink:href="#textext-80cbd74d-10"
             x="307.64087"
             y="134.765"
             id="use3496"
             width="564.56635"
             height="285.93332" />
          <use
             xlink:href="#textext-80cbd74d-11"
             x="312.06827"
             y="134.765"
             id="use3498"
             width="564.56635"
             height="285.93332" />
          <use
             xlink:href="#textext-80cbd74d-6"
             x="315.9975"
             y="134.765"
             id="use3500"
             width="564.56635"
             height="285.93332" />
          <use
             xlink:href="#textext-80cbd74d-7"
             x="318.76511"
             y="134.765"
             id="use3502"
             width="564.56635"
             height="285.93332" />
          <use
             xlink:href="#textext-80cbd74d-8"
             x="323.74643"
             y="134.765"
             id="use3504"
             width="564.56635"
             height="285.93332" />
          <use
             xlink:href="#textext-80cbd74d-11"
             x="329.28165"
             y="134.765"
             id="use3506"
             width="564.56635"
             height="285.93332" />
        </g>
      </g>
    </g>
    <g
       id="g3746"
       transform="matrix(0,-1.5149117,1.5149117,0,-86.547159,850.42279)"
       ns0:preamble=""
       ns0:text="Fraction des L\\\'esions d\\\'etect\\\'ees">
      <defs
         id="defs3748">
        <g
           id="g3750">
          <symbol
             id="textext-4d049e62-0"
             overflow="visible"
             style="overflow:visible">
            <path
               id="path3753"
               d=""
               style="stroke:none" />
          </symbol>
          <symbol
             id="textext-4d049e62-1"
             overflow="visible"
             style="overflow:visible">
            <path
               id="path3756"
               d="m 5.796875,-6.78125 -5.46875,0 0,0.3125 0.234375,0 c 0.765625,0 0.796875,0.109375 0.796875,0.46875 l 0,5.21875 c 0,0.359375 -0.03125,0.46875 -0.796875,0.46875 l -0.234375,0 0,0.3125 c 0.34375,-0.03125 1.125,-0.03125 1.515625,-0.03125 0.40625,0 1.3125,0 1.671875,0.03125 l 0,-0.3125 -0.328125,0 C 2.25,-0.3125 2.25,-0.4375 2.25,-0.78125 l 0,-2.453125 0.84375,0 c 0.96875,0 1.0625,0.3125 1.0625,1.15625 l 0.25,0 0,-2.640625 -0.25,0 c 0,0.84375 -0.09375,1.171875 -1.0625,1.171875 l -0.84375,0 0,-2.53125 c 0,-0.328125 0.015625,-0.390625 0.484375,-0.390625 l 1.1875,0 c 1.5,0 1.75,0.5625 1.90625,1.9375 l 0.25,0 -0.28125,-2.25 z m 0,0"
               style="stroke:none" />
          </symbol>
          <symbol
             id="textext-4d049e62-2"
             overflow="visible"
             style="overflow:visible">
            <path
               id="path3759"
               d="m 1.71875,-0.78125 0,-1.53125 c 0,-0.984375 0.421875,-1.875 1.171875,-1.875 0.0625,0 0.09375,0 0.109375,0.015625 -0.03125,0 -0.234375,0.125 -0.234375,0.390625 0,0.265625 0.21875,0.421875 0.4375,0.421875 0.171875,0 0.421875,-0.125 0.421875,-0.4375 0,-0.3125 -0.3125,-0.609375 -0.734375,-0.609375 -0.734375,0 -1.09375,0.671875 -1.21875,1.09375 l 0,-1.09375 -1.390625,0.109375 0,0.3125 c 0.703125,0 0.78125,0.0625 0.78125,0.5625 l 0,2.671875 c 0,0.4375 -0.109375,0.4375 -0.78125,0.4375 l 0,0.3125 c 0.390625,-0.015625 0.859375,-0.03125 1.140625,-0.03125 0.390625,0 0.859375,0 1.265625,0.03125 l 0,-0.3125 -0.21875,0 c -0.734375,0 -0.75,-0.109375 -0.75,-0.46875 z m 0,0"
               style="stroke:none" />
          </symbol>
          <symbol
             id="textext-4d049e62-3"
             overflow="visible"
             style="overflow:visible">
            <path
               id="path3762"
               d="m 3.3125,-0.75 c 0.046875,0.390625 0.3125,0.8125 0.78125,0.8125 0.21875,0 0.828125,-0.140625 0.828125,-0.953125 l 0,-0.5625 -0.25,0 0,0.5625 c 0,0.578125 -0.25,0.640625 -0.359375,0.640625 -0.328125,0 -0.375,-0.453125 -0.375,-0.5 l 0,-1.984375 c 0,-0.421875 0,-0.8125 -0.359375,-1.1875 C 3.1875,-4.3125 2.6875,-4.46875 2.21875,-4.46875 c -0.828125,0 -1.515625,0.46875 -1.515625,1.125 0,0.296875 0.203125,0.46875 0.46875,0.46875 0.28125,0 0.453125,-0.203125 0.453125,-0.453125 0,-0.125 -0.046875,-0.453125 -0.515625,-0.453125 C 1.390625,-4.140625 1.875,-4.25 2.1875,-4.25 c 0.5,0 1.0625,0.390625 1.0625,1.28125 l 0,0.359375 c -0.515625,0.03125 -1.203125,0.0625 -1.828125,0.359375 -0.75,0.34375 -1,0.859375 -1,1.296875 0,0.8125 0.96875,1.0625 1.59375,1.0625 0.65625,0 1.109375,-0.40625 1.296875,-0.859375 z M 3.25,-2.390625 l 0,1 c 0,0.9375 -0.71875,1.28125 -1.171875,1.28125 -0.484375,0 -0.890625,-0.34375 -0.890625,-0.84375 0,-0.546875 0.421875,-1.375 2.0625,-1.4375 z m 0,0"
               style="stroke:none" />
          </symbol>
          <symbol
             id="textext-4d049e62-4"
             overflow="visible"
             style="overflow:visible">
            <path
               id="path3765"
               d="m 3.578125,-3.84375 c -0.40625,0.03125 -0.46875,0.328125 -0.46875,0.453125 0,0.265625 0.1875,0.453125 0.453125,0.453125 0.265625,0 0.46875,-0.15625 0.46875,-0.46875 0,-0.671875 -0.765625,-1.0625 -1.53125,-1.0625 -1.25,0 -2.15625,1.078125 -2.15625,2.3125 0,1.28125 0.984375,2.265625 2.140625,2.265625 1.328125,0 1.65625,-1.203125 1.65625,-1.296875 0,-0.09375 -0.109375,-0.09375 -0.140625,-0.09375 -0.078125,0 -0.109375,0.03125 -0.125,0.09375 -0.28125,0.921875 -0.9375,1.046875 -1.296875,1.046875 -0.53125,0 -1.40625,-0.421875 -1.40625,-2.03125 0,-1.625 0.8125,-2.046875 1.34375,-2.046875 0.09375,0 0.71875,0.015625 1.0625,0.375 z m 0,0"
               style="stroke:none" />
          </symbol>
          <symbol
             id="textext-4d049e62-5"
             overflow="visible"
             style="overflow:visible">
            <path
               id="path3768"
               d="m 1.71875,-3.984375 1.4375,0 0,-0.3125 -1.4375,0 0,-1.828125 -0.25,0 c 0,0.8125 -0.296875,1.875 -1.28125,1.921875 l 0,0.21875 0.84375,0 0,2.75 c 0,1.21875 0.9375,1.34375 1.296875,1.34375 0.703125,0 0.984375,-0.703125 0.984375,-1.34375 l 0,-0.5625 -0.25,0 0,0.546875 c 0,0.734375 -0.296875,1.109375 -0.671875,1.109375 -0.671875,0 -0.671875,-0.90625 -0.671875,-1.078125 l 0,-2.765625 z m 0,0"
               style="stroke:none" />
          </symbol>
          <symbol
             id="textext-4d049e62-6"
             overflow="visible"
             style="overflow:visible">
            <path
               id="path3771"
               d="M 1.765625,-4.40625 0.375,-4.296875 l 0,0.3125 c 0.640625,0 0.734375,0.0625 0.734375,0.546875 l 0,2.6875 c 0,0.4375 -0.109375,0.4375 -0.78125,0.4375 l 0,0.3125 C 0.640625,-0.015625 1.1875,-0.03125 1.421875,-0.03125 1.78125,-0.03125 2.125,-0.015625 2.46875,0 l 0,-0.3125 c -0.671875,0 -0.703125,-0.046875 -0.703125,-0.4375 l 0,-3.65625 z m 0.03125,-1.734375 c 0,-0.3125 -0.234375,-0.53125 -0.515625,-0.53125 -0.3125,0 -0.53125,0.265625 -0.53125,0.53125 0,0.265625 0.21875,0.53125 0.53125,0.53125 0.28125,0 0.515625,-0.21875 0.515625,-0.53125 z m 0,0"
               style="stroke:none" />
          </symbol>
          <symbol
             id="textext-4d049e62-7"
             overflow="visible"
             style="overflow:visible">
            <path
               id="path3774"
               d="M 4.6875,-2.140625 C 4.6875,-3.40625 3.703125,-4.46875 2.5,-4.46875 c -1.25,0 -2.21875,1.09375 -2.21875,2.328125 0,1.296875 1.03125,2.25 2.203125,2.25 1.203125,0 2.203125,-0.984375 2.203125,-2.25 z m -2.1875,2 c -0.4375,0 -0.875,-0.203125 -1.140625,-0.671875 -0.25,-0.4375 -0.25,-1.046875 -0.25,-1.40625 0,-0.390625 0,-0.921875 0.234375,-1.359375 C 1.609375,-4.03125 2.078125,-4.25 2.484375,-4.25 c 0.4375,0 0.859375,0.21875 1.125,0.65625 0.265625,0.421875 0.265625,1 0.265625,1.375 0,0.359375 0,0.90625 -0.21875,1.34375 C 3.421875,-0.421875 2.984375,-0.140625 2.5,-0.140625 z m 0,0"
               style="stroke:none" />
          </symbol>
          <symbol
             id="textext-4d049e62-8"
             overflow="visible"
             style="overflow:visible">
            <path
               id="path3777"
               d="m 1.09375,-3.421875 0,2.671875 c 0,0.4375 -0.109375,0.4375 -0.78125,0.4375 l 0,0.3125 c 0.359375,-0.015625 0.859375,-0.03125 1.140625,-0.03125 0.25,0 0.765625,0.015625 1.109375,0.03125 l 0,-0.3125 c -0.671875,0 -0.78125,0 -0.78125,-0.4375 l 0,-1.84375 C 1.78125,-3.625 2.5,-4.1875 3.125,-4.1875 c 0.640625,0 0.75,0.53125 0.75,1.109375 l 0,2.328125 c 0,0.4375 -0.109375,0.4375 -0.78125,0.4375 l 0,0.3125 c 0.34375,-0.015625 0.859375,-0.03125 1.125,-0.03125 0.25,0 0.78125,0.015625 1.109375,0.03125 l 0,-0.3125 c -0.515625,0 -0.765625,0 -0.765625,-0.296875 l 0,-1.90625 c 0,-0.859375 0,-1.15625 -0.3125,-1.515625 -0.140625,-0.171875 -0.46875,-0.375 -1.046875,-0.375 C 2.46875,-4.40625 2,-3.984375 1.71875,-3.359375 l 0,-1.046875 -1.40625,0.109375 0,0.3125 c 0.703125,0 0.78125,0.0625 0.78125,0.5625 z m 0,0"
               style="stroke:none" />
          </symbol>
          <symbol
             id="textext-4d049e62-9"
             overflow="visible"
             style="overflow:visible">
            <path
               id="path3780"
               d="m 3.78125,-0.546875 0,0.65625 L 5.25,0 l 0,-0.3125 c -0.6875,0 -0.78125,-0.0625 -0.78125,-0.5625 l 0,-6.046875 -1.421875,0.109375 0,0.3125 c 0.6875,0 0.765625,0.0625 0.765625,0.5625 l 0,2.15625 c -0.28125,-0.359375 -0.71875,-0.625 -1.25,-0.625 -1.171875,0 -2.21875,0.984375 -2.21875,2.265625 0,1.265625 0.96875,2.25 2.109375,2.25 0.640625,0 1.078125,-0.34375 1.328125,-0.65625 z m 0,-2.671875 0,2.046875 c 0,0.171875 0,0.1875 -0.109375,0.359375 C 3.375,-0.328125 2.9375,-0.109375 2.5,-0.109375 2.046875,-0.109375 1.6875,-0.375 1.453125,-0.75 1.203125,-1.15625 1.171875,-1.71875 1.171875,-2.140625 1.171875,-2.5 1.1875,-3.09375 1.46875,-3.546875 1.6875,-3.859375 2.0625,-4.1875 2.609375,-4.1875 c 0.34375,0 0.765625,0.15625 1.0625,0.59375 0.109375,0.171875 0.109375,0.1875 0.109375,0.375 z m 0,0"
               style="stroke:none" />
          </symbol>
          <symbol
             id="textext-4d049e62-10"
             overflow="visible"
             style="overflow:visible">
            <path
               id="path3783"
               d="m 3.890625,-2.296875 c 0.21875,0 0.25,0 0.25,-0.21875 0,-0.984375 -0.546875,-1.953125 -1.78125,-1.953125 -1.15625,0 -2.078125,1.03125 -2.078125,2.28125 0,1.328125 1.046875,2.296875 2.1875,2.296875 C 3.6875,0.109375 4.140625,-1 4.140625,-1.1875 4.140625,-1.28125 4.0625,-1.3125 4,-1.3125 c -0.078125,0 -0.109375,0.0625 -0.125,0.140625 -0.34375,1.03125 -1.25,1.03125 -1.34375,1.03125 -0.5,0 -0.890625,-0.296875 -1.125,-0.671875 -0.296875,-0.46875 -0.296875,-1.125 -0.296875,-1.484375 l 2.78125,0 z m -2.78125,-0.21875 C 1.171875,-4 2.015625,-4.25 2.359375,-4.25 c 1.015625,0 1.125,1.34375 1.125,1.734375 l -2.375,0 z m 0,0"
               style="stroke:none" />
          </symbol>
          <symbol
             id="textext-4d049e62-11"
             overflow="visible"
             style="overflow:visible">
            <path
               id="path3786"
               d="m 2.078125,-1.9375 c 0.21875,0.046875 1.03125,0.203125 1.03125,0.921875 0,0.5 -0.34375,0.90625 -1.125,0.90625 -0.84375,0 -1.203125,-0.5625 -1.390625,-1.421875 C 0.5625,-1.65625 0.5625,-1.6875 0.453125,-1.6875 c -0.125,0 -0.125,0.0625 -0.125,0.234375 l 0,1.328125 c 0,0.171875 0,0.234375 0.109375,0.234375 0.046875,0 0.0625,-0.015625 0.25,-0.203125 0.015625,-0.015625 0.015625,-0.03125 0.203125,-0.21875 0.4375,0.40625 0.890625,0.421875 1.09375,0.421875 1.140625,0 1.609375,-0.671875 1.609375,-1.390625 0,-0.515625 -0.296875,-0.828125 -0.421875,-0.9375 C 2.84375,-2.546875 2.453125,-2.625 2.03125,-2.703125 1.46875,-2.8125 0.8125,-2.9375 0.8125,-3.515625 c 0,-0.359375 0.25,-0.765625 1.109375,-0.765625 1.09375,0 1.15625,0.90625 1.171875,1.203125 0,0.09375 0.09375,0.09375 0.109375,0.09375 0.140625,0 0.140625,-0.046875 0.140625,-0.234375 l 0,-1.015625 c 0,-0.15625 0,-0.234375 -0.109375,-0.234375 -0.046875,0 -0.078125,0 -0.203125,0.125 -0.03125,0.03125 -0.125,0.125 -0.171875,0.15625 -0.375,-0.28125 -0.78125,-0.28125 -0.9375,-0.28125 -1.21875,0 -1.59375,0.671875 -1.59375,1.234375 0,0.34375 0.15625,0.625 0.421875,0.84375 0.328125,0.25 0.609375,0.3125 1.328125,0.453125 z m 0,0"
               style="stroke:none" />
          </symbol>
          <symbol
             id="textext-4d049e62-12"
             overflow="visible"
             style="overflow:visible">
            <path
               id="path3789"
               d="m 5.796875,-2.578125 -0.25,0 c -0.109375,1.015625 -0.25,2.265625 -2,2.265625 l -0.8125,0 C 2.265625,-0.3125 2.25,-0.375 2.25,-0.703125 l 0,-5.3125 C 2.25,-6.359375 2.25,-6.5 3.1875,-6.5 l 0.328125,0 0,-0.3125 C 3.15625,-6.78125 2.25,-6.78125 1.84375,-6.78125 c -0.390625,0 -1.171875,0 -1.515625,-0.03125 l 0,0.3125 0.234375,0 c 0.765625,0 0.796875,0.109375 0.796875,0.46875 l 0,5.25 c 0,0.359375 -0.03125,0.46875 -0.796875,0.46875 l -0.234375,0 0,0.3125 5.1875,0 0.28125,-2.578125 z m 0,0"
               style="stroke:none" />
          </symbol>
          <symbol
             id="textext-4d049e62-13"
             overflow="visible"
             style="overflow:visible">
            <path
               id="path3792"
               d="M 3.734375,-6.296875 C 3.828125,-6.375 3.90625,-6.484375 3.90625,-6.59375 c 0,-0.1875 -0.171875,-0.359375 -0.359375,-0.359375 -0.140625,0 -0.25,0.109375 -0.296875,0.171875 l -1.203125,1.515625 0.171875,0.1875 1.515625,-1.21875 z m 0,0"
               style="stroke:none" />
          </symbol>
        </g>
      </defs>
      <g
         id="textext-4d049e62-14">
        <g
           id="g3795"
           style="fill:#000000;fill-opacity:1">
          <use
             id="use3797"
             y="134.765"
             x="223.43201"
             xlink:href="#textext-4d049e62-1"
             width="564.56635"
             height="285.93332" />
        </g>
        <g
           id="g3799"
           style="fill:#000000;fill-opacity:1">
          <use
             id="use3801"
             y="134.765"
             x="229.10869"
             xlink:href="#textext-4d049e62-2"
             width="564.56635"
             height="285.93332" />
          <use
             id="use3803"
             y="134.765"
             x="233.01105"
             xlink:href="#textext-4d049e62-3"
             width="564.56635"
             height="285.93332" />
          <use
             id="use3805"
             y="134.765"
             x="237.99234"
             xlink:href="#textext-4d049e62-4"
             width="564.56635"
             height="285.93332" />
          <use
             id="use3807"
             y="134.765"
             x="242.41972"
             xlink:href="#textext-4d049e62-5"
             width="564.56635"
             height="285.93332" />
          <use
             id="use3809"
             y="134.765"
             x="246.29417"
             xlink:href="#textext-4d049e62-6"
             width="564.56635"
             height="285.93332" />
          <use
             id="use3811"
             y="134.765"
             x="249.06178"
             xlink:href="#textext-4d049e62-7"
             width="564.56635"
             height="285.93332" />
          <use
             id="use3813"
             y="134.765"
             x="254.04309"
             xlink:href="#textext-4d049e62-8"
             width="564.56635"
             height="285.93332" />
        </g>
        <g
           id="g3815"
           style="fill:#000000;fill-opacity:1">
          <use
             id="use3817"
             y="134.765"
             x="262.89584"
             xlink:href="#textext-4d049e62-9"
             width="564.56635"
             height="285.93332" />
          <use
             id="use3819"
             y="134.765"
             x="268.43106"
             xlink:href="#textext-4d049e62-10"
             width="564.56635"
             height="285.93332" />
          <use
             id="use3821"
             y="134.765"
             x="272.85846"
             xlink:href="#textext-4d049e62-11"
             width="564.56635"
             height="285.93332" />
        </g>
        <g
           id="g3823"
           style="fill:#000000;fill-opacity:1">
          <use
             id="use3825"
             y="134.765"
             x="280.10526"
             xlink:href="#textext-4d049e62-12"
             width="564.56635"
             height="285.93332" />
        </g>
        <g
           id="g3827"
           style="fill:#000000;fill-opacity:1">
          <use
             id="use3829"
             y="134.765"
             x="286.06287"
             xlink:href="#textext-4d049e62-13"
             width="564.56635"
             height="285.93332" />
        </g>
        <g
           id="g3831"
           style="fill:#000000;fill-opacity:1">
          <use
             id="use3833"
             y="134.765"
             x="286.33188"
             xlink:href="#textext-4d049e62-10"
             width="564.56635"
             height="285.93332" />
          <use
             id="use3835"
             y="134.765"
             x="290.75925"
             xlink:href="#textext-4d049e62-11"
             width="564.56635"
             height="285.93332" />
          <use
             id="use3837"
             y="134.765"
             x="294.68851"
             xlink:href="#textext-4d049e62-6"
             width="564.56635"
             height="285.93332" />
          <use
             id="use3839"
             y="134.765"
             x="297.45612"
             xlink:href="#textext-4d049e62-7"
             width="564.56635"
             height="285.93332" />
          <use
             id="use3841"
             y="134.765"
             x="302.43741"
             xlink:href="#textext-4d049e62-8"
             width="564.56635"
             height="285.93332" />
          <use
             id="use3843"
             y="134.765"
             x="307.97263"
             xlink:href="#textext-4d049e62-11"
             width="564.56635"
             height="285.93332" />
        </g>
        <g
           id="g3845"
           style="fill:#000000;fill-opacity:1">
          <use
             id="use3847"
             y="134.765"
             x="315.2294"
             xlink:href="#textext-4d049e62-9"
             width="564.56635"
             height="285.93332" />
        </g>
        <g
           id="g3849"
           style="fill:#000000;fill-opacity:1">
          <use
             id="use3851"
             y="134.765"
             x="320.48566"
             xlink:href="#textext-4d049e62-13"
             width="564.56635"
             height="285.93332" />
        </g>
        <g
           id="g3853"
           style="fill:#000000;fill-opacity:1">
          <use
             id="use3855"
             y="134.765"
             x="320.76462"
             xlink:href="#textext-4d049e62-10"
             width="564.56635"
             height="285.93332" />
          <use
             id="use3857"
             y="134.765"
             x="325.19199"
             xlink:href="#textext-4d049e62-5"
             width="564.56635"
             height="285.93332" />
          <use
             id="use3859"
             y="134.765"
             x="329.06644"
             xlink:href="#textext-4d049e62-10"
             width="564.56635"
             height="285.93332" />
          <use
             id="use3861"
             y="134.765"
             x="333.49384"
             xlink:href="#textext-4d049e62-4"
             width="564.56635"
             height="285.93332" />
          <use
             id="use3863"
             y="134.765"
             x="337.9212"
             xlink:href="#textext-4d049e62-5"
             width="564.56635"
             height="285.93332" />
        </g>
        <g
           id="g3865"
           style="fill:#000000;fill-opacity:1">
          <use
             id="use3867"
             y="134.765"
             x="341.51669"
             xlink:href="#textext-4d049e62-13"
             width="564.56635"
             height="285.93332" />
        </g>
        <g
           id="g3869"
           style="fill:#000000;fill-opacity:1">
          <use
             id="use3871"
             y="134.765"
             x="341.79565"
             xlink:href="#textext-4d049e62-10"
             width="564.56635"
             height="285.93332" />
          <use
             id="use3873"
             y="134.765"
             x="346.22305"
             xlink:href="#textext-4d049e62-10"
             width="564.56635"
             height="285.93332" />
          <use
             id="use3875"
             y="134.765"
             x="350.65042"
             xlink:href="#textext-4d049e62-11"
             width="564.56635"
             height="285.93332" />
        </g>
      </g>
    </g>
  </g>
</svg>
