<?xml version="1.0" encoding="UTF-8" standalone="no"?>
<!-- Created with Inkscape (http://www.inkscape.org/) -->

<svg
   xmlns:ns0="http://www.iki.fi/pav/software/textext/"
   xmlns:dc="http://purl.org/dc/elements/1.1/"
   xmlns:cc="http://creativecommons.org/ns#"
   xmlns:rdf="http://www.w3.org/1999/02/22-rdf-syntax-ns#"
   xmlns:svg="http://www.w3.org/2000/svg"
   xmlns="http://www.w3.org/2000/svg"
   xmlns:xlink="http://www.w3.org/1999/xlink"
   xmlns:sodipodi="http://sodipodi.sourceforge.net/DTD/sodipodi-0.dtd"
   xmlns:inkscape="http://www.inkscape.org/namespaces/inkscape"
   width="564.56635"
   height="309.71143"
   id="svg2"
   version="1.1"
   inkscape:version="0.47 r22583"
   sodipodi:docname="FROC.svg">
  <sodipodi:namedview
     id="base"
     pagecolor="#ffffff"
     bordercolor="#666666"
     borderopacity="1.0"
     inkscape:pageopacity="0.0"
     inkscape:pageshadow="2"
     inkscape:zoom="2.8"
     inkscape:cx="71.480675"
     inkscape:cy="160.21791"
     inkscape:document-units="px"
     inkscape:current-layer="layer1"
     showgrid="false"
     inkscape:window-width="1920"
     inkscape:window-height="1009"
     inkscape:window-x="0"
     inkscape:window-y="25"
     inkscape:window-maximized="1" />
  <defs
     id="defs4">
    <marker
       inkscape:stockid="Arrow1Lstart"
       orient="auto"
       refY="0"
       refX="0"
       id="Arrow1Lstart"
       style="overflow:visible">
      <path
         id="path3595"
         d="M 0,0 5,-5 -12.5,0 5,5 0,0 z"
         style="fill-rule:evenodd;stroke:#000000;stroke-width:1pt;marker-start:none"
         transform="matrix(0.8,0,0,0.8,10,0)" />
    </marker>
    <marker
       inkscape:stockid="Arrow1Lend"
       orient="auto"
       refY="0"
       refX="0"
       id="Arrow1Lend"
       style="overflow:visible">
      <path
         id="path3598"
         d="M 0,0 5,-5 -12.5,0 5,5 0,0 z"
         style="fill-rule:evenodd;stroke:#000000;stroke-width:1pt;marker-start:none"
         transform="matrix(-0.8,0,0,-0.8,-10,0)" />
    </marker>
    <inkscape:perspective
       sodipodi:type="inkscape:persp3d"
       inkscape:vp_x="0 : 526.18109 : 1"
       inkscape:vp_y="0 : 1000 : 0"
       inkscape:vp_z="744.09448 : 526.18109 : 1"
       inkscape:persp3d-origin="372.04724 : 350.78739 : 1"
       id="perspective10" />
    <inkscape:perspective
       id="perspective4434"
       inkscape:persp3d-origin="0.5 : 0.33333333 : 1"
       inkscape:vp_z="1 : 0.5 : 1"
       inkscape:vp_y="0 : 1000 : 0"
       inkscape:vp_x="0 : 0.5 : 1"
       sodipodi:type="inkscape:persp3d" />
    <inkscape:perspective
       id="perspective4459"
       inkscape:persp3d-origin="0.5 : 0.33333333 : 1"
       inkscape:vp_z="1 : 0.5 : 1"
       inkscape:vp_y="0 : 1000 : 0"
       inkscape:vp_x="0 : 0.5 : 1"
       sodipodi:type="inkscape:persp3d" />
    <inkscape:perspective
       id="perspective4489"
       inkscape:persp3d-origin="0.5 : 0.33333333 : 1"
       inkscape:vp_z="1 : 0.5 : 1"
       inkscape:vp_y="0 : 1000 : 0"
       inkscape:vp_x="0 : 0.5 : 1"
       sodipodi:type="inkscape:persp3d" />
  </defs>
  <metadata
     id="metadata7">
    <rdf:RDF>
      <cc:Work
         rdf:about="">
        <dc:format>image/svg+xml</dc:format>
        <dc:type
           rdf:resource="http://purl.org/dc/dcmitype/StillImage" />
        <dc:title />
      </cc:Work>
    </rdf:RDF>
  </metadata>
  <g
     inkscape:label="Calque 1"
     inkscape:groupmode="layer"
     id="layer1"
     transform="translate(-94.505089,-231.47096)">
    <path
       style="fill:none;stroke:#000000;stroke-width:1.14300895;stroke-linecap:butt;stroke-linejoin:miter;stroke-miterlimit:4;stroke-opacity:1;stroke-dasharray:none;stroke-dashoffset:10.78732014;marker-start:url(#Arrow1Lstart);marker-end:url(#Arrow1Lend)"
       d="m 658.49992,517.48172 c 0,0 0,0 -532.05858,0 0,-285.43926 0,-285.43926 0,-285.43926"
       id="path2818" />
    <text
       xml:space="preserve"
       style="font-size:15px;font-style:normal;font-weight:normal;fill:#000000;fill-opacity:1;stroke:none;font-family:Bitstream Vera Sans"
       x="92.85714"
       y="259.64789"
       id="text4420"><tspan
         sodipodi:role="line"
         id="tspan4422"
         x="92.85714"
         y="259.64789">1.0</tspan></text>
    <path
       style="fill:none;stroke:#000000;stroke-width:1;stroke-linecap:butt;stroke-linejoin:miter;stroke-miterlimit:4;stroke-opacity:1;stroke-dasharray:6, 6;stroke-dashoffset:10"
       d="m 121.91333,254.87707 c 8.57143,0 8.57143,0 8.57143,0"
       id="path4424" />
    <text
       xml:space="preserve"
       style="font-size:15px;font-style:normal;font-weight:normal;fill:#000000;fill-opacity:1;stroke:none;font-family:Bitstream Vera Sans"
       x="114.16782"
       y="529.25098"
       id="text4420-8"><tspan
         sodipodi:role="line"
         id="tspan4422-4"
         x="114.16782"
         y="529.25098">0</tspan></text>
    <path
       style="fill:none;stroke:#000000;stroke-width:1;stroke-linecap:butt;stroke-linejoin:miter;stroke-miterlimit:4;stroke-opacity:1;stroke-dasharray:6, 6;stroke-dashoffset:10"
       d="m 629.25334,522.24074 c 0,-8.57143 0,-8.57143 0,-8.57143"
       id="path4424-5" />
    <path
       style="fill:none;stroke:#000000;stroke-width:0.80000001;stroke-linecap:butt;stroke-linejoin:miter;stroke-miterlimit:4;stroke-opacity:1;stroke-dasharray:4.8, 4.8;stroke-dashoffset:7.99999988"
       d="m 133.79,255.20195 c 503.28733,0 503.28733,0 503.28733,0"
       id="path4424-3" />
    <path
       style="fill:none;stroke:#000000;stroke-width:1.38776183;stroke-linecap:butt;stroke-linejoin:miter;stroke-miterlimit:4;stroke-opacity:1;stroke-dasharray:none"
       d="m 126.43513,518.03064 c 0,0 77.02896,-258.3956 502.3118,-262.87329"
       id="path4503"
       sodipodi:nodetypes="cs" />
    <g
       id="g3519"
       transform="matrix(1.9128469,0,0,1.9128469,-254.72101,278.61546)"
       ns0:preamble=""
       ns0:text="Nombre de faux positifs moyens par image (NFM)">
      <defs
         id="defs3521">
        <g
           id="g3523">
          <symbol
             id="textext-09035421-0"
             overflow="visible"
             style="overflow:visible">
            <path
               id="path3526"
               d=""
               style="stroke:none" />
          </symbol>
          <symbol
             id="textext-09035421-1"
             overflow="visible"
             style="overflow:visible">
            <path
               id="path3529"
               d="M 2.3125,-6.671875 C 2.21875,-6.796875 2.21875,-6.8125 2.03125,-6.8125 l -1.703125,0 0,0.3125 0.296875,0 c 0.140625,0 0.34375,0.015625 0.484375,0.015625 0.234375,0.03125 0.25,0.046875 0.25,0.234375 l 0,5.203125 c 0,0.265625 0,0.734375 -1.03125,0.734375 l 0,0.3125 C 0.671875,-0.015625 1.171875,-0.03125 1.5,-0.03125 c 0.328125,0 0.8125,0.015625 1.15625,0.03125 l 0,-0.3125 c -1.015625,0 -1.015625,-0.46875 -1.015625,-0.734375 l 0,-5.1875 c 0.046875,0.046875 0.046875,0.0625 0.09375,0.125 L 5.796875,-0.125 C 5.890625,-0.015625 5.90625,0 5.96875,0 6.109375,0 6.109375,-0.0625 6.109375,-0.265625 l 0,-5.5 c 0,-0.265625 0,-0.734375 1.03125,-0.734375 l 0,-0.3125 c -0.359375,0.015625 -0.84375,0.03125 -1.171875,0.03125 -0.328125,0 -0.8125,-0.015625 -1.15625,-0.03125 l 0,0.3125 c 1.015625,0 1.015625,0.46875 1.015625,0.734375 l 0,4.265625 L 2.3125,-6.671875 z m 0,0"
               style="stroke:none" />
          </symbol>
          <symbol
             id="textext-09035421-2"
             overflow="visible"
             style="overflow:visible">
            <path
               id="path3532"
               d="M 4.6875,-2.140625 C 4.6875,-3.40625 3.703125,-4.46875 2.5,-4.46875 c -1.25,0 -2.21875,1.09375 -2.21875,2.328125 0,1.296875 1.03125,2.25 2.203125,2.25 1.203125,0 2.203125,-0.984375 2.203125,-2.25 z m -2.1875,2 c -0.4375,0 -0.875,-0.203125 -1.140625,-0.671875 -0.25,-0.4375 -0.25,-1.046875 -0.25,-1.40625 0,-0.390625 0,-0.921875 0.234375,-1.359375 C 1.609375,-4.03125 2.078125,-4.25 2.484375,-4.25 c 0.4375,0 0.859375,0.21875 1.125,0.65625 0.265625,0.421875 0.265625,1 0.265625,1.375 0,0.359375 0,0.90625 -0.21875,1.34375 C 3.421875,-0.421875 2.984375,-0.140625 2.5,-0.140625 z m 0,0"
               style="stroke:none" />
          </symbol>
          <symbol
             id="textext-09035421-3"
             overflow="visible"
             style="overflow:visible">
            <path
               id="path3535"
               d="m 1.09375,-3.421875 0,2.671875 c 0,0.4375 -0.109375,0.4375 -0.78125,0.4375 l 0,0.3125 c 0.359375,-0.015625 0.859375,-0.03125 1.140625,-0.03125 0.25,0 0.765625,0.015625 1.109375,0.03125 l 0,-0.3125 c -0.671875,0 -0.78125,0 -0.78125,-0.4375 l 0,-1.84375 C 1.78125,-3.625 2.5,-4.1875 3.125,-4.1875 c 0.640625,0 0.75,0.53125 0.75,1.109375 l 0,2.328125 c 0,0.4375 -0.109375,0.4375 -0.78125,0.4375 l 0,0.3125 c 0.34375,-0.015625 0.859375,-0.03125 1.125,-0.03125 0.25,0 0.78125,0.015625 1.109375,0.03125 l 0,-0.3125 c -0.65625,0 -0.765625,0 -0.765625,-0.4375 l 0,-1.84375 c 0,-1.03125 0.703125,-1.59375 1.34375,-1.59375 0.625,0 0.734375,0.53125 0.734375,1.109375 l 0,2.328125 c 0,0.4375 -0.109375,0.4375 -0.78125,0.4375 l 0,0.3125 c 0.34375,-0.015625 0.859375,-0.03125 1.125,-0.03125 0.265625,0 0.78125,0.015625 1.125,0.03125 l 0,-0.3125 c -0.515625,0 -0.765625,0 -0.78125,-0.296875 l 0,-1.90625 c 0,-0.859375 0,-1.15625 -0.3125,-1.515625 -0.140625,-0.171875 -0.46875,-0.375 -1.046875,-0.375 -0.828125,0 -1.28125,0.59375 -1.4375,0.984375 C 4.390625,-4.296875 3.65625,-4.40625 3.203125,-4.40625 2.46875,-4.40625 2,-3.984375 1.71875,-3.359375 l 0,-1.046875 -1.40625,0.109375 0,0.3125 c 0.703125,0 0.78125,0.0625 0.78125,0.5625 z m 0,0"
               style="stroke:none" />
          </symbol>
          <symbol
             id="textext-09035421-4"
             overflow="visible"
             style="overflow:visible">
            <path
               id="path3538"
               d="m 1.71875,-3.765625 0,-3.15625 -1.4375,0.109375 0,0.3125 c 0.703125,0 0.78125,0.0625 0.78125,0.5625 l 0,5.9375 0.25,0 c 0,-0.015625 0.078125,-0.15625 0.359375,-0.625 0.140625,0.234375 0.5625,0.734375 1.296875,0.734375 1.1875,0 2.21875,-0.984375 2.21875,-2.265625 0,-1.265625 -0.96875,-2.25 -2.109375,-2.25 -0.78125,0 -1.203125,0.46875 -1.359375,0.640625 z m 0.03125,2.625 0,-2.046875 c 0,-0.1875 0,-0.203125 0.109375,-0.359375 C 2.25,-4.109375 2.796875,-4.1875 3.03125,-4.1875 c 0.453125,0 0.8125,0.265625 1.046875,0.640625 0.265625,0.40625 0.28125,0.96875 0.28125,1.390625 0,0.359375 -0.015625,0.953125 -0.296875,1.40625 -0.21875,0.3125 -0.59375,0.640625 -1.125,0.640625 -0.453125,0 -0.8125,-0.234375 -1.046875,-0.609375 C 1.75,-0.921875 1.75,-0.953125 1.75,-1.140625 z m 0,0"
               style="stroke:none" />
          </symbol>
          <symbol
             id="textext-09035421-5"
             overflow="visible"
             style="overflow:visible">
            <path
               id="path3541"
               d="m 1.71875,-0.78125 0,-1.53125 c 0,-0.984375 0.421875,-1.875 1.171875,-1.875 0.0625,0 0.09375,0 0.109375,0.015625 -0.03125,0 -0.234375,0.125 -0.234375,0.390625 0,0.265625 0.21875,0.421875 0.4375,0.421875 0.171875,0 0.421875,-0.125 0.421875,-0.4375 0,-0.3125 -0.3125,-0.609375 -0.734375,-0.609375 -0.734375,0 -1.09375,0.671875 -1.21875,1.09375 l 0,-1.09375 -1.390625,0.109375 0,0.3125 c 0.703125,0 0.78125,0.0625 0.78125,0.5625 l 0,2.671875 c 0,0.4375 -0.109375,0.4375 -0.78125,0.4375 l 0,0.3125 c 0.390625,-0.015625 0.859375,-0.03125 1.140625,-0.03125 0.390625,0 0.859375,0 1.265625,0.03125 l 0,-0.3125 -0.21875,0 c -0.734375,0 -0.75,-0.109375 -0.75,-0.46875 z m 0,0"
               style="stroke:none" />
          </symbol>
          <symbol
             id="textext-09035421-6"
             overflow="visible"
             style="overflow:visible">
            <path
               id="path3544"
               d="m 3.890625,-2.296875 c 0.21875,0 0.25,0 0.25,-0.21875 0,-0.984375 -0.546875,-1.953125 -1.78125,-1.953125 -1.15625,0 -2.078125,1.03125 -2.078125,2.28125 0,1.328125 1.046875,2.296875 2.1875,2.296875 C 3.6875,0.109375 4.140625,-1 4.140625,-1.1875 4.140625,-1.28125 4.0625,-1.3125 4,-1.3125 c -0.078125,0 -0.109375,0.0625 -0.125,0.140625 -0.34375,1.03125 -1.25,1.03125 -1.34375,1.03125 -0.5,0 -0.890625,-0.296875 -1.125,-0.671875 -0.296875,-0.46875 -0.296875,-1.125 -0.296875,-1.484375 l 2.78125,0 z m -2.78125,-0.21875 C 1.171875,-4 2.015625,-4.25 2.359375,-4.25 c 1.015625,0 1.125,1.34375 1.125,1.734375 l -2.375,0 z m 0,0"
               style="stroke:none" />
          </symbol>
          <symbol
             id="textext-09035421-7"
             overflow="visible"
             style="overflow:visible">
            <path
               id="path3547"
               d="m 3.78125,-0.546875 0,0.65625 L 5.25,0 l 0,-0.3125 c -0.6875,0 -0.78125,-0.0625 -0.78125,-0.5625 l 0,-6.046875 -1.421875,0.109375 0,0.3125 c 0.6875,0 0.765625,0.0625 0.765625,0.5625 l 0,2.15625 c -0.28125,-0.359375 -0.71875,-0.625 -1.25,-0.625 -1.171875,0 -2.21875,0.984375 -2.21875,2.265625 0,1.265625 0.96875,2.25 2.109375,2.25 0.640625,0 1.078125,-0.34375 1.328125,-0.65625 z m 0,-2.671875 0,2.046875 c 0,0.171875 0,0.1875 -0.109375,0.359375 C 3.375,-0.328125 2.9375,-0.109375 2.5,-0.109375 2.046875,-0.109375 1.6875,-0.375 1.453125,-0.75 1.203125,-1.15625 1.171875,-1.71875 1.171875,-2.140625 1.171875,-2.5 1.1875,-3.09375 1.46875,-3.546875 1.6875,-3.859375 2.0625,-4.1875 2.609375,-4.1875 c 0.34375,0 0.765625,0.15625 1.0625,0.59375 0.109375,0.171875 0.109375,0.1875 0.109375,0.375 z m 0,0"
               style="stroke:none" />
          </symbol>
          <symbol
             id="textext-09035421-8"
             overflow="visible"
             style="overflow:visible">
            <path
               id="path3550"
               d="m 1.78125,-3.984375 1.125,0 0,-0.3125 -1.15625,0 0,-1.15625 c 0,-0.875 0.46875,-1.359375 0.90625,-1.359375 0.03125,0 0.1875,0 0.328125,0.078125 C 2.875,-6.703125 2.6875,-6.5625 2.6875,-6.3125 c 0,0.21875 0.15625,0.421875 0.4375,0.421875 0.28125,0 0.4375,-0.203125 0.4375,-0.4375 0,-0.375 -0.375,-0.703125 -0.90625,-0.703125 -0.6875,0 -1.546875,0.53125 -1.546875,1.59375 l 0,1.140625 -0.78125,0 0,0.3125 0.78125,0 0,3.234375 c 0,0.4375 -0.109375,0.4375 -0.765625,0.4375 l 0,0.3125 c 0.390625,-0.015625 0.859375,-0.03125 1.125,-0.03125 0.40625,0 0.875,0 1.265625,0.03125 l 0,-0.3125 -0.203125,0 c -0.734375,0 -0.75,-0.109375 -0.75,-0.46875 l 0,-3.203125 z m 0,0"
               style="stroke:none" />
          </symbol>
          <symbol
             id="textext-09035421-9"
             overflow="visible"
             style="overflow:visible">
            <path
               id="path3553"
               d="m 3.3125,-0.75 c 0.046875,0.390625 0.3125,0.8125 0.78125,0.8125 0.21875,0 0.828125,-0.140625 0.828125,-0.953125 l 0,-0.5625 -0.25,0 0,0.5625 c 0,0.578125 -0.25,0.640625 -0.359375,0.640625 -0.328125,0 -0.375,-0.453125 -0.375,-0.5 l 0,-1.984375 c 0,-0.421875 0,-0.8125 -0.359375,-1.1875 C 3.1875,-4.3125 2.6875,-4.46875 2.21875,-4.46875 c -0.828125,0 -1.515625,0.46875 -1.515625,1.125 0,0.296875 0.203125,0.46875 0.46875,0.46875 0.28125,0 0.453125,-0.203125 0.453125,-0.453125 0,-0.125 -0.046875,-0.453125 -0.515625,-0.453125 C 1.390625,-4.140625 1.875,-4.25 2.1875,-4.25 c 0.5,0 1.0625,0.390625 1.0625,1.28125 l 0,0.359375 c -0.515625,0.03125 -1.203125,0.0625 -1.828125,0.359375 -0.75,0.34375 -1,0.859375 -1,1.296875 0,0.8125 0.96875,1.0625 1.59375,1.0625 0.65625,0 1.109375,-0.40625 1.296875,-0.859375 z M 3.25,-2.390625 l 0,1 c 0,0.9375 -0.71875,1.28125 -1.171875,1.28125 -0.484375,0 -0.890625,-0.34375 -0.890625,-0.84375 0,-0.546875 0.421875,-1.375 2.0625,-1.4375 z m 0,0"
               style="stroke:none" />
          </symbol>
          <symbol
             id="textext-09035421-10"
             overflow="visible"
             style="overflow:visible">
            <path
               id="path3556"
               d="m 3.890625,-0.78125 0,0.890625 L 5.328125,0 l 0,-0.3125 C 4.640625,-0.3125 4.5625,-0.375 4.5625,-0.875 l 0,-3.53125 -1.46875,0.109375 0,0.3125 c 0.6875,0 0.78125,0.0625 0.78125,0.5625 l 0,1.765625 c 0,0.875 -0.484375,1.546875 -1.21875,1.546875 -0.828125,0 -0.875,-0.46875 -0.875,-0.984375 l 0,-3.3125 -1.46875,0.109375 0,0.3125 c 0.78125,0 0.78125,0.03125 0.78125,0.90625 l 0,1.5 c 0,0.78125 0,1.6875 1.515625,1.6875 0.5625,0 1,-0.28125 1.28125,-0.890625 z m 0,0"
               style="stroke:none" />
          </symbol>
          <symbol
             id="textext-09035421-11"
             overflow="visible"
             style="overflow:visible">
            <path
               id="path3559"
               d="M 2.859375,-2.34375 C 3.15625,-2.71875 3.53125,-3.203125 3.78125,-3.46875 4.09375,-3.828125 4.5,-3.984375 4.96875,-3.984375 l 0,-0.3125 c -0.265625,0.015625 -0.5625,0.03125 -0.828125,0.03125 -0.296875,0 -0.828125,-0.015625 -0.953125,-0.03125 l 0,0.3125 c 0.21875,0.015625 0.296875,0.140625 0.296875,0.3125 0,0.15625 -0.109375,0.28125 -0.15625,0.34375 L 2.71875,-2.546875 1.9375,-3.5625 C 1.84375,-3.65625 1.84375,-3.671875 1.84375,-3.734375 c 0,-0.15625 0.15625,-0.25 0.34375,-0.25 l 0,-0.3125 c -0.25,0.015625 -0.90625,0.03125 -1.078125,0.03125 -0.203125,0 -0.671875,-0.015625 -0.9375,-0.03125 l 0,0.3125 c 0.703125,0 0.703125,0 1.171875,0.609375 l 0.984375,1.28125 c -0.46875,0.59375 -0.46875,0.625 -0.9375,1.1875 C 0.921875,-0.328125 0.328125,-0.3125 0.125,-0.3125 L 0.125,0 c 0.25,-0.015625 0.5625,-0.03125 0.828125,-0.03125 0.28125,0 0.703125,0.015625 0.9375,0.03125 l 0,-0.3125 c -0.21875,-0.03125 -0.28125,-0.15625 -0.28125,-0.3125 0,-0.21875 0.28125,-0.546875 0.890625,-1.265625 0.296875,0.390625 0.375,0.5 0.765625,1 C 3.34375,-0.78125 3.46875,-0.625 3.46875,-0.5625 c 0,0.09375 -0.09375,0.25 -0.359375,0.25 l 0,0.3125 C 3.40625,-0.015625 3.96875,-0.03125 4.1875,-0.03125 c 0.265625,0 0.65625,0.015625 0.953125,0.03125 l 0,-0.3125 c -0.53125,0 -0.71875,-0.015625 -0.9375,-0.3125 l -1.34375,-1.71875 z m 0,0"
               style="stroke:none" />
          </symbol>
          <symbol
             id="textext-09035421-12"
             overflow="visible"
             style="overflow:visible">
            <path
               id="path3562"
               d="M 1.75,-3.359375 C 2.03125,-3.875 2.515625,-4.15625 3.03125,-4.15625 c 0.734375,0 1.328125,0.875 1.328125,2 0,1.203125 -0.6875,2.046875 -1.421875,2.046875 -0.40625,0 -0.78125,-0.203125 -1.046875,-0.609375 C 1.75,-0.921875 1.75,-0.9375 1.75,-1.140625 l 0,-2.21875 z m 0,2.765625 c 0.046875,0.171875 0.46875,0.703125 1.21875,0.703125 1.1875,0 2.21875,-0.984375 2.21875,-2.265625 0,-1.265625 -0.953125,-2.25 -2.078125,-2.25 -0.78125,0 -1.203125,0.4375 -1.390625,0.65625 l 0,-0.65625 -1.4375,0.109375 0,0.3125 c 0.703125,0 0.78125,0.0625 0.78125,0.5 l 0,4.65625 C 1.0625,1.625 0.953125,1.625 0.28125,1.625 l 0,0.3125 C 0.625,1.921875 1.140625,1.90625 1.390625,1.90625 c 0.28125,0 0.78125,0.015625 1.125,0.03125 l 0,-0.3125 C 1.859375,1.625 1.75,1.625 1.75,1.171875 l 0,-1.671875 0,-0.09375 z m 0,0"
               style="stroke:none" />
          </symbol>
          <symbol
             id="textext-09035421-13"
             overflow="visible"
             style="overflow:visible">
            <path
               id="path3565"
               d="m 2.078125,-1.9375 c 0.21875,0.046875 1.03125,0.203125 1.03125,0.921875 0,0.5 -0.34375,0.90625 -1.125,0.90625 -0.84375,0 -1.203125,-0.5625 -1.390625,-1.421875 C 0.5625,-1.65625 0.5625,-1.6875 0.453125,-1.6875 c -0.125,0 -0.125,0.0625 -0.125,0.234375 l 0,1.328125 c 0,0.171875 0,0.234375 0.109375,0.234375 0.046875,0 0.0625,-0.015625 0.25,-0.203125 0.015625,-0.015625 0.015625,-0.03125 0.203125,-0.21875 0.4375,0.40625 0.890625,0.421875 1.09375,0.421875 1.140625,0 1.609375,-0.671875 1.609375,-1.390625 0,-0.515625 -0.296875,-0.828125 -0.421875,-0.9375 C 2.84375,-2.546875 2.453125,-2.625 2.03125,-2.703125 1.46875,-2.8125 0.8125,-2.9375 0.8125,-3.515625 c 0,-0.359375 0.25,-0.765625 1.109375,-0.765625 1.09375,0 1.15625,0.90625 1.171875,1.203125 0,0.09375 0.09375,0.09375 0.109375,0.09375 0.140625,0 0.140625,-0.046875 0.140625,-0.234375 l 0,-1.015625 c 0,-0.15625 0,-0.234375 -0.109375,-0.234375 -0.046875,0 -0.078125,0 -0.203125,0.125 -0.03125,0.03125 -0.125,0.125 -0.171875,0.15625 -0.375,-0.28125 -0.78125,-0.28125 -0.9375,-0.28125 -1.21875,0 -1.59375,0.671875 -1.59375,1.234375 0,0.34375 0.15625,0.625 0.421875,0.84375 0.328125,0.25 0.609375,0.3125 1.328125,0.453125 z m 0,0"
               style="stroke:none" />
          </symbol>
          <symbol
             id="textext-09035421-14"
             overflow="visible"
             style="overflow:visible">
            <path
               id="path3568"
               d="M 1.765625,-4.40625 0.375,-4.296875 l 0,0.3125 c 0.640625,0 0.734375,0.0625 0.734375,0.546875 l 0,2.6875 c 0,0.4375 -0.109375,0.4375 -0.78125,0.4375 l 0,0.3125 C 0.640625,-0.015625 1.1875,-0.03125 1.421875,-0.03125 1.78125,-0.03125 2.125,-0.015625 2.46875,0 l 0,-0.3125 c -0.671875,0 -0.703125,-0.046875 -0.703125,-0.4375 l 0,-3.65625 z m 0.03125,-1.734375 c 0,-0.3125 -0.234375,-0.53125 -0.515625,-0.53125 -0.3125,0 -0.53125,0.265625 -0.53125,0.53125 0,0.265625 0.21875,0.53125 0.53125,0.53125 0.28125,0 0.515625,-0.21875 0.515625,-0.53125 z m 0,0"
               style="stroke:none" />
          </symbol>
          <symbol
             id="textext-09035421-15"
             overflow="visible"
             style="overflow:visible">
            <path
               id="path3571"
               d="m 1.71875,-3.984375 1.4375,0 0,-0.3125 -1.4375,0 0,-1.828125 -0.25,0 c 0,0.8125 -0.296875,1.875 -1.28125,1.921875 l 0,0.21875 0.84375,0 0,2.75 c 0,1.21875 0.9375,1.34375 1.296875,1.34375 0.703125,0 0.984375,-0.703125 0.984375,-1.34375 l 0,-0.5625 -0.25,0 0,0.546875 c 0,0.734375 -0.296875,1.109375 -0.671875,1.109375 -0.671875,0 -0.671875,-0.90625 -0.671875,-1.078125 l 0,-2.765625 z m 0,0"
               style="stroke:none" />
          </symbol>
          <symbol
             id="textext-09035421-16"
             overflow="visible"
             style="overflow:visible">
            <path
               id="path3574"
               d="m 4.140625,-3.34375 c 0.25,-0.640625 0.765625,-0.640625 0.921875,-0.640625 l 0,-0.3125 c -0.234375,0.015625 -0.515625,0.03125 -0.75,0.03125 -0.171875,0 -0.640625,-0.015625 -0.859375,-0.03125 l 0,0.3125 c 0.3125,0 0.46875,0.171875 0.46875,0.421875 0,0.109375 -0.015625,0.125 -0.0625,0.25 L 2.84375,-0.875 1.75,-3.546875 C 1.703125,-3.65625 1.6875,-3.6875 1.6875,-3.734375 c 0,-0.25 0.359375,-0.25 0.5625,-0.25 l 0,-0.3125 c -0.265625,0.015625 -0.921875,0.03125 -1.09375,0.03125 -0.265625,0 -0.671875,-0.015625 -0.96875,-0.03125 l 0,0.3125 c 0.484375,0 0.671875,0 0.8125,0.34375 L 2.5,0 C 2.4375,0.125 2.296875,0.453125 2.25,0.59375 2.03125,1.140625 1.75,1.828125 1.109375,1.828125 c -0.046875,0 -0.28125,0 -0.46875,-0.1875 0.3125,-0.03125 0.390625,-0.25 0.390625,-0.421875 0,-0.25 -0.1875,-0.40625 -0.421875,-0.40625 -0.203125,0 -0.421875,0.125 -0.421875,0.421875 0,0.453125 0.421875,0.8125 0.921875,0.8125 0.625,0 1.03125,-0.578125 1.265625,-1.140625 l 1.765625,-4.25 z m 0,0"
               style="stroke:none" />
          </symbol>
          <symbol
             id="textext-09035421-17"
             overflow="visible"
             style="overflow:visible">
            <path
               id="path3577"
               d="m 1.09375,-3.421875 0,2.671875 c 0,0.4375 -0.109375,0.4375 -0.78125,0.4375 l 0,0.3125 c 0.359375,-0.015625 0.859375,-0.03125 1.140625,-0.03125 0.25,0 0.765625,0.015625 1.109375,0.03125 l 0,-0.3125 c -0.671875,0 -0.78125,0 -0.78125,-0.4375 l 0,-1.84375 C 1.78125,-3.625 2.5,-4.1875 3.125,-4.1875 c 0.640625,0 0.75,0.53125 0.75,1.109375 l 0,2.328125 c 0,0.4375 -0.109375,0.4375 -0.78125,0.4375 l 0,0.3125 c 0.34375,-0.015625 0.859375,-0.03125 1.125,-0.03125 0.25,0 0.78125,0.015625 1.109375,0.03125 l 0,-0.3125 c -0.515625,0 -0.765625,0 -0.765625,-0.296875 l 0,-1.90625 c 0,-0.859375 0,-1.15625 -0.3125,-1.515625 -0.140625,-0.171875 -0.46875,-0.375 -1.046875,-0.375 C 2.46875,-4.40625 2,-3.984375 1.71875,-3.359375 l 0,-1.046875 -1.40625,0.109375 0,0.3125 c 0.703125,0 0.78125,0.0625 0.78125,0.5625 z m 0,0"
               style="stroke:none" />
          </symbol>
          <symbol
             id="textext-09035421-18"
             overflow="visible"
             style="overflow:visible">
            <path
               id="path3580"
               d="m 2.21875,-1.71875 c -0.875,0 -0.875,-1 -0.875,-1.21875 0,-0.265625 0.015625,-0.59375 0.15625,-0.84375 0.078125,-0.109375 0.3125,-0.390625 0.71875,-0.390625 0.859375,0 0.859375,0.984375 0.859375,1.21875 0,0.265625 0,0.59375 -0.15625,0.84375 C 2.84375,-2 2.609375,-1.71875 2.21875,-1.71875 z m -1,-0.078125 c 0.390625,0.28125 0.8125,0.3125 1,0.3125 0.921875,0 1.609375,-0.6875 1.609375,-1.453125 0,-0.375 -0.15625,-0.734375 -0.40625,-0.96875 C 3.78125,-4.25 4.140625,-4.296875 4.3125,-4.296875 c 0.03125,0 0.078125,0 0.109375,0.015625 C 4.3125,-4.25 4.25,-4.140625 4.25,-4.015625 c 0,0.171875 0.140625,0.28125 0.296875,0.28125 0.09375,0 0.28125,-0.0625 0.28125,-0.296875 0,-0.171875 -0.109375,-0.484375 -0.5,-0.484375 -0.203125,0 -0.640625,0.0625 -1.0625,0.46875 C 2.84375,-4.375 2.4375,-4.40625 2.21875,-4.40625 c -0.9375,0 -1.625,0.6875 -1.625,1.453125 0,0.4375 0.21875,0.8125 0.46875,1.03125 -0.125,0.140625 -0.3125,0.46875 -0.3125,0.828125 0,0.3125 0.140625,0.6875 0.453125,0.890625 -0.609375,0.15625 -0.921875,0.59375 -0.921875,0.984375 0,0.71875 0.984375,1.265625 2.203125,1.265625 1.171875,0 2.203125,-0.5 2.203125,-1.28125 0,-0.34375 -0.125,-0.859375 -0.640625,-1.140625 -0.53125,-0.265625 -1.109375,-0.265625 -1.71875,-0.265625 -0.25,0 -0.671875,0 -0.75,-0.015625 C 1.265625,-0.703125 1.0625,-1 1.0625,-1.328125 c 0,-0.03125 0,-0.265625 0.15625,-0.46875 z M 2.5,1.828125 c -1.015625,0 -1.703125,-0.515625 -1.703125,-1.046875 0,-0.453125 0.375,-0.828125 0.8125,-0.84375 l 0.59375,0 c 0.859375,0 1.96875,0 1.96875,0.84375 0,0.546875 -0.703125,1.046875 -1.671875,1.046875 z m 0,0"
               style="stroke:none" />
          </symbol>
          <symbol
             id="textext-09035421-19"
             overflow="visible"
             style="overflow:visible">
            <path
               id="path3583"
               d="m 3.296875,2.390625 c 0,-0.03125 0,-0.046875 -0.171875,-0.21875 C 1.890625,0.921875 1.5625,-0.96875 1.5625,-2.5 c 0,-1.734375 0.375,-3.46875 1.609375,-4.703125 0.125,-0.125 0.125,-0.140625 0.125,-0.171875 0,-0.078125 -0.03125,-0.109375 -0.09375,-0.109375 -0.109375,0 -1,0.6875 -1.59375,1.953125 -0.5,1.09375 -0.625,2.203125 -0.625,3.03125 0,0.78125 0.109375,1.984375 0.65625,3.125 C 2.25,1.84375 3.09375,2.5 3.203125,2.5 c 0.0625,0 0.09375,-0.03125 0.09375,-0.109375 z m 0,0"
               style="stroke:none" />
          </symbol>
          <symbol
             id="textext-09035421-20"
             overflow="visible"
             style="overflow:visible">
            <path
               id="path3586"
               d="m 5.796875,-6.78125 -5.46875,0 0,0.3125 0.234375,0 c 0.765625,0 0.796875,0.109375 0.796875,0.46875 l 0,5.21875 c 0,0.359375 -0.03125,0.46875 -0.796875,0.46875 l -0.234375,0 0,0.3125 c 0.34375,-0.03125 1.125,-0.03125 1.515625,-0.03125 0.40625,0 1.3125,0 1.671875,0.03125 l 0,-0.3125 -0.328125,0 C 2.25,-0.3125 2.25,-0.4375 2.25,-0.78125 l 0,-2.453125 0.84375,0 c 0.96875,0 1.0625,0.3125 1.0625,1.15625 l 0.25,0 0,-2.640625 -0.25,0 c 0,0.84375 -0.09375,1.171875 -1.0625,1.171875 l -0.84375,0 0,-2.53125 c 0,-0.328125 0.015625,-0.390625 0.484375,-0.390625 l 1.1875,0 c 1.5,0 1.75,0.5625 1.90625,1.9375 l 0.25,0 -0.28125,-2.25 z m 0,0"
               style="stroke:none" />
          </symbol>
          <symbol
             id="textext-09035421-21"
             overflow="visible"
             style="overflow:visible">
            <path
               id="path3589"
               d="M 2.40625,-6.59375 C 2.3125,-6.8125 2.28125,-6.8125 2.046875,-6.8125 l -1.671875,0 0,0.3125 0.234375,0 c 0.765625,0 0.78125,0.109375 0.78125,0.46875 l 0,4.984375 c 0,0.265625 0,0.734375 -1.015625,0.734375 L 0.375,0 c 0.34375,-0.015625 0.828125,-0.03125 1.15625,-0.03125 0.328125,0 0.828125,0.015625 1.171875,0.03125 l 0,-0.3125 c -1.03125,0 -1.03125,-0.46875 -1.03125,-0.734375 l 0,-5.375 0.015625,0 2.40625,6.203125 C 4.140625,-0.09375 4.1875,0 4.28125,0 4.390625,0 4.421875,-0.078125 4.46875,-0.1875 L 6.921875,-6.5 l 0,0 0,5.71875 c 0,0.359375 -0.015625,0.46875 -0.78125,0.46875 l -0.234375,0 0,0.3125 c 0.359375,-0.03125 1.046875,-0.03125 1.4375,-0.03125 0.375,0 1.046875,0 1.421875,0.03125 l 0,-0.3125 -0.25,0 c -0.765625,0 -0.78125,-0.109375 -0.78125,-0.46875 l 0,-5.25 C 7.734375,-6.390625 7.75,-6.5 8.515625,-6.5 l 0.25,0 0,-0.3125 -1.6875,0 C 6.8125,-6.8125 6.8125,-6.796875 6.75,-6.625 L 4.5625,-1 2.40625,-6.59375 z m 0,0"
               style="stroke:none" />
          </symbol>
          <symbol
             id="textext-09035421-22"
             overflow="visible"
             style="overflow:visible">
            <path
               id="path3592"
               d="m 2.875,-2.5 c 0,-0.765625 -0.109375,-1.96875 -0.65625,-3.109375 -0.59375,-1.21875 -1.453125,-1.875 -1.546875,-1.875 -0.0625,0 -0.109375,0.046875 -0.109375,0.109375 0,0.03125 0,0.046875 0.1875,0.234375 0.984375,0.984375 1.546875,2.5625 1.546875,4.640625 0,1.71875 -0.359375,3.46875 -1.59375,4.71875 C 0.5625,2.34375 0.5625,2.359375 0.5625,2.390625 0.5625,2.453125 0.609375,2.5 0.671875,2.5 0.765625,2.5 1.671875,1.8125 2.25,0.546875 2.765625,-0.546875 2.875,-1.65625 2.875,-2.5 z m 0,0"
               style="stroke:none" />
          </symbol>
        </g>
      </defs>
      <g
         id="textext-09035421-23">
        <g
           id="g3595"
           style="fill:#000000;fill-opacity:1">
          <use
             id="use3597"
             y="134.765"
             x="223.43201"
             xlink:href="#textext-09035421-1"
             width="564.56635"
             height="285.93332" />
          <use
             id="use3599"
             y="134.765"
             x="230.90395"
             xlink:href="#textext-09035421-2"
             width="564.56635"
             height="285.93332" />
          <use
             id="use3601"
             y="134.765"
             x="235.88525"
             xlink:href="#textext-09035421-3"
             width="564.56635"
             height="285.93332" />
        </g>
        <g
           id="g3603"
           style="fill:#000000;fill-opacity:1">
          <use
             id="use3605"
             y="134.765"
             x="243.90813"
             xlink:href="#textext-09035421-4"
             width="564.56635"
             height="285.93332" />
          <use
             id="use3607"
             y="134.765"
             x="249.44336"
             xlink:href="#textext-09035421-5"
             width="564.56635"
             height="285.93332" />
          <use
             id="use3609"
             y="134.765"
             x="253.3457"
             xlink:href="#textext-09035421-6"
             width="564.56635"
             height="285.93332" />
        </g>
        <g
           id="g3611"
           style="fill:#000000;fill-opacity:1">
          <use
             id="use3613"
             y="134.765"
             x="261.10059"
             xlink:href="#textext-09035421-7"
             width="564.56635"
             height="285.93332" />
          <use
             id="use3615"
             y="134.765"
             x="266.6358"
             xlink:href="#textext-09035421-6"
             width="564.56635"
             height="285.93332" />
        </g>
        <g
           id="g3617"
           style="fill:#000000;fill-opacity:1">
          <use
             id="use3619"
             y="134.765"
             x="274.38074"
             xlink:href="#textext-09035421-8"
             width="564.56635"
             height="285.93332" />
          <use
             id="use3621"
             y="134.765"
             x="277.42529"
             xlink:href="#textext-09035421-9"
             width="564.56635"
             height="285.93332" />
          <use
             id="use3623"
             y="134.765"
             x="282.40662"
             xlink:href="#textext-09035421-10"
             width="564.56635"
             height="285.93332" />
          <use
             id="use3625"
             y="134.765"
             x="287.94183"
             xlink:href="#textext-09035421-11"
             width="564.56635"
             height="285.93332" />
        </g>
        <g
           id="g3627"
           style="fill:#000000;fill-opacity:1">
          <use
             id="use3629"
             y="134.765"
             x="296.51764"
             xlink:href="#textext-09035421-12"
             width="564.56635"
             height="285.93332" />
        </g>
        <g
           id="g3631"
           style="fill:#000000;fill-opacity:1">
          <use
             id="use3633"
             y="134.765"
             x="302.33182"
             xlink:href="#textext-09035421-2"
             width="564.56635"
             height="285.93332" />
          <use
             id="use3635"
             y="134.765"
             x="307.31311"
             xlink:href="#textext-09035421-13"
             width="564.56635"
             height="285.93332" />
          <use
             id="use3637"
             y="134.765"
             x="311.24237"
             xlink:href="#textext-09035421-14"
             width="564.56635"
             height="285.93332" />
          <use
             id="use3639"
             y="134.765"
             x="314.00998"
             xlink:href="#textext-09035421-15"
             width="564.56635"
             height="285.93332" />
          <use
             id="use3641"
             y="134.765"
             x="317.88443"
             xlink:href="#textext-09035421-14"
             width="564.56635"
             height="285.93332" />
          <use
             id="use3643"
             y="134.765"
             x="320.65204"
             xlink:href="#textext-09035421-8"
             width="564.56635"
             height="285.93332" />
          <use
             id="use3645"
             y="134.765"
             x="323.69659"
             xlink:href="#textext-09035421-13"
             width="564.56635"
             height="285.93332" />
        </g>
        <g
           id="g3647"
           style="fill:#000000;fill-opacity:1">
          <use
             id="use3649"
             y="134.765"
             x="330.94339"
             xlink:href="#textext-09035421-3"
             width="564.56635"
             height="285.93332" />
          <use
             id="use3651"
             y="134.765"
             x="339.24524"
             xlink:href="#textext-09035421-2"
             width="564.56635"
             height="285.93332" />
        </g>
        <g
           id="g3653"
           style="fill:#000000;fill-opacity:1">
          <use
             id="use3655"
             y="134.765"
             x="343.94757"
             xlink:href="#textext-09035421-16"
             width="564.56635"
             height="285.93332" />
        </g>
        <g
           id="g3657"
           style="fill:#000000;fill-opacity:1">
          <use
             id="use3659"
             y="134.765"
             x="348.93686"
             xlink:href="#textext-09035421-6"
             width="564.56635"
             height="285.93332" />
          <use
             id="use3661"
             y="134.765"
             x="353.36423"
             xlink:href="#textext-09035421-17"
             width="564.56635"
             height="285.93332" />
          <use
             id="use3663"
             y="134.765"
             x="358.89944"
             xlink:href="#textext-09035421-13"
             width="564.56635"
             height="285.93332" />
        </g>
        <g
           id="g3665"
           style="fill:#000000;fill-opacity:1">
          <use
             id="use3667"
             y="134.765"
             x="366.14624"
             xlink:href="#textext-09035421-12"
             width="564.56635"
             height="285.93332" />
          <use
             id="use3669"
             y="134.765"
             x="371.68146"
             xlink:href="#textext-09035421-9"
             width="564.56635"
             height="285.93332" />
          <use
             id="use3671"
             y="134.765"
             x="376.66278"
             xlink:href="#textext-09035421-5"
             width="564.56635"
             height="285.93332" />
        </g>
        <g
           id="g3673"
           style="fill:#000000;fill-opacity:1">
          <use
             id="use3675"
             y="134.765"
             x="383.88266"
             xlink:href="#textext-09035421-14"
             width="564.56635"
             height="285.93332" />
          <use
             id="use3677"
             y="134.765"
             x="386.65027"
             xlink:href="#textext-09035421-3"
             width="564.56635"
             height="285.93332" />
          <use
             id="use3679"
             y="134.765"
             x="394.95212"
             xlink:href="#textext-09035421-9"
             width="564.56635"
             height="285.93332" />
          <use
             id="use3681"
             y="134.765"
             x="399.93341"
             xlink:href="#textext-09035421-18"
             width="564.56635"
             height="285.93332" />
          <use
             id="use3683"
             y="134.765"
             x="404.9147"
             xlink:href="#textext-09035421-6"
             width="564.56635"
             height="285.93332" />
        </g>
        <g
           id="g3685"
           style="fill:#000000;fill-opacity:1">
          <use
             id="use3687"
             y="134.765"
             x="412.66959"
             xlink:href="#textext-09035421-19"
             width="564.56635"
             height="285.93332" />
          <use
             id="use3689"
             y="134.765"
             x="416.54404"
             xlink:href="#textext-09035421-1"
             width="564.56635"
             height="285.93332" />
          <use
             id="use3691"
             y="134.765"
             x="424.01599"
             xlink:href="#textext-09035421-20"
             width="564.56635"
             height="285.93332" />
          <use
             id="use3693"
             y="134.765"
             x="430.51959"
             xlink:href="#textext-09035421-21"
             width="564.56635"
             height="285.93332" />
          <use
             id="use3695"
             y="134.765"
             x="439.65231"
             xlink:href="#textext-09035421-22"
             width="564.56635"
             height="285.93332" />
        </g>
      </g>
    </g>
    <g
       ns0:text="Fraction des L\\\'esions localis\\\'ees (FLL)"
       ns0:preamble=""
       transform="matrix(0,-1.5149117,1.5149117,0,-86.547159,850.42279)"
       id="g4018">
      <defs
         id="defs4020">
        <g
           id="g4022">
          <symbol
             style="overflow:visible"
             overflow="visible"
             id="textext-5a50b8bb-0">
            <path
               style="stroke:none"
               d=""
               id="path4025" />
          </symbol>
          <symbol
             style="overflow:visible"
             overflow="visible"
             id="textext-5a50b8bb-1">
            <path
               style="stroke:none"
               d="m 5.796875,-6.78125 -5.46875,0 0,0.3125 0.234375,0 c 0.765625,0 0.796875,0.109375 0.796875,0.46875 l 0,5.21875 c 0,0.359375 -0.03125,0.46875 -0.796875,0.46875 l -0.234375,0 0,0.3125 c 0.34375,-0.03125 1.125,-0.03125 1.515625,-0.03125 0.40625,0 1.3125,0 1.671875,0.03125 l 0,-0.3125 -0.328125,0 C 2.25,-0.3125 2.25,-0.4375 2.25,-0.78125 l 0,-2.453125 0.84375,0 c 0.96875,0 1.0625,0.3125 1.0625,1.15625 l 0.25,0 0,-2.640625 -0.25,0 c 0,0.84375 -0.09375,1.171875 -1.0625,1.171875 l -0.84375,0 0,-2.53125 c 0,-0.328125 0.015625,-0.390625 0.484375,-0.390625 l 1.1875,0 c 1.5,0 1.75,0.5625 1.90625,1.9375 l 0.25,0 -0.28125,-2.25 z m 0,0"
               id="path4028" />
          </symbol>
          <symbol
             style="overflow:visible"
             overflow="visible"
             id="textext-5a50b8bb-2">
            <path
               style="stroke:none"
               d="m 1.71875,-0.78125 0,-1.53125 c 0,-0.984375 0.421875,-1.875 1.171875,-1.875 0.0625,0 0.09375,0 0.109375,0.015625 -0.03125,0 -0.234375,0.125 -0.234375,0.390625 0,0.265625 0.21875,0.421875 0.4375,0.421875 0.171875,0 0.421875,-0.125 0.421875,-0.4375 0,-0.3125 -0.3125,-0.609375 -0.734375,-0.609375 -0.734375,0 -1.09375,0.671875 -1.21875,1.09375 l 0,-1.09375 -1.390625,0.109375 0,0.3125 c 0.703125,0 0.78125,0.0625 0.78125,0.5625 l 0,2.671875 c 0,0.4375 -0.109375,0.4375 -0.78125,0.4375 l 0,0.3125 c 0.390625,-0.015625 0.859375,-0.03125 1.140625,-0.03125 0.390625,0 0.859375,0 1.265625,0.03125 l 0,-0.3125 -0.21875,0 c -0.734375,0 -0.75,-0.109375 -0.75,-0.46875 z m 0,0"
               id="path4031" />
          </symbol>
          <symbol
             style="overflow:visible"
             overflow="visible"
             id="textext-5a50b8bb-3">
            <path
               style="stroke:none"
               d="m 3.3125,-0.75 c 0.046875,0.390625 0.3125,0.8125 0.78125,0.8125 0.21875,0 0.828125,-0.140625 0.828125,-0.953125 l 0,-0.5625 -0.25,0 0,0.5625 c 0,0.578125 -0.25,0.640625 -0.359375,0.640625 -0.328125,0 -0.375,-0.453125 -0.375,-0.5 l 0,-1.984375 c 0,-0.421875 0,-0.8125 -0.359375,-1.1875 C 3.1875,-4.3125 2.6875,-4.46875 2.21875,-4.46875 c -0.828125,0 -1.515625,0.46875 -1.515625,1.125 0,0.296875 0.203125,0.46875 0.46875,0.46875 0.28125,0 0.453125,-0.203125 0.453125,-0.453125 0,-0.125 -0.046875,-0.453125 -0.515625,-0.453125 C 1.390625,-4.140625 1.875,-4.25 2.1875,-4.25 c 0.5,0 1.0625,0.390625 1.0625,1.28125 l 0,0.359375 c -0.515625,0.03125 -1.203125,0.0625 -1.828125,0.359375 -0.75,0.34375 -1,0.859375 -1,1.296875 0,0.8125 0.96875,1.0625 1.59375,1.0625 0.65625,0 1.109375,-0.40625 1.296875,-0.859375 z M 3.25,-2.390625 l 0,1 c 0,0.9375 -0.71875,1.28125 -1.171875,1.28125 -0.484375,0 -0.890625,-0.34375 -0.890625,-0.84375 0,-0.546875 0.421875,-1.375 2.0625,-1.4375 z m 0,0"
               id="path4034" />
          </symbol>
          <symbol
             style="overflow:visible"
             overflow="visible"
             id="textext-5a50b8bb-4">
            <path
               style="stroke:none"
               d="m 3.578125,-3.84375 c -0.40625,0.03125 -0.46875,0.328125 -0.46875,0.453125 0,0.265625 0.1875,0.453125 0.453125,0.453125 0.265625,0 0.46875,-0.15625 0.46875,-0.46875 0,-0.671875 -0.765625,-1.0625 -1.53125,-1.0625 -1.25,0 -2.15625,1.078125 -2.15625,2.3125 0,1.28125 0.984375,2.265625 2.140625,2.265625 1.328125,0 1.65625,-1.203125 1.65625,-1.296875 0,-0.09375 -0.109375,-0.09375 -0.140625,-0.09375 -0.078125,0 -0.109375,0.03125 -0.125,0.09375 -0.28125,0.921875 -0.9375,1.046875 -1.296875,1.046875 -0.53125,0 -1.40625,-0.421875 -1.40625,-2.03125 0,-1.625 0.8125,-2.046875 1.34375,-2.046875 0.09375,0 0.71875,0.015625 1.0625,0.375 z m 0,0"
               id="path4037" />
          </symbol>
          <symbol
             style="overflow:visible"
             overflow="visible"
             id="textext-5a50b8bb-5">
            <path
               style="stroke:none"
               d="m 1.71875,-3.984375 1.4375,0 0,-0.3125 -1.4375,0 0,-1.828125 -0.25,0 c 0,0.8125 -0.296875,1.875 -1.28125,1.921875 l 0,0.21875 0.84375,0 0,2.75 c 0,1.21875 0.9375,1.34375 1.296875,1.34375 0.703125,0 0.984375,-0.703125 0.984375,-1.34375 l 0,-0.5625 -0.25,0 0,0.546875 c 0,0.734375 -0.296875,1.109375 -0.671875,1.109375 -0.671875,0 -0.671875,-0.90625 -0.671875,-1.078125 l 0,-2.765625 z m 0,0"
               id="path4040" />
          </symbol>
          <symbol
             style="overflow:visible"
             overflow="visible"
             id="textext-5a50b8bb-6">
            <path
               style="stroke:none"
               d="M 1.765625,-4.40625 0.375,-4.296875 l 0,0.3125 c 0.640625,0 0.734375,0.0625 0.734375,0.546875 l 0,2.6875 c 0,0.4375 -0.109375,0.4375 -0.78125,0.4375 l 0,0.3125 C 0.640625,-0.015625 1.1875,-0.03125 1.421875,-0.03125 1.78125,-0.03125 2.125,-0.015625 2.46875,0 l 0,-0.3125 c -0.671875,0 -0.703125,-0.046875 -0.703125,-0.4375 l 0,-3.65625 z m 0.03125,-1.734375 c 0,-0.3125 -0.234375,-0.53125 -0.515625,-0.53125 -0.3125,0 -0.53125,0.265625 -0.53125,0.53125 0,0.265625 0.21875,0.53125 0.53125,0.53125 0.28125,0 0.515625,-0.21875 0.515625,-0.53125 z m 0,0"
               id="path4043" />
          </symbol>
          <symbol
             style="overflow:visible"
             overflow="visible"
             id="textext-5a50b8bb-7">
            <path
               style="stroke:none"
               d="M 4.6875,-2.140625 C 4.6875,-3.40625 3.703125,-4.46875 2.5,-4.46875 c -1.25,0 -2.21875,1.09375 -2.21875,2.328125 0,1.296875 1.03125,2.25 2.203125,2.25 1.203125,0 2.203125,-0.984375 2.203125,-2.25 z m -2.1875,2 c -0.4375,0 -0.875,-0.203125 -1.140625,-0.671875 -0.25,-0.4375 -0.25,-1.046875 -0.25,-1.40625 0,-0.390625 0,-0.921875 0.234375,-1.359375 C 1.609375,-4.03125 2.078125,-4.25 2.484375,-4.25 c 0.4375,0 0.859375,0.21875 1.125,0.65625 0.265625,0.421875 0.265625,1 0.265625,1.375 0,0.359375 0,0.90625 -0.21875,1.34375 C 3.421875,-0.421875 2.984375,-0.140625 2.5,-0.140625 z m 0,0"
               id="path4046" />
          </symbol>
          <symbol
             style="overflow:visible"
             overflow="visible"
             id="textext-5a50b8bb-8">
            <path
               style="stroke:none"
               d="m 1.09375,-3.421875 0,2.671875 c 0,0.4375 -0.109375,0.4375 -0.78125,0.4375 l 0,0.3125 c 0.359375,-0.015625 0.859375,-0.03125 1.140625,-0.03125 0.25,0 0.765625,0.015625 1.109375,0.03125 l 0,-0.3125 c -0.671875,0 -0.78125,0 -0.78125,-0.4375 l 0,-1.84375 C 1.78125,-3.625 2.5,-4.1875 3.125,-4.1875 c 0.640625,0 0.75,0.53125 0.75,1.109375 l 0,2.328125 c 0,0.4375 -0.109375,0.4375 -0.78125,0.4375 l 0,0.3125 c 0.34375,-0.015625 0.859375,-0.03125 1.125,-0.03125 0.25,0 0.78125,0.015625 1.109375,0.03125 l 0,-0.3125 c -0.515625,0 -0.765625,0 -0.765625,-0.296875 l 0,-1.90625 c 0,-0.859375 0,-1.15625 -0.3125,-1.515625 -0.140625,-0.171875 -0.46875,-0.375 -1.046875,-0.375 C 2.46875,-4.40625 2,-3.984375 1.71875,-3.359375 l 0,-1.046875 -1.40625,0.109375 0,0.3125 c 0.703125,0 0.78125,0.0625 0.78125,0.5625 z m 0,0"
               id="path4049" />
          </symbol>
          <symbol
             style="overflow:visible"
             overflow="visible"
             id="textext-5a50b8bb-9">
            <path
               style="stroke:none"
               d="m 3.78125,-0.546875 0,0.65625 L 5.25,0 l 0,-0.3125 c -0.6875,0 -0.78125,-0.0625 -0.78125,-0.5625 l 0,-6.046875 -1.421875,0.109375 0,0.3125 c 0.6875,0 0.765625,0.0625 0.765625,0.5625 l 0,2.15625 c -0.28125,-0.359375 -0.71875,-0.625 -1.25,-0.625 -1.171875,0 -2.21875,0.984375 -2.21875,2.265625 0,1.265625 0.96875,2.25 2.109375,2.25 0.640625,0 1.078125,-0.34375 1.328125,-0.65625 z m 0,-2.671875 0,2.046875 c 0,0.171875 0,0.1875 -0.109375,0.359375 C 3.375,-0.328125 2.9375,-0.109375 2.5,-0.109375 2.046875,-0.109375 1.6875,-0.375 1.453125,-0.75 1.203125,-1.15625 1.171875,-1.71875 1.171875,-2.140625 1.171875,-2.5 1.1875,-3.09375 1.46875,-3.546875 1.6875,-3.859375 2.0625,-4.1875 2.609375,-4.1875 c 0.34375,0 0.765625,0.15625 1.0625,0.59375 0.109375,0.171875 0.109375,0.1875 0.109375,0.375 z m 0,0"
               id="path4052" />
          </symbol>
          <symbol
             style="overflow:visible"
             overflow="visible"
             id="textext-5a50b8bb-10">
            <path
               style="stroke:none"
               d="m 3.890625,-2.296875 c 0.21875,0 0.25,0 0.25,-0.21875 0,-0.984375 -0.546875,-1.953125 -1.78125,-1.953125 -1.15625,0 -2.078125,1.03125 -2.078125,2.28125 0,1.328125 1.046875,2.296875 2.1875,2.296875 C 3.6875,0.109375 4.140625,-1 4.140625,-1.1875 4.140625,-1.28125 4.0625,-1.3125 4,-1.3125 c -0.078125,0 -0.109375,0.0625 -0.125,0.140625 -0.34375,1.03125 -1.25,1.03125 -1.34375,1.03125 -0.5,0 -0.890625,-0.296875 -1.125,-0.671875 -0.296875,-0.46875 -0.296875,-1.125 -0.296875,-1.484375 l 2.78125,0 z m -2.78125,-0.21875 C 1.171875,-4 2.015625,-4.25 2.359375,-4.25 c 1.015625,0 1.125,1.34375 1.125,1.734375 l -2.375,0 z m 0,0"
               id="path4055" />
          </symbol>
          <symbol
             style="overflow:visible"
             overflow="visible"
             id="textext-5a50b8bb-11">
            <path
               style="stroke:none"
               d="m 2.078125,-1.9375 c 0.21875,0.046875 1.03125,0.203125 1.03125,0.921875 0,0.5 -0.34375,0.90625 -1.125,0.90625 -0.84375,0 -1.203125,-0.5625 -1.390625,-1.421875 C 0.5625,-1.65625 0.5625,-1.6875 0.453125,-1.6875 c -0.125,0 -0.125,0.0625 -0.125,0.234375 l 0,1.328125 c 0,0.171875 0,0.234375 0.109375,0.234375 0.046875,0 0.0625,-0.015625 0.25,-0.203125 0.015625,-0.015625 0.015625,-0.03125 0.203125,-0.21875 0.4375,0.40625 0.890625,0.421875 1.09375,0.421875 1.140625,0 1.609375,-0.671875 1.609375,-1.390625 0,-0.515625 -0.296875,-0.828125 -0.421875,-0.9375 C 2.84375,-2.546875 2.453125,-2.625 2.03125,-2.703125 1.46875,-2.8125 0.8125,-2.9375 0.8125,-3.515625 c 0,-0.359375 0.25,-0.765625 1.109375,-0.765625 1.09375,0 1.15625,0.90625 1.171875,1.203125 0,0.09375 0.09375,0.09375 0.109375,0.09375 0.140625,0 0.140625,-0.046875 0.140625,-0.234375 l 0,-1.015625 c 0,-0.15625 0,-0.234375 -0.109375,-0.234375 -0.046875,0 -0.078125,0 -0.203125,0.125 -0.03125,0.03125 -0.125,0.125 -0.171875,0.15625 -0.375,-0.28125 -0.78125,-0.28125 -0.9375,-0.28125 -1.21875,0 -1.59375,0.671875 -1.59375,1.234375 0,0.34375 0.15625,0.625 0.421875,0.84375 0.328125,0.25 0.609375,0.3125 1.328125,0.453125 z m 0,0"
               id="path4058" />
          </symbol>
          <symbol
             style="overflow:visible"
             overflow="visible"
             id="textext-5a50b8bb-12">
            <path
               style="stroke:none"
               d="m 5.796875,-2.578125 -0.25,0 c -0.109375,1.015625 -0.25,2.265625 -2,2.265625 l -0.8125,0 C 2.265625,-0.3125 2.25,-0.375 2.25,-0.703125 l 0,-5.3125 C 2.25,-6.359375 2.25,-6.5 3.1875,-6.5 l 0.328125,0 0,-0.3125 C 3.15625,-6.78125 2.25,-6.78125 1.84375,-6.78125 c -0.390625,0 -1.171875,0 -1.515625,-0.03125 l 0,0.3125 0.234375,0 c 0.765625,0 0.796875,0.109375 0.796875,0.46875 l 0,5.25 c 0,0.359375 -0.03125,0.46875 -0.796875,0.46875 l -0.234375,0 0,0.3125 5.1875,0 0.28125,-2.578125 z m 0,0"
               id="path4061" />
          </symbol>
          <symbol
             style="overflow:visible"
             overflow="visible"
             id="textext-5a50b8bb-13">
            <path
               style="stroke:none"
               d="M 3.734375,-6.296875 C 3.828125,-6.375 3.90625,-6.484375 3.90625,-6.59375 c 0,-0.1875 -0.171875,-0.359375 -0.359375,-0.359375 -0.140625,0 -0.25,0.109375 -0.296875,0.171875 l -1.203125,1.515625 0.171875,0.1875 1.515625,-1.21875 z m 0,0"
               id="path4064" />
          </symbol>
          <symbol
             style="overflow:visible"
             overflow="visible"
             id="textext-5a50b8bb-14">
            <path
               style="stroke:none"
               d="m 1.765625,-6.921875 -1.4375,0.109375 0,0.3125 c 0.703125,0 0.78125,0.0625 0.78125,0.5625 l 0,5.1875 c 0,0.4375 -0.109375,0.4375 -0.78125,0.4375 l 0,0.3125 C 0.65625,-0.015625 1.1875,-0.03125 1.4375,-0.03125 c 0.25,0 0.734375,0.015625 1.109375,0.03125 l 0,-0.3125 c -0.671875,0 -0.78125,0 -0.78125,-0.4375 l 0,-6.171875 z m 0,0"
               id="path4067" />
          </symbol>
          <symbol
             style="overflow:visible"
             overflow="visible"
             id="textext-5a50b8bb-15">
            <path
               style="stroke:none"
               d="m 3.296875,2.390625 c 0,-0.03125 0,-0.046875 -0.171875,-0.21875 C 1.890625,0.921875 1.5625,-0.96875 1.5625,-2.5 c 0,-1.734375 0.375,-3.46875 1.609375,-4.703125 0.125,-0.125 0.125,-0.140625 0.125,-0.171875 0,-0.078125 -0.03125,-0.109375 -0.09375,-0.109375 -0.109375,0 -1,0.6875 -1.59375,1.953125 -0.5,1.09375 -0.625,2.203125 -0.625,3.03125 0,0.78125 0.109375,1.984375 0.65625,3.125 C 2.25,1.84375 3.09375,2.5 3.203125,2.5 c 0.0625,0 0.09375,-0.03125 0.09375,-0.109375 z m 0,0"
               id="path4070" />
          </symbol>
          <symbol
             style="overflow:visible"
             overflow="visible"
             id="textext-5a50b8bb-16">
            <path
               style="stroke:none"
               d="m 2.875,-2.5 c 0,-0.765625 -0.109375,-1.96875 -0.65625,-3.109375 -0.59375,-1.21875 -1.453125,-1.875 -1.546875,-1.875 -0.0625,0 -0.109375,0.046875 -0.109375,0.109375 0,0.03125 0,0.046875 0.1875,0.234375 0.984375,0.984375 1.546875,2.5625 1.546875,4.640625 0,1.71875 -0.359375,3.46875 -1.59375,4.71875 C 0.5625,2.34375 0.5625,2.359375 0.5625,2.390625 0.5625,2.453125 0.609375,2.5 0.671875,2.5 0.765625,2.5 1.671875,1.8125 2.25,0.546875 2.765625,-0.546875 2.875,-1.65625 2.875,-2.5 z m 0,0"
               id="path4073" />
          </symbol>
        </g>
      </defs>
      <g
         id="textext-5a50b8bb-17">
        <g
           style="fill:#000000;fill-opacity:1"
           id="g4076">
          <use
             height="285.93332"
             width="564.56635"
             xlink:href="#textext-5a50b8bb-1"
             x="223.43201"
             y="134.765"
             id="use4078" />
        </g>
        <g
           style="fill:#000000;fill-opacity:1"
           id="g4080">
          <use
             height="285.93332"
             width="564.56635"
             xlink:href="#textext-5a50b8bb-2"
             x="229.10869"
             y="134.765"
             id="use4082" />
          <use
             height="285.93332"
             width="564.56635"
             xlink:href="#textext-5a50b8bb-3"
             x="233.01105"
             y="134.765"
             id="use4084" />
          <use
             height="285.93332"
             width="564.56635"
             xlink:href="#textext-5a50b8bb-4"
             x="237.99234"
             y="134.765"
             id="use4086" />
          <use
             height="285.93332"
             width="564.56635"
             xlink:href="#textext-5a50b8bb-5"
             x="242.41972"
             y="134.765"
             id="use4088" />
          <use
             height="285.93332"
             width="564.56635"
             xlink:href="#textext-5a50b8bb-6"
             x="246.29417"
             y="134.765"
             id="use4090" />
          <use
             height="285.93332"
             width="564.56635"
             xlink:href="#textext-5a50b8bb-7"
             x="249.06178"
             y="134.765"
             id="use4092" />
          <use
             height="285.93332"
             width="564.56635"
             xlink:href="#textext-5a50b8bb-8"
             x="254.04309"
             y="134.765"
             id="use4094" />
        </g>
        <g
           style="fill:#000000;fill-opacity:1"
           id="g4096">
          <use
             height="285.93332"
             width="564.56635"
             xlink:href="#textext-5a50b8bb-9"
             x="262.89584"
             y="134.765"
             id="use4098" />
          <use
             height="285.93332"
             width="564.56635"
             xlink:href="#textext-5a50b8bb-10"
             x="268.43106"
             y="134.765"
             id="use4100" />
          <use
             height="285.93332"
             width="564.56635"
             xlink:href="#textext-5a50b8bb-11"
             x="272.85846"
             y="134.765"
             id="use4102" />
        </g>
        <g
           style="fill:#000000;fill-opacity:1"
           id="g4104">
          <use
             height="285.93332"
             width="564.56635"
             xlink:href="#textext-5a50b8bb-12"
             x="280.10526"
             y="134.765"
             id="use4106" />
        </g>
        <g
           style="fill:#000000;fill-opacity:1"
           id="g4108">
          <use
             height="285.93332"
             width="564.56635"
             xlink:href="#textext-5a50b8bb-13"
             x="286.06287"
             y="134.765"
             id="use4110" />
        </g>
        <g
           style="fill:#000000;fill-opacity:1"
           id="g4112">
          <use
             height="285.93332"
             width="564.56635"
             xlink:href="#textext-5a50b8bb-10"
             x="286.33188"
             y="134.765"
             id="use4114" />
          <use
             height="285.93332"
             width="564.56635"
             xlink:href="#textext-5a50b8bb-11"
             x="290.75925"
             y="134.765"
             id="use4116" />
          <use
             height="285.93332"
             width="564.56635"
             xlink:href="#textext-5a50b8bb-6"
             x="294.68851"
             y="134.765"
             id="use4118" />
          <use
             height="285.93332"
             width="564.56635"
             xlink:href="#textext-5a50b8bb-7"
             x="297.45612"
             y="134.765"
             id="use4120" />
          <use
             height="285.93332"
             width="564.56635"
             xlink:href="#textext-5a50b8bb-8"
             x="302.43741"
             y="134.765"
             id="use4122" />
          <use
             height="285.93332"
             width="564.56635"
             xlink:href="#textext-5a50b8bb-11"
             x="307.97263"
             y="134.765"
             id="use4124" />
        </g>
        <g
           style="fill:#000000;fill-opacity:1"
           id="g4126">
          <use
             height="285.93332"
             width="564.56635"
             xlink:href="#textext-5a50b8bb-14"
             x="315.2294"
             y="134.765"
             id="use4128" />
          <use
             height="285.93332"
             width="564.56635"
             xlink:href="#textext-5a50b8bb-7"
             x="317.99701"
             y="134.765"
             id="use4130" />
        </g>
        <g
           style="fill:#000000;fill-opacity:1"
           id="g4132">
          <use
             height="285.93332"
             width="564.56635"
             xlink:href="#textext-5a50b8bb-4"
             x="323.25726"
             y="134.765"
             id="use4134" />
          <use
             height="285.93332"
             width="564.56635"
             xlink:href="#textext-5a50b8bb-3"
             x="327.68463"
             y="134.765"
             id="use4136" />
          <use
             height="285.93332"
             width="564.56635"
             xlink:href="#textext-5a50b8bb-14"
             x="332.66592"
             y="134.765"
             id="use4138" />
          <use
             height="285.93332"
             width="564.56635"
             xlink:href="#textext-5a50b8bb-6"
             x="335.43353"
             y="134.765"
             id="use4140" />
          <use
             height="285.93332"
             width="564.56635"
             xlink:href="#textext-5a50b8bb-11"
             x="338.20114"
             y="134.765"
             id="use4142" />
        </g>
        <g
           style="fill:#000000;fill-opacity:1"
           id="g4144">
          <use
             height="285.93332"
             width="564.56635"
             xlink:href="#textext-5a50b8bb-13"
             x="341.85144"
             y="134.765"
             id="use4146" />
        </g>
        <g
           style="fill:#000000;fill-opacity:1"
           id="g4148">
          <use
             height="285.93332"
             width="564.56635"
             xlink:href="#textext-5a50b8bb-10"
             x="342.1304"
             y="134.765"
             id="use4150" />
          <use
             height="285.93332"
             width="564.56635"
             xlink:href="#textext-5a50b8bb-10"
             x="346.55777"
             y="134.765"
             id="use4152" />
          <use
             height="285.93332"
             width="564.56635"
             xlink:href="#textext-5a50b8bb-11"
             x="350.98517"
             y="134.765"
             id="use4154" />
        </g>
        <g
           style="fill:#000000;fill-opacity:1"
           id="g4156">
          <use
             height="285.93332"
             width="564.56635"
             xlink:href="#textext-5a50b8bb-15"
             x="358.23196"
             y="134.765"
             id="use4158" />
          <use
             height="285.93332"
             width="564.56635"
             xlink:href="#textext-5a50b8bb-1"
             x="362.10641"
             y="134.765"
             id="use4160" />
          <use
             height="285.93332"
             width="564.56635"
             xlink:href="#textext-5a50b8bb-12"
             x="368.60999"
             y="134.765"
             id="use4162" />
          <use
             height="285.93332"
             width="564.56635"
             xlink:href="#textext-5a50b8bb-12"
             x="374.83661"
             y="134.765"
             id="use4164" />
          <use
             height="285.93332"
             width="564.56635"
             xlink:href="#textext-5a50b8bb-16"
             x="381.06323"
             y="134.765"
             id="use4166" />
        </g>
      </g>
    </g>
    <g
       id="g4808"
       transform="matrix(1.9128469,0,0,1.9128469,193.24096,279.44719)"
       ns0:preamble=""
       ns0:text="\\textbf{N}">
      <defs
         id="defs4810">
        <g
           id="g4812">
          <symbol
             id="textext-28f6a1d7-0"
             overflow="visible"
             style="overflow:visible">
            <path
               id="path4815"
               d=""
               style="stroke:none" />
          </symbol>
          <symbol
             id="textext-28f6a1d7-1"
             overflow="visible"
             style="overflow:visible">
            <path
               id="path4818"
               d="M 3,-6.703125 C 2.890625,-6.828125 2.875,-6.84375 2.671875,-6.84375 l -2.28125,0 0,0.46875 1.078125,0 0,5.625 c 0,0.21875 -0.015625,0.21875 -0.296875,0.25 -0.234375,0.03125 -0.25,0.03125 -0.53125,0.03125 l -0.25,0 0,0.46875 c 0.375,-0.03125 0.9375,-0.03125 1.328125,-0.03125 0.421875,0 0.9375,0 1.359375,0.03125 l 0,-0.46875 -0.25,0 C 2.640625,-0.46875 2.46875,-0.484375 2.296875,-0.5 2,-0.53125 2,-0.53125 2,-0.75 L 2,-5.96875 6.953125,-0.125 C 7.0625,-0.015625 7.0625,0 7.234375,0 7.5,0 7.5,-0.09375 7.5,-0.3125 l 0,-5.765625 C 7.5,-6.296875 7.5,-6.3125 7.78125,-6.34375 8.03125,-6.375 8.046875,-6.375 8.328125,-6.375 l 0.25,0 0,-0.46875 C 8.1875,-6.8125 7.625,-6.8125 7.234375,-6.8125 c -0.421875,0 -0.9375,0 -1.34375,-0.03125 l 0,0.46875 0.25,0 c 0.171875,0 0.34375,0.015625 0.53125,0.03125 0.28125,0.03125 0.296875,0.046875 0.296875,0.265625 l 0,4.03125 L 3,-6.703125 z m 0,0"
               style="stroke:none" />
          </symbol>
        </g>
      </defs>
      <g
         id="textext-28f6a1d7-2">
        <g
           id="g4821"
           style="fill:#000000;fill-opacity:1">
          <use
             id="use4823"
             y="134.765"
             x="223.43201"
             xlink:href="#textext-28f6a1d7-1"
             width="564.56635"
             height="309.71143" />
        </g>
      </g>
    </g>
  </g>
</svg>
