<?xml version="1.0" encoding="UTF-8" standalone="no"?>
<!-- Created with Inkscape (http://www.inkscape.org/) -->

<svg
   xmlns:ns0="http://www.iki.fi/pav/software/textext/"
   xmlns:dc="http://purl.org/dc/elements/1.1/"
   xmlns:cc="http://creativecommons.org/ns#"
   xmlns:rdf="http://www.w3.org/1999/02/22-rdf-syntax-ns#"
   xmlns:svg="http://www.w3.org/2000/svg"
   xmlns="http://www.w3.org/2000/svg"
   xmlns:xlink="http://www.w3.org/1999/xlink"
   xmlns:sodipodi="http://sodipodi.sourceforge.net/DTD/sodipodi-0.dtd"
   xmlns:inkscape="http://www.inkscape.org/namespaces/inkscape"
   id="svg2"
   version="1.1"
   inkscape:version="0.47 r22583"
   width="676"
   height="235"
   sodipodi:docname="lesionEnFctPhaseTDM.svg">
  <sodipodi:namedview
     pagecolor="#ffffff"
     bordercolor="#666666"
     borderopacity="1"
     objecttolerance="10"
     gridtolerance="10"
     guidetolerance="10"
     inkscape:pageopacity="0"
     inkscape:pageshadow="2"
     inkscape:window-width="1920"
     inkscape:window-height="1009"
     id="namedview4"
     showgrid="false"
     inkscape:zoom="1.6242604"
     inkscape:cx="133.46992"
     inkscape:cy="137.36425"
     inkscape:window-x="0"
     inkscape:window-y="25"
     inkscape:window-maximized="1"
     inkscape:current-layer="svg2" />
  <metadata
     id="metadata8">
    <rdf:RDF>
      <cc:Work
         rdf:about="">
        <dc:format>image/svg+xml</dc:format>
        <dc:type
           rdf:resource="http://purl.org/dc/dcmitype/StillImage" />
        <dc:title />
      </cc:Work>
    </rdf:RDF>
  </metadata>
  <defs
     id="defs6">
    <marker
       style="overflow:visible;"
       id="Arrow1Mend"
       refX="0.0"
       refY="0.0"
       orient="auto"
       inkscape:stockid="Arrow1Mend">
      <path
         transform="scale(0.4) rotate(180) translate(10,0)"
         style="fill-rule:evenodd;stroke:#000000;stroke-width:1.0pt;marker-start:none;"
         d="M 0.0,0.0 L 5.0,-5.0 L -12.5,0.0 L 5.0,5.0 L 0.0,0.0 z "
         id="path5357" />
    </marker>
    <inkscape:perspective
       sodipodi:type="inkscape:persp3d"
       inkscape:vp_x="0 : 0.5 : 1"
       inkscape:vp_y="0 : 1000 : 0"
       inkscape:vp_z="1 : 0.5 : 1"
       inkscape:persp3d-origin="0.5 : 0.33333333 : 1"
       id="perspective10" />
  </defs>
  <image
     xlink:href="file:///home/marache/documentation/Th%C3%A8se/rapportBiblio/images/lesionEnFctPhaseTDM_data.png"
     width="676"
     height="235"
     id="image12"
     x="0"
     y="0" />
  <rect
     style="fill:#ffffff;fill-opacity:1;stroke:none"
     id="rect2839"
     width="346.00363"
     height="27.704918"
     x="277.04919"
     y="196.82878" />
  <rect
     style="fill:#ffffff;fill-opacity:1;stroke:none"
     id="rect2841"
     width="32.014572"
     height="96.043716"
     x="199.4754"
     y="39.834244" />
  <g
     transform="matrix(0,-1.9412536,1.9412536,0,-39.585652,565.95726)"
     ns0:text="$SUV_{max}$"
     ns0:preamble=""
     id="g2851">
    <defs
       id="defs2853">
      <g
         id="g2855">
        <symbol
           style="overflow:visible"
           overflow="visible"
           id="textext-e85dad15-0">
          <path
             style="stroke:none"
             d=""
             id="path2858" />
        </symbol>
        <symbol
           style="overflow:visible"
           overflow="visible"
           id="textext-e85dad15-1">
          <path
             style="stroke:none"
             d="m 6.4375,-6.921875 c 0,-0.03125 -0.03125,-0.109375 -0.125,-0.109375 -0.046875,0 -0.046875,0.015625 -0.171875,0.15625 L 5.65625,-6.3125 c -0.25,-0.46875 -0.765625,-0.71875 -1.421875,-0.71875 -1.265625,0 -2.453125,1.15625 -2.453125,2.359375 0,0.796875 0.515625,1.265625 1.03125,1.40625 l 1.0625,0.28125 c 0.375,0.09375 0.921875,0.25 0.921875,1.0625 0,0.890625 -0.8125,1.828125 -1.796875,1.828125 -0.640625,0 -1.75,-0.21875 -1.75,-1.453125 0,-0.234375 0.0625,-0.484375 0.0625,-0.53125 0.015625,-0.046875 0.015625,-0.0625 0.015625,-0.078125 0,-0.09375 -0.0625,-0.109375 -0.109375,-0.109375 -0.046875,0 -0.078125,0.015625 -0.109375,0.046875 -0.03125,0.03125 -0.59375,2.3125 -0.59375,2.34375 0,0.046875 0.046875,0.09375 0.109375,0.09375 0.046875,0 0.0625,-0.015625 0.1875,-0.15625 L 1.296875,-0.5 c 0.421875,0.578125 1.109375,0.71875 1.6875,0.71875 1.359375,0 2.53125,-1.328125 2.53125,-2.5625 0,-0.6875 -0.34375,-1.03125 -0.484375,-1.171875 C 4.796875,-3.734375 4.640625,-3.78125 3.765625,-4 3.53125,-4.0625 3.1875,-4.171875 3.09375,-4.1875 2.828125,-4.28125 2.484375,-4.5625 2.484375,-5.09375 c 0,-0.8125 0.796875,-1.65625 1.75,-1.65625 0.8125,0 1.421875,0.4375 1.421875,1.546875 0,0.3125 -0.03125,0.5 -0.03125,0.5625 0,0 0,0.09375 0.109375,0.09375 0.109375,0 0.125,-0.03125 0.15625,-0.203125 L 6.4375,-6.921875 z m 0,0"
             id="path2861" />
        </symbol>
        <symbol
           style="overflow:visible"
           overflow="visible"
           id="textext-e85dad15-2">
          <path
             style="stroke:none"
             d="M 6.328125,-5.765625 C 6.4375,-6.171875 6.609375,-6.46875 7.40625,-6.5 c 0.046875,0 0.171875,-0.015625 0.171875,-0.203125 0,0 0,-0.109375 -0.125,-0.109375 -0.328125,0 -0.6875,0.03125 -1.015625,0.03125 -0.34375,0 -0.71875,-0.03125 -1.046875,-0.03125 -0.0625,0 -0.171875,0 -0.171875,0.203125 C 5.21875,-6.5 5.3125,-6.5 5.390625,-6.5 c 0.578125,0.015625 0.6875,0.21875 0.6875,0.4375 0,0.03125 -0.03125,0.1875 -0.03125,0.203125 l -0.90625,3.5625 C 4.8125,-0.953125 3.65625,-0.09375 2.65625,-0.09375 c -0.671875,0 -1.203125,-0.4375 -1.203125,-1.296875 0,-0.015625 0,-0.328125 0.109375,-0.765625 L 2.515625,-6.046875 C 2.609375,-6.40625 2.625,-6.5 3.359375,-6.5 c 0.265625,0 0.34375,0 0.34375,-0.203125 0,-0.109375 -0.109375,-0.109375 -0.140625,-0.109375 -0.28125,0 -1,0.03125 -1.28125,0.03125 -0.28125,0 -1,-0.03125 -1.28125,-0.03125 -0.078125,0 -0.1875,0 -0.1875,0.203125 C 0.8125,-6.5 0.890625,-6.5 1.09375,-6.5 c 0.015625,0 0.203125,0 0.375,0.015625 0.171875,0.03125 0.265625,0.03125 0.265625,0.171875 0,0.046875 -0.109375,0.46875 -0.171875,0.703125 l -0.21875,0.875 C 1.25,-4.34375 0.78125,-2.46875 0.734375,-2.265625 0.671875,-2 0.671875,-1.84375 0.671875,-1.6875 c 0,1.203125 0.90625,1.90625 1.953125,1.90625 1.25,0 2.484375,-1.125 2.8125,-2.4375 l 0.890625,-3.546875 z m 0,0"
             id="path2864" />
        </symbol>
        <symbol
           style="overflow:visible"
           overflow="visible"
           id="textext-e85dad15-3">
          <path
             style="stroke:none"
             d="M 6.265625,-5.671875 C 6.75,-6.453125 7.171875,-6.484375 7.53125,-6.5 c 0.125,-0.015625 0.140625,-0.171875 0.140625,-0.1875 0,-0.078125 -0.0625,-0.125 -0.140625,-0.125 -0.25,0 -0.546875,0.03125 -0.8125,0.03125 -0.328125,0 -0.671875,-0.03125 -0.984375,-0.03125 -0.0625,0 -0.1875,0 -0.1875,0.1875 0,0.109375 0.078125,0.125 0.15625,0.125 0.265625,0.015625 0.453125,0.125 0.453125,0.328125 0,0.15625 -0.140625,0.375 -0.140625,0.375 l -3.0625,4.875 -0.6875,-5.28125 C 2.265625,-6.375 2.5,-6.5 2.953125,-6.5 c 0.140625,0 0.25,0 0.25,-0.203125 0,-0.078125 -0.078125,-0.109375 -0.125,-0.109375 -0.40625,0 -0.828125,0.03125 -1.25,0.03125 -0.171875,0 -0.359375,0 -0.546875,0 -0.171875,0 -0.359375,-0.03125 -0.53125,-0.03125 -0.078125,0 -0.1875,0 -0.1875,0.1875 0,0.125 0.078125,0.125 0.25,0.125 0.546875,0 0.5625,0.09375 0.59375,0.34375 L 2.1875,-0.015625 C 2.21875,0.1875 2.265625,0.21875 2.390625,0.21875 c 0.15625,0 0.203125,-0.046875 0.28125,-0.171875 l 3.59375,-5.71875 z m 0,0"
             id="path2867" />
        </symbol>
        <symbol
           style="overflow:visible"
           overflow="visible"
           id="textext-e85dad15-4">
          <path
             style="stroke:none"
             d=""
             id="path2870" />
        </symbol>
        <symbol
           style="overflow:visible"
           overflow="visible"
           id="textext-e85dad15-5">
          <path
             style="stroke:none"
             d="m 3.03125,-0.5625 c -0.046875,0.140625 -0.109375,0.375 -0.109375,0.40625 0,0.15625 0.125,0.21875 0.234375,0.21875 0.140625,0 0.25,-0.078125 0.28125,-0.140625 0.03125,-0.0625 0.09375,-0.296875 0.125,-0.4375 0.03125,-0.125 0.109375,-0.453125 0.15625,-0.625 0.03125,-0.15625 0.078125,-0.3125 0.109375,-0.46875 0.078125,-0.296875 0.078125,-0.3125 0.21875,-0.53125 C 4.265625,-2.484375 4.625,-2.875 5.15625,-2.875 c 0.390625,0 0.421875,0.3125 0.421875,0.484375 0,0.421875 -0.296875,1.1875 -0.421875,1.484375 -0.0625,0.203125 -0.09375,0.265625 -0.09375,0.375 0,0.375 0.296875,0.59375 0.65625,0.59375 0.703125,0 1,-0.953125 1,-1.0625 0,-0.09375 -0.078125,-0.09375 -0.109375,-0.09375 -0.09375,0 -0.09375,0.046875 -0.125,0.125 C 6.328125,-0.40625 6.015625,-0.125 5.75,-0.125 c -0.15625,0 -0.1875,-0.09375 -0.1875,-0.25 0,-0.15625 0.046875,-0.25 0.171875,-0.5625 0.078125,-0.21875 0.359375,-0.953125 0.359375,-1.34375 0,-0.109375 0,-0.40625 -0.25,-0.609375 -0.125,-0.078125 -0.328125,-0.1875 -0.65625,-0.1875 -0.625,0 -1,0.421875 -1.234375,0.703125 C 3.90625,-2.96875 3.40625,-3.078125 3.046875,-3.078125 2.46875,-3.078125 2.078125,-2.71875 1.875,-2.4375 1.828125,-2.921875 1.421875,-3.078125 1.125,-3.078125 c -0.296875,0 -0.453125,0.21875 -0.546875,0.375 -0.15625,0.265625 -0.25,0.65625 -0.25,0.703125 0,0.078125 0.09375,0.078125 0.125,0.078125 0.09375,0 0.09375,-0.015625 0.140625,-0.203125 0.109375,-0.40625 0.25,-0.75 0.515625,-0.75 0.1875,0 0.234375,0.15625 0.234375,0.34375 0,0.125 -0.0625,0.390625 -0.125,0.578125 -0.046875,0.1875 -0.109375,0.46875 -0.140625,0.625 L 0.84375,-0.4375 c -0.015625,0.09375 -0.0625,0.265625 -0.0625,0.28125 0,0.15625 0.125,0.21875 0.234375,0.21875 0.125,0 0.234375,-0.078125 0.28125,-0.140625 0.03125,-0.0625 0.078125,-0.296875 0.125,-0.4375 0.03125,-0.125 0.109375,-0.453125 0.140625,-0.625 0.046875,-0.15625 0.09375,-0.3125 0.125,-0.46875 0.078125,-0.28125 0.09375,-0.34375 0.296875,-0.625 C 2.171875,-2.515625 2.5,-2.875 3.03125,-2.875 c 0.390625,0 0.40625,0.359375 0.40625,0.484375 0,0.171875 -0.015625,0.265625 -0.125,0.65625 L 3.03125,-0.5625 z m 0,0"
             id="path2873" />
        </symbol>
        <symbol
           style="overflow:visible"
           overflow="visible"
           id="textext-e85dad15-6">
          <path
             style="stroke:none"
             d="m 2.9375,-2.65625 c -0.140625,-0.234375 -0.375,-0.421875 -0.71875,-0.421875 -0.890625,0 -1.796875,0.984375 -1.796875,1.984375 0,0.6875 0.453125,1.15625 1.0625,1.15625 0.375,0 0.703125,-0.203125 0.984375,-0.484375 C 2.59375,0 3,0.0625 3.1875,0.0625 c 0.25,0 0.421875,-0.140625 0.546875,-0.359375 0.15625,-0.28125 0.25,-0.671875 0.25,-0.703125 0,-0.09375 -0.09375,-0.09375 -0.109375,-0.09375 -0.109375,0 -0.109375,0.03125 -0.15625,0.21875 C 3.625,-0.53125 3.5,-0.125 3.203125,-0.125 3.03125,-0.125 2.96875,-0.28125 2.96875,-0.46875 c 0,-0.109375 0.0625,-0.375 0.109375,-0.546875 0.046875,-0.1875 0.125,-0.46875 0.15625,-0.625 C 3.296875,-1.90625 3.3125,-1.9375 3.375,-2.171875 3.421875,-2.359375 3.5,-2.6875 3.5,-2.71875 3.5,-2.875 3.375,-2.9375 3.265625,-2.9375 c -0.125,0 -0.28125,0.078125 -0.328125,0.28125 z M 2.5,-0.875 C 2.453125,-0.671875 2.296875,-0.53125 2.140625,-0.40625 2.078125,-0.34375 1.796875,-0.125 1.5,-0.125 c -0.265625,0 -0.515625,-0.1875 -0.515625,-0.671875 0,-0.375 0.203125,-1.140625 0.375,-1.421875 0.3125,-0.5625 0.671875,-0.65625 0.859375,-0.65625 0.484375,0 0.625,0.53125 0.625,0.609375 0,0.015625 -0.015625,0.078125 -0.015625,0.09375 L 2.5,-0.875 z m 0,0"
             id="path2876" />
        </symbol>
        <symbol
           style="overflow:visible"
           overflow="visible"
           id="textext-e85dad15-7">
          <path
             style="stroke:none"
             d="M 1.734375,-0.734375 C 1.671875,-0.5 1.4375,-0.125 1.078125,-0.125 c -0.015625,0 -0.234375,0 -0.375,-0.09375 0.28125,-0.09375 0.3125,-0.34375 0.3125,-0.390625 0,-0.15625 -0.125,-0.25 -0.28125,-0.25 -0.203125,0 -0.40625,0.15625 -0.40625,0.421875 0,0.34375 0.390625,0.5 0.734375,0.5 0.328125,0 0.609375,-0.1875 0.78125,-0.484375 C 2.015625,-0.0625 2.390625,0.0625 2.671875,0.0625 c 0.8125,0 1.234375,-0.859375 1.234375,-1.0625 0,-0.09375 -0.09375,-0.09375 -0.109375,-0.09375 -0.109375,0 -0.109375,0.046875 -0.140625,0.125 -0.140625,0.484375 -0.5625,0.84375 -0.953125,0.84375 -0.28125,0 -0.421875,-0.1875 -0.421875,-0.453125 0,-0.1875 0.171875,-0.8125 0.359375,-1.59375 C 2.78125,-2.703125 3.09375,-2.875 3.328125,-2.875 c 0.015625,0 0.21875,0 0.375,0.09375 -0.21875,0.0625 -0.3125,0.265625 -0.3125,0.390625 0,0.140625 0.125,0.25 0.28125,0.25 0.15625,0 0.390625,-0.125 0.390625,-0.421875 0,-0.390625 -0.453125,-0.515625 -0.71875,-0.515625 -0.359375,0 -0.640625,0.234375 -0.78125,0.5 -0.125,-0.28125 -0.453125,-0.5 -0.84375,-0.5 C 0.9375,-3.078125 0.5,-2.21875 0.5,-2 c 0,0.078125 0.09375,0.078125 0.109375,0.078125 0.09375,0 0.09375,-0.015625 0.140625,-0.109375 C 0.921875,-2.578125 1.359375,-2.875 1.703125,-2.875 1.9375,-2.875 2.125,-2.75 2.125,-2.421875 2.125,-2.28125 2.03125,-1.9375 1.96875,-1.6875 l -0.234375,0.953125 z m 0,0"
             id="path2879" />
        </symbol>
      </g>
    </defs>
    <g
       id="textext-e85dad15-8">
      <g
         style="fill:#000000;fill-opacity:1"
         id="g2882">
        <use
           height="235"
           width="676"
           xlink:href="#textext-e85dad15-1"
           x="223.43201"
           y="134.765"
           id="use2884" />
      </g>
      <g
         style="fill:#000000;fill-opacity:1"
         id="g2886">
        <use
           height="235"
           width="676"
           xlink:href="#textext-e85dad15-2"
           x="230.1189"
           y="134.765"
           id="use2888" />
      </g>
      <g
         style="fill:#000000;fill-opacity:1"
         id="g2890">
        <use
           height="235"
           width="676"
           xlink:href="#textext-e85dad15-3"
           x="238.00728"
           y="134.765"
           id="use2892" />
      </g>
      <g
         style="fill:#000000;fill-opacity:1"
         id="g2894">
        <use
           height="235"
           width="676"
           xlink:href="#textext-e85dad15-5"
           x="243.815"
           y="136.259"
           id="use2896" />
        <use
           height="235"
           width="676"
           xlink:href="#textext-e85dad15-6"
           x="250.88434"
           y="136.259"
           id="use2898" />
        <use
           height="235"
           width="676"
           xlink:href="#textext-e85dad15-7"
           x="255.20601"
           y="136.259"
           id="use2900" />
      </g>
    </g>
  </g>
  <g
     id="g4000"
     transform="matrix(1.9412536,0,0,1.9412536,-341.5585,-90.724208)"
     ns0:preamble=""
     ns0:text="$(A)$">
    <defs
       id="defs4002">
      <g
         id="g4004">
        <symbol
           id="textext-c79c1a9e-0"
           overflow="visible"
           style="overflow:visible">
          <path
             id="path4007"
             d=""
             style="stroke:none" />
        </symbol>
        <symbol
           id="textext-c79c1a9e-1"
           overflow="visible"
           style="overflow:visible">
          <path
             id="path4010"
             d="m 3.296875,2.390625 c 0,-0.03125 0,-0.046875 -0.171875,-0.21875 C 1.890625,0.921875 1.5625,-0.96875 1.5625,-2.5 c 0,-1.734375 0.375,-3.46875 1.609375,-4.703125 0.125,-0.125 0.125,-0.140625 0.125,-0.171875 0,-0.078125 -0.03125,-0.109375 -0.09375,-0.109375 -0.109375,0 -1,0.6875 -1.59375,1.953125 -0.5,1.09375 -0.625,2.203125 -0.625,3.03125 0,0.78125 0.109375,1.984375 0.65625,3.125 C 2.25,1.84375 3.09375,2.5 3.203125,2.5 c 0.0625,0 0.09375,-0.03125 0.09375,-0.109375 z m 0,0"
             style="stroke:none" />
        </symbol>
        <symbol
           id="textext-c79c1a9e-2"
           overflow="visible"
           style="overflow:visible">
          <path
             id="path4013"
             d="m 2.875,-2.5 c 0,-0.765625 -0.109375,-1.96875 -0.65625,-3.109375 -0.59375,-1.21875 -1.453125,-1.875 -1.546875,-1.875 -0.0625,0 -0.109375,0.046875 -0.109375,0.109375 0,0.03125 0,0.046875 0.1875,0.234375 0.984375,0.984375 1.546875,2.5625 1.546875,4.640625 0,1.71875 -0.359375,3.46875 -1.59375,4.71875 C 0.5625,2.34375 0.5625,2.359375 0.5625,2.390625 0.5625,2.453125 0.609375,2.5 0.671875,2.5 0.765625,2.5 1.671875,1.8125 2.25,0.546875 2.765625,-0.546875 2.875,-1.65625 2.875,-2.5 z m 0,0"
             style="stroke:none" />
        </symbol>
        <symbol
           id="textext-c79c1a9e-3"
           overflow="visible"
           style="overflow:visible">
          <path
             id="path4016"
             d=""
             style="stroke:none" />
        </symbol>
        <symbol
           id="textext-c79c1a9e-4"
           overflow="visible"
           style="overflow:visible">
          <path
             id="path4019"
             d="M 1.78125,-1.140625 C 1.390625,-0.484375 1,-0.34375 0.5625,-0.3125 0.4375,-0.296875 0.34375,-0.296875 0.34375,-0.109375 0.34375,-0.046875 0.40625,0 0.484375,0 0.75,0 1.0625,-0.03125 1.328125,-0.03125 c 0.34375,0 0.6875,0.03125 1,0.03125 0.0625,0 0.1875,0 0.1875,-0.1875 0,-0.109375 -0.078125,-0.125 -0.15625,-0.125 -0.21875,-0.015625 -0.46875,-0.09375 -0.46875,-0.34375 0,-0.125 0.0625,-0.234375 0.140625,-0.375 0.078125,-0.109375 0.078125,-0.109375 0.765625,-1.265625 l 2.5,0 c 0.015625,0.203125 0.15625,1.5625 0.15625,1.65625 0,0.296875 -0.515625,0.328125 -0.71875,0.328125 C 4.59375,-0.3125 4.5,-0.3125 4.5,-0.109375 4.5,0 4.609375,0 4.640625,0 5.046875,0 5.46875,-0.03125 5.875,-0.03125 6.125,-0.03125 6.765625,0 7.015625,0 7.0625,0 7.1875,0 7.1875,-0.203125 7.1875,-0.3125 7.09375,-0.3125 6.953125,-0.3125 6.34375,-0.3125 6.34375,-0.375 6.3125,-0.671875 l -0.609375,-6.21875 c -0.015625,-0.203125 -0.015625,-0.25 -0.1875,-0.25 -0.15625,0 -0.203125,0.078125 -0.265625,0.171875 l -3.46875,5.828125 z m 1.203125,-1.46875 1.953125,-3.296875 0.328125,3.296875 -2.28125,0 z m 0,0"
             style="stroke:none" />
        </symbol>
      </g>
    </defs>
    <g
       id="textext-c79c1a9e-5">
      <g
         id="g4022"
         style="fill:#000000;fill-opacity:1">
        <use
           id="use4024"
           y="134.765"
           x="223.43201"
           xlink:href="#textext-c79c1a9e-1"
           width="676"
           height="235" />
      </g>
      <g
         id="g4026"
         style="fill:#000000;fill-opacity:1">
        <use
           id="use4028"
           y="134.765"
           x="227.306"
           xlink:href="#textext-c79c1a9e-4"
           width="676"
           height="235" />
      </g>
      <g
         id="g4030"
         style="fill:#000000;fill-opacity:1">
        <use
           id="use4032"
           y="134.765"
           x="234.778"
           xlink:href="#textext-c79c1a9e-2"
           width="676"
           height="235" />
      </g>
    </g>
  </g>
  <g
     ns0:text="$(B)$"
     ns0:preamble=""
     transform="matrix(1.9412536,0,0,1.9412536,-206.7279,-46.396339)"
     id="g4356">
    <defs
       id="defs4358">
      <g
         id="g4360">
        <symbol
           overflow="visible"
           id="textext-9684afec-0">
          <path
             style="stroke:none;"
             d=""
             id="path4363" />
        </symbol>
        <symbol
           overflow="visible"
           id="textext-9684afec-1">
          <path
             style="stroke:none;"
             d="M 3.296875 2.390625 C 3.296875 2.359375 3.296875 2.34375 3.125 2.171875 C 1.890625 0.921875 1.5625 -0.96875 1.5625 -2.5 C 1.5625 -4.234375 1.9375 -5.96875 3.171875 -7.203125 C 3.296875 -7.328125 3.296875 -7.34375 3.296875 -7.375 C 3.296875 -7.453125 3.265625 -7.484375 3.203125 -7.484375 C 3.09375 -7.484375 2.203125 -6.796875 1.609375 -5.53125 C 1.109375 -4.4375 0.984375 -3.328125 0.984375 -2.5 C 0.984375 -1.71875 1.09375 -0.515625 1.640625 0.625 C 2.25 1.84375 3.09375 2.5 3.203125 2.5 C 3.265625 2.5 3.296875 2.46875 3.296875 2.390625 Z M 3.296875 2.390625 "
             id="path4366" />
        </symbol>
        <symbol
           overflow="visible"
           id="textext-9684afec-2">
          <path
             style="stroke:none;"
             d="M 2.875 -2.5 C 2.875 -3.265625 2.765625 -4.46875 2.21875 -5.609375 C 1.625 -6.828125 0.765625 -7.484375 0.671875 -7.484375 C 0.609375 -7.484375 0.5625 -7.4375 0.5625 -7.375 C 0.5625 -7.34375 0.5625 -7.328125 0.75 -7.140625 C 1.734375 -6.15625 2.296875 -4.578125 2.296875 -2.5 C 2.296875 -0.78125 1.9375 0.96875 0.703125 2.21875 C 0.5625 2.34375 0.5625 2.359375 0.5625 2.390625 C 0.5625 2.453125 0.609375 2.5 0.671875 2.5 C 0.765625 2.5 1.671875 1.8125 2.25 0.546875 C 2.765625 -0.546875 2.875 -1.65625 2.875 -2.5 Z M 2.875 -2.5 "
             id="path4369" />
        </symbol>
        <symbol
           overflow="visible"
           id="textext-9684afec-3">
          <path
             style="stroke:none;"
             d=""
             id="path4372" />
        </symbol>
        <symbol
           overflow="visible"
           id="textext-9684afec-4">
          <path
             style="stroke:none;"
             d="M 1.59375 -0.78125 C 1.5 -0.390625 1.46875 -0.3125 0.6875 -0.3125 C 0.515625 -0.3125 0.421875 -0.3125 0.421875 -0.109375 C 0.421875 0 0.515625 0 0.6875 0 L 4.25 0 C 5.828125 0 7 -1.171875 7 -2.15625 C 7 -2.875 6.421875 -3.453125 5.453125 -3.5625 C 6.484375 -3.75 7.53125 -4.484375 7.53125 -5.4375 C 7.53125 -6.171875 6.875 -6.8125 5.6875 -6.8125 L 2.328125 -6.8125 C 2.140625 -6.8125 2.046875 -6.8125 2.046875 -6.609375 C 2.046875 -6.5 2.140625 -6.5 2.328125 -6.5 C 2.34375 -6.5 2.53125 -6.5 2.703125 -6.484375 C 2.875 -6.453125 2.96875 -6.453125 2.96875 -6.3125 C 2.96875 -6.28125 2.953125 -6.25 2.9375 -6.125 L 1.59375 -0.78125 Z M 3.09375 -3.65625 L 3.71875 -6.125 C 3.8125 -6.46875 3.828125 -6.5 4.25 -6.5 L 5.546875 -6.5 C 6.421875 -6.5 6.625 -5.90625 6.625 -5.46875 C 6.625 -4.59375 5.765625 -3.65625 4.5625 -3.65625 L 3.09375 -3.65625 Z M 2.65625 -0.3125 C 2.515625 -0.3125 2.5 -0.3125 2.4375 -0.3125 C 2.328125 -0.328125 2.296875 -0.34375 2.296875 -0.421875 C 2.296875 -0.453125 2.296875 -0.46875 2.359375 -0.640625 L 3.046875 -3.421875 L 4.921875 -3.421875 C 5.875 -3.421875 6.078125 -2.6875 6.078125 -2.265625 C 6.078125 -1.28125 5.1875 -0.3125 4 -0.3125 L 2.65625 -0.3125 Z M 2.65625 -0.3125 "
             id="path4375" />
        </symbol>
      </g>
    </defs>
    <g
       id="textext-9684afec-5">
      <g
         style="fill:rgb(0%,0%,0%);fill-opacity:1;"
         id="g4378">
        <use
           xlink:href="#textext-9684afec-1"
           x="223.432"
           y="134.765"
           id="use4380" />
      </g>
      <g
         style="fill:rgb(0%,0%,0%);fill-opacity:1;"
         id="g4382">
        <use
           xlink:href="#textext-9684afec-4"
           x="227.306"
           y="134.765"
           id="use4384" />
      </g>
      <g
         style="fill:rgb(0%,0%,0%);fill-opacity:1;"
         id="g4386">
        <use
           xlink:href="#textext-9684afec-2"
           x="235.363"
           y="134.765"
           id="use4388" />
      </g>
    </g>
  </g>
  <path
     id="path4571"
     d="M 169.91985,24.752277 147.14026,38.912568"
     style="fill:none;stroke:#000000;stroke-width:1.5;stroke-linecap:butt;stroke-linejoin:miter;stroke-miterlimit:4;stroke-opacity:1;stroke-dasharray:none;marker-end:url(#Arrow1Mend)" />
  <g
     id="g3052"
     transform="matrix(1.9412536,0,0,1.9412536,-132.84812,-52.552987)"
     ns0:preamble=""
     ns0:text="Phase TDM utilis\\\'ee pour l\'att\\\'enuation">
    <defs
       id="defs3054">
      <g
         id="g3056">
        <symbol
           id="textext-ac88c21b-0"
           overflow="visible">
          <path
             id="path3059"
             d=""
             style="stroke:none;" />
        </symbol>
        <symbol
           id="textext-ac88c21b-1"
           overflow="visible">
          <path
             id="path3062"
             d="M 2.265625 -3.15625 L 3.953125 -3.15625 C 5.140625 -3.15625 6.21875 -3.953125 6.21875 -4.953125 C 6.21875 -5.9375 5.234375 -6.8125 3.875 -6.8125 L 0.34375 -6.8125 L 0.34375 -6.5 L 0.59375 -6.5 C 1.359375 -6.5 1.375 -6.390625 1.375 -6.03125 L 1.375 -0.78125 C 1.375 -0.421875 1.359375 -0.3125 0.59375 -0.3125 L 0.34375 -0.3125 L 0.34375 0 C 0.703125 -0.03125 1.4375 -0.03125 1.8125 -0.03125 C 2.1875 -0.03125 2.9375 -0.03125 3.296875 0 L 3.296875 -0.3125 L 3.046875 -0.3125 C 2.28125 -0.3125 2.265625 -0.421875 2.265625 -0.78125 L 2.265625 -3.15625 Z M 2.234375 -3.40625 L 2.234375 -6.09375 C 2.234375 -6.4375 2.25 -6.5 2.71875 -6.5 L 3.609375 -6.5 C 5.1875 -6.5 5.1875 -5.4375 5.1875 -4.953125 C 5.1875 -4.484375 5.1875 -3.40625 3.609375 -3.40625 L 2.234375 -3.40625 Z M 2.234375 -3.40625 "
             style="stroke:none;" />
        </symbol>
        <symbol
           id="textext-ac88c21b-2"
           overflow="visible">
          <path
             id="path3065"
             d="M 4.5625 -2.515625 C 4.5625 -3.375 4.5625 -3.671875 4.25 -4.03125 C 4.109375 -4.203125 3.78125 -4.40625 3.203125 -4.40625 C 2.359375 -4.40625 1.921875 -3.8125 1.765625 -3.453125 L 1.75 -3.453125 L 1.75 -6.921875 L 0.3125 -6.8125 L 0.3125 -6.5 C 1.015625 -6.5 1.09375 -6.4375 1.09375 -5.9375 L 1.09375 -0.75 C 1.09375 -0.3125 0.984375 -0.3125 0.3125 -0.3125 L 0.3125 0 C 0.671875 -0.015625 1.171875 -0.03125 1.453125 -0.03125 C 1.703125 -0.03125 2.21875 -0.015625 2.5625 0 L 2.5625 -0.3125 C 1.890625 -0.3125 1.78125 -0.3125 1.78125 -0.75 L 1.78125 -2.59375 C 1.78125 -3.625 2.5 -4.1875 3.125 -4.1875 C 3.765625 -4.1875 3.875 -3.65625 3.875 -3.078125 L 3.875 -0.75 C 3.875 -0.3125 3.765625 -0.3125 3.09375 -0.3125 L 3.09375 0 C 3.4375 -0.015625 3.953125 -0.03125 4.21875 -0.03125 C 4.46875 -0.03125 5 -0.015625 5.328125 0 L 5.328125 -0.3125 C 4.8125 -0.3125 4.5625 -0.3125 4.5625 -0.609375 L 4.5625 -2.515625 Z M 4.5625 -2.515625 "
             style="stroke:none;" />
        </symbol>
        <symbol
           id="textext-ac88c21b-3"
           overflow="visible">
          <path
             id="path3068"
             d="M 3.3125 -0.75 C 3.359375 -0.359375 3.625 0.0625 4.09375 0.0625 C 4.3125 0.0625 4.921875 -0.078125 4.921875 -0.890625 L 4.921875 -1.453125 L 4.671875 -1.453125 L 4.671875 -0.890625 C 4.671875 -0.3125 4.421875 -0.25 4.3125 -0.25 C 3.984375 -0.25 3.9375 -0.703125 3.9375 -0.75 L 3.9375 -2.734375 C 3.9375 -3.15625 3.9375 -3.546875 3.578125 -3.921875 C 3.1875 -4.3125 2.6875 -4.46875 2.21875 -4.46875 C 1.390625 -4.46875 0.703125 -4 0.703125 -3.34375 C 0.703125 -3.046875 0.90625 -2.875 1.171875 -2.875 C 1.453125 -2.875 1.625 -3.078125 1.625 -3.328125 C 1.625 -3.453125 1.578125 -3.78125 1.109375 -3.78125 C 1.390625 -4.140625 1.875 -4.25 2.1875 -4.25 C 2.6875 -4.25 3.25 -3.859375 3.25 -2.96875 L 3.25 -2.609375 C 2.734375 -2.578125 2.046875 -2.546875 1.421875 -2.25 C 0.671875 -1.90625 0.421875 -1.390625 0.421875 -0.953125 C 0.421875 -0.140625 1.390625 0.109375 2.015625 0.109375 C 2.671875 0.109375 3.125 -0.296875 3.3125 -0.75 Z M 3.25 -2.390625 L 3.25 -1.390625 C 3.25 -0.453125 2.53125 -0.109375 2.078125 -0.109375 C 1.59375 -0.109375 1.1875 -0.453125 1.1875 -0.953125 C 1.1875 -1.5 1.609375 -2.328125 3.25 -2.390625 Z M 3.25 -2.390625 "
             style="stroke:none;" />
        </symbol>
        <symbol
           id="textext-ac88c21b-4"
           overflow="visible">
          <path
             id="path3071"
             d="M 2.078125 -1.9375 C 2.296875 -1.890625 3.109375 -1.734375 3.109375 -1.015625 C 3.109375 -0.515625 2.765625 -0.109375 1.984375 -0.109375 C 1.140625 -0.109375 0.78125 -0.671875 0.59375 -1.53125 C 0.5625 -1.65625 0.5625 -1.6875 0.453125 -1.6875 C 0.328125 -1.6875 0.328125 -1.625 0.328125 -1.453125 L 0.328125 -0.125 C 0.328125 0.046875 0.328125 0.109375 0.4375 0.109375 C 0.484375 0.109375 0.5 0.09375 0.6875 -0.09375 C 0.703125 -0.109375 0.703125 -0.125 0.890625 -0.3125 C 1.328125 0.09375 1.78125 0.109375 1.984375 0.109375 C 3.125 0.109375 3.59375 -0.5625 3.59375 -1.28125 C 3.59375 -1.796875 3.296875 -2.109375 3.171875 -2.21875 C 2.84375 -2.546875 2.453125 -2.625 2.03125 -2.703125 C 1.46875 -2.8125 0.8125 -2.9375 0.8125 -3.515625 C 0.8125 -3.875 1.0625 -4.28125 1.921875 -4.28125 C 3.015625 -4.28125 3.078125 -3.375 3.09375 -3.078125 C 3.09375 -2.984375 3.1875 -2.984375 3.203125 -2.984375 C 3.34375 -2.984375 3.34375 -3.03125 3.34375 -3.21875 L 3.34375 -4.234375 C 3.34375 -4.390625 3.34375 -4.46875 3.234375 -4.46875 C 3.1875 -4.46875 3.15625 -4.46875 3.03125 -4.34375 C 3 -4.3125 2.90625 -4.21875 2.859375 -4.1875 C 2.484375 -4.46875 2.078125 -4.46875 1.921875 -4.46875 C 0.703125 -4.46875 0.328125 -3.796875 0.328125 -3.234375 C 0.328125 -2.890625 0.484375 -2.609375 0.75 -2.390625 C 1.078125 -2.140625 1.359375 -2.078125 2.078125 -1.9375 Z M 2.078125 -1.9375 "
             style="stroke:none;" />
        </symbol>
        <symbol
           id="textext-ac88c21b-5"
           overflow="visible">
          <path
             id="path3074"
             d="M 3.890625 -2.296875 C 4.109375 -2.296875 4.140625 -2.296875 4.140625 -2.515625 C 4.140625 -3.5 3.59375 -4.46875 2.359375 -4.46875 C 1.203125 -4.46875 0.28125 -3.4375 0.28125 -2.1875 C 0.28125 -0.859375 1.328125 0.109375 2.46875 0.109375 C 3.6875 0.109375 4.140625 -1 4.140625 -1.1875 C 4.140625 -1.28125 4.0625 -1.3125 4 -1.3125 C 3.921875 -1.3125 3.890625 -1.25 3.875 -1.171875 C 3.53125 -0.140625 2.625 -0.140625 2.53125 -0.140625 C 2.03125 -0.140625 1.640625 -0.4375 1.40625 -0.8125 C 1.109375 -1.28125 1.109375 -1.9375 1.109375 -2.296875 L 3.890625 -2.296875 Z M 1.109375 -2.515625 C 1.171875 -4 2.015625 -4.25 2.359375 -4.25 C 3.375 -4.25 3.484375 -2.90625 3.484375 -2.515625 L 1.109375 -2.515625 Z M 1.109375 -2.515625 "
             style="stroke:none;" />
        </symbol>
        <symbol
           id="textext-ac88c21b-6"
           overflow="visible">
          <path
             id="path3077"
             d="M 6.640625 -6.75 L 0.546875 -6.75 L 0.359375 -4.5 L 0.609375 -4.5 C 0.75 -6.109375 0.890625 -6.4375 2.40625 -6.4375 C 2.578125 -6.4375 2.84375 -6.4375 2.9375 -6.421875 C 3.15625 -6.375 3.15625 -6.265625 3.15625 -6.046875 L 3.15625 -0.78125 C 3.15625 -0.453125 3.15625 -0.3125 2.109375 -0.3125 L 1.703125 -0.3125 L 1.703125 0 C 2.109375 -0.03125 3.125 -0.03125 3.59375 -0.03125 C 4.046875 -0.03125 5.078125 -0.03125 5.484375 0 L 5.484375 -0.3125 L 5.078125 -0.3125 C 4.03125 -0.3125 4.03125 -0.453125 4.03125 -0.78125 L 4.03125 -6.046875 C 4.03125 -6.234375 4.03125 -6.375 4.21875 -6.421875 C 4.328125 -6.4375 4.59375 -6.4375 4.78125 -6.4375 C 6.296875 -6.4375 6.4375 -6.109375 6.578125 -4.5 L 6.828125 -4.5 L 6.640625 -6.75 Z M 6.640625 -6.75 "
             style="stroke:none;" />
        </symbol>
        <symbol
           id="textext-ac88c21b-7"
           overflow="visible">
          <path
             id="path3080"
             d="M 0.34375 -6.8125 L 0.34375 -6.5 L 0.59375 -6.5 C 1.359375 -6.5 1.375 -6.390625 1.375 -6.03125 L 1.375 -0.78125 C 1.375 -0.421875 1.359375 -0.3125 0.59375 -0.3125 L 0.34375 -0.3125 L 0.34375 0 L 4 0 C 5.671875 0 7.046875 -1.46875 7.046875 -3.34375 C 7.046875 -5.25 5.703125 -6.8125 4 -6.8125 L 0.34375 -6.8125 Z M 2.71875 -0.3125 C 2.25 -0.3125 2.234375 -0.375 2.234375 -0.703125 L 2.234375 -6.09375 C 2.234375 -6.4375 2.25 -6.5 2.71875 -6.5 L 3.71875 -6.5 C 4.34375 -6.5 5.03125 -6.28125 5.53125 -5.578125 C 5.96875 -4.984375 6.046875 -4.125 6.046875 -3.34375 C 6.046875 -2.25 5.859375 -1.640625 5.5 -1.15625 C 5.296875 -0.890625 4.734375 -0.3125 3.734375 -0.3125 L 2.71875 -0.3125 Z M 2.71875 -0.3125 "
             style="stroke:none;" />
        </symbol>
        <symbol
           id="textext-ac88c21b-8"
           overflow="visible">
          <path
             id="path3083"
             d="M 2.40625 -6.59375 C 2.3125 -6.8125 2.28125 -6.8125 2.046875 -6.8125 L 0.375 -6.8125 L 0.375 -6.5 L 0.609375 -6.5 C 1.375 -6.5 1.390625 -6.390625 1.390625 -6.03125 L 1.390625 -1.046875 C 1.390625 -0.78125 1.390625 -0.3125 0.375 -0.3125 L 0.375 0 C 0.71875 -0.015625 1.203125 -0.03125 1.53125 -0.03125 C 1.859375 -0.03125 2.359375 -0.015625 2.703125 0 L 2.703125 -0.3125 C 1.671875 -0.3125 1.671875 -0.78125 1.671875 -1.046875 L 1.671875 -6.421875 L 1.6875 -6.421875 L 4.09375 -0.21875 C 4.140625 -0.09375 4.1875 0 4.28125 0 C 4.390625 0 4.421875 -0.078125 4.46875 -0.1875 L 6.921875 -6.5 L 6.921875 -6.5 L 6.921875 -0.78125 C 6.921875 -0.421875 6.90625 -0.3125 6.140625 -0.3125 L 5.90625 -0.3125 L 5.90625 0 C 6.265625 -0.03125 6.953125 -0.03125 7.34375 -0.03125 C 7.71875 -0.03125 8.390625 -0.03125 8.765625 0 L 8.765625 -0.3125 L 8.515625 -0.3125 C 7.75 -0.3125 7.734375 -0.421875 7.734375 -0.78125 L 7.734375 -6.03125 C 7.734375 -6.390625 7.75 -6.5 8.515625 -6.5 L 8.765625 -6.5 L 8.765625 -6.8125 L 7.078125 -6.8125 C 6.8125 -6.8125 6.8125 -6.796875 6.75 -6.625 L 4.5625 -1 L 2.40625 -6.59375 Z M 2.40625 -6.59375 "
             style="stroke:none;" />
        </symbol>
        <symbol
           id="textext-ac88c21b-9"
           overflow="visible">
          <path
             id="path3086"
             d="M 3.890625 -0.78125 L 3.890625 0.109375 L 5.328125 0 L 5.328125 -0.3125 C 4.640625 -0.3125 4.5625 -0.375 4.5625 -0.875 L 4.5625 -4.40625 L 3.09375 -4.296875 L 3.09375 -3.984375 C 3.78125 -3.984375 3.875 -3.921875 3.875 -3.421875 L 3.875 -1.65625 C 3.875 -0.78125 3.390625 -0.109375 2.65625 -0.109375 C 1.828125 -0.109375 1.78125 -0.578125 1.78125 -1.09375 L 1.78125 -4.40625 L 0.3125 -4.296875 L 0.3125 -3.984375 C 1.09375 -3.984375 1.09375 -3.953125 1.09375 -3.078125 L 1.09375 -1.578125 C 1.09375 -0.796875 1.09375 0.109375 2.609375 0.109375 C 3.171875 0.109375 3.609375 -0.171875 3.890625 -0.78125 Z M 3.890625 -0.78125 "
             style="stroke:none;" />
        </symbol>
        <symbol
           id="textext-ac88c21b-10"
           overflow="visible">
          <path
             id="path3089"
             d="M 1.71875 -3.984375 L 3.15625 -3.984375 L 3.15625 -4.296875 L 1.71875 -4.296875 L 1.71875 -6.125 L 1.46875 -6.125 C 1.46875 -5.3125 1.171875 -4.25 0.1875 -4.203125 L 0.1875 -3.984375 L 1.03125 -3.984375 L 1.03125 -1.234375 C 1.03125 -0.015625 1.96875 0.109375 2.328125 0.109375 C 3.03125 0.109375 3.3125 -0.59375 3.3125 -1.234375 L 3.3125 -1.796875 L 3.0625 -1.796875 L 3.0625 -1.25 C 3.0625 -0.515625 2.765625 -0.140625 2.390625 -0.140625 C 1.71875 -0.140625 1.71875 -1.046875 1.71875 -1.21875 L 1.71875 -3.984375 Z M 1.71875 -3.984375 "
             style="stroke:none;" />
        </symbol>
        <symbol
           id="textext-ac88c21b-11"
           overflow="visible">
          <path
             id="path3092"
             d="M 1.765625 -4.40625 L 0.375 -4.296875 L 0.375 -3.984375 C 1.015625 -3.984375 1.109375 -3.921875 1.109375 -3.4375 L 1.109375 -0.75 C 1.109375 -0.3125 1 -0.3125 0.328125 -0.3125 L 0.328125 0 C 0.640625 -0.015625 1.1875 -0.03125 1.421875 -0.03125 C 1.78125 -0.03125 2.125 -0.015625 2.46875 0 L 2.46875 -0.3125 C 1.796875 -0.3125 1.765625 -0.359375 1.765625 -0.75 L 1.765625 -4.40625 Z M 1.796875 -6.140625 C 1.796875 -6.453125 1.5625 -6.671875 1.28125 -6.671875 C 0.96875 -6.671875 0.75 -6.40625 0.75 -6.140625 C 0.75 -5.875 0.96875 -5.609375 1.28125 -5.609375 C 1.5625 -5.609375 1.796875 -5.828125 1.796875 -6.140625 Z M 1.796875 -6.140625 "
             style="stroke:none;" />
        </symbol>
        <symbol
           id="textext-ac88c21b-12"
           overflow="visible">
          <path
             id="path3095"
             d="M 1.765625 -6.921875 L 0.328125 -6.8125 L 0.328125 -6.5 C 1.03125 -6.5 1.109375 -6.4375 1.109375 -5.9375 L 1.109375 -0.75 C 1.109375 -0.3125 1 -0.3125 0.328125 -0.3125 L 0.328125 0 C 0.65625 -0.015625 1.1875 -0.03125 1.4375 -0.03125 C 1.6875 -0.03125 2.171875 -0.015625 2.546875 0 L 2.546875 -0.3125 C 1.875 -0.3125 1.765625 -0.3125 1.765625 -0.75 L 1.765625 -6.921875 Z M 1.765625 -6.921875 "
             style="stroke:none;" />
        </symbol>
        <symbol
           id="textext-ac88c21b-13"
           overflow="visible">
          <path
             id="path3098"
             d="M 3.734375 -6.296875 C 3.828125 -6.375 3.90625 -6.484375 3.90625 -6.59375 C 3.90625 -6.78125 3.734375 -6.953125 3.546875 -6.953125 C 3.40625 -6.953125 3.296875 -6.84375 3.25 -6.78125 L 2.046875 -5.265625 L 2.21875 -5.078125 L 3.734375 -6.296875 Z M 3.734375 -6.296875 "
             style="stroke:none;" />
        </symbol>
        <symbol
           id="textext-ac88c21b-14"
           overflow="visible">
          <path
             id="path3101"
             d="M 1.75 -3.359375 C 2.03125 -3.875 2.515625 -4.15625 3.03125 -4.15625 C 3.765625 -4.15625 4.359375 -3.28125 4.359375 -2.15625 C 4.359375 -0.953125 3.671875 -0.109375 2.9375 -0.109375 C 2.53125 -0.109375 2.15625 -0.3125 1.890625 -0.71875 C 1.75 -0.921875 1.75 -0.9375 1.75 -1.140625 L 1.75 -3.359375 Z M 1.75 -0.59375 C 1.796875 -0.421875 2.21875 0.109375 2.96875 0.109375 C 4.15625 0.109375 5.1875 -0.875 5.1875 -2.15625 C 5.1875 -3.421875 4.234375 -4.40625 3.109375 -4.40625 C 2.328125 -4.40625 1.90625 -3.96875 1.71875 -3.75 L 1.71875 -4.40625 L 0.28125 -4.296875 L 0.28125 -3.984375 C 0.984375 -3.984375 1.0625 -3.921875 1.0625 -3.484375 L 1.0625 1.171875 C 1.0625 1.625 0.953125 1.625 0.28125 1.625 L 0.28125 1.9375 C 0.625 1.921875 1.140625 1.90625 1.390625 1.90625 C 1.671875 1.90625 2.171875 1.921875 2.515625 1.9375 L 2.515625 1.625 C 1.859375 1.625 1.75 1.625 1.75 1.171875 L 1.75 -0.5 L 1.75 -0.59375 Z M 1.75 -0.59375 "
             style="stroke:none;" />
        </symbol>
        <symbol
           id="textext-ac88c21b-15"
           overflow="visible">
          <path
             id="path3104"
             d="M 4.6875 -2.140625 C 4.6875 -3.40625 3.703125 -4.46875 2.5 -4.46875 C 1.25 -4.46875 0.28125 -3.375 0.28125 -2.140625 C 0.28125 -0.84375 1.3125 0.109375 2.484375 0.109375 C 3.6875 0.109375 4.6875 -0.875 4.6875 -2.140625 Z M 2.5 -0.140625 C 2.0625 -0.140625 1.625 -0.34375 1.359375 -0.8125 C 1.109375 -1.25 1.109375 -1.859375 1.109375 -2.21875 C 1.109375 -2.609375 1.109375 -3.140625 1.34375 -3.578125 C 1.609375 -4.03125 2.078125 -4.25 2.484375 -4.25 C 2.921875 -4.25 3.34375 -4.03125 3.609375 -3.59375 C 3.875 -3.171875 3.875 -2.59375 3.875 -2.21875 C 3.875 -1.859375 3.875 -1.3125 3.65625 -0.875 C 3.421875 -0.421875 2.984375 -0.140625 2.5 -0.140625 Z M 2.5 -0.140625 "
             style="stroke:none;" />
        </symbol>
        <symbol
           id="textext-ac88c21b-16"
           overflow="visible">
          <path
             id="path3107"
             d="M 1.71875 -0.78125 L 1.71875 -2.3125 C 1.71875 -3.296875 2.140625 -4.1875 2.890625 -4.1875 C 2.953125 -4.1875 2.984375 -4.1875 3 -4.171875 C 2.96875 -4.171875 2.765625 -4.046875 2.765625 -3.78125 C 2.765625 -3.515625 2.984375 -3.359375 3.203125 -3.359375 C 3.375 -3.359375 3.625 -3.484375 3.625 -3.796875 C 3.625 -4.109375 3.3125 -4.40625 2.890625 -4.40625 C 2.15625 -4.40625 1.796875 -3.734375 1.671875 -3.3125 L 1.671875 -4.40625 L 0.28125 -4.296875 L 0.28125 -3.984375 C 0.984375 -3.984375 1.0625 -3.921875 1.0625 -3.421875 L 1.0625 -0.75 C 1.0625 -0.3125 0.953125 -0.3125 0.28125 -0.3125 L 0.28125 0 C 0.671875 -0.015625 1.140625 -0.03125 1.421875 -0.03125 C 1.8125 -0.03125 2.28125 -0.03125 2.6875 0 L 2.6875 -0.3125 L 2.46875 -0.3125 C 1.734375 -0.3125 1.71875 -0.421875 1.71875 -0.78125 Z M 1.71875 -0.78125 "
             style="stroke:none;" />
        </symbol>
        <symbol
           id="textext-ac88c21b-17"
           overflow="visible">
          <path
             id="path3110"
             d="M 2.046875 -5.875 C 2.046875 -6.46875 1.8125 -6.921875 1.390625 -6.921875 C 1.03125 -6.921875 0.859375 -6.65625 0.859375 -6.390625 C 0.859375 -6.125 1.03125 -5.859375 1.390625 -5.859375 C 1.578125 -5.859375 1.71875 -5.96875 1.78125 -6.015625 C 1.796875 -6.046875 1.796875 -6.046875 1.8125 -6.046875 C 1.828125 -6.046875 1.828125 -5.90625 1.828125 -5.875 C 1.828125 -5.546875 1.765625 -4.828125 1.140625 -4.21875 C 1.015625 -4.09375 1.015625 -4.078125 1.015625 -4.046875 C 1.015625 -3.984375 1.0625 -3.9375 1.109375 -3.9375 C 1.21875 -3.9375 2.046875 -4.6875 2.046875 -5.875 Z M 2.046875 -5.875 "
             style="stroke:none;" />
        </symbol>
        <symbol
           id="textext-ac88c21b-18"
           overflow="visible">
          <path
             id="path3113"
             d="M 1.09375 -3.421875 L 1.09375 -0.75 C 1.09375 -0.3125 0.984375 -0.3125 0.3125 -0.3125 L 0.3125 0 C 0.671875 -0.015625 1.171875 -0.03125 1.453125 -0.03125 C 1.703125 -0.03125 2.21875 -0.015625 2.5625 0 L 2.5625 -0.3125 C 1.890625 -0.3125 1.78125 -0.3125 1.78125 -0.75 L 1.78125 -2.59375 C 1.78125 -3.625 2.5 -4.1875 3.125 -4.1875 C 3.765625 -4.1875 3.875 -3.65625 3.875 -3.078125 L 3.875 -0.75 C 3.875 -0.3125 3.765625 -0.3125 3.09375 -0.3125 L 3.09375 0 C 3.4375 -0.015625 3.953125 -0.03125 4.21875 -0.03125 C 4.46875 -0.03125 5 -0.015625 5.328125 0 L 5.328125 -0.3125 C 4.8125 -0.3125 4.5625 -0.3125 4.5625 -0.609375 L 4.5625 -2.515625 C 4.5625 -3.375 4.5625 -3.671875 4.25 -4.03125 C 4.109375 -4.203125 3.78125 -4.40625 3.203125 -4.40625 C 2.46875 -4.40625 2 -3.984375 1.71875 -3.359375 L 1.71875 -4.40625 L 0.3125 -4.296875 L 0.3125 -3.984375 C 1.015625 -3.984375 1.09375 -3.921875 1.09375 -3.421875 Z M 1.09375 -3.421875 "
             style="stroke:none;" />
        </symbol>
      </g>
    </defs>
    <g
       id="textext-ac88c21b-19">
      <g
         id="g3116"
         style="fill:rgb(0%,0%,0%);fill-opacity:1;">
        <use
           id="use3118"
           y="134.765"
           x="223.432"
           xlink:href="#textext-ac88c21b-1" />
        <use
           id="use3120"
           y="134.765"
           x="230.212546"
           xlink:href="#textext-ac88c21b-2" />
        <use
           id="use3122"
           y="134.765"
           x="235.747766"
           xlink:href="#textext-ac88c21b-3" />
        <use
           id="use3124"
           y="134.765"
           x="240.729066"
           xlink:href="#textext-ac88c21b-4" />
        <use
           id="use3126"
           y="134.765"
           x="244.658316"
           xlink:href="#textext-ac88c21b-5" />
      </g>
      <g
         id="g3128"
         style="fill:rgb(0%,0%,0%);fill-opacity:1;">
        <use
           id="use3130"
           y="134.765"
           x="252.403241"
           xlink:href="#textext-ac88c21b-6" />
        <use
           id="use3132"
           y="134.765"
           x="259.598231"
           xlink:href="#textext-ac88c21b-7" />
        <use
           id="use3134"
           y="134.765"
           x="267.208661"
           xlink:href="#textext-ac88c21b-8" />
      </g>
      <g
         id="g3136"
         style="fill:rgb(0%,0%,0%);fill-opacity:1;">
        <use
           id="use3138"
           y="134.765"
           x="279.668884"
           xlink:href="#textext-ac88c21b-9" />
        <use
           id="use3140"
           y="134.765"
           x="285.204105"
           xlink:href="#textext-ac88c21b-10" />
        <use
           id="use3142"
           y="134.765"
           x="289.07856"
           xlink:href="#textext-ac88c21b-11" />
        <use
           id="use3144"
           y="134.765"
           x="291.84617"
           xlink:href="#textext-ac88c21b-12" />
        <use
           id="use3146"
           y="134.765"
           x="294.613781"
           xlink:href="#textext-ac88c21b-11" />
        <use
           id="use3148"
           y="134.765"
           x="297.381391"
           xlink:href="#textext-ac88c21b-4" />
      </g>
      <g
         id="g3150"
         style="fill:rgb(0%,0%,0%);fill-opacity:1;">
        <use
           id="use3152"
           y="134.765"
           x="301.031688"
           xlink:href="#textext-ac88c21b-13" />
      </g>
      <g
         id="g3154"
         style="fill:rgb(0%,0%,0%);fill-opacity:1;">
        <use
           id="use3156"
           y="134.765"
           x="301.31064"
           xlink:href="#textext-ac88c21b-5" />
        <use
           id="use3158"
           y="134.765"
           x="305.73802"
           xlink:href="#textext-ac88c21b-5" />
      </g>
      <g
         id="g3160"
         style="fill:rgb(0%,0%,0%);fill-opacity:1;">
        <use
           id="use3162"
           y="134.765"
           x="313.482945"
           xlink:href="#textext-ac88c21b-14" />
      </g>
      <g
         id="g3164"
         style="fill:rgb(0%,0%,0%);fill-opacity:1;">
        <use
           id="use3166"
           y="134.765"
           x="319.297119"
           xlink:href="#textext-ac88c21b-15" />
        <use
           id="use3168"
           y="134.765"
           x="324.278418"
           xlink:href="#textext-ac88c21b-9" />
        <use
           id="use3170"
           y="134.765"
           x="329.813639"
           xlink:href="#textext-ac88c21b-16" />
      </g>
      <g
         id="g3172"
         style="fill:rgb(0%,0%,0%);fill-opacity:1;">
        <use
           id="use3174"
           y="134.765"
           x="337.033535"
           xlink:href="#textext-ac88c21b-12" />
        <use
           id="use3176"
           y="134.765"
           x="339.801146"
           xlink:href="#textext-ac88c21b-17" />
        <use
           id="use3178"
           y="134.765"
           x="342.568756"
           xlink:href="#textext-ac88c21b-3" />
        <use
           id="use3180"
           y="134.765"
           x="347.550056"
           xlink:href="#textext-ac88c21b-10" />
        <use
           id="use3182"
           y="134.765"
           x="351.424511"
           xlink:href="#textext-ac88c21b-10" />
      </g>
      <g
         id="g3184"
         style="fill:rgb(0%,0%,0%);fill-opacity:1;">
        <use
           id="use3186"
           y="134.765"
           x="355.020013"
           xlink:href="#textext-ac88c21b-13" />
      </g>
      <g
         id="g3188"
         style="fill:rgb(0%,0%,0%);fill-opacity:1;">
        <use
           id="use3190"
           y="134.765"
           x="355.298966"
           xlink:href="#textext-ac88c21b-5" />
        <use
           id="use3192"
           y="134.765"
           x="359.726346"
           xlink:href="#textext-ac88c21b-18" />
      </g>
      <g
         id="g3194"
         style="fill:rgb(0%,0%,0%);fill-opacity:1;">
        <use
           id="use3196"
           y="134.765"
           x="364.982613"
           xlink:href="#textext-ac88c21b-9" />
        <use
           id="use3198"
           y="134.765"
           x="370.517834"
           xlink:href="#textext-ac88c21b-3" />
        <use
           id="use3200"
           y="134.765"
           x="375.499134"
           xlink:href="#textext-ac88c21b-10" />
        <use
           id="use3202"
           y="134.765"
           x="379.373589"
           xlink:href="#textext-ac88c21b-11" />
        <use
           id="use3204"
           y="134.765"
           x="382.141199"
           xlink:href="#textext-ac88c21b-15" />
        <use
           id="use3206"
           y="134.765"
           x="387.122499"
           xlink:href="#textext-ac88c21b-18" />
      </g>
    </g>
  </g>
</svg>
