<?xml version="1.0" encoding="UTF-8" standalone="no"?>
<!-- Created with Inkscape (http://www.inkscape.org/) -->

<svg
   xmlns:dc="http://purl.org/dc/elements/1.1/"
   xmlns:cc="http://creativecommons.org/ns#"
   xmlns:rdf="http://www.w3.org/1999/02/22-rdf-syntax-ns#"
   xmlns:svg="http://www.w3.org/2000/svg"
   xmlns="http://www.w3.org/2000/svg"
   xmlns:sodipodi="http://sodipodi.sourceforge.net/DTD/sodipodi-0.dtd"
   xmlns:inkscape="http://www.inkscape.org/namespaces/inkscape"
   width="646.98047"
   height="260.12363"
   id="svg2"
   version="1.1"
   inkscape:version="0.47 r22583"
   sodipodi:docname="Nouveau document 1">
  <defs
     id="defs4">
    <marker
       inkscape:stockid="Arrow1Lend"
       orient="auto"
       refY="0"
       refX="0"
       id="Arrow1Lend"
       style="overflow:visible">
      <path
         id="path3883"
         d="M 0,0 5,-5 -12.5,0 5,5 0,0 z"
         style="fill-rule:evenodd;stroke:#000000;stroke-width:1pt;marker-start:none"
         transform="matrix(-0.8,0,0,-0.8,-10,0)" />
    </marker>
    <inkscape:perspective
       sodipodi:type="inkscape:persp3d"
       inkscape:vp_x="0 : 526.18109 : 1"
       inkscape:vp_y="0 : 1000 : 0"
       inkscape:vp_z="744.09448 : 526.18109 : 1"
       inkscape:persp3d-origin="372.04724 : 350.78739 : 1"
       id="perspective10" />
    <inkscape:perspective
       id="perspective3598"
       inkscape:persp3d-origin="0.5 : 0.33333333 : 1"
       inkscape:vp_z="1 : 0.5 : 1"
       inkscape:vp_y="0 : 1000 : 0"
       inkscape:vp_x="0 : 0.5 : 1"
       sodipodi:type="inkscape:persp3d" />
    <inkscape:perspective
       id="perspective3598-4"
       inkscape:persp3d-origin="0.5 : 0.33333333 : 1"
       inkscape:vp_z="1 : 0.5 : 1"
       inkscape:vp_y="0 : 1000 : 0"
       inkscape:vp_x="0 : 0.5 : 1"
       sodipodi:type="inkscape:persp3d" />
    <inkscape:perspective
       id="perspective3598-0"
       inkscape:persp3d-origin="0.5 : 0.33333333 : 1"
       inkscape:vp_z="1 : 0.5 : 1"
       inkscape:vp_y="0 : 1000 : 0"
       inkscape:vp_x="0 : 0.5 : 1"
       sodipodi:type="inkscape:persp3d" />
    <inkscape:perspective
       id="perspective3598-6"
       inkscape:persp3d-origin="0.5 : 0.33333333 : 1"
       inkscape:vp_z="1 : 0.5 : 1"
       inkscape:vp_y="0 : 1000 : 0"
       inkscape:vp_x="0 : 0.5 : 1"
       sodipodi:type="inkscape:persp3d" />
    <inkscape:perspective
       id="perspective3647"
       inkscape:persp3d-origin="0.5 : 0.33333333 : 1"
       inkscape:vp_z="1 : 0.5 : 1"
       inkscape:vp_y="0 : 1000 : 0"
       inkscape:vp_x="0 : 0.5 : 1"
       sodipodi:type="inkscape:persp3d" />
    <inkscape:perspective
       id="perspective3681"
       inkscape:persp3d-origin="0.5 : 0.33333333 : 1"
       inkscape:vp_z="1 : 0.5 : 1"
       inkscape:vp_y="0 : 1000 : 0"
       inkscape:vp_x="0 : 0.5 : 1"
       sodipodi:type="inkscape:persp3d" />
    <inkscape:perspective
       id="perspective3681-1"
       inkscape:persp3d-origin="0.5 : 0.33333333 : 1"
       inkscape:vp_z="1 : 0.5 : 1"
       inkscape:vp_y="0 : 1000 : 0"
       inkscape:vp_x="0 : 0.5 : 1"
       sodipodi:type="inkscape:persp3d" />
    <inkscape:perspective
       id="perspective3681-5"
       inkscape:persp3d-origin="0.5 : 0.33333333 : 1"
       inkscape:vp_z="1 : 0.5 : 1"
       inkscape:vp_y="0 : 1000 : 0"
       inkscape:vp_x="0 : 0.5 : 1"
       sodipodi:type="inkscape:persp3d" />
    <inkscape:perspective
       id="perspective3721"
       inkscape:persp3d-origin="0.5 : 0.33333333 : 1"
       inkscape:vp_z="1 : 0.5 : 1"
       inkscape:vp_y="0 : 1000 : 0"
       inkscape:vp_x="0 : 0.5 : 1"
       sodipodi:type="inkscape:persp3d" />
    <inkscape:perspective
       id="perspective3721-6"
       inkscape:persp3d-origin="0.5 : 0.33333333 : 1"
       inkscape:vp_z="1 : 0.5 : 1"
       inkscape:vp_y="0 : 1000 : 0"
       inkscape:vp_x="0 : 0.5 : 1"
       sodipodi:type="inkscape:persp3d" />
    <inkscape:perspective
       id="perspective3752"
       inkscape:persp3d-origin="0.5 : 0.33333333 : 1"
       inkscape:vp_z="1 : 0.5 : 1"
       inkscape:vp_y="0 : 1000 : 0"
       inkscape:vp_x="0 : 0.5 : 1"
       sodipodi:type="inkscape:persp3d" />
    <inkscape:perspective
       id="perspective3803"
       inkscape:persp3d-origin="0.5 : 0.33333333 : 1"
       inkscape:vp_z="1 : 0.5 : 1"
       inkscape:vp_y="0 : 1000 : 0"
       inkscape:vp_x="0 : 0.5 : 1"
       sodipodi:type="inkscape:persp3d" />
    <inkscape:perspective
       id="perspective3803-4"
       inkscape:persp3d-origin="0.5 : 0.33333333 : 1"
       inkscape:vp_z="1 : 0.5 : 1"
       inkscape:vp_y="0 : 1000 : 0"
       inkscape:vp_x="0 : 0.5 : 1"
       sodipodi:type="inkscape:persp3d" />
    <inkscape:perspective
       id="perspective3834"
       inkscape:persp3d-origin="0.5 : 0.33333333 : 1"
       inkscape:vp_z="1 : 0.5 : 1"
       inkscape:vp_y="0 : 1000 : 0"
       inkscape:vp_x="0 : 0.5 : 1"
       sodipodi:type="inkscape:persp3d" />
    <inkscape:perspective
       id="perspective4333"
       inkscape:persp3d-origin="0.5 : 0.33333333 : 1"
       inkscape:vp_z="1 : 0.5 : 1"
       inkscape:vp_y="0 : 1000 : 0"
       inkscape:vp_x="0 : 0.5 : 1"
       sodipodi:type="inkscape:persp3d" />
    <marker
       inkscape:stockid="Arrow1Lend"
       orient="auto"
       refY="0"
       refX="0"
       id="Arrow1Lend-8"
       style="overflow:visible">
      <path
         id="path3883-4"
         d="M 0,0 5,-5 -12.5,0 5,5 0,0 z"
         style="fill-rule:evenodd;stroke:#000000;stroke-width:1pt;marker-start:none"
         transform="matrix(-0.8,0,0,-0.8,-10,0)" />
    </marker>
    <inkscape:perspective
       id="perspective4365"
       inkscape:persp3d-origin="0.5 : 0.33333333 : 1"
       inkscape:vp_z="1 : 0.5 : 1"
       inkscape:vp_y="0 : 1000 : 0"
       inkscape:vp_x="0 : 0.5 : 1"
       sodipodi:type="inkscape:persp3d" />
  </defs>
  <sodipodi:namedview
     id="base"
     pagecolor="#ffffff"
     bordercolor="#666666"
     borderopacity="1.0"
     inkscape:pageopacity="0.0"
     inkscape:pageshadow="2"
     inkscape:zoom="0.98994949"
     inkscape:cx="247.06622"
     inkscape:cy="223.89635"
     inkscape:document-units="px"
     inkscape:current-layer="layer1"
     showgrid="false"
     inkscape:window-width="1440"
     inkscape:window-height="829"
     inkscape:window-x="0"
     inkscape:window-y="25"
     inkscape:window-maximized="1" />
  <metadata
     id="metadata7">
    <rdf:RDF>
      <cc:Work
         rdf:about="">
        <dc:format>image/svg+xml</dc:format>
        <dc:type
           rdf:resource="http://purl.org/dc/dcmitype/StillImage" />
        <dc:title></dc:title>
      </cc:Work>
    </rdf:RDF>
  </metadata>
  <g
     inkscape:label="Calque 1"
     inkscape:groupmode="layer"
     id="layer1"
     transform="translate(-98.089348,-219.18558)">
    <g
       id="g3866"
       transform="translate(-68,0)">
      <path
         d="m 200.01021,282.12088 c 0,14.78413 -11.98491,26.76904 -26.76904,26.76904 -14.78414,0 -26.76905,-11.98491 -26.76905,-26.76904 0,-14.78413 11.98491,-26.76904 26.76905,-26.76904 14.78413,0 26.76904,11.98491 26.76904,26.76904 z"
         sodipodi:ry="26.769043"
         sodipodi:rx="26.769043"
         sodipodi:cy="282.12088"
         sodipodi:cx="173.24117"
         id="path2816-6"
         style="fill:#000000;fill-opacity:0.2107143;stroke:none"
         sodipodi:type="arc"
         transform="translate(60.256364,61.474605)" />
      <path
         d="m 200.01021,282.12088 c 0,14.78413 -11.98491,26.76904 -26.76904,26.76904 -14.78414,0 -26.76905,-11.98491 -26.76905,-26.76904 0,-14.78413 11.98491,-26.76904 26.76905,-26.76904 14.78413,0 26.76904,11.98491 26.76904,26.76904 z"
         sodipodi:ry="26.769043"
         sodipodi:rx="26.769043"
         sodipodi:cy="282.12088"
         sodipodi:cx="173.24117"
         id="path2816-5"
         style="fill:#000000;fill-opacity:0.2107143;stroke:none"
         sodipodi:type="arc"
         transform="translate(122.46535,103.4746)" />
      <path
         d="m 200.01021,282.12088 c 0,14.78413 -11.98491,26.76904 -26.76904,26.76904 -14.78414,0 -26.76905,-11.98491 -26.76905,-26.76904 0,-14.78413 11.98491,-26.76904 26.76905,-26.76904 14.78413,0 26.76904,11.98491 26.76904,26.76904 z"
         sodipodi:ry="26.769043"
         sodipodi:rx="26.769043"
         sodipodi:cy="282.12088"
         sodipodi:cx="173.24117"
         id="path2816-4"
         style="fill:#000000;fill-opacity:0.2107143;stroke:none"
         sodipodi:type="arc"
         transform="translate(184.67433,73.474605)" />
      <path
         d="m 200.01021,282.12088 c 0,14.78413 -11.98491,26.76904 -26.76904,26.76904 -14.78414,0 -26.76905,-11.98491 -26.76905,-26.76904 0,-14.78413 11.98491,-26.76904 26.76905,-26.76904 14.78413,0 26.76904,11.98491 26.76904,26.76904 z"
         sodipodi:ry="26.769043"
         sodipodi:rx="26.769043"
         sodipodi:cy="282.12088"
         sodipodi:cx="173.24117"
         id="path2816-4-7"
         style="fill:#000000;fill-opacity:0.2107143;stroke:none"
         sodipodi:type="arc"
         transform="translate(246.8833,30.992385)" />
      <path
         d="m 200.01021,282.12088 c 0,14.78413 -11.98491,26.76904 -26.76904,26.76904 -14.78414,0 -26.76905,-11.98491 -26.76905,-26.76904 0,-14.78413 11.98491,-26.76904 26.76905,-26.76904 14.78413,0 26.76904,11.98491 26.76904,26.76904 z"
         sodipodi:ry="26.769043"
         sodipodi:rx="26.769043"
         sodipodi:cy="282.12088"
         sodipodi:cx="173.24117"
         id="path2816-4-5"
         style="fill:#000000;fill-opacity:0.2107143;stroke:none"
         sodipodi:type="arc"
         transform="translate(309.09226,-1.007615)" />
      <path
         d="m 200.01021,282.12088 c 0,14.78413 -11.98491,26.76904 -26.76904,26.76904 -14.78414,0 -26.76905,-11.98491 -26.76905,-26.76904 0,-14.78413 11.98491,-26.76904 26.76905,-26.76904 14.78413,0 26.76904,11.98491 26.76904,26.76904 z"
         sodipodi:ry="26.769043"
         sodipodi:rx="26.769043"
         sodipodi:cy="282.12088"
         sodipodi:cx="173.24117"
         id="path2816-4-5-5"
         style="fill:#000000;fill-opacity:0.2107143;stroke:none"
         sodipodi:type="arc"
         transform="translate(371.30125,36.444148)" />
      <path
         d="m 200.01021,282.12088 c 0,14.78413 -11.98491,26.76904 -26.76904,26.76904 -14.78414,0 -26.76905,-11.98491 -26.76905,-26.76904 0,-14.78413 11.98491,-26.76904 26.76905,-26.76904 14.78413,0 26.76904,11.98491 26.76904,26.76904 z"
         sodipodi:ry="26.769043"
         sodipodi:rx="26.769043"
         sodipodi:cy="282.12088"
         sodipodi:cx="173.24117"
         id="path2816-4-5-7"
         style="fill:#000000;fill-opacity:0.2107143;stroke:none"
         sodipodi:type="arc"
         transform="translate(433.51023,62.444148)" />
    </g>
    <path
       transform="translate(537.58963,63.167624)"
       sodipodi:type="arc"
       style="fill:#000000;fill-opacity:0.2107143;stroke:none"
       id="path2816-6-4"
       sodipodi:cx="173.24117"
       sodipodi:cy="282.12088"
       sodipodi:rx="26.769043"
       sodipodi:ry="26.769043"
       d="m 200.01021,282.12088 c 0,14.78413 -11.98491,26.76904 -26.76904,26.76904 -14.78414,0 -26.76905,-11.98491 -26.76905,-26.76904 0,-14.78413 11.98491,-26.76904 26.76905,-26.76904 14.78413,0 26.76904,11.98491 26.76904,26.76904 z" />
    <path
       transform="translate(537.58963,105.16762)"
       sodipodi:type="arc"
       style="fill:#000000;fill-opacity:0.2107143;stroke:none"
       id="path2816-5-4"
       sodipodi:cx="173.24117"
       sodipodi:cy="282.12088"
       sodipodi:rx="26.769043"
       sodipodi:ry="26.769043"
       d="m 200.01021,282.12088 c 0,14.78413 -11.98491,26.76904 -26.76904,26.76904 -14.78414,0 -26.76905,-11.98491 -26.76905,-26.76904 0,-14.78413 11.98491,-26.76904 26.76905,-26.76904 14.78413,0 26.76904,11.98491 26.76904,26.76904 z" />
    <path
       transform="translate(537.58963,75.167624)"
       sodipodi:type="arc"
       style="fill:#000000;fill-opacity:0.2107143;stroke:none"
       id="path2816-4-3"
       sodipodi:cx="173.24117"
       sodipodi:cy="282.12088"
       sodipodi:rx="26.769043"
       sodipodi:ry="26.769043"
       d="m 200.01021,282.12088 c 0,14.78413 -11.98491,26.76904 -26.76904,26.76904 -14.78414,0 -26.76905,-11.98491 -26.76905,-26.76904 0,-14.78413 11.98491,-26.76904 26.76905,-26.76904 14.78413,0 26.76904,11.98491 26.76904,26.76904 z" />
    <path
       transform="translate(537.58963,32.685404)"
       sodipodi:type="arc"
       style="fill:#000000;fill-opacity:0.2107143;stroke:none"
       id="path2816-4-7-0"
       sodipodi:cx="173.24117"
       sodipodi:cy="282.12088"
       sodipodi:rx="26.769043"
       sodipodi:ry="26.769043"
       d="m 200.01021,282.12088 c 0,14.78413 -11.98491,26.76904 -26.76904,26.76904 -14.78414,0 -26.76905,-11.98491 -26.76905,-26.76904 0,-14.78413 11.98491,-26.76904 26.76905,-26.76904 14.78413,0 26.76904,11.98491 26.76904,26.76904 z" />
    <path
       transform="translate(537.58963,0.68540901)"
       sodipodi:type="arc"
       style="fill:#000000;fill-opacity:0.2107143;stroke:none"
       id="path2816-4-5-78"
       sodipodi:cx="173.24117"
       sodipodi:cy="282.12088"
       sodipodi:rx="26.769043"
       sodipodi:ry="26.769043"
       d="m 200.01021,282.12088 c 0,14.78413 -11.98491,26.76904 -26.76904,26.76904 -14.78414,0 -26.76905,-11.98491 -26.76905,-26.76904 0,-14.78413 11.98491,-26.76904 26.76905,-26.76904 14.78413,0 26.76904,11.98491 26.76904,26.76904 z" />
    <path
       transform="translate(537.58963,38.137174)"
       sodipodi:type="arc"
       style="fill:#000000;fill-opacity:0.2107143;stroke:none"
       id="path2816-4-5-5-6"
       sodipodi:cx="173.24117"
       sodipodi:cy="282.12088"
       sodipodi:rx="26.769043"
       sodipodi:ry="26.769043"
       d="m 200.01021,282.12088 c 0,14.78413 -11.98491,26.76904 -26.76904,26.76904 -14.78414,0 -26.76905,-11.98491 -26.76905,-26.76904 0,-14.78413 11.98491,-26.76904 26.76905,-26.76904 14.78413,0 26.76904,11.98491 26.76904,26.76904 z" />
    <path
       transform="translate(537.58963,64.137174)"
       sodipodi:type="arc"
       style="fill:#000000;fill-opacity:0.2107143;stroke:none"
       id="path2816-4-5-7-8"
       sodipodi:cx="173.24117"
       sodipodi:cy="282.12088"
       sodipodi:rx="26.769043"
       sodipodi:ry="26.769043"
       d="m 200.01021,282.12088 c 0,14.78413 -11.98491,26.76904 -26.76904,26.76904 -14.78414,0 -26.76905,-11.98491 -26.76905,-26.76904 0,-14.78413 11.98491,-26.76904 26.76905,-26.76904 14.78413,0 26.76904,11.98491 26.76904,26.76904 z" />
    <path
       style="fill:none;stroke:#000000;stroke-width:1.5;stroke-linecap:butt;stroke-linejoin:miter;stroke-miterlimit:4;stroke-opacity:1;stroke-dasharray:none;marker-end:url(#Arrow1Lend)"
       d="m 123.74613,452.33157 c 453.55849,0 454.56864,0 454.56864,0"
       id="path3875" />
    <path
       style="fill:none;stroke:#000000;stroke-width:1.10492921;stroke-linecap:butt;stroke-linejoin:miter;stroke-miterlimit:4;stroke-opacity:1;stroke-dasharray:none;marker-end:url(#Arrow1Lend)"
       d="m 127.96831,458.52911 c 0,-238.26043 0,-238.79107 0,-238.79107"
       id="path3875-3"
       inkscape:transform-center-x="-6.9722284"
       inkscape:transform-center-y="-21.756515" />
    <text
       xml:space="preserve"
       style="font-size:18px;font-style:normal;font-weight:normal;fill:#000000;fill-opacity:1;stroke:none;font-family:Bitstream Vera Sans"
       x="316.17776"
       y="475.56506"
       id="text4353"><tspan
         sodipodi:role="line"
         id="tspan4355"
         x="316.17776"
         y="475.56506">Temps</tspan></text>
    <text
       xml:space="preserve"
       style="font-size:18px;font-style:normal;font-weight:normal;fill:#000000;fill-opacity:1;stroke:none;font-family:Bitstream Vera Sans"
       x="-372.46255"
       y="111.76513"
       id="text4353-1"
       transform="matrix(0,-1,1,0,0,0)"><tspan
         sodipodi:role="line"
         id="tspan4355-4"
         x="-372.46255"
         y="111.76513">Position</tspan></text>
    <text
       xml:space="preserve"
       style="font-size:40px;font-style:normal;font-weight:normal;fill:#000000;fill-opacity:1;stroke:none;font-family:Bitstream Vera Sans"
       x="671.75146"
       y="477.04224"
       id="text4382"><tspan
         sodipodi:role="line"
         x="671.75146"
         y="477.04224"
         style="font-size:18px"
         id="tspan4388">Résultat</tspan></text>
  </g>
</svg>
