<?xml version="1.0" encoding="UTF-8" standalone="no"?>
<!-- Created with Inkscape (http://www.inkscape.org/) -->

<svg
   xmlns:ns0="http://www.iki.fi/pav/software/textext/"
   xmlns:dc="http://purl.org/dc/elements/1.1/"
   xmlns:cc="http://creativecommons.org/ns#"
   xmlns:rdf="http://www.w3.org/1999/02/22-rdf-syntax-ns#"
   xmlns:svg="http://www.w3.org/2000/svg"
   xmlns="http://www.w3.org/2000/svg"
   xmlns:xlink="http://www.w3.org/1999/xlink"
   xmlns:sodipodi="http://sodipodi.sourceforge.net/DTD/sodipodi-0.dtd"
   xmlns:inkscape="http://www.inkscape.org/namespaces/inkscape"
   width="605.21173"
   height="297.51978"
   id="svg2"
   version="1.1"
   inkscape:version="0.47 r22583"
   sodipodi:docname="mvtRespi.svg">
  <sodipodi:namedview
     id="base"
     pagecolor="#ffffff"
     bordercolor="#666666"
     borderopacity="1.0"
     inkscape:pageopacity="0.0"
     inkscape:pageshadow="2"
     inkscape:zoom="0.7"
     inkscape:cx="236.70422"
     inkscape:cy="54.151345"
     inkscape:document-units="px"
     inkscape:current-layer="layer1"
     showgrid="false"
     showguides="true"
     inkscape:guide-bbox="true"
     inkscape:window-width="1920"
     inkscape:window-height="1009"
     inkscape:window-x="0"
     inkscape:window-y="25"
     inkscape:window-maximized="1" />
  <defs
     id="defs4">
    <inkscape:perspective
       sodipodi:type="inkscape:persp3d"
       inkscape:vp_x="0 : 526.18109 : 1"
       inkscape:vp_y="0 : 1000 : 0"
       inkscape:vp_z="744.09448 : 526.18109 : 1"
       inkscape:persp3d-origin="372.04724 : 350.78739 : 1"
       id="perspective10" />
    <inkscape:perspective
       id="perspective2824"
       inkscape:persp3d-origin="0.5 : 0.33333333 : 1"
       inkscape:vp_z="1 : 0.5 : 1"
       inkscape:vp_y="0 : 1000 : 0"
       inkscape:vp_x="0 : 0.5 : 1"
       sodipodi:type="inkscape:persp3d" />
    <inkscape:perspective
       id="perspective2838"
       inkscape:persp3d-origin="0.5 : 0.33333333 : 1"
       inkscape:vp_z="1 : 0.5 : 1"
       inkscape:vp_y="0 : 1000 : 0"
       inkscape:vp_x="0 : 0.5 : 1"
       sodipodi:type="inkscape:persp3d" />
    <inkscape:perspective
       id="perspective2852"
       inkscape:persp3d-origin="0.5 : 0.33333333 : 1"
       inkscape:vp_z="1 : 0.5 : 1"
       inkscape:vp_y="0 : 1000 : 0"
       inkscape:vp_x="0 : 0.5 : 1"
       sodipodi:type="inkscape:persp3d" />
    <inkscape:perspective
       id="perspective2866"
       inkscape:persp3d-origin="0.5 : 0.33333333 : 1"
       inkscape:vp_z="1 : 0.5 : 1"
       inkscape:vp_y="0 : 1000 : 0"
       inkscape:vp_x="0 : 0.5 : 1"
       sodipodi:type="inkscape:persp3d" />
    <inkscape:perspective
       id="perspective2880"
       inkscape:persp3d-origin="0.5 : 0.33333333 : 1"
       inkscape:vp_z="1 : 0.5 : 1"
       inkscape:vp_y="0 : 1000 : 0"
       inkscape:vp_x="0 : 0.5 : 1"
       sodipodi:type="inkscape:persp3d" />
  </defs>
  <metadata
     id="metadata7">
    <rdf:RDF>
      <cc:Work
         rdf:about="">
        <dc:format>image/svg+xml</dc:format>
        <dc:type
           rdf:resource="http://purl.org/dc/dcmitype/StillImage" />
        <dc:title></dc:title>
      </cc:Work>
    </rdf:RDF>
  </metadata>
  <g
     inkscape:label="Calque 1"
     inkscape:groupmode="layer"
     id="layer1"
     transform="translate(-126.93116,-669.14789)">
    <image
       y="669.14789"
       x="328.71429"
       id="image2840"
       height="255"
       width="210"
       xlink:href="file:///home/marache/documentation/Th%C3%A8se/rapportBiblio/images/resp3.png" />
    <path
       style="fill:#800000;stroke:#ff0000;stroke-width:3;stroke-linecap:butt;stroke-linejoin:miter;stroke-miterlimit:4;stroke-opacity:1;stroke-dasharray:9, 3;stroke-dashoffset:0"
       d="m 404.30564,781.63656 44.03157,25.95124"
       id="path3690" />
    <image
       y="669.14789"
       x="128.57141"
       id="image2826"
       height="255"
       width="210"
       xlink:href="file:///home/marache/documentation/Th%C3%A8se/rapportBiblio/images/resp0.png" />
    <path
       id="path2914"
       d="m 202.30564,781.63656 44.03157,25.95124"
       style="fill:#800000;stroke:#ff0000;stroke-width:3;stroke-linecap:butt;stroke-linejoin:miter;stroke-miterlimit:4;stroke-opacity:1;stroke-dasharray:9, 3;stroke-dashoffset:0" />
    <image
       y="669.14789"
       x="522.14288"
       id="image2854"
       height="255"
       width="210"
       xlink:href="file:///home/marache/documentation/Th%C3%A8se/rapportBiblio/images/resp6.png" />
    <path
       id="path3692"
       d="m 602.30564,781.63656 44.03157,25.95124"
       style="fill:#800000;stroke:#ff0000;stroke-width:3;stroke-linecap:butt;stroke-linejoin:miter;stroke-miterlimit:4;stroke-opacity:1;stroke-dasharray:9, 3;stroke-dashoffset:0" />
    <path
       style="fill:none;stroke:#000000;stroke-width:0.97365153px;stroke-linecap:butt;stroke-linejoin:miter;stroke-opacity:1"
       d="m 127.41799,781.64791 598.5925,0"
       id="path2904"
       sodipodi:nodetypes="cc" />
    <path
       sodipodi:nodetypes="cc"
       id="path3710"
       d="m 127.41799,887.64791 598.5925,0"
       style="fill:none;stroke:#000000;stroke-width:0.97365153px;stroke-linecap:butt;stroke-linejoin:miter;stroke-opacity:1" />
    <g
       id="g4244"
       transform="matrix(3.6587055,0,0,3.6587055,-618.37135,464.45545)"
       ns0:preamble=""
       ns0:text="$(a)$">
      <defs
         id="defs4246">
        <g
           id="g4248">
          <symbol
             id="textext-94e7af3c-0"
             overflow="visible"
             style="overflow:visible">
            <path
               id="path4251"
               d=""
               style="stroke:none" />
          </symbol>
          <symbol
             id="textext-94e7af3c-1"
             overflow="visible"
             style="overflow:visible">
            <path
               id="path4254"
               d="m 3.296875,2.390625 c 0,-0.03125 0,-0.046875 -0.171875,-0.21875 C 1.890625,0.921875 1.5625,-0.96875 1.5625,-2.5 c 0,-1.734375 0.375,-3.46875 1.609375,-4.703125 0.125,-0.125 0.125,-0.140625 0.125,-0.171875 0,-0.078125 -0.03125,-0.109375 -0.09375,-0.109375 -0.109375,0 -1,0.6875 -1.59375,1.953125 -0.5,1.09375 -0.625,2.203125 -0.625,3.03125 0,0.78125 0.109375,1.984375 0.65625,3.125 C 2.25,1.84375 3.09375,2.5 3.203125,2.5 c 0.0625,0 0.09375,-0.03125 0.09375,-0.109375 z m 0,0"
               style="stroke:none" />
          </symbol>
          <symbol
             id="textext-94e7af3c-2"
             overflow="visible"
             style="overflow:visible">
            <path
               id="path4257"
               d="m 2.875,-2.5 c 0,-0.765625 -0.109375,-1.96875 -0.65625,-3.109375 -0.59375,-1.21875 -1.453125,-1.875 -1.546875,-1.875 -0.0625,0 -0.109375,0.046875 -0.109375,0.109375 0,0.03125 0,0.046875 0.1875,0.234375 0.984375,0.984375 1.546875,2.5625 1.546875,4.640625 0,1.71875 -0.359375,3.46875 -1.59375,4.71875 C 0.5625,2.34375 0.5625,2.359375 0.5625,2.390625 0.5625,2.453125 0.609375,2.5 0.671875,2.5 0.765625,2.5 1.671875,1.8125 2.25,0.546875 2.765625,-0.546875 2.875,-1.65625 2.875,-2.5 z m 0,0"
               style="stroke:none" />
          </symbol>
          <symbol
             id="textext-94e7af3c-3"
             overflow="visible"
             style="overflow:visible">
            <path
               id="path4260"
               d=""
               style="stroke:none" />
          </symbol>
          <symbol
             id="textext-94e7af3c-4"
             overflow="visible"
             style="overflow:visible">
            <path
               id="path4263"
               d="M 3.71875,-3.765625 C 3.53125,-4.140625 3.25,-4.40625 2.796875,-4.40625 c -1.15625,0 -2.390625,1.46875 -2.390625,2.921875 0,0.9375 0.546875,1.59375 1.3125,1.59375 0.203125,0 0.703125,-0.046875 1.296875,-0.75 0.078125,0.421875 0.4375,0.75 0.90625,0.75 0.359375,0 0.578125,-0.234375 0.75,-0.546875 0.15625,-0.359375 0.296875,-0.96875 0.296875,-0.984375 0,-0.109375 -0.09375,-0.109375 -0.125,-0.109375 -0.09375,0 -0.109375,0.046875 -0.140625,0.1875 -0.171875,0.640625 -0.34375,1.234375 -0.75,1.234375 -0.28125,0 -0.296875,-0.265625 -0.296875,-0.453125 0,-0.21875 0.015625,-0.3125 0.125,-0.75 C 3.890625,-1.71875 3.90625,-1.828125 4,-2.203125 4.171875,-2.84375 4.203125,-3.03125 4.359375,-3.59375 c 0.0625,-0.28125 0.0625,-0.296875 0.0625,-0.34375 0,-0.171875 -0.109375,-0.265625 -0.28125,-0.265625 -0.25,0 -0.390625,0.21875 -0.421875,0.4375 z M 3.078125,-1.1875 C 3.015625,-1 3.015625,-0.984375 2.875,-0.8125 2.4375,-0.265625 2.03125,-0.109375 1.75,-0.109375 c -0.5,0 -0.640625,-0.546875 -0.640625,-0.9375 0,-0.5 0.3125,-1.71875 0.546875,-2.1875 0.3125,-0.578125 0.75,-0.953125 1.15625,-0.953125 0.640625,0 0.78125,0.8125 0.78125,0.875 0,0.0625 -0.015625,0.125 -0.03125,0.171875 L 3.078125,-1.1875 z m 0,0"
               style="stroke:none" />
          </symbol>
        </g>
      </defs>
      <g
         id="textext-94e7af3c-5">
        <g
           id="g4266"
           style="fill:#000000;fill-opacity:1">
          <use
             id="use4268"
             y="134.765"
             x="223.43201"
             xlink:href="#textext-94e7af3c-1"
             width="605.21173"
             height="255" />
        </g>
        <g
           id="g4270"
           style="fill:#000000;fill-opacity:1">
          <use
             id="use4272"
             y="134.765"
             x="227.306"
             xlink:href="#textext-94e7af3c-4"
             width="605.21173"
             height="255" />
        </g>
        <g
           id="g4274"
           style="fill:#000000;fill-opacity:1">
          <use
             id="use4276"
             y="134.765"
             x="232.573"
             xlink:href="#textext-94e7af3c-2"
             width="605.21173"
             height="255" />
        </g>
      </g>
    </g>
    <g
       ns0:text="$(b)$"
       ns0:preamble=""
       transform="matrix(3.6587055,0,0,3.6587055,-410.37135,464.45545)"
       id="g4408">
      <defs
         id="defs4410">
        <g
           id="g4412">
          <symbol
             overflow="visible"
             id="textext-72cd67a2-0"
             style="overflow:visible">
            <path
               style="stroke:none"
               d=""
               id="path4415" />
          </symbol>
          <symbol
             overflow="visible"
             id="textext-72cd67a2-1"
             style="overflow:visible">
            <path
               style="stroke:none"
               d="m 3.296875,2.390625 c 0,-0.03125 0,-0.046875 -0.171875,-0.21875 C 1.890625,0.921875 1.5625,-0.96875 1.5625,-2.5 c 0,-1.734375 0.375,-3.46875 1.609375,-4.703125 0.125,-0.125 0.125,-0.140625 0.125,-0.171875 0,-0.078125 -0.03125,-0.109375 -0.09375,-0.109375 -0.109375,0 -1,0.6875 -1.59375,1.953125 -0.5,1.09375 -0.625,2.203125 -0.625,3.03125 0,0.78125 0.109375,1.984375 0.65625,3.125 C 2.25,1.84375 3.09375,2.5 3.203125,2.5 c 0.0625,0 0.09375,-0.03125 0.09375,-0.109375 z m 0,0"
               id="path4418" />
          </symbol>
          <symbol
             overflow="visible"
             id="textext-72cd67a2-2"
             style="overflow:visible">
            <path
               style="stroke:none"
               d="m 2.875,-2.5 c 0,-0.765625 -0.109375,-1.96875 -0.65625,-3.109375 -0.59375,-1.21875 -1.453125,-1.875 -1.546875,-1.875 -0.0625,0 -0.109375,0.046875 -0.109375,0.109375 0,0.03125 0,0.046875 0.1875,0.234375 0.984375,0.984375 1.546875,2.5625 1.546875,4.640625 0,1.71875 -0.359375,3.46875 -1.59375,4.71875 C 0.5625,2.34375 0.5625,2.359375 0.5625,2.390625 0.5625,2.453125 0.609375,2.5 0.671875,2.5 0.765625,2.5 1.671875,1.8125 2.25,0.546875 2.765625,-0.546875 2.875,-1.65625 2.875,-2.5 z m 0,0"
               id="path4421" />
          </symbol>
          <symbol
             overflow="visible"
             id="textext-72cd67a2-3"
             style="overflow:visible">
            <path
               style="stroke:none"
               d=""
               id="path4424" />
          </symbol>
          <symbol
             overflow="visible"
             id="textext-72cd67a2-4"
             style="overflow:visible">
            <path
               style="stroke:none"
               d="m 2.375,-6.8125 c 0,0 0,-0.109375 -0.125,-0.109375 -0.21875,0 -0.953125,0.078125 -1.21875,0.109375 -0.078125,0 -0.1875,0.015625 -0.1875,0.1875 0,0.125 0.09375,0.125 0.25,0.125 0.46875,0 0.484375,0.0625 0.484375,0.171875 0,0.0625 -0.078125,0.40625 -0.125,0.609375 l -0.828125,3.25 c -0.109375,0.5 -0.15625,0.671875 -0.15625,1.015625 0,0.9375 0.53125,1.5625 1.265625,1.5625 1.171875,0 2.40625,-1.484375 2.40625,-2.921875 0,-0.90625 -0.53125,-1.59375 -1.328125,-1.59375 -0.453125,0 -0.875,0.296875 -1.171875,0.59375 l 0.734375,-3 z M 1.453125,-3.046875 C 1.5,-3.265625 1.5,-3.28125 1.59375,-3.390625 2.078125,-4.03125 2.53125,-4.1875 2.796875,-4.1875 c 0.359375,0 0.625,0.296875 0.625,0.9375 0,0.59375 -0.328125,1.734375 -0.515625,2.109375 -0.328125,0.671875 -0.78125,1.03125 -1.171875,1.03125 -0.34375,0 -0.671875,-0.265625 -0.671875,-1 0,-0.203125 0,-0.390625 0.15625,-1.015625 l 0.234375,-0.921875 z m 0,0"
               id="path4427" />
          </symbol>
        </g>
      </defs>
      <g
         id="textext-72cd67a2-5">
        <g
           style="fill:#000000;fill-opacity:1"
           id="g4430">
          <use
             xlink:href="#textext-72cd67a2-1"
             x="223.43201"
             y="134.765"
             id="use4432"
             width="605.21173"
             height="255" />
        </g>
        <g
           style="fill:#000000;fill-opacity:1"
           id="g4434">
          <use
             xlink:href="#textext-72cd67a2-4"
             x="227.306"
             y="134.765"
             id="use4436"
             width="605.21173"
             height="255" />
        </g>
        <g
           style="fill:#000000;fill-opacity:1"
           id="g4438">
          <use
             xlink:href="#textext-72cd67a2-2"
             x="231.582"
             y="134.765"
             id="use4440"
             width="605.21173"
             height="255" />
        </g>
      </g>
    </g>
    <g
       id="g4580"
       transform="matrix(3.6587055,0,0,3.6587055,-224.37135,464.45545)"
       ns0:preamble=""
       ns0:text="$(c)$">
      <defs
         id="defs4582">
        <g
           id="g4584">
          <symbol
             id="textext-37f47c4d-0"
             overflow="visible"
             style="overflow:visible">
            <path
               id="path4587"
               d=""
               style="stroke:none" />
          </symbol>
          <symbol
             id="textext-37f47c4d-1"
             overflow="visible"
             style="overflow:visible">
            <path
               id="path4590"
               d="m 3.296875,2.390625 c 0,-0.03125 0,-0.046875 -0.171875,-0.21875 C 1.890625,0.921875 1.5625,-0.96875 1.5625,-2.5 c 0,-1.734375 0.375,-3.46875 1.609375,-4.703125 0.125,-0.125 0.125,-0.140625 0.125,-0.171875 0,-0.078125 -0.03125,-0.109375 -0.09375,-0.109375 -0.109375,0 -1,0.6875 -1.59375,1.953125 -0.5,1.09375 -0.625,2.203125 -0.625,3.03125 0,0.78125 0.109375,1.984375 0.65625,3.125 C 2.25,1.84375 3.09375,2.5 3.203125,2.5 c 0.0625,0 0.09375,-0.03125 0.09375,-0.109375 z m 0,0"
               style="stroke:none" />
          </symbol>
          <symbol
             id="textext-37f47c4d-2"
             overflow="visible"
             style="overflow:visible">
            <path
               id="path4593"
               d="m 2.875,-2.5 c 0,-0.765625 -0.109375,-1.96875 -0.65625,-3.109375 -0.59375,-1.21875 -1.453125,-1.875 -1.546875,-1.875 -0.0625,0 -0.109375,0.046875 -0.109375,0.109375 0,0.03125 0,0.046875 0.1875,0.234375 0.984375,0.984375 1.546875,2.5625 1.546875,4.640625 0,1.71875 -0.359375,3.46875 -1.59375,4.71875 C 0.5625,2.34375 0.5625,2.359375 0.5625,2.390625 0.5625,2.453125 0.609375,2.5 0.671875,2.5 0.765625,2.5 1.671875,1.8125 2.25,0.546875 2.765625,-0.546875 2.875,-1.65625 2.875,-2.5 z m 0,0"
               style="stroke:none" />
          </symbol>
          <symbol
             id="textext-37f47c4d-3"
             overflow="visible"
             style="overflow:visible">
            <path
               id="path4596"
               d=""
               style="stroke:none" />
          </symbol>
          <symbol
             id="textext-37f47c4d-4"
             overflow="visible"
             style="overflow:visible">
            <path
               id="path4599"
               d="m 3.953125,-3.78125 c -0.171875,0 -0.296875,0 -0.4375,0.125 -0.171875,0.15625 -0.1875,0.328125 -0.1875,0.390625 0,0.25 0.1875,0.359375 0.375,0.359375 0.28125,0 0.546875,-0.25 0.546875,-0.640625 0,-0.484375 -0.46875,-0.859375 -1.171875,-0.859375 -1.34375,0 -2.671875,1.421875 -2.671875,2.828125 0,0.90625 0.578125,1.6875 1.625,1.6875 1.421875,0 2.25,-1.0625 2.25,-1.171875 0,-0.0625 -0.046875,-0.140625 -0.109375,-0.140625 -0.0625,0 -0.078125,0.03125 -0.140625,0.109375 -0.78125,0.984375 -1.875,0.984375 -1.984375,0.984375 -0.625,0 -0.90625,-0.484375 -0.90625,-1.09375 0,-0.40625 0.203125,-1.375 0.546875,-1.984375 0.3125,-0.578125 0.859375,-1 1.40625,-1 0.328125,0 0.71875,0.125 0.859375,0.40625 z m 0,0"
               style="stroke:none" />
          </symbol>
        </g>
      </defs>
      <g
         id="textext-37f47c4d-5">
        <g
           id="g4602"
           style="fill:#000000;fill-opacity:1">
          <use
             id="use4604"
             y="134.765"
             x="223.43201"
             xlink:href="#textext-37f47c4d-1"
             width="605.21173"
             height="255" />
        </g>
        <g
           id="g4606"
           style="fill:#000000;fill-opacity:1">
          <use
             id="use4608"
             y="134.765"
             x="227.306"
             xlink:href="#textext-37f47c4d-4"
             width="605.21173"
             height="255" />
        </g>
        <g
           id="g4610"
           style="fill:#000000;fill-opacity:1">
          <use
             id="use4612"
             y="134.765"
             x="231.618"
             xlink:href="#textext-37f47c4d-2"
             width="605.21173"
             height="255" />
        </g>
      </g>
    </g>
  </g>
</svg>
