<?xml version="1.0" encoding="UTF-8" standalone="no"?>
<!-- Created with Inkscape (http://www.inkscape.org/) -->

<svg
   xmlns:ns0="http://www.iki.fi/pav/software/textext/"
   xmlns:dc="http://purl.org/dc/elements/1.1/"
   xmlns:cc="http://creativecommons.org/ns#"
   xmlns:rdf="http://www.w3.org/1999/02/22-rdf-syntax-ns#"
   xmlns:svg="http://www.w3.org/2000/svg"
   xmlns="http://www.w3.org/2000/svg"
   xmlns:xlink="http://www.w3.org/1999/xlink"
   xmlns:sodipodi="http://sodipodi.sourceforge.net/DTD/sodipodi-0.dtd"
   xmlns:inkscape="http://www.inkscape.org/namespaces/inkscape"
   id="svg2"
   version="1.1"
   inkscape:version="0.47 r22583"
   width="1303"
   height="486"
   sodipodi:docname="pareto_param_1000.svg">
  <metadata
     id="metadata8">
    <rdf:RDF>
      <cc:Work
         rdf:about="">
        <dc:format>image/svg+xml</dc:format>
        <dc:type
           rdf:resource="http://purl.org/dc/dcmitype/StillImage" />
        <dc:title></dc:title>
      </cc:Work>
    </rdf:RDF>
  </metadata>
  <defs
     id="defs6">
    <inkscape:perspective
       sodipodi:type="inkscape:persp3d"
       inkscape:vp_x="0 : 0.5 : 1"
       inkscape:vp_y="0 : 1000 : 0"
       inkscape:vp_z="1 : 0.5 : 1"
       inkscape:persp3d-origin="0.5 : 0.33333333 : 1"
       id="perspective10" />
    <inkscape:perspective
       id="perspective2900"
       inkscape:persp3d-origin="0.5 : 0.33333333 : 1"
       inkscape:vp_z="1 : 0.5 : 1"
       inkscape:vp_y="0 : 1000 : 0"
       inkscape:vp_x="0 : 0.5 : 1"
       sodipodi:type="inkscape:persp3d" />
  </defs>
  <sodipodi:namedview
     pagecolor="#ffffff"
     bordercolor="#666666"
     borderopacity="1"
     objecttolerance="10"
     gridtolerance="10"
     guidetolerance="10"
     inkscape:pageopacity="0"
     inkscape:pageshadow="2"
     inkscape:window-width="1920"
     inkscape:window-height="1009"
     id="namedview4"
     showgrid="false"
     inkscape:zoom="0.84267076"
     inkscape:cx="727.34514"
     inkscape:cy="175.07879"
     inkscape:window-x="0"
     inkscape:window-y="25"
     inkscape:window-maximized="1"
     inkscape:current-layer="svg2" />
  <image
     xlink:href="file:///home/marache/documentation/Th%C3%A8se/rapportBiblio/images/pareto_param_1000_data.png"
     width="1303"
     height="486"
     id="image12"
     x="0"
     y="0" />
  <g
     transform="matrix(2.7985611,0,0,2.7985611,-329.18137,-24.908666)"
     ns0:text="$j=1$"
     ns0:preamble=""
     id="g2845">
    <defs
       id="defs2847">
      <g
         id="g2849">
        <symbol
           style="overflow:visible"
           overflow="visible"
           id="textext-c705cc9a-0">
          <path
             style="stroke:none"
             d=""
             id="path2852" />
        </symbol>
        <symbol
           style="overflow:visible"
           overflow="visible"
           id="textext-c705cc9a-1">
          <path
             style="stroke:none"
             d="m 3.953125,-6.234375 c 0,-0.1875 -0.140625,-0.359375 -0.375,-0.359375 -0.234375,0 -0.53125,0.234375 -0.53125,0.53125 0,0.203125 0.140625,0.359375 0.375,0.359375 0.265625,0 0.53125,-0.265625 0.53125,-0.53125 z m -2,6.734375 c -0.1875,0.75 -0.671875,1.328125 -1.21875,1.328125 -0.0625,0 -0.21875,0 -0.390625,-0.09375 0.296875,-0.0625 0.4375,-0.328125 0.4375,-0.53125 0,-0.15625 -0.109375,-0.34375 -0.375,-0.34375 -0.25,0 -0.53125,0.203125 -0.53125,0.5625 0,0.40625 0.390625,0.625 0.875,0.625 0.703125,0 1.625,-0.53125 1.875,-1.515625 L 3.53125,-3.125 c 0.0625,-0.1875 0.0625,-0.328125 0.0625,-0.359375 0,-0.578125 -0.421875,-0.921875 -0.921875,-0.921875 -1.015625,0 -1.578125,1.453125 -1.578125,1.53125 0,0.109375 0.09375,0.109375 0.109375,0.109375 0.09375,0 0.109375,-0.015625 0.1875,-0.203125 0.25,-0.609375 0.703125,-1.21875 1.25,-1.21875 0.140625,0 0.3125,0.046875 0.3125,0.453125 0,0.234375 -0.015625,0.34375 -0.0625,0.515625 L 1.953125,0.5 z m 0,0"
             id="path2855" />
        </symbol>
        <symbol
           style="overflow:visible"
           overflow="visible"
           id="textext-c705cc9a-2">
          <path
             style="stroke:none"
             d=""
             id="path2858" />
        </symbol>
        <symbol
           style="overflow:visible"
           overflow="visible"
           id="textext-c705cc9a-3">
          <path
             style="stroke:none"
             d="m 6.84375,-3.265625 c 0.15625,0 0.34375,0 0.34375,-0.1875 C 7.1875,-3.65625 7,-3.65625 6.859375,-3.65625 l -5.96875,0 c -0.140625,0 -0.328125,0 -0.328125,0.203125 0,0.1875 0.1875,0.1875 0.328125,0.1875 l 5.953125,0 z m 0.015625,1.9375 c 0.140625,0 0.328125,0 0.328125,-0.203125 0,-0.1875 -0.1875,-0.1875 -0.34375,-0.1875 l -5.953125,0 c -0.140625,0 -0.328125,0 -0.328125,0.1875 0,0.203125 0.1875,0.203125 0.328125,0.203125 l 5.96875,0 z m 0,0"
             id="path2861" />
        </symbol>
        <symbol
           style="overflow:visible"
           overflow="visible"
           id="textext-c705cc9a-4">
          <path
             style="stroke:none"
             d="m 2.9375,-6.375 c 0,-0.25 0,-0.265625 -0.234375,-0.265625 C 2.078125,-6 1.203125,-6 0.890625,-6 l 0,0.3125 c 0.203125,0 0.78125,0 1.296875,-0.265625 l 0,5.171875 c 0,0.359375 -0.03125,0.46875 -0.921875,0.46875 l -0.3125,0 0,0.3125 c 0.34375,-0.03125 1.203125,-0.03125 1.609375,-0.03125 0.390625,0 1.265625,0 1.609375,0.03125 l 0,-0.3125 -0.3125,0 c -0.90625,0 -0.921875,-0.109375 -0.921875,-0.46875 l 0,-5.59375 z m 0,0"
             id="path2864" />
        </symbol>
      </g>
    </defs>
    <g
       id="textext-c705cc9a-5">
      <g
         style="fill:#000000;fill-opacity:1"
         id="g2867">
        <use
           height="486"
           width="1303"
           xlink:href="#textext-c705cc9a-1"
           x="223.43201"
           y="134.765"
           id="use2869" />
      </g>
      <g
         style="fill:#000000;fill-opacity:1"
         id="g2871">
        <use
           height="486"
           width="1303"
           xlink:href="#textext-c705cc9a-3"
           x="230.87199"
           y="134.765"
           id="use2873" />
      </g>
      <g
         style="fill:#000000;fill-opacity:1"
         id="g2875">
        <use
           height="486"
           width="1303"
           xlink:href="#textext-c705cc9a-4"
           x="241.39052"
           y="134.765"
           id="use2877" />
      </g>
    </g>
  </g>
  <g
     id="g2969"
     transform="matrix(2.7985611,0,0,2.7985611,257.69363,-81.158666)"
     ns0:preamble=""
     ns0:text="$j=2$">
    <defs
       id="defs2971">
      <g
         id="g2973">
        <symbol
           id="textext-d814ba44-0"
           overflow="visible"
           style="overflow:visible">
          <path
             id="path2976"
             d=""
             style="stroke:none" />
        </symbol>
        <symbol
           id="textext-d814ba44-1"
           overflow="visible"
           style="overflow:visible">
          <path
             id="path2979"
             d="m 3.953125,-6.234375 c 0,-0.1875 -0.140625,-0.359375 -0.375,-0.359375 -0.234375,0 -0.53125,0.234375 -0.53125,0.53125 0,0.203125 0.140625,0.359375 0.375,0.359375 0.265625,0 0.53125,-0.265625 0.53125,-0.53125 z m -2,6.734375 c -0.1875,0.75 -0.671875,1.328125 -1.21875,1.328125 -0.0625,0 -0.21875,0 -0.390625,-0.09375 0.296875,-0.0625 0.4375,-0.328125 0.4375,-0.53125 0,-0.15625 -0.109375,-0.34375 -0.375,-0.34375 -0.25,0 -0.53125,0.203125 -0.53125,0.5625 0,0.40625 0.390625,0.625 0.875,0.625 0.703125,0 1.625,-0.53125 1.875,-1.515625 L 3.53125,-3.125 c 0.0625,-0.1875 0.0625,-0.328125 0.0625,-0.359375 0,-0.578125 -0.421875,-0.921875 -0.921875,-0.921875 -1.015625,0 -1.578125,1.453125 -1.578125,1.53125 0,0.109375 0.09375,0.109375 0.109375,0.109375 0.09375,0 0.109375,-0.015625 0.1875,-0.203125 0.25,-0.609375 0.703125,-1.21875 1.25,-1.21875 0.140625,0 0.3125,0.046875 0.3125,0.453125 0,0.234375 -0.015625,0.34375 -0.0625,0.515625 L 1.953125,0.5 z m 0,0"
             style="stroke:none" />
        </symbol>
        <symbol
           id="textext-d814ba44-2"
           overflow="visible"
           style="overflow:visible">
          <path
             id="path2982"
             d=""
             style="stroke:none" />
        </symbol>
        <symbol
           id="textext-d814ba44-3"
           overflow="visible"
           style="overflow:visible">
          <path
             id="path2985"
             d="m 6.84375,-3.265625 c 0.15625,0 0.34375,0 0.34375,-0.1875 C 7.1875,-3.65625 7,-3.65625 6.859375,-3.65625 l -5.96875,0 c -0.140625,0 -0.328125,0 -0.328125,0.203125 0,0.1875 0.1875,0.1875 0.328125,0.1875 l 5.953125,0 z m 0.015625,1.9375 c 0.140625,0 0.328125,0 0.328125,-0.203125 0,-0.1875 -0.1875,-0.1875 -0.34375,-0.1875 l -5.953125,0 c -0.140625,0 -0.328125,0 -0.328125,0.1875 0,0.203125 0.1875,0.203125 0.328125,0.203125 l 5.96875,0 z m 0,0"
             style="stroke:none" />
        </symbol>
        <symbol
           id="textext-d814ba44-4"
           overflow="visible"
           style="overflow:visible">
          <path
             id="path2988"
             d="m 4.46875,-1.734375 -0.234375,0 C 4.171875,-1.4375 4.109375,-1 4,-0.84375 3.9375,-0.765625 3.28125,-0.765625 3.0625,-0.765625 l -1.796875,0 1.0625,-1.03125 c 1.546875,-1.375 2.140625,-1.90625 2.140625,-2.90625 0,-1.140625 -0.890625,-1.9375 -2.109375,-1.9375 -1.125,0 -1.859375,0.921875 -1.859375,1.8125 0,0.546875 0.5,0.546875 0.53125,0.546875 0.171875,0 0.515625,-0.109375 0.515625,-0.53125 0,-0.25 -0.1875,-0.515625 -0.53125,-0.515625 -0.078125,0 -0.09375,0 -0.125,0.015625 0.21875,-0.65625 0.765625,-1.015625 1.34375,-1.015625 0.90625,0 1.328125,0.8125 1.328125,1.625 C 3.5625,-3.90625 3.078125,-3.125 2.515625,-2.5 l -1.90625,2.125 C 0.5,-0.265625 0.5,-0.234375 0.5,0 L 4.203125,0 4.46875,-1.734375 z m 0,0"
             style="stroke:none" />
        </symbol>
      </g>
    </defs>
    <g
       id="textext-d814ba44-5">
      <g
         id="g2991"
         style="fill:#000000;fill-opacity:1">
        <use
           id="use2993"
           y="134.765"
           x="223.43201"
           xlink:href="#textext-d814ba44-1"
           width="1303"
           height="486" />
      </g>
      <g
         id="g2995"
         style="fill:#000000;fill-opacity:1">
        <use
           id="use2997"
           y="134.765"
           x="230.87199"
           xlink:href="#textext-d814ba44-3"
           width="1303"
           height="486" />
      </g>
      <g
         id="g2999"
         style="fill:#000000;fill-opacity:1">
        <use
           id="use3001"
           y="134.765"
           x="241.39052"
           xlink:href="#textext-d814ba44-4"
           width="1303"
           height="486" />
      </g>
    </g>
  </g>
  <g
     ns0:text="$j=3$"
     ns0:preamble=""
     transform="matrix(2.7985611,0,0,2.7985611,464.89304,-184.79844)"
     id="g3133">
    <defs
       id="defs3135">
      <g
         id="g3137">
        <symbol
           style="overflow:visible"
           overflow="visible"
           id="textext-3e4af3f7-0">
          <path
             style="stroke:none"
             d=""
             id="path3140" />
        </symbol>
        <symbol
           style="overflow:visible"
           overflow="visible"
           id="textext-3e4af3f7-1">
          <path
             style="stroke:none"
             d="m 3.953125,-6.234375 c 0,-0.1875 -0.140625,-0.359375 -0.375,-0.359375 -0.234375,0 -0.53125,0.234375 -0.53125,0.53125 0,0.203125 0.140625,0.359375 0.375,0.359375 0.265625,0 0.53125,-0.265625 0.53125,-0.53125 z m -2,6.734375 c -0.1875,0.75 -0.671875,1.328125 -1.21875,1.328125 -0.0625,0 -0.21875,0 -0.390625,-0.09375 0.296875,-0.0625 0.4375,-0.328125 0.4375,-0.53125 0,-0.15625 -0.109375,-0.34375 -0.375,-0.34375 -0.25,0 -0.53125,0.203125 -0.53125,0.5625 0,0.40625 0.390625,0.625 0.875,0.625 0.703125,0 1.625,-0.53125 1.875,-1.515625 L 3.53125,-3.125 c 0.0625,-0.1875 0.0625,-0.328125 0.0625,-0.359375 0,-0.578125 -0.421875,-0.921875 -0.921875,-0.921875 -1.015625,0 -1.578125,1.453125 -1.578125,1.53125 0,0.109375 0.09375,0.109375 0.109375,0.109375 0.09375,0 0.109375,-0.015625 0.1875,-0.203125 0.25,-0.609375 0.703125,-1.21875 1.25,-1.21875 0.140625,0 0.3125,0.046875 0.3125,0.453125 0,0.234375 -0.015625,0.34375 -0.0625,0.515625 L 1.953125,0.5 z m 0,0"
             id="path3143" />
        </symbol>
        <symbol
           style="overflow:visible"
           overflow="visible"
           id="textext-3e4af3f7-2">
          <path
             style="stroke:none"
             d=""
             id="path3146" />
        </symbol>
        <symbol
           style="overflow:visible"
           overflow="visible"
           id="textext-3e4af3f7-3">
          <path
             style="stroke:none"
             d="m 6.84375,-3.265625 c 0.15625,0 0.34375,0 0.34375,-0.1875 C 7.1875,-3.65625 7,-3.65625 6.859375,-3.65625 l -5.96875,0 c -0.140625,0 -0.328125,0 -0.328125,0.203125 0,0.1875 0.1875,0.1875 0.328125,0.1875 l 5.953125,0 z m 0.015625,1.9375 c 0.140625,0 0.328125,0 0.328125,-0.203125 0,-0.1875 -0.1875,-0.1875 -0.34375,-0.1875 l -5.953125,0 c -0.140625,0 -0.328125,0 -0.328125,0.1875 0,0.203125 0.1875,0.203125 0.328125,0.203125 l 5.96875,0 z m 0,0"
             id="path3149" />
        </symbol>
        <symbol
           style="overflow:visible"
           overflow="visible"
           id="textext-3e4af3f7-4">
          <path
             style="stroke:none"
             d="m 2.890625,-3.515625 c 0.8125,-0.265625 1.390625,-0.953125 1.390625,-1.75 0,-0.8125 -0.875,-1.375 -1.828125,-1.375 -1,0 -1.765625,0.59375 -1.765625,1.359375 0,0.328125 0.21875,0.515625 0.515625,0.515625 0.296875,0 0.5,-0.21875 0.5,-0.515625 0,-0.484375 -0.46875,-0.484375 -0.609375,-0.484375 0.296875,-0.5 0.953125,-0.625 1.3125,-0.625 0.421875,0 0.96875,0.21875 0.96875,1.109375 0,0.125 -0.03125,0.703125 -0.28125,1.140625 C 2.796875,-3.65625 2.453125,-3.625 2.203125,-3.625 2.125,-3.609375 1.890625,-3.59375 1.8125,-3.59375 c -0.078125,0.015625 -0.140625,0.03125 -0.140625,0.125 0,0.109375 0.0625,0.109375 0.234375,0.109375 l 0.4375,0 c 0.8125,0 1.1875,0.671875 1.1875,1.65625 0,1.359375 -0.6875,1.640625 -1.125,1.640625 -0.4375,0 -1.1875,-0.171875 -1.53125,-0.75 0.34375,0.046875 0.65625,-0.171875 0.65625,-0.546875 0,-0.359375 -0.265625,-0.5625 -0.546875,-0.5625 -0.25,0 -0.5625,0.140625 -0.5625,0.578125 0,0.90625 0.921875,1.5625 2.015625,1.5625 1.21875,0 2.125,-0.90625 2.125,-1.921875 0,-0.8125 -0.640625,-1.59375 -1.671875,-1.8125 z m 0,0"
             id="path3152" />
        </symbol>
      </g>
    </defs>
    <g
       id="textext-3e4af3f7-5">
      <g
         style="fill:#000000;fill-opacity:1"
         id="g3155">
        <use
           height="486"
           width="1303"
           xlink:href="#textext-3e4af3f7-1"
           x="223.43201"
           y="134.765"
           id="use3157" />
      </g>
      <g
         style="fill:#000000;fill-opacity:1"
         id="g3159">
        <use
           height="486"
           width="1303"
           xlink:href="#textext-3e4af3f7-3"
           x="230.87199"
           y="134.765"
           id="use3161" />
      </g>
      <g
         style="fill:#000000;fill-opacity:1"
         id="g3163">
        <use
           height="486"
           width="1303"
           xlink:href="#textext-3e4af3f7-4"
           x="241.39052"
           y="134.765"
           id="use3165" />
      </g>
    </g>
  </g>
  <g
     id="g3337"
     transform="matrix(2.7985611,0,0,2.7985611,593.44427,-291.39148)"
     ns0:preamble=""
     ns0:text="$j=4$">
    <defs
       id="defs3339">
      <g
         id="g3341">
        <symbol
           id="textext-8cd6f27f-0"
           overflow="visible"
           style="overflow:visible">
          <path
             id="path3344"
             d=""
             style="stroke:none" />
        </symbol>
        <symbol
           id="textext-8cd6f27f-1"
           overflow="visible"
           style="overflow:visible">
          <path
             id="path3347"
             d="m 3.953125,-6.234375 c 0,-0.1875 -0.140625,-0.359375 -0.375,-0.359375 -0.234375,0 -0.53125,0.234375 -0.53125,0.53125 0,0.203125 0.140625,0.359375 0.375,0.359375 0.265625,0 0.53125,-0.265625 0.53125,-0.53125 z m -2,6.734375 c -0.1875,0.75 -0.671875,1.328125 -1.21875,1.328125 -0.0625,0 -0.21875,0 -0.390625,-0.09375 0.296875,-0.0625 0.4375,-0.328125 0.4375,-0.53125 0,-0.15625 -0.109375,-0.34375 -0.375,-0.34375 -0.25,0 -0.53125,0.203125 -0.53125,0.5625 0,0.40625 0.390625,0.625 0.875,0.625 0.703125,0 1.625,-0.53125 1.875,-1.515625 L 3.53125,-3.125 c 0.0625,-0.1875 0.0625,-0.328125 0.0625,-0.359375 0,-0.578125 -0.421875,-0.921875 -0.921875,-0.921875 -1.015625,0 -1.578125,1.453125 -1.578125,1.53125 0,0.109375 0.09375,0.109375 0.109375,0.109375 0.09375,0 0.109375,-0.015625 0.1875,-0.203125 0.25,-0.609375 0.703125,-1.21875 1.25,-1.21875 0.140625,0 0.3125,0.046875 0.3125,0.453125 0,0.234375 -0.015625,0.34375 -0.0625,0.515625 L 1.953125,0.5 z m 0,0"
             style="stroke:none" />
        </symbol>
        <symbol
           id="textext-8cd6f27f-2"
           overflow="visible"
           style="overflow:visible">
          <path
             id="path3350"
             d=""
             style="stroke:none" />
        </symbol>
        <symbol
           id="textext-8cd6f27f-3"
           overflow="visible"
           style="overflow:visible">
          <path
             id="path3353"
             d="m 6.84375,-3.265625 c 0.15625,0 0.34375,0 0.34375,-0.1875 C 7.1875,-3.65625 7,-3.65625 6.859375,-3.65625 l -5.96875,0 c -0.140625,0 -0.328125,0 -0.328125,0.203125 0,0.1875 0.1875,0.1875 0.328125,0.1875 l 5.953125,0 z m 0.015625,1.9375 c 0.140625,0 0.328125,0 0.328125,-0.203125 0,-0.1875 -0.1875,-0.1875 -0.34375,-0.1875 l -5.953125,0 c -0.140625,0 -0.328125,0 -0.328125,0.1875 0,0.203125 0.1875,0.203125 0.328125,0.203125 l 5.96875,0 z m 0,0"
             style="stroke:none" />
        </symbol>
        <symbol
           id="textext-8cd6f27f-4"
           overflow="visible"
           style="overflow:visible">
          <path
             id="path3356"
             d="m 0.28125,-1.640625 2.65625,0 0,0.859375 c 0,0.359375 -0.03125,0.46875 -0.765625,0.46875 l -0.203125,0 0,0.3125 C 2.375,-0.03125 2.890625,-0.03125 3.3125,-0.03125 c 0.421875,0 0.9375,0 1.359375,0.03125 l 0,-0.3125 -0.21875,0 c -0.734375,0 -0.75,-0.109375 -0.75,-0.46875 l 0,-0.859375 0.984375,0 0,-0.3125 -0.984375,0 0,-4.53125 c 0,-0.203125 0,-0.265625 -0.171875,-0.265625 -0.078125,0 -0.109375,0 -0.1875,0.125 l -3.0625,4.671875 0,0.3125 z m 2.703125,-0.3125 -2.421875,0 2.421875,-3.71875 0,3.71875 z m 0,0"
             style="stroke:none" />
        </symbol>
      </g>
    </defs>
    <g
       id="textext-8cd6f27f-5">
      <g
         id="g3359"
         style="fill:#000000;fill-opacity:1">
        <use
           id="use3361"
           y="134.765"
           x="223.43201"
           xlink:href="#textext-8cd6f27f-1"
           width="1303"
           height="486" />
      </g>
      <g
         id="g3363"
         style="fill:#000000;fill-opacity:1">
        <use
           id="use3365"
           y="134.765"
           x="230.87199"
           xlink:href="#textext-8cd6f27f-3"
           width="1303"
           height="486" />
      </g>
      <g
         id="g3367"
         style="fill:#000000;fill-opacity:1">
        <use
           id="use3369"
           y="134.765"
           x="241.39052"
           xlink:href="#textext-8cd6f27f-4"
           width="1303"
           height="486" />
      </g>
    </g>
  </g>
</svg>
