<?xml version="1.0" encoding="UTF-8" standalone="no"?>
<!-- Created with Inkscape (http://www.inkscape.org/) -->

<svg
   xmlns:ns0="http://www.iki.fi/pav/software/textext/"
   xmlns:dc="http://purl.org/dc/elements/1.1/"
   xmlns:cc="http://creativecommons.org/ns#"
   xmlns:rdf="http://www.w3.org/1999/02/22-rdf-syntax-ns#"
   xmlns:svg="http://www.w3.org/2000/svg"
   xmlns="http://www.w3.org/2000/svg"
   xmlns:xlink="http://www.w3.org/1999/xlink"
   xmlns:sodipodi="http://sodipodi.sourceforge.net/DTD/sodipodi-0.dtd"
   xmlns:inkscape="http://www.inkscape.org/namespaces/inkscape"
   id="svg2"
   version="1.1"
   inkscape:version="0.47 r22583"
   width="819"
   height="546"
   sodipodi:docname="recalageLOR.svg">
  <sodipodi:namedview
     pagecolor="#ffffff"
     bordercolor="#666666"
     borderopacity="1"
     objecttolerance="10"
     gridtolerance="10"
     guidetolerance="10"
     inkscape:pageopacity="0"
     inkscape:pageshadow="2"
     inkscape:window-width="1313"
     inkscape:window-height="826"
     id="namedview4"
     showgrid="false"
     inkscape:zoom="0.87545787"
     inkscape:cx="327.23589"
     inkscape:cy="259.34382"
     inkscape:window-x="0"
     inkscape:window-y="25"
     inkscape:window-maximized="0"
     inkscape:current-layer="svg2" />
  <metadata
     id="metadata8">
    <rdf:RDF>
      <cc:Work
         rdf:about="">
        <dc:format>image/svg+xml</dc:format>
        <dc:type
           rdf:resource="http://purl.org/dc/dcmitype/StillImage" />
        <dc:title />
      </cc:Work>
    </rdf:RDF>
  </metadata>
  <defs
     id="defs6">
    <inkscape:perspective
       sodipodi:type="inkscape:persp3d"
       inkscape:vp_x="0 : 0.5 : 1"
       inkscape:vp_y="0 : 1000 : 0"
       inkscape:vp_z="1 : 0.5 : 1"
       inkscape:persp3d-origin="0.5 : 0.33333333 : 1"
       id="perspective10" />
  </defs>
  <image
     xlink:href="file:///home/marache/documentation/Th%C3%A8se/rapportBiblio/images/recalageLOR_data.png"
     width="819"
     height="546"
     id="image12"
     x="0"
     y="0" />
  <rect
     style="fill:#ffffff;fill-opacity:1;stroke:none;stroke-width:0.69999999000000002;stroke-miterlimit:4;stroke-opacity:1;stroke-dasharray:none;stroke-dashoffset:0"
     id="rect2818"
     width="177.05022"
     height="31.983263"
     x="127.93305"
     y="501.45187" />
  <text
     xml:space="preserve"
     style="font-size:40px;font-style:normal;font-weight:normal;fill:#000000;fill-opacity:1;stroke:none;font-family:Bitstream Vera Sans"
     x="118.79498"
     y="534.57739"
     id="text3592"><tspan
       sodipodi:role="line"
       id="tspan3594" /></text>
  <g
     transform="matrix(2.9896258,0,0,2.9896258,-560.28734,126.6546)"
     ns0:text="Vue Tansaxiale"
     ns0:preamble=""
     id="g3605">
    <defs
       id="defs3607">
      <g
         id="g3609">
        <symbol
           style="overflow:visible"
           overflow="visible"
           id="textext-b6cf7415-0">
          <path
             style="stroke:none"
             d=""
             id="path3612" />
        </symbol>
        <symbol
           style="overflow:visible"
           overflow="visible"
           id="textext-b6cf7415-1">
          <path
             style="stroke:none"
             d="M 6.1875,-5.828125 C 6.328125,-6.203125 6.59375,-6.484375 7.28125,-6.5 l 0,-0.3125 c -0.3125,0.03125 -0.71875,0.03125 -0.96875,0.03125 -0.296875,0 -0.875,-0.015625 -1.140625,-0.03125 l 0,0.3125 C 5.6875,-6.484375 5.90625,-6.234375 5.90625,-6 c 0,0.078125 -0.03125,0.140625 -0.046875,0.203125 L 4.03125,-1 2.125,-6.03125 C 2.0625,-6.171875 2.0625,-6.1875 2.0625,-6.203125 2.0625,-6.5 2.625,-6.5 2.875,-6.5 l 0,-0.3125 c -0.359375,0.03125 -1.046875,0.03125 -1.421875,0.03125 -0.46875,0 -0.90625,-0.015625 -1.265625,-0.03125 l 0,0.3125 c 0.65625,0 0.84375,0 0.984375,0.375 L 3.484375,0 c 0.0625,0.1875 0.109375,0.21875 0.25,0.21875 0.15625,0 0.1875,-0.046875 0.234375,-0.1875 L 6.1875,-5.828125 z m 0,0"
             id="path3615" />
        </symbol>
        <symbol
           style="overflow:visible"
           overflow="visible"
           id="textext-b6cf7415-2">
          <path
             style="stroke:none"
             d="m 3.890625,-0.78125 0,0.890625 L 5.328125,0 l 0,-0.3125 C 4.640625,-0.3125 4.5625,-0.375 4.5625,-0.875 l 0,-3.53125 -1.46875,0.109375 0,0.3125 c 0.6875,0 0.78125,0.0625 0.78125,0.5625 l 0,1.765625 c 0,0.875 -0.484375,1.546875 -1.21875,1.546875 -0.828125,0 -0.875,-0.46875 -0.875,-0.984375 l 0,-3.3125 -1.46875,0.109375 0,0.3125 c 0.78125,0 0.78125,0.03125 0.78125,0.90625 l 0,1.5 c 0,0.78125 0,1.6875 1.515625,1.6875 0.5625,0 1,-0.28125 1.28125,-0.890625 z m 0,0"
             id="path3618" />
        </symbol>
        <symbol
           style="overflow:visible"
           overflow="visible"
           id="textext-b6cf7415-3">
          <path
             style="stroke:none"
             d="m 3.890625,-2.296875 c 0.21875,0 0.25,0 0.25,-0.21875 0,-0.984375 -0.546875,-1.953125 -1.78125,-1.953125 -1.15625,0 -2.078125,1.03125 -2.078125,2.28125 0,1.328125 1.046875,2.296875 2.1875,2.296875 C 3.6875,0.109375 4.140625,-1 4.140625,-1.1875 4.140625,-1.28125 4.0625,-1.3125 4,-1.3125 c -0.078125,0 -0.109375,0.0625 -0.125,0.140625 -0.34375,1.03125 -1.25,1.03125 -1.34375,1.03125 -0.5,0 -0.890625,-0.296875 -1.125,-0.671875 -0.296875,-0.46875 -0.296875,-1.125 -0.296875,-1.484375 l 2.78125,0 z m -2.78125,-0.21875 C 1.171875,-4 2.015625,-4.25 2.359375,-4.25 c 1.015625,0 1.125,1.34375 1.125,1.734375 l -2.375,0 z m 0,0"
             id="path3621" />
        </symbol>
        <symbol
           style="overflow:visible"
           overflow="visible"
           id="textext-b6cf7415-4">
          <path
             style="stroke:none"
             d="m 6.640625,-6.75 -6.09375,0 -0.1875,2.25 0.25,0 C 0.75,-6.109375 0.890625,-6.4375 2.40625,-6.4375 c 0.171875,0 0.4375,0 0.53125,0.015625 0.21875,0.046875 0.21875,0.15625 0.21875,0.375 l 0,5.265625 c 0,0.328125 0,0.46875 -1.046875,0.46875 l -0.40625,0 0,0.3125 C 2.109375,-0.03125 3.125,-0.03125 3.59375,-0.03125 c 0.453125,0 1.484375,0 1.890625,0.03125 l 0,-0.3125 -0.40625,0 c -1.046875,0 -1.046875,-0.140625 -1.046875,-0.46875 l 0,-5.265625 c 0,-0.1875 0,-0.328125 0.1875,-0.375 0.109375,-0.015625 0.375,-0.015625 0.5625,-0.015625 1.515625,0 1.65625,0.328125 1.796875,1.9375 l 0.25,0 -0.1875,-2.25 z m 0,0"
             id="path3624" />
        </symbol>
        <symbol
           style="overflow:visible"
           overflow="visible"
           id="textext-b6cf7415-5">
          <path
             style="stroke:none"
             d="m 3.3125,-0.75 c 0.046875,0.390625 0.3125,0.8125 0.78125,0.8125 0.21875,0 0.828125,-0.140625 0.828125,-0.953125 l 0,-0.5625 -0.25,0 0,0.5625 c 0,0.578125 -0.25,0.640625 -0.359375,0.640625 -0.328125,0 -0.375,-0.453125 -0.375,-0.5 l 0,-1.984375 c 0,-0.421875 0,-0.8125 -0.359375,-1.1875 C 3.1875,-4.3125 2.6875,-4.46875 2.21875,-4.46875 c -0.828125,0 -1.515625,0.46875 -1.515625,1.125 0,0.296875 0.203125,0.46875 0.46875,0.46875 0.28125,0 0.453125,-0.203125 0.453125,-0.453125 0,-0.125 -0.046875,-0.453125 -0.515625,-0.453125 C 1.390625,-4.140625 1.875,-4.25 2.1875,-4.25 c 0.5,0 1.0625,0.390625 1.0625,1.28125 l 0,0.359375 c -0.515625,0.03125 -1.203125,0.0625 -1.828125,0.359375 -0.75,0.34375 -1,0.859375 -1,1.296875 0,0.8125 0.96875,1.0625 1.59375,1.0625 0.65625,0 1.109375,-0.40625 1.296875,-0.859375 z M 3.25,-2.390625 l 0,1 c 0,0.9375 -0.71875,1.28125 -1.171875,1.28125 -0.484375,0 -0.890625,-0.34375 -0.890625,-0.84375 0,-0.546875 0.421875,-1.375 2.0625,-1.4375 z m 0,0"
             id="path3627" />
        </symbol>
        <symbol
           style="overflow:visible"
           overflow="visible"
           id="textext-b6cf7415-6">
          <path
             style="stroke:none"
             d="m 1.09375,-3.421875 0,2.671875 c 0,0.4375 -0.109375,0.4375 -0.78125,0.4375 l 0,0.3125 c 0.359375,-0.015625 0.859375,-0.03125 1.140625,-0.03125 0.25,0 0.765625,0.015625 1.109375,0.03125 l 0,-0.3125 c -0.671875,0 -0.78125,0 -0.78125,-0.4375 l 0,-1.84375 C 1.78125,-3.625 2.5,-4.1875 3.125,-4.1875 c 0.640625,0 0.75,0.53125 0.75,1.109375 l 0,2.328125 c 0,0.4375 -0.109375,0.4375 -0.78125,0.4375 l 0,0.3125 c 0.34375,-0.015625 0.859375,-0.03125 1.125,-0.03125 0.25,0 0.78125,0.015625 1.109375,0.03125 l 0,-0.3125 c -0.515625,0 -0.765625,0 -0.765625,-0.296875 l 0,-1.90625 c 0,-0.859375 0,-1.15625 -0.3125,-1.515625 -0.140625,-0.171875 -0.46875,-0.375 -1.046875,-0.375 C 2.46875,-4.40625 2,-3.984375 1.71875,-3.359375 l 0,-1.046875 -1.40625,0.109375 0,0.3125 c 0.703125,0 0.78125,0.0625 0.78125,0.5625 z m 0,0"
             id="path3630" />
        </symbol>
        <symbol
           style="overflow:visible"
           overflow="visible"
           id="textext-b6cf7415-7">
          <path
             style="stroke:none"
             d="m 2.078125,-1.9375 c 0.21875,0.046875 1.03125,0.203125 1.03125,0.921875 0,0.5 -0.34375,0.90625 -1.125,0.90625 -0.84375,0 -1.203125,-0.5625 -1.390625,-1.421875 C 0.5625,-1.65625 0.5625,-1.6875 0.453125,-1.6875 c -0.125,0 -0.125,0.0625 -0.125,0.234375 l 0,1.328125 c 0,0.171875 0,0.234375 0.109375,0.234375 0.046875,0 0.0625,-0.015625 0.25,-0.203125 0.015625,-0.015625 0.015625,-0.03125 0.203125,-0.21875 0.4375,0.40625 0.890625,0.421875 1.09375,0.421875 1.140625,0 1.609375,-0.671875 1.609375,-1.390625 0,-0.515625 -0.296875,-0.828125 -0.421875,-0.9375 C 2.84375,-2.546875 2.453125,-2.625 2.03125,-2.703125 1.46875,-2.8125 0.8125,-2.9375 0.8125,-3.515625 c 0,-0.359375 0.25,-0.765625 1.109375,-0.765625 1.09375,0 1.15625,0.90625 1.171875,1.203125 0,0.09375 0.09375,0.09375 0.109375,0.09375 0.140625,0 0.140625,-0.046875 0.140625,-0.234375 l 0,-1.015625 c 0,-0.15625 0,-0.234375 -0.109375,-0.234375 -0.046875,0 -0.078125,0 -0.203125,0.125 -0.03125,0.03125 -0.125,0.125 -0.171875,0.15625 -0.375,-0.28125 -0.78125,-0.28125 -0.9375,-0.28125 -1.21875,0 -1.59375,0.671875 -1.59375,1.234375 0,0.34375 0.15625,0.625 0.421875,0.84375 0.328125,0.25 0.609375,0.3125 1.328125,0.453125 z m 0,0"
             id="path3633" />
        </symbol>
        <symbol
           style="overflow:visible"
           overflow="visible"
           id="textext-b6cf7415-8">
          <path
             style="stroke:none"
             d="M 2.859375,-2.34375 C 3.15625,-2.71875 3.53125,-3.203125 3.78125,-3.46875 4.09375,-3.828125 4.5,-3.984375 4.96875,-3.984375 l 0,-0.3125 c -0.265625,0.015625 -0.5625,0.03125 -0.828125,0.03125 -0.296875,0 -0.828125,-0.015625 -0.953125,-0.03125 l 0,0.3125 c 0.21875,0.015625 0.296875,0.140625 0.296875,0.3125 0,0.15625 -0.109375,0.28125 -0.15625,0.34375 L 2.71875,-2.546875 1.9375,-3.5625 C 1.84375,-3.65625 1.84375,-3.671875 1.84375,-3.734375 c 0,-0.15625 0.15625,-0.25 0.34375,-0.25 l 0,-0.3125 c -0.25,0.015625 -0.90625,0.03125 -1.078125,0.03125 -0.203125,0 -0.671875,-0.015625 -0.9375,-0.03125 l 0,0.3125 c 0.703125,0 0.703125,0 1.171875,0.609375 l 0.984375,1.28125 c -0.46875,0.59375 -0.46875,0.625 -0.9375,1.1875 C 0.921875,-0.328125 0.328125,-0.3125 0.125,-0.3125 L 0.125,0 c 0.25,-0.015625 0.5625,-0.03125 0.828125,-0.03125 0.28125,0 0.703125,0.015625 0.9375,0.03125 l 0,-0.3125 c -0.21875,-0.03125 -0.28125,-0.15625 -0.28125,-0.3125 0,-0.21875 0.28125,-0.546875 0.890625,-1.265625 0.296875,0.390625 0.375,0.5 0.765625,1 C 3.34375,-0.78125 3.46875,-0.625 3.46875,-0.5625 c 0,0.09375 -0.09375,0.25 -0.359375,0.25 l 0,0.3125 C 3.40625,-0.015625 3.96875,-0.03125 4.1875,-0.03125 c 0.265625,0 0.65625,0.015625 0.953125,0.03125 l 0,-0.3125 c -0.53125,0 -0.71875,-0.015625 -0.9375,-0.3125 l -1.34375,-1.71875 z m 0,0"
             id="path3636" />
        </symbol>
        <symbol
           style="overflow:visible"
           overflow="visible"
           id="textext-b6cf7415-9">
          <path
             style="stroke:none"
             d="M 1.765625,-4.40625 0.375,-4.296875 l 0,0.3125 c 0.640625,0 0.734375,0.0625 0.734375,0.546875 l 0,2.6875 c 0,0.4375 -0.109375,0.4375 -0.78125,0.4375 l 0,0.3125 C 0.640625,-0.015625 1.1875,-0.03125 1.421875,-0.03125 1.78125,-0.03125 2.125,-0.015625 2.46875,0 l 0,-0.3125 c -0.671875,0 -0.703125,-0.046875 -0.703125,-0.4375 l 0,-3.65625 z m 0.03125,-1.734375 c 0,-0.3125 -0.234375,-0.53125 -0.515625,-0.53125 -0.3125,0 -0.53125,0.265625 -0.53125,0.53125 0,0.265625 0.21875,0.53125 0.53125,0.53125 0.28125,0 0.515625,-0.21875 0.515625,-0.53125 z m 0,0"
             id="path3639" />
        </symbol>
        <symbol
           style="overflow:visible"
           overflow="visible"
           id="textext-b6cf7415-10">
          <path
             style="stroke:none"
             d="m 1.765625,-6.921875 -1.4375,0.109375 0,0.3125 c 0.703125,0 0.78125,0.0625 0.78125,0.5625 l 0,5.1875 c 0,0.4375 -0.109375,0.4375 -0.78125,0.4375 l 0,0.3125 C 0.65625,-0.015625 1.1875,-0.03125 1.4375,-0.03125 c 0.25,0 0.734375,0.015625 1.109375,0.03125 l 0,-0.3125 c -0.671875,0 -0.78125,0 -0.78125,-0.4375 l 0,-6.171875 z m 0,0"
             id="path3642" />
        </symbol>
      </g>
    </defs>
    <g
       id="textext-b6cf7415-11">
      <g
         style="fill:#000000;fill-opacity:1"
         id="g3645">
        <use
           height="546"
           width="819"
           xlink:href="#textext-b6cf7415-1"
           x="223.43201"
           y="134.765"
           id="use3647" />
      </g>
      <g
         style="fill:#000000;fill-opacity:1"
         id="g3649">
        <use
           height="546"
           width="819"
           xlink:href="#textext-b6cf7415-2"
           x="230.07706"
           y="134.765"
           id="use3651" />
        <use
           height="546"
           width="819"
           xlink:href="#textext-b6cf7415-3"
           x="235.61227"
           y="134.765"
           id="use3653" />
      </g>
      <g
         style="fill:#000000;fill-opacity:1"
         id="g3655">
        <use
           height="546"
           width="819"
           xlink:href="#textext-b6cf7415-4"
           x="243.35719"
           y="134.765"
           id="use3657" />
      </g>
      <g
         style="fill:#000000;fill-opacity:1"
         id="g3659">
        <use
           height="546"
           width="819"
           xlink:href="#textext-b6cf7415-5"
           x="249.7253"
           y="134.765"
           id="use3661" />
        <use
           height="546"
           width="819"
           xlink:href="#textext-b6cf7415-6"
           x="254.70659"
           y="134.765"
           id="use3663" />
        <use
           height="546"
           width="819"
           xlink:href="#textext-b6cf7415-7"
           x="260.24182"
           y="134.765"
           id="use3665" />
        <use
           height="546"
           width="819"
           xlink:href="#textext-b6cf7415-5"
           x="264.17105"
           y="134.765"
           id="use3667" />
        <use
           height="546"
           width="819"
           xlink:href="#textext-b6cf7415-8"
           x="269.15237"
           y="134.765"
           id="use3669" />
        <use
           height="546"
           width="819"
           xlink:href="#textext-b6cf7415-9"
           x="274.41061"
           y="134.765"
           id="use3671" />
        <use
           height="546"
           width="819"
           xlink:href="#textext-b6cf7415-5"
           x="277.17822"
           y="134.765"
           id="use3673" />
        <use
           height="546"
           width="819"
           xlink:href="#textext-b6cf7415-10"
           x="282.15955"
           y="134.765"
           id="use3675" />
        <use
           height="546"
           width="819"
           xlink:href="#textext-b6cf7415-3"
           x="284.92715"
           y="134.765"
           id="use3677" />
      </g>
    </g>
  </g>
  <rect
     y="501.45187"
     x="567.93304"
     height="31.983263"
     width="177.05022"
     id="rect3729"
     style="fill:#ffffff;fill-opacity:1;stroke:none" />
  <g
     id="g3870"
     transform="matrix(2.9896258,0,0,2.9896258,-90.28734,126.6546)"
     ns0:preamble=""
     ns0:text="Vue Axiale">
    <defs
       id="defs3872">
      <g
         id="g3874">
        <symbol
           id="textext-04bb343d-0"
           overflow="visible"
           style="overflow:visible">
          <path
             id="path3877"
             d=""
             style="stroke:none" />
        </symbol>
        <symbol
           id="textext-04bb343d-1"
           overflow="visible"
           style="overflow:visible">
          <path
             id="path3880"
             d="M 6.1875,-5.828125 C 6.328125,-6.203125 6.59375,-6.484375 7.28125,-6.5 l 0,-0.3125 c -0.3125,0.03125 -0.71875,0.03125 -0.96875,0.03125 -0.296875,0 -0.875,-0.015625 -1.140625,-0.03125 l 0,0.3125 C 5.6875,-6.484375 5.90625,-6.234375 5.90625,-6 c 0,0.078125 -0.03125,0.140625 -0.046875,0.203125 L 4.03125,-1 2.125,-6.03125 C 2.0625,-6.171875 2.0625,-6.1875 2.0625,-6.203125 2.0625,-6.5 2.625,-6.5 2.875,-6.5 l 0,-0.3125 c -0.359375,0.03125 -1.046875,0.03125 -1.421875,0.03125 -0.46875,0 -0.90625,-0.015625 -1.265625,-0.03125 l 0,0.3125 c 0.65625,0 0.84375,0 0.984375,0.375 L 3.484375,0 c 0.0625,0.1875 0.109375,0.21875 0.25,0.21875 0.15625,0 0.1875,-0.046875 0.234375,-0.1875 L 6.1875,-5.828125 z m 0,0"
             style="stroke:none" />
        </symbol>
        <symbol
           id="textext-04bb343d-2"
           overflow="visible"
           style="overflow:visible">
          <path
             id="path3883"
             d="m 3.890625,-0.78125 0,0.890625 L 5.328125,0 l 0,-0.3125 C 4.640625,-0.3125 4.5625,-0.375 4.5625,-0.875 l 0,-3.53125 -1.46875,0.109375 0,0.3125 c 0.6875,0 0.78125,0.0625 0.78125,0.5625 l 0,1.765625 c 0,0.875 -0.484375,1.546875 -1.21875,1.546875 -0.828125,0 -0.875,-0.46875 -0.875,-0.984375 l 0,-3.3125 -1.46875,0.109375 0,0.3125 c 0.78125,0 0.78125,0.03125 0.78125,0.90625 l 0,1.5 c 0,0.78125 0,1.6875 1.515625,1.6875 0.5625,0 1,-0.28125 1.28125,-0.890625 z m 0,0"
             style="stroke:none" />
        </symbol>
        <symbol
           id="textext-04bb343d-3"
           overflow="visible"
           style="overflow:visible">
          <path
             id="path3886"
             d="m 3.890625,-2.296875 c 0.21875,0 0.25,0 0.25,-0.21875 0,-0.984375 -0.546875,-1.953125 -1.78125,-1.953125 -1.15625,0 -2.078125,1.03125 -2.078125,2.28125 0,1.328125 1.046875,2.296875 2.1875,2.296875 C 3.6875,0.109375 4.140625,-1 4.140625,-1.1875 4.140625,-1.28125 4.0625,-1.3125 4,-1.3125 c -0.078125,0 -0.109375,0.0625 -0.125,0.140625 -0.34375,1.03125 -1.25,1.03125 -1.34375,1.03125 -0.5,0 -0.890625,-0.296875 -1.125,-0.671875 -0.296875,-0.46875 -0.296875,-1.125 -0.296875,-1.484375 l 2.78125,0 z m -2.78125,-0.21875 C 1.171875,-4 2.015625,-4.25 2.359375,-4.25 c 1.015625,0 1.125,1.34375 1.125,1.734375 l -2.375,0 z m 0,0"
             style="stroke:none" />
        </symbol>
        <symbol
           id="textext-04bb343d-4"
           overflow="visible"
           style="overflow:visible">
          <path
             id="path3889"
             d="m 3.96875,-6.9375 c -0.046875,-0.125 -0.078125,-0.203125 -0.234375,-0.203125 -0.15625,0 -0.1875,0.0625 -0.234375,0.203125 L 1.4375,-0.984375 C 1.25,-0.46875 0.859375,-0.3125 0.3125,-0.3125 l 0,0.3125 c 0.234375,-0.015625 0.671875,-0.03125 1.015625,-0.03125 0.3125,0 0.828125,0.015625 1.15625,0.03125 l 0,-0.3125 c -0.5,0 -0.75,-0.25 -0.75,-0.5 0,-0.03125 0.015625,-0.140625 0.015625,-0.15625 l 0.46875,-1.296875 2.453125,0 0.53125,1.515625 c 0.015625,0.046875 0.03125,0.109375 0.03125,0.140625 0,0.296875 -0.5625,0.296875 -0.828125,0.296875 l 0,0.3125 c 0.359375,-0.03125 1.0625,-0.03125 1.4375,-0.03125 0.421875,0 0.890625,0.015625 1.296875,0.03125 l 0,-0.3125 -0.171875,0 C 6.375,-0.3125 6.234375,-0.375 6.125,-0.703125 L 3.96875,-6.9375 z m -0.53125,1.109375 1.125,3.25 -2.234375,0 1.109375,-3.25 z m 0,0"
             style="stroke:none" />
        </symbol>
        <symbol
           id="textext-04bb343d-5"
           overflow="visible"
           style="overflow:visible">
          <path
             id="path3892"
             d="M 2.859375,-2.34375 C 3.15625,-2.71875 3.53125,-3.203125 3.78125,-3.46875 4.09375,-3.828125 4.5,-3.984375 4.96875,-3.984375 l 0,-0.3125 c -0.265625,0.015625 -0.5625,0.03125 -0.828125,0.03125 -0.296875,0 -0.828125,-0.015625 -0.953125,-0.03125 l 0,0.3125 c 0.21875,0.015625 0.296875,0.140625 0.296875,0.3125 0,0.15625 -0.109375,0.28125 -0.15625,0.34375 L 2.71875,-2.546875 1.9375,-3.5625 C 1.84375,-3.65625 1.84375,-3.671875 1.84375,-3.734375 c 0,-0.15625 0.15625,-0.25 0.34375,-0.25 l 0,-0.3125 c -0.25,0.015625 -0.90625,0.03125 -1.078125,0.03125 -0.203125,0 -0.671875,-0.015625 -0.9375,-0.03125 l 0,0.3125 c 0.703125,0 0.703125,0 1.171875,0.609375 l 0.984375,1.28125 c -0.46875,0.59375 -0.46875,0.625 -0.9375,1.1875 C 0.921875,-0.328125 0.328125,-0.3125 0.125,-0.3125 L 0.125,0 c 0.25,-0.015625 0.5625,-0.03125 0.828125,-0.03125 0.28125,0 0.703125,0.015625 0.9375,0.03125 l 0,-0.3125 c -0.21875,-0.03125 -0.28125,-0.15625 -0.28125,-0.3125 0,-0.21875 0.28125,-0.546875 0.890625,-1.265625 0.296875,0.390625 0.375,0.5 0.765625,1 C 3.34375,-0.78125 3.46875,-0.625 3.46875,-0.5625 c 0,0.09375 -0.09375,0.25 -0.359375,0.25 l 0,0.3125 C 3.40625,-0.015625 3.96875,-0.03125 4.1875,-0.03125 c 0.265625,0 0.65625,0.015625 0.953125,0.03125 l 0,-0.3125 c -0.53125,0 -0.71875,-0.015625 -0.9375,-0.3125 l -1.34375,-1.71875 z m 0,0"
             style="stroke:none" />
        </symbol>
        <symbol
           id="textext-04bb343d-6"
           overflow="visible"
           style="overflow:visible">
          <path
             id="path3895"
             d="M 1.765625,-4.40625 0.375,-4.296875 l 0,0.3125 c 0.640625,0 0.734375,0.0625 0.734375,0.546875 l 0,2.6875 c 0,0.4375 -0.109375,0.4375 -0.78125,0.4375 l 0,0.3125 C 0.640625,-0.015625 1.1875,-0.03125 1.421875,-0.03125 1.78125,-0.03125 2.125,-0.015625 2.46875,0 l 0,-0.3125 c -0.671875,0 -0.703125,-0.046875 -0.703125,-0.4375 l 0,-3.65625 z m 0.03125,-1.734375 c 0,-0.3125 -0.234375,-0.53125 -0.515625,-0.53125 -0.3125,0 -0.53125,0.265625 -0.53125,0.53125 0,0.265625 0.21875,0.53125 0.53125,0.53125 0.28125,0 0.515625,-0.21875 0.515625,-0.53125 z m 0,0"
             style="stroke:none" />
        </symbol>
        <symbol
           id="textext-04bb343d-7"
           overflow="visible"
           style="overflow:visible">
          <path
             id="path3898"
             d="m 3.3125,-0.75 c 0.046875,0.390625 0.3125,0.8125 0.78125,0.8125 0.21875,0 0.828125,-0.140625 0.828125,-0.953125 l 0,-0.5625 -0.25,0 0,0.5625 c 0,0.578125 -0.25,0.640625 -0.359375,0.640625 -0.328125,0 -0.375,-0.453125 -0.375,-0.5 l 0,-1.984375 c 0,-0.421875 0,-0.8125 -0.359375,-1.1875 C 3.1875,-4.3125 2.6875,-4.46875 2.21875,-4.46875 c -0.828125,0 -1.515625,0.46875 -1.515625,1.125 0,0.296875 0.203125,0.46875 0.46875,0.46875 0.28125,0 0.453125,-0.203125 0.453125,-0.453125 0,-0.125 -0.046875,-0.453125 -0.515625,-0.453125 C 1.390625,-4.140625 1.875,-4.25 2.1875,-4.25 c 0.5,0 1.0625,0.390625 1.0625,1.28125 l 0,0.359375 c -0.515625,0.03125 -1.203125,0.0625 -1.828125,0.359375 -0.75,0.34375 -1,0.859375 -1,1.296875 0,0.8125 0.96875,1.0625 1.59375,1.0625 0.65625,0 1.109375,-0.40625 1.296875,-0.859375 z M 3.25,-2.390625 l 0,1 c 0,0.9375 -0.71875,1.28125 -1.171875,1.28125 -0.484375,0 -0.890625,-0.34375 -0.890625,-0.84375 0,-0.546875 0.421875,-1.375 2.0625,-1.4375 z m 0,0"
             style="stroke:none" />
        </symbol>
        <symbol
           id="textext-04bb343d-8"
           overflow="visible"
           style="overflow:visible">
          <path
             id="path3901"
             d="m 1.765625,-6.921875 -1.4375,0.109375 0,0.3125 c 0.703125,0 0.78125,0.0625 0.78125,0.5625 l 0,5.1875 c 0,0.4375 -0.109375,0.4375 -0.78125,0.4375 l 0,0.3125 C 0.65625,-0.015625 1.1875,-0.03125 1.4375,-0.03125 c 0.25,0 0.734375,0.015625 1.109375,0.03125 l 0,-0.3125 c -0.671875,0 -0.78125,0 -0.78125,-0.4375 l 0,-6.171875 z m 0,0"
             style="stroke:none" />
        </symbol>
      </g>
    </defs>
    <g
       id="textext-04bb343d-9">
      <g
         id="g3904"
         style="fill:#000000;fill-opacity:1">
        <use
           id="use3906"
           y="134.765"
           x="223.43201"
           xlink:href="#textext-04bb343d-1"
           width="819"
           height="546" />
      </g>
      <g
         id="g3908"
         style="fill:#000000;fill-opacity:1">
        <use
           id="use3910"
           y="134.765"
           x="230.07706"
           xlink:href="#textext-04bb343d-2"
           width="819"
           height="546" />
        <use
           id="use3912"
           y="134.765"
           x="235.61227"
           xlink:href="#textext-04bb343d-3"
           width="819"
           height="546" />
      </g>
      <g
         id="g3914"
         style="fill:#000000;fill-opacity:1">
        <use
           id="use3916"
           y="134.765"
           x="243.35719"
           xlink:href="#textext-04bb343d-4"
           width="819"
           height="546" />
        <use
           id="use3918"
           y="134.765"
           x="250.82915"
           xlink:href="#textext-04bb343d-5"
           width="819"
           height="546" />
        <use
           id="use3920"
           y="134.765"
           x="256.0874"
           xlink:href="#textext-04bb343d-6"
           width="819"
           height="546" />
        <use
           id="use3922"
           y="134.765"
           x="258.85501"
           xlink:href="#textext-04bb343d-7"
           width="819"
           height="546" />
        <use
           id="use3924"
           y="134.765"
           x="263.83633"
           xlink:href="#textext-04bb343d-8"
           width="819"
           height="546" />
        <use
           id="use3926"
           y="134.765"
           x="266.60394"
           xlink:href="#textext-04bb343d-3"
           width="819"
           height="546" />
      </g>
    </g>
  </g>
</svg>
