<?xml version="1.0" encoding="UTF-8" standalone="no"?>
<!-- Created with Inkscape (http://www.inkscape.org/) -->

<svg
   xmlns:ns0="http://www.iki.fi/pav/software/textext/"
   xmlns:dc="http://purl.org/dc/elements/1.1/"
   xmlns:cc="http://creativecommons.org/ns#"
   xmlns:rdf="http://www.w3.org/1999/02/22-rdf-syntax-ns#"
   xmlns:svg="http://www.w3.org/2000/svg"
   xmlns="http://www.w3.org/2000/svg"
   xmlns:xlink="http://www.w3.org/1999/xlink"
   xmlns:sodipodi="http://sodipodi.sourceforge.net/DTD/sodipodi-0.dtd"
   xmlns:inkscape="http://www.inkscape.org/namespaces/inkscape"
   width="390.62119"
   height="297.53104"
   id="svg2"
   version="1.1"
   inkscape:version="0.47 r22583"
   sodipodi:docname="SVM.svg">
  <sodipodi:namedview
     id="base"
     pagecolor="#ffffff"
     bordercolor="#666666"
     borderopacity="1.0"
     inkscape:pageopacity="0.0"
     inkscape:pageshadow="2"
     inkscape:zoom="1.4"
     inkscape:cx="330.11336"
     inkscape:cy="123.87694"
     inkscape:document-units="px"
     inkscape:current-layer="layer1"
     showgrid="false"
     inkscape:window-width="1920"
     inkscape:window-height="1009"
     inkscape:window-x="0"
     inkscape:window-y="25"
     inkscape:window-maximized="1"
     showguides="true"
     inkscape:guide-bbox="true" />
  <defs
     id="defs4">
    <marker
       inkscape:stockid="Arrow1Mend"
       orient="auto"
       refY="0"
       refX="0"
       id="Arrow1Mend"
       style="overflow:visible">
      <path
         id="path3784"
         d="M 0,0 5,-5 -12.5,0 5,5 0,0 z"
         style="fill-rule:evenodd;stroke:#000000;stroke-width:1pt;marker-start:none"
         transform="matrix(-0.4,0,0,-0.4,-4,0)" />
    </marker>
    <marker
       inkscape:stockid="Arrow1Mstart"
       orient="auto"
       refY="0"
       refX="0"
       id="Arrow1Mstart"
       style="overflow:visible">
      <path
         id="path3781"
         d="M 0,0 5,-5 -12.5,0 5,5 0,0 z"
         style="fill-rule:evenodd;stroke:#000000;stroke-width:1pt;marker-start:none"
         transform="matrix(0.4,0,0,0.4,4,0)" />
    </marker>
    <marker
       inkscape:stockid="Arrow1Lstart"
       orient="auto"
       refY="0"
       refX="0"
       id="Arrow1Lstart"
       style="overflow:visible">
      <path
         id="path3775"
         d="M 0,0 5,-5 -12.5,0 5,5 0,0 z"
         style="fill-rule:evenodd;stroke:#000000;stroke-width:1pt;marker-start:none"
         transform="matrix(0.8,0,0,0.8,10,0)" />
    </marker>
    <marker
       inkscape:stockid="Arrow1Lend"
       orient="auto"
       refY="0"
       refX="0"
       id="Arrow1Lend"
       style="overflow:visible">
      <path
         id="path3778"
         d="M 0,0 5,-5 -12.5,0 5,5 0,0 z"
         style="fill-rule:evenodd;stroke:#000000;stroke-width:1pt;marker-start:none"
         transform="matrix(-0.8,0,0,-0.8,-10,0)" />
    </marker>
    <inkscape:perspective
       sodipodi:type="inkscape:persp3d"
       inkscape:vp_x="0 : 526.18109 : 1"
       inkscape:vp_y="0 : 1000 : 0"
       inkscape:vp_z="744.09448 : 526.18109 : 1"
       inkscape:persp3d-origin="372.04724 : 350.78739 : 1"
       id="perspective10" />
    <inkscape:perspective
       sodipodi:type="inkscape:persp3d"
       inkscape:vp_x="0 : 0.5 : 1"
       inkscape:vp_y="0 : 1000 : 0"
       inkscape:vp_z="1 : 0.5 : 1"
       inkscape:persp3d-origin="0.5 : 0.33333333 : 1"
       id="perspective8458" />
    <inkscape:perspective
       id="perspective8458-4"
       inkscape:persp3d-origin="0.5 : 0.33333333 : 1"
       inkscape:vp_z="1 : 0.5 : 1"
       inkscape:vp_y="0 : 1000 : 0"
       inkscape:vp_x="0 : 0.5 : 1"
       sodipodi:type="inkscape:persp3d" />
  </defs>
  <metadata
     id="metadata7">
    <rdf:RDF>
      <cc:Work
         rdf:about="">
        <dc:format>image/svg+xml</dc:format>
        <dc:type
           rdf:resource="http://purl.org/dc/dcmitype/StillImage" />
        <dc:title></dc:title>
      </cc:Work>
    </rdf:RDF>
  </metadata>
  <g
     transform="translate(-85.942348,-194.00504)"
     inkscape:label="Calque 1"
     inkscape:groupmode="layer"
     id="layer1">
    <path
       style="fill:#ff0000;stroke:none;stroke-width:1px;stroke-linecap:butt;stroke-linejoin:miter;stroke-opacity:1;opacity:0.26461538000000001"
       d="M 143.94674,256.02008 127.84743,272.11939 29.041886,271.18815 28.962966,23.846776 379.10715,20.721776 335.53571,64.495322 143.94674,256.02008 z"
       id="path15015"
       sodipodi:nodetypes="ccccccc"
       transform="translate(85.942348,194.00504)" />
    <path
       style="fill:#00ff00;stroke:none;stroke-width:1px;stroke-linecap:butt;stroke-linejoin:miter;stroke-opacity:1;opacity:0.26769230999999999"
       d="m 127.8125,272.09576 7.45536,-7.42187 200.64732,-200.446426 43.19192,-43.501902 4.68754,250.376898 -39.73214,0.53572 -216.25,0.45758 z"
       id="path15021"
       transform="translate(85.942348,194.00504)"
       sodipodi:nodetypes="ccccccc" />
    <path
       style="fill:none;stroke:#000000;stroke-width:1;stroke-linecap:butt;stroke-linejoin:miter;stroke-miterlimit:4;stroke-opacity:1;stroke-dasharray:none;marker-start:url(#Arrow1Lstart);marker-mid:none;marker-end:url(#Arrow1Lend)"
       d="m 467.9823,465.1399 c -266.81772,3.498 -227.27238,0 -353.07072,0 l 0,-245.69874"
       id="path2816"
       sodipodi:nodetypes="ccc" />
    <path
       sodipodi:type="arc"
       style="fill:#ff0000;fill-opacity:1;stroke:#000000;stroke-width:1;stroke-miterlimit:4;stroke-opacity:1;stroke-dasharray:none;stroke-dashoffset:0"
       id="path5428"
       sodipodi:cx="171.42857"
       sodipodi:cy="250.21933"
       sodipodi:rx="4.2857141"
       sodipodi:ry="4.2857141"
       d="m 175.71429,250.21933 a 4.2857141,4.2857141 0 1 1 -8.57143,0 4.2857141,4.2857141 0 1 1 8.57143,0 z"
       transform="translate(-8.0812204,7.0710678)" />
    <path
       d="m 175.71429,250.21933 a 4.2857141,4.2857141 0 1 1 -8.57143,0 4.2857141,4.2857141 0 1 1 8.57143,0 z"
       sodipodi:ry="4.2857141"
       sodipodi:rx="4.2857141"
       sodipodi:cy="250.21933"
       sodipodi:cx="171.42857"
       id="path5430"
       style="fill:#ff0000;fill-opacity:1;stroke:#000000;stroke-width:1;stroke-miterlimit:4;stroke-opacity:1;stroke-dasharray:none;stroke-dashoffset:0"
       sodipodi:type="arc"
       transform="translate(-8.7955061,64.213925)" />
    <path
       transform="translate(62.633066,49.213925)"
       sodipodi:type="arc"
       style="fill:#ff0000;fill-opacity:1;stroke:#000000;stroke-width:1;stroke-miterlimit:4;stroke-opacity:1;stroke-dasharray:none;stroke-dashoffset:0"
       id="path5432"
       sodipodi:cx="171.42857"
       sodipodi:cy="250.21933"
       sodipodi:rx="4.2857141"
       sodipodi:ry="4.2857141"
       d="m 175.71429,250.21933 a 4.2857141,4.2857141 0 1 1 -8.57143,0 4.2857141,4.2857141 0 1 1 8.57143,0 z" />
    <path
       d="m 175.71429,250.21933 a 4.2857141,4.2857141 0 1 1 -8.57143,0 4.2857141,4.2857141 0 1 1 8.57143,0 z"
       sodipodi:ry="4.2857141"
       sodipodi:rx="4.2857141"
       sodipodi:cy="250.21933"
       sodipodi:cx="171.42857"
       id="path5434"
       style="fill:#ff0000;fill-opacity:1;stroke:#000000;stroke-width:1;stroke-miterlimit:4;stroke-opacity:1;stroke-dasharray:none;stroke-dashoffset:0"
       sodipodi:type="arc"
       transform="translate(62.633066,79.928211)" />
    <path
       transform="translate(79.775923,-0.78607498)"
       sodipodi:type="arc"
       style="fill:#ff0000;fill-opacity:1;stroke:#000000;stroke-width:1;stroke-miterlimit:4;stroke-opacity:1;stroke-dasharray:none;stroke-dashoffset:0"
       id="path5436"
       sodipodi:cx="171.42857"
       sodipodi:cy="250.21933"
       sodipodi:rx="4.2857141"
       sodipodi:ry="4.2857141"
       d="m 175.71429,250.21933 a 4.2857141,4.2857141 0 1 1 -8.57143,0 4.2857141,4.2857141 0 1 1 8.57143,0 z" />
    <path
       d="m 175.71429,250.21933 a 4.2857141,4.2857141 0 1 1 -8.57143,0 4.2857141,4.2857141 0 1 1 8.57143,0 z"
       sodipodi:ry="4.2857141"
       sodipodi:rx="4.2857141"
       sodipodi:cy="250.21933"
       sodipodi:cx="171.42857"
       id="path5438"
       style="fill:#ff0000;fill-opacity:1;stroke:#000000;stroke-width:1;stroke-miterlimit:4;stroke-opacity:1;stroke-dasharray:none;stroke-dashoffset:0"
       sodipodi:type="arc"
       transform="translate(29.775923,21.356782)" />
    <path
       transform="translate(24.775923,89.213925)"
       sodipodi:type="arc"
       style="fill:#ff0000;fill-opacity:1;stroke:#000000;stroke-width:1;stroke-miterlimit:4;stroke-opacity:1;stroke-dasharray:none;stroke-dashoffset:0"
       id="path5440"
       sodipodi:cx="171.42857"
       sodipodi:cy="250.21933"
       sodipodi:rx="4.2857141"
       sodipodi:ry="4.2857141"
       d="m 175.71429,250.21933 a 4.2857141,4.2857141 0 1 1 -8.57143,0 4.2857141,4.2857141 0 1 1 8.57143,0 z" />
    <path
       d="m 175.71429,250.21933 a 4.2857141,4.2857141 0 1 1 -8.57143,0 4.2857141,4.2857141 0 1 1 8.57143,0 z"
       sodipodi:ry="4.2857141"
       sodipodi:rx="4.2857141"
       sodipodi:cy="250.21933"
       sodipodi:cx="171.42857"
       id="path5442"
       style="fill:#ff0000;fill-opacity:1;stroke:#000000;stroke-width:1;stroke-miterlimit:4;stroke-opacity:1;stroke-dasharray:none;stroke-dashoffset:0"
       sodipodi:type="arc"
       transform="translate(111.20449,41.356782)" />
    <path
       transform="translate(91.20449,88.499639)"
       sodipodi:type="arc"
       style="fill:#ff0000;fill-opacity:1;stroke:#0000ff;stroke-width:1;stroke-miterlimit:4;stroke-opacity:1;stroke-dasharray:none;stroke-dashoffset:0"
       id="path5444"
       sodipodi:cx="171.42857"
       sodipodi:cy="250.21933"
       sodipodi:rx="4.2857141"
       sodipodi:ry="4.2857141"
       d="m 175.71429,250.21933 a 4.2857141,4.2857141 0 1 1 -8.57143,0 4.2857141,4.2857141 0 1 1 8.57143,0 z" />
    <path
       d="m 175.71429,250.21933 a 4.2857141,4.2857141 0 1 1 -8.57143,0 4.2857141,4.2857141 0 1 1 8.57143,0 z"
       sodipodi:ry="4.2857141"
       sodipodi:rx="4.2857141"
       sodipodi:cy="250.21933"
       sodipodi:cx="171.42857"
       id="path5446"
       style="fill:#ff0000;fill-opacity:1;stroke:#000000;stroke-width:1;stroke-miterlimit:4;stroke-opacity:1;stroke-dasharray:none;stroke-dashoffset:0"
       sodipodi:type="arc"
       transform="translate(36.918776,118.49964)" />
    <path
       transform="translate(141.91878,4.2139234)"
       sodipodi:type="arc"
       style="fill:#ff0000;fill-opacity:1;stroke:#000000;stroke-width:1;stroke-miterlimit:4;stroke-opacity:1;stroke-dasharray:none;stroke-dashoffset:0"
       id="path5448"
       sodipodi:cx="171.42857"
       sodipodi:cy="250.21933"
       sodipodi:rx="4.2857141"
       sodipodi:ry="4.2857141"
       d="m 175.71429,250.21933 a 4.2857141,4.2857141 0 1 1 -8.57143,0 4.2857141,4.2857141 0 1 1 8.57143,0 z" />
    <path
       d="m 175.71429,250.21933 a 4.2857141,4.2857141 0 1 1 -8.57143,0 4.2857141,4.2857141 0 1 1 8.57143,0 z"
       sodipodi:ry="4.2857141"
       sodipodi:rx="4.2857141"
       sodipodi:cy="250.21933"
       sodipodi:cx="171.42857"
       id="path5450"
       style="fill:#ff0000;fill-opacity:1;stroke:#000000;stroke-width:1;stroke-miterlimit:4;stroke-opacity:1;stroke-dasharray:none;stroke-dashoffset:0"
       sodipodi:type="arc"
       transform="translate(140.9699,31.558555)" />
    <path
       transform="translate(46.671129,-27.689989)"
       sodipodi:type="arc"
       style="fill:#ff0000;fill-opacity:1;stroke:#000000;stroke-width:1;stroke-miterlimit:4;stroke-opacity:1;stroke-dasharray:none;stroke-dashoffset:0"
       id="path5452"
       sodipodi:cx="171.42857"
       sodipodi:cy="250.21933"
       sodipodi:rx="4.2857141"
       sodipodi:ry="4.2857141"
       d="m 175.71429,250.21933 a 4.2857141,4.2857141 0 1 1 -8.57143,0 4.2857141,4.2857141 0 1 1 8.57143,0 z" />
    <path
       d="m 175.71429,250.21933 a 4.2857141,4.2857141 0 1 1 -8.57143,0 4.2857141,4.2857141 0 1 1 8.57143,0 z"
       sodipodi:ry="4.2857141"
       sodipodi:rx="4.2857141"
       sodipodi:cy="250.21933"
       sodipodi:cx="171.42857"
       id="path5454"
       style="fill:#00ff00;fill-opacity:1;stroke:#0000ff;stroke-width:1;stroke-miterlimit:4;stroke-opacity:1;stroke-dasharray:none;stroke-dashoffset:0"
       sodipodi:type="arc"
       transform="translate(169.61575,166.9034)" />
    <path
       transform="translate(212.63307,144.92821)"
       sodipodi:type="arc"
       style="fill:#00ff00;fill-opacity:1;stroke:#000000;stroke-width:1;stroke-miterlimit:4;stroke-opacity:1;stroke-dasharray:none;stroke-dashoffset:0"
       id="path5456"
       sodipodi:cx="171.42857"
       sodipodi:cy="250.21933"
       sodipodi:rx="4.2857141"
       sodipodi:ry="4.2857141"
       d="m 175.71429,250.21933 a 4.2857141,4.2857141 0 1 1 -8.57143,0 4.2857141,4.2857141 0 1 1 8.57143,0 z" />
    <path
       d="m 175.71429,250.21933 a 4.2857141,4.2857141 0 1 1 -8.57143,0 4.2857141,4.2857141 0 1 1 8.57143,0 z"
       sodipodi:ry="4.2857141"
       sodipodi:rx="4.2857141"
       sodipodi:cy="250.21933"
       sodipodi:cx="171.42857"
       id="path5458"
       style="fill:#00ff00;fill-opacity:1;stroke:#000000;stroke-width:1;stroke-miterlimit:4;stroke-opacity:1;stroke-dasharray:none;stroke-dashoffset:0"
       sodipodi:type="arc"
       transform="translate(223.56272,116.79442)" />
    <path
       transform="translate(271.91878,156.35678)"
       sodipodi:type="arc"
       style="fill:#00ff00;fill-opacity:1;stroke:#000000;stroke-width:1;stroke-miterlimit:4;stroke-opacity:1;stroke-dasharray:none;stroke-dashoffset:0"
       id="path5460"
       sodipodi:cx="171.42857"
       sodipodi:cy="250.21933"
       sodipodi:rx="4.2857141"
       sodipodi:ry="4.2857141"
       d="m 175.71429,250.21933 a 4.2857141,4.2857141 0 1 1 -8.57143,0 4.2857141,4.2857141 0 1 1 8.57143,0 z" />
    <path
       d="m 175.71429,250.21933 a 4.2857141,4.2857141 0 1 1 -8.57143,0 4.2857141,4.2857141 0 1 1 8.57143,0 z"
       sodipodi:ry="4.2857141"
       sodipodi:rx="4.2857141"
       sodipodi:cy="250.21933"
       sodipodi:cx="171.42857"
       id="path5462"
       style="fill:#00ff00;fill-opacity:1;stroke:#000000;stroke-width:1;stroke-miterlimit:4;stroke-opacity:1;stroke-dasharray:none;stroke-dashoffset:0"
       sodipodi:type="arc"
       transform="translate(199.77593,183.49964)" />
    <path
       transform="translate(168.34736,195.6425)"
       sodipodi:type="arc"
       style="fill:#00ff00;fill-opacity:1;stroke:#000000;stroke-width:1;stroke-miterlimit:4;stroke-opacity:1;stroke-dasharray:none;stroke-dashoffset:0"
       id="path5468"
       sodipodi:cx="171.42857"
       sodipodi:cy="250.21933"
       sodipodi:rx="4.2857141"
       sodipodi:ry="4.2857141"
       d="m 175.71429,250.21933 a 4.2857141,4.2857141 0 1 1 -8.57143,0 4.2857141,4.2857141 0 1 1 8.57143,0 z" />
    <path
       transform="translate(237.27592,168.85678)"
       sodipodi:type="arc"
       style="fill:#00ff00;fill-opacity:1;stroke:#000000;stroke-width:1;stroke-miterlimit:4;stroke-opacity:1;stroke-dasharray:none;stroke-dashoffset:0"
       id="path5472"
       sodipodi:cx="171.42857"
       sodipodi:cy="250.21933"
       sodipodi:rx="4.2857141"
       sodipodi:ry="4.2857141"
       d="m 175.71429,250.21933 a 4.2857141,4.2857141 0 1 1 -8.57143,0 4.2857141,4.2857141 0 1 1 8.57143,0 z" />
    <path
       d="m 175.71429,250.21933 a 4.2857141,4.2857141 0 1 1 -8.57143,0 4.2857141,4.2857141 0 1 1 8.57143,0 z"
       sodipodi:ry="4.2857141"
       sodipodi:rx="4.2857141"
       sodipodi:cy="250.21933"
       sodipodi:cx="171.42857"
       id="path5474"
       style="fill:#00ff00;fill-opacity:1;stroke:#000000;stroke-width:1;stroke-miterlimit:4;stroke-opacity:1;stroke-dasharray:none;stroke-dashoffset:0"
       sodipodi:type="arc"
       transform="translate(250.281,142.82996)" />
    <path
       transform="translate(254.41878,194.57107)"
       sodipodi:type="arc"
       style="fill:#00ff00;fill-opacity:1;stroke:#000000;stroke-width:1;stroke-miterlimit:4;stroke-opacity:1;stroke-dasharray:none;stroke-dashoffset:0"
       id="path5476"
       sodipodi:cx="171.42857"
       sodipodi:cy="250.21933"
       sodipodi:rx="4.2857141"
       sodipodi:ry="4.2857141"
       d="m 175.71429,250.21933 a 4.2857141,4.2857141 0 1 1 -8.57143,0 4.2857141,4.2857141 0 1 1 8.57143,0 z" />
    <path
       style="fill:none;stroke:#000000;stroke-width:1px;stroke-linecap:butt;stroke-linejoin:miter;stroke-opacity:1"
       d="M 219.77593,460.14754 421.91878,258.00468"
       id="path5478" />
    <path
       style="fill:none;stroke:#000000;stroke-width:1;stroke-linecap:butt;stroke-linejoin:miter;stroke-miterlimit:4;stroke-opacity:1;stroke-dasharray:none;marker-start:url(#Arrow1Mstart);marker-end:url(#Arrow1Mend)"
       d="m 264.19775,340.19436 36.06706,36.06707"
       id="path5480"
       sodipodi:nodetypes="cc" />
    <path
       sodipodi:nodetypes="cc"
       id="path5866"
       d="m 303.5937,379.74814 36.06706,36.06707"
       style="fill:none;stroke:#000000;stroke-width:1;stroke-linecap:butt;stroke-linejoin:miter;stroke-miterlimit:4;stroke-opacity:1;stroke-dasharray:none;marker-start:url(#Arrow1Mstart);marker-end:url(#Arrow1Mend)" />
    <path
       id="path5868"
       d="M 180.37998,421.25667 382.52283,219.11381"
       style="fill:none;stroke:#000000;stroke-width:1;stroke-linecap:butt;stroke-linejoin:miter;stroke-miterlimit:4;stroke-opacity:1;stroke-dasharray:1, 1;stroke-dashoffset:0" />
    <path
       style="fill:none;stroke:#000000;stroke-width:1;stroke-linecap:butt;stroke-linejoin:miter;stroke-miterlimit:4;stroke-opacity:1;stroke-dasharray:1, 1;stroke-dashoffset:0"
       d="M 293.57867,464.12655 464.15848,293.54673"
       id="path5870" />
    <g
       ns0:text="Caract\\\'eristique 1"
       ns0:preamble=""
       transform="matrix(1.5,0,0,1.5,-112.58834,280.26084)"
       id="g5959">
      <defs
         id="defs5961">
        <g
           id="g5963">
          <symbol
             style="overflow:visible"
             overflow="visible"
             id="textext-479fe198-0">
            <path
               style="stroke:none"
               d=""
               id="path5966" />
          </symbol>
          <symbol
             style="overflow:visible"
             overflow="visible"
             id="textext-479fe198-1">
            <path
               style="stroke:none"
               d="m 6.625,-6.78125 c 0,-0.171875 0,-0.25 -0.109375,-0.25 -0.03125,0 -0.078125,0 -0.15625,0.125 l -0.5,0.734375 C 5.5,-6.53125 4.984375,-7.03125 4.03125,-7.03125 c -1.875,0 -3.46875,1.59375 -3.46875,3.625 0,2.0625 1.609375,3.625 3.46875,3.625 1.625,0 2.59375,-1.390625 2.59375,-2.546875 C 6.625,-2.421875 6.625,-2.5 6.5,-2.5 6.390625,-2.5 6.390625,-2.4375 6.375,-2.328125 6.296875,-0.90625 5.234375,-0.09375 4.140625,-0.09375 c -0.609375,0 -2.5625,-0.328125 -2.5625,-3.3125 0,-2.96875 1.953125,-3.3125 2.5625,-3.3125 1.078125,0 1.96875,0.90625 2.171875,2.359375 0.015625,0.140625 0.015625,0.171875 0.15625,0.171875 0.15625,0 0.15625,-0.03125 0.15625,-0.234375 l 0,-2.359375 z m 0,0"
               id="path5969" />
          </symbol>
          <symbol
             style="overflow:visible"
             overflow="visible"
             id="textext-479fe198-2">
            <path
               style="stroke:none"
               d="m 3.3125,-0.75 c 0.046875,0.390625 0.3125,0.8125 0.78125,0.8125 0.21875,0 0.828125,-0.140625 0.828125,-0.953125 l 0,-0.5625 -0.25,0 0,0.5625 c 0,0.578125 -0.25,0.640625 -0.359375,0.640625 -0.328125,0 -0.375,-0.453125 -0.375,-0.5 l 0,-1.984375 c 0,-0.421875 0,-0.8125 -0.359375,-1.1875 C 3.1875,-4.3125 2.6875,-4.46875 2.21875,-4.46875 c -0.828125,0 -1.515625,0.46875 -1.515625,1.125 0,0.296875 0.203125,0.46875 0.46875,0.46875 0.28125,0 0.453125,-0.203125 0.453125,-0.453125 0,-0.125 -0.046875,-0.453125 -0.515625,-0.453125 C 1.390625,-4.140625 1.875,-4.25 2.1875,-4.25 c 0.5,0 1.0625,0.390625 1.0625,1.28125 l 0,0.359375 c -0.515625,0.03125 -1.203125,0.0625 -1.828125,0.359375 -0.75,0.34375 -1,0.859375 -1,1.296875 0,0.8125 0.96875,1.0625 1.59375,1.0625 0.65625,0 1.109375,-0.40625 1.296875,-0.859375 z M 3.25,-2.390625 l 0,1 c 0,0.9375 -0.71875,1.28125 -1.171875,1.28125 -0.484375,0 -0.890625,-0.34375 -0.890625,-0.84375 0,-0.546875 0.421875,-1.375 2.0625,-1.4375 z m 0,0"
               id="path5972" />
          </symbol>
          <symbol
             style="overflow:visible"
             overflow="visible"
             id="textext-479fe198-3">
            <path
               style="stroke:none"
               d="m 1.71875,-0.78125 0,-1.53125 c 0,-0.984375 0.421875,-1.875 1.171875,-1.875 0.0625,0 0.09375,0 0.109375,0.015625 -0.03125,0 -0.234375,0.125 -0.234375,0.390625 0,0.265625 0.21875,0.421875 0.4375,0.421875 0.171875,0 0.421875,-0.125 0.421875,-0.4375 0,-0.3125 -0.3125,-0.609375 -0.734375,-0.609375 -0.734375,0 -1.09375,0.671875 -1.21875,1.09375 l 0,-1.09375 -1.390625,0.109375 0,0.3125 c 0.703125,0 0.78125,0.0625 0.78125,0.5625 l 0,2.671875 c 0,0.4375 -0.109375,0.4375 -0.78125,0.4375 l 0,0.3125 c 0.390625,-0.015625 0.859375,-0.03125 1.140625,-0.03125 0.390625,0 0.859375,0 1.265625,0.03125 l 0,-0.3125 -0.21875,0 c -0.734375,0 -0.75,-0.109375 -0.75,-0.46875 z m 0,0"
               id="path5975" />
          </symbol>
          <symbol
             style="overflow:visible"
             overflow="visible"
             id="textext-479fe198-4">
            <path
               style="stroke:none"
               d="m 3.578125,-3.84375 c -0.40625,0.03125 -0.46875,0.328125 -0.46875,0.453125 0,0.265625 0.1875,0.453125 0.453125,0.453125 0.265625,0 0.46875,-0.15625 0.46875,-0.46875 0,-0.671875 -0.765625,-1.0625 -1.53125,-1.0625 -1.25,0 -2.15625,1.078125 -2.15625,2.3125 0,1.28125 0.984375,2.265625 2.140625,2.265625 1.328125,0 1.65625,-1.203125 1.65625,-1.296875 0,-0.09375 -0.109375,-0.09375 -0.140625,-0.09375 -0.078125,0 -0.109375,0.03125 -0.125,0.09375 -0.28125,0.921875 -0.9375,1.046875 -1.296875,1.046875 -0.53125,0 -1.40625,-0.421875 -1.40625,-2.03125 0,-1.625 0.8125,-2.046875 1.34375,-2.046875 0.09375,0 0.71875,0.015625 1.0625,0.375 z m 0,0"
               id="path5978" />
          </symbol>
          <symbol
             style="overflow:visible"
             overflow="visible"
             id="textext-479fe198-5">
            <path
               style="stroke:none"
               d="m 1.71875,-3.984375 1.4375,0 0,-0.3125 -1.4375,0 0,-1.828125 -0.25,0 c 0,0.8125 -0.296875,1.875 -1.28125,1.921875 l 0,0.21875 0.84375,0 0,2.75 c 0,1.21875 0.9375,1.34375 1.296875,1.34375 0.703125,0 0.984375,-0.703125 0.984375,-1.34375 l 0,-0.5625 -0.25,0 0,0.546875 c 0,0.734375 -0.296875,1.109375 -0.671875,1.109375 -0.671875,0 -0.671875,-0.90625 -0.671875,-1.078125 l 0,-2.765625 z m 0,0"
               id="path5981" />
          </symbol>
          <symbol
             style="overflow:visible"
             overflow="visible"
             id="textext-479fe198-6">
            <path
               style="stroke:none"
               d="M 3.734375,-6.296875 C 3.828125,-6.375 3.90625,-6.484375 3.90625,-6.59375 c 0,-0.1875 -0.171875,-0.359375 -0.359375,-0.359375 -0.140625,0 -0.25,0.109375 -0.296875,0.171875 l -1.203125,1.515625 0.171875,0.1875 1.515625,-1.21875 z m 0,0"
               id="path5984" />
          </symbol>
          <symbol
             style="overflow:visible"
             overflow="visible"
             id="textext-479fe198-7">
            <path
               style="stroke:none"
               d="m 3.890625,-2.296875 c 0.21875,0 0.25,0 0.25,-0.21875 0,-0.984375 -0.546875,-1.953125 -1.78125,-1.953125 -1.15625,0 -2.078125,1.03125 -2.078125,2.28125 0,1.328125 1.046875,2.296875 2.1875,2.296875 C 3.6875,0.109375 4.140625,-1 4.140625,-1.1875 4.140625,-1.28125 4.0625,-1.3125 4,-1.3125 c -0.078125,0 -0.109375,0.0625 -0.125,0.140625 -0.34375,1.03125 -1.25,1.03125 -1.34375,1.03125 -0.5,0 -0.890625,-0.296875 -1.125,-0.671875 -0.296875,-0.46875 -0.296875,-1.125 -0.296875,-1.484375 l 2.78125,0 z m -2.78125,-0.21875 C 1.171875,-4 2.015625,-4.25 2.359375,-4.25 c 1.015625,0 1.125,1.34375 1.125,1.734375 l -2.375,0 z m 0,0"
               id="path5987" />
          </symbol>
          <symbol
             style="overflow:visible"
             overflow="visible"
             id="textext-479fe198-8">
            <path
               style="stroke:none"
               d="M 1.765625,-4.40625 0.375,-4.296875 l 0,0.3125 c 0.640625,0 0.734375,0.0625 0.734375,0.546875 l 0,2.6875 c 0,0.4375 -0.109375,0.4375 -0.78125,0.4375 l 0,0.3125 C 0.640625,-0.015625 1.1875,-0.03125 1.421875,-0.03125 1.78125,-0.03125 2.125,-0.015625 2.46875,0 l 0,-0.3125 c -0.671875,0 -0.703125,-0.046875 -0.703125,-0.4375 l 0,-3.65625 z m 0.03125,-1.734375 c 0,-0.3125 -0.234375,-0.53125 -0.515625,-0.53125 -0.3125,0 -0.53125,0.265625 -0.53125,0.53125 0,0.265625 0.21875,0.53125 0.53125,0.53125 0.28125,0 0.515625,-0.21875 0.515625,-0.53125 z m 0,0"
               id="path5990" />
          </symbol>
          <symbol
             style="overflow:visible"
             overflow="visible"
             id="textext-479fe198-9">
            <path
               style="stroke:none"
               d="m 2.078125,-1.9375 c 0.21875,0.046875 1.03125,0.203125 1.03125,0.921875 0,0.5 -0.34375,0.90625 -1.125,0.90625 -0.84375,0 -1.203125,-0.5625 -1.390625,-1.421875 C 0.5625,-1.65625 0.5625,-1.6875 0.453125,-1.6875 c -0.125,0 -0.125,0.0625 -0.125,0.234375 l 0,1.328125 c 0,0.171875 0,0.234375 0.109375,0.234375 0.046875,0 0.0625,-0.015625 0.25,-0.203125 0.015625,-0.015625 0.015625,-0.03125 0.203125,-0.21875 0.4375,0.40625 0.890625,0.421875 1.09375,0.421875 1.140625,0 1.609375,-0.671875 1.609375,-1.390625 0,-0.515625 -0.296875,-0.828125 -0.421875,-0.9375 C 2.84375,-2.546875 2.453125,-2.625 2.03125,-2.703125 1.46875,-2.8125 0.8125,-2.9375 0.8125,-3.515625 c 0,-0.359375 0.25,-0.765625 1.109375,-0.765625 1.09375,0 1.15625,0.90625 1.171875,1.203125 0,0.09375 0.09375,0.09375 0.109375,0.09375 0.140625,0 0.140625,-0.046875 0.140625,-0.234375 l 0,-1.015625 c 0,-0.15625 0,-0.234375 -0.109375,-0.234375 -0.046875,0 -0.078125,0 -0.203125,0.125 -0.03125,0.03125 -0.125,0.125 -0.171875,0.15625 -0.375,-0.28125 -0.78125,-0.28125 -0.9375,-0.28125 -1.21875,0 -1.59375,0.671875 -1.59375,1.234375 0,0.34375 0.15625,0.625 0.421875,0.84375 0.328125,0.25 0.609375,0.3125 1.328125,0.453125 z m 0,0"
               id="path5993" />
          </symbol>
          <symbol
             style="overflow:visible"
             overflow="visible"
             id="textext-479fe198-10">
            <path
               style="stroke:none"
               d="m 3.78125,-0.609375 0,1.78125 C 3.78125,1.625 3.671875,1.625 3.015625,1.625 l 0,0.3125 C 3.34375,1.921875 3.875,1.90625 4.125,1.90625 c 0.265625,0 0.78125,0.015625 1.125,0.03125 l 0,-0.3125 c -0.671875,0 -0.78125,0 -0.78125,-0.453125 l 0,-5.578125 -0.21875,0 L 3.875,-3.5 C 3.75,-3.78125 3.34375,-4.40625 2.546875,-4.40625 c -1.15625,0 -2.203125,0.96875 -2.203125,2.265625 0,1.25 0.96875,2.25 2.125,2.25 0.6875,0 1.09375,-0.421875 1.3125,-0.71875 z m 0.03125,-2.15625 0,1.40625 C 3.8125,-1.03125 3.640625,-0.75 3.421875,-0.515625 3.296875,-0.375 2.96875,-0.109375 2.5,-0.109375 1.78125,-0.109375 1.171875,-1 1.171875,-2.140625 c 0,-1.1875 0.6875,-2.015625 1.4375,-2.015625 0.796875,0 1.203125,0.859375 1.203125,1.390625 z m 0,0"
               id="path5996" />
          </symbol>
          <symbol
             style="overflow:visible"
             overflow="visible"
             id="textext-479fe198-11">
            <path
               style="stroke:none"
               d="m 3.890625,-0.78125 0,0.890625 L 5.328125,0 l 0,-0.3125 C 4.640625,-0.3125 4.5625,-0.375 4.5625,-0.875 l 0,-3.53125 -1.46875,0.109375 0,0.3125 c 0.6875,0 0.78125,0.0625 0.78125,0.5625 l 0,1.765625 c 0,0.875 -0.484375,1.546875 -1.21875,1.546875 -0.828125,0 -0.875,-0.46875 -0.875,-0.984375 l 0,-3.3125 -1.46875,0.109375 0,0.3125 c 0.78125,0 0.78125,0.03125 0.78125,0.90625 l 0,1.5 c 0,0.78125 0,1.6875 1.515625,1.6875 0.5625,0 1,-0.28125 1.28125,-0.890625 z m 0,0"
               id="path5999" />
          </symbol>
          <symbol
             style="overflow:visible"
             overflow="visible"
             id="textext-479fe198-12">
            <path
               style="stroke:none"
               d="m 2.9375,-6.375 c 0,-0.25 0,-0.265625 -0.234375,-0.265625 C 2.078125,-6 1.203125,-6 0.890625,-6 l 0,0.3125 c 0.203125,0 0.78125,0 1.296875,-0.265625 l 0,5.171875 c 0,0.359375 -0.03125,0.46875 -0.921875,0.46875 l -0.3125,0 0,0.3125 c 0.34375,-0.03125 1.203125,-0.03125 1.609375,-0.03125 0.390625,0 1.265625,0 1.609375,0.03125 l 0,-0.3125 -0.3125,0 c -0.90625,0 -0.921875,-0.109375 -0.921875,-0.46875 l 0,-5.59375 z m 0,0"
               id="path6002" />
          </symbol>
        </g>
      </defs>
      <g
         id="textext-479fe198-13">
        <g
           style="fill:#000000;fill-opacity:1"
           id="g6005">
          <use
             height="1052.3622"
             width="744.09448"
             xlink:href="#textext-479fe198-1"
             x="223.43201"
             y="134.765"
             id="use6007" />
          <use
             height="1052.3622"
             width="744.09448"
             xlink:href="#textext-479fe198-2"
             x="230.62698"
             y="134.765"
             id="use6009" />
          <use
             height="1052.3622"
             width="744.09448"
             xlink:href="#textext-479fe198-3"
             x="235.60829"
             y="134.765"
             id="use6011" />
          <use
             height="1052.3622"
             width="744.09448"
             xlink:href="#textext-479fe198-2"
             x="239.51064"
             y="134.765"
             id="use6013" />
          <use
             height="1052.3622"
             width="744.09448"
             xlink:href="#textext-479fe198-4"
             x="244.49194"
             y="134.765"
             id="use6015" />
          <use
             height="1052.3622"
             width="744.09448"
             xlink:href="#textext-479fe198-5"
             x="248.91933"
             y="134.765"
             id="use6017" />
        </g>
        <g
           style="fill:#000000;fill-opacity:1"
           id="g6019">
          <use
             height="1052.3622"
             width="744.09448"
             xlink:href="#textext-479fe198-6"
             x="252.51482"
             y="134.765"
             id="use6021" />
        </g>
        <g
           style="fill:#000000;fill-opacity:1"
           id="g6023">
          <use
             height="1052.3622"
             width="744.09448"
             xlink:href="#textext-479fe198-7"
             x="252.79378"
             y="134.765"
             id="use6025" />
          <use
             height="1052.3622"
             width="744.09448"
             xlink:href="#textext-479fe198-3"
             x="257.22116"
             y="134.765"
             id="use6027" />
          <use
             height="1052.3622"
             width="744.09448"
             xlink:href="#textext-479fe198-8"
             x="261.1235"
             y="134.765"
             id="use6029" />
          <use
             height="1052.3622"
             width="744.09448"
             xlink:href="#textext-479fe198-9"
             x="263.89111"
             y="134.765"
             id="use6031" />
          <use
             height="1052.3622"
             width="744.09448"
             xlink:href="#textext-479fe198-5"
             x="267.82037"
             y="134.765"
             id="use6033" />
          <use
             height="1052.3622"
             width="744.09448"
             xlink:href="#textext-479fe198-8"
             x="271.69482"
             y="134.765"
             id="use6035" />
          <use
             height="1052.3622"
             width="744.09448"
             xlink:href="#textext-479fe198-10"
             x="274.46243"
             y="134.765"
             id="use6037" />
          <use
             height="1052.3622"
             width="744.09448"
             xlink:href="#textext-479fe198-11"
             x="279.7207"
             y="134.765"
             id="use6039" />
          <use
             height="1052.3622"
             width="744.09448"
             xlink:href="#textext-479fe198-7"
             x="285.25592"
             y="134.765"
             id="use6041" />
        </g>
        <g
           style="fill:#000000;fill-opacity:1"
           id="g6043">
          <use
             height="1052.3622"
             width="744.09448"
             xlink:href="#textext-479fe198-12"
             x="293.00082"
             y="134.765"
             id="use6045" />
        </g>
      </g>
    </g>
    <g
       id="g6276"
       transform="matrix(0,-1.5,1.5,0,-96.911408,734.33907)"
       ns0:preamble=""
       ns0:text="Caract\\\'eristique 2">
      <defs
         id="defs6278">
        <g
           id="g6280">
          <symbol
             style="overflow:visible"
             id="textext-718ab090-0"
             overflow="visible">
            <path
               id="path6283"
               d=""
               style="stroke:none" />
          </symbol>
          <symbol
             style="overflow:visible"
             id="textext-718ab090-1"
             overflow="visible">
            <path
               id="path6286"
               d="m 6.625,-6.78125 c 0,-0.171875 0,-0.25 -0.109375,-0.25 -0.03125,0 -0.078125,0 -0.15625,0.125 l -0.5,0.734375 C 5.5,-6.53125 4.984375,-7.03125 4.03125,-7.03125 c -1.875,0 -3.46875,1.59375 -3.46875,3.625 0,2.0625 1.609375,3.625 3.46875,3.625 1.625,0 2.59375,-1.390625 2.59375,-2.546875 C 6.625,-2.421875 6.625,-2.5 6.5,-2.5 6.390625,-2.5 6.390625,-2.4375 6.375,-2.328125 6.296875,-0.90625 5.234375,-0.09375 4.140625,-0.09375 c -0.609375,0 -2.5625,-0.328125 -2.5625,-3.3125 0,-2.96875 1.953125,-3.3125 2.5625,-3.3125 1.078125,0 1.96875,0.90625 2.171875,2.359375 0.015625,0.140625 0.015625,0.171875 0.15625,0.171875 0.15625,0 0.15625,-0.03125 0.15625,-0.234375 l 0,-2.359375 z m 0,0"
               style="stroke:none" />
          </symbol>
          <symbol
             style="overflow:visible"
             id="textext-718ab090-2"
             overflow="visible">
            <path
               id="path6289"
               d="m 3.3125,-0.75 c 0.046875,0.390625 0.3125,0.8125 0.78125,0.8125 0.21875,0 0.828125,-0.140625 0.828125,-0.953125 l 0,-0.5625 -0.25,0 0,0.5625 c 0,0.578125 -0.25,0.640625 -0.359375,0.640625 -0.328125,0 -0.375,-0.453125 -0.375,-0.5 l 0,-1.984375 c 0,-0.421875 0,-0.8125 -0.359375,-1.1875 C 3.1875,-4.3125 2.6875,-4.46875 2.21875,-4.46875 c -0.828125,0 -1.515625,0.46875 -1.515625,1.125 0,0.296875 0.203125,0.46875 0.46875,0.46875 0.28125,0 0.453125,-0.203125 0.453125,-0.453125 0,-0.125 -0.046875,-0.453125 -0.515625,-0.453125 C 1.390625,-4.140625 1.875,-4.25 2.1875,-4.25 c 0.5,0 1.0625,0.390625 1.0625,1.28125 l 0,0.359375 c -0.515625,0.03125 -1.203125,0.0625 -1.828125,0.359375 -0.75,0.34375 -1,0.859375 -1,1.296875 0,0.8125 0.96875,1.0625 1.59375,1.0625 0.65625,0 1.109375,-0.40625 1.296875,-0.859375 z M 3.25,-2.390625 l 0,1 c 0,0.9375 -0.71875,1.28125 -1.171875,1.28125 -0.484375,0 -0.890625,-0.34375 -0.890625,-0.84375 0,-0.546875 0.421875,-1.375 2.0625,-1.4375 z m 0,0"
               style="stroke:none" />
          </symbol>
          <symbol
             style="overflow:visible"
             id="textext-718ab090-3"
             overflow="visible">
            <path
               id="path6292"
               d="m 1.71875,-0.78125 0,-1.53125 c 0,-0.984375 0.421875,-1.875 1.171875,-1.875 0.0625,0 0.09375,0 0.109375,0.015625 -0.03125,0 -0.234375,0.125 -0.234375,0.390625 0,0.265625 0.21875,0.421875 0.4375,0.421875 0.171875,0 0.421875,-0.125 0.421875,-0.4375 0,-0.3125 -0.3125,-0.609375 -0.734375,-0.609375 -0.734375,0 -1.09375,0.671875 -1.21875,1.09375 l 0,-1.09375 -1.390625,0.109375 0,0.3125 c 0.703125,0 0.78125,0.0625 0.78125,0.5625 l 0,2.671875 c 0,0.4375 -0.109375,0.4375 -0.78125,0.4375 l 0,0.3125 c 0.390625,-0.015625 0.859375,-0.03125 1.140625,-0.03125 0.390625,0 0.859375,0 1.265625,0.03125 l 0,-0.3125 -0.21875,0 c -0.734375,0 -0.75,-0.109375 -0.75,-0.46875 z m 0,0"
               style="stroke:none" />
          </symbol>
          <symbol
             style="overflow:visible"
             id="textext-718ab090-4"
             overflow="visible">
            <path
               id="path6295"
               d="m 3.578125,-3.84375 c -0.40625,0.03125 -0.46875,0.328125 -0.46875,0.453125 0,0.265625 0.1875,0.453125 0.453125,0.453125 0.265625,0 0.46875,-0.15625 0.46875,-0.46875 0,-0.671875 -0.765625,-1.0625 -1.53125,-1.0625 -1.25,0 -2.15625,1.078125 -2.15625,2.3125 0,1.28125 0.984375,2.265625 2.140625,2.265625 1.328125,0 1.65625,-1.203125 1.65625,-1.296875 0,-0.09375 -0.109375,-0.09375 -0.140625,-0.09375 -0.078125,0 -0.109375,0.03125 -0.125,0.09375 -0.28125,0.921875 -0.9375,1.046875 -1.296875,1.046875 -0.53125,0 -1.40625,-0.421875 -1.40625,-2.03125 0,-1.625 0.8125,-2.046875 1.34375,-2.046875 0.09375,0 0.71875,0.015625 1.0625,0.375 z m 0,0"
               style="stroke:none" />
          </symbol>
          <symbol
             style="overflow:visible"
             id="textext-718ab090-5"
             overflow="visible">
            <path
               id="path6298"
               d="m 1.71875,-3.984375 1.4375,0 0,-0.3125 -1.4375,0 0,-1.828125 -0.25,0 c 0,0.8125 -0.296875,1.875 -1.28125,1.921875 l 0,0.21875 0.84375,0 0,2.75 c 0,1.21875 0.9375,1.34375 1.296875,1.34375 0.703125,0 0.984375,-0.703125 0.984375,-1.34375 l 0,-0.5625 -0.25,0 0,0.546875 c 0,0.734375 -0.296875,1.109375 -0.671875,1.109375 -0.671875,0 -0.671875,-0.90625 -0.671875,-1.078125 l 0,-2.765625 z m 0,0"
               style="stroke:none" />
          </symbol>
          <symbol
             style="overflow:visible"
             id="textext-718ab090-6"
             overflow="visible">
            <path
               id="path6301"
               d="M 3.734375,-6.296875 C 3.828125,-6.375 3.90625,-6.484375 3.90625,-6.59375 c 0,-0.1875 -0.171875,-0.359375 -0.359375,-0.359375 -0.140625,0 -0.25,0.109375 -0.296875,0.171875 l -1.203125,1.515625 0.171875,0.1875 1.515625,-1.21875 z m 0,0"
               style="stroke:none" />
          </symbol>
          <symbol
             style="overflow:visible"
             id="textext-718ab090-7"
             overflow="visible">
            <path
               id="path6304"
               d="m 3.890625,-2.296875 c 0.21875,0 0.25,0 0.25,-0.21875 0,-0.984375 -0.546875,-1.953125 -1.78125,-1.953125 -1.15625,0 -2.078125,1.03125 -2.078125,2.28125 0,1.328125 1.046875,2.296875 2.1875,2.296875 C 3.6875,0.109375 4.140625,-1 4.140625,-1.1875 4.140625,-1.28125 4.0625,-1.3125 4,-1.3125 c -0.078125,0 -0.109375,0.0625 -0.125,0.140625 -0.34375,1.03125 -1.25,1.03125 -1.34375,1.03125 -0.5,0 -0.890625,-0.296875 -1.125,-0.671875 -0.296875,-0.46875 -0.296875,-1.125 -0.296875,-1.484375 l 2.78125,0 z m -2.78125,-0.21875 C 1.171875,-4 2.015625,-4.25 2.359375,-4.25 c 1.015625,0 1.125,1.34375 1.125,1.734375 l -2.375,0 z m 0,0"
               style="stroke:none" />
          </symbol>
          <symbol
             style="overflow:visible"
             id="textext-718ab090-8"
             overflow="visible">
            <path
               id="path6307"
               d="M 1.765625,-4.40625 0.375,-4.296875 l 0,0.3125 c 0.640625,0 0.734375,0.0625 0.734375,0.546875 l 0,2.6875 c 0,0.4375 -0.109375,0.4375 -0.78125,0.4375 l 0,0.3125 C 0.640625,-0.015625 1.1875,-0.03125 1.421875,-0.03125 1.78125,-0.03125 2.125,-0.015625 2.46875,0 l 0,-0.3125 c -0.671875,0 -0.703125,-0.046875 -0.703125,-0.4375 l 0,-3.65625 z m 0.03125,-1.734375 c 0,-0.3125 -0.234375,-0.53125 -0.515625,-0.53125 -0.3125,0 -0.53125,0.265625 -0.53125,0.53125 0,0.265625 0.21875,0.53125 0.53125,0.53125 0.28125,0 0.515625,-0.21875 0.515625,-0.53125 z m 0,0"
               style="stroke:none" />
          </symbol>
          <symbol
             style="overflow:visible"
             id="textext-718ab090-9"
             overflow="visible">
            <path
               id="path6310"
               d="m 2.078125,-1.9375 c 0.21875,0.046875 1.03125,0.203125 1.03125,0.921875 0,0.5 -0.34375,0.90625 -1.125,0.90625 -0.84375,0 -1.203125,-0.5625 -1.390625,-1.421875 C 0.5625,-1.65625 0.5625,-1.6875 0.453125,-1.6875 c -0.125,0 -0.125,0.0625 -0.125,0.234375 l 0,1.328125 c 0,0.171875 0,0.234375 0.109375,0.234375 0.046875,0 0.0625,-0.015625 0.25,-0.203125 0.015625,-0.015625 0.015625,-0.03125 0.203125,-0.21875 0.4375,0.40625 0.890625,0.421875 1.09375,0.421875 1.140625,0 1.609375,-0.671875 1.609375,-1.390625 0,-0.515625 -0.296875,-0.828125 -0.421875,-0.9375 C 2.84375,-2.546875 2.453125,-2.625 2.03125,-2.703125 1.46875,-2.8125 0.8125,-2.9375 0.8125,-3.515625 c 0,-0.359375 0.25,-0.765625 1.109375,-0.765625 1.09375,0 1.15625,0.90625 1.171875,1.203125 0,0.09375 0.09375,0.09375 0.109375,0.09375 0.140625,0 0.140625,-0.046875 0.140625,-0.234375 l 0,-1.015625 c 0,-0.15625 0,-0.234375 -0.109375,-0.234375 -0.046875,0 -0.078125,0 -0.203125,0.125 -0.03125,0.03125 -0.125,0.125 -0.171875,0.15625 -0.375,-0.28125 -0.78125,-0.28125 -0.9375,-0.28125 -1.21875,0 -1.59375,0.671875 -1.59375,1.234375 0,0.34375 0.15625,0.625 0.421875,0.84375 0.328125,0.25 0.609375,0.3125 1.328125,0.453125 z m 0,0"
               style="stroke:none" />
          </symbol>
          <symbol
             style="overflow:visible"
             id="textext-718ab090-10"
             overflow="visible">
            <path
               id="path6313"
               d="m 3.78125,-0.609375 0,1.78125 C 3.78125,1.625 3.671875,1.625 3.015625,1.625 l 0,0.3125 C 3.34375,1.921875 3.875,1.90625 4.125,1.90625 c 0.265625,0 0.78125,0.015625 1.125,0.03125 l 0,-0.3125 c -0.671875,0 -0.78125,0 -0.78125,-0.453125 l 0,-5.578125 -0.21875,0 L 3.875,-3.5 C 3.75,-3.78125 3.34375,-4.40625 2.546875,-4.40625 c -1.15625,0 -2.203125,0.96875 -2.203125,2.265625 0,1.25 0.96875,2.25 2.125,2.25 0.6875,0 1.09375,-0.421875 1.3125,-0.71875 z m 0.03125,-2.15625 0,1.40625 C 3.8125,-1.03125 3.640625,-0.75 3.421875,-0.515625 3.296875,-0.375 2.96875,-0.109375 2.5,-0.109375 1.78125,-0.109375 1.171875,-1 1.171875,-2.140625 c 0,-1.1875 0.6875,-2.015625 1.4375,-2.015625 0.796875,0 1.203125,0.859375 1.203125,1.390625 z m 0,0"
               style="stroke:none" />
          </symbol>
          <symbol
             style="overflow:visible"
             id="textext-718ab090-11"
             overflow="visible">
            <path
               id="path6316"
               d="m 3.890625,-0.78125 0,0.890625 L 5.328125,0 l 0,-0.3125 C 4.640625,-0.3125 4.5625,-0.375 4.5625,-0.875 l 0,-3.53125 -1.46875,0.109375 0,0.3125 c 0.6875,0 0.78125,0.0625 0.78125,0.5625 l 0,1.765625 c 0,0.875 -0.484375,1.546875 -1.21875,1.546875 -0.828125,0 -0.875,-0.46875 -0.875,-0.984375 l 0,-3.3125 -1.46875,0.109375 0,0.3125 c 0.78125,0 0.78125,0.03125 0.78125,0.90625 l 0,1.5 c 0,0.78125 0,1.6875 1.515625,1.6875 0.5625,0 1,-0.28125 1.28125,-0.890625 z m 0,0"
               style="stroke:none" />
          </symbol>
          <symbol
             style="overflow:visible"
             id="textext-718ab090-12"
             overflow="visible">
            <path
               id="path6319"
               d="m 4.46875,-1.734375 -0.234375,0 C 4.171875,-1.4375 4.109375,-1 4,-0.84375 3.9375,-0.765625 3.28125,-0.765625 3.0625,-0.765625 l -1.796875,0 1.0625,-1.03125 c 1.546875,-1.375 2.140625,-1.90625 2.140625,-2.90625 0,-1.140625 -0.890625,-1.9375 -2.109375,-1.9375 -1.125,0 -1.859375,0.921875 -1.859375,1.8125 0,0.546875 0.5,0.546875 0.53125,0.546875 0.171875,0 0.515625,-0.109375 0.515625,-0.53125 0,-0.25 -0.1875,-0.515625 -0.53125,-0.515625 -0.078125,0 -0.09375,0 -0.125,0.015625 0.21875,-0.65625 0.765625,-1.015625 1.34375,-1.015625 0.90625,0 1.328125,0.8125 1.328125,1.625 C 3.5625,-3.90625 3.078125,-3.125 2.515625,-2.5 l -1.90625,2.125 C 0.5,-0.265625 0.5,-0.234375 0.5,0 L 4.203125,0 4.46875,-1.734375 z m 0,0"
               style="stroke:none" />
          </symbol>
        </g>
      </defs>
      <g
         id="textext-718ab090-13">
        <g
           id="g6322"
           style="fill:#000000;fill-opacity:1">
          <use
             height="1052.3622"
             width="744.09448"
             id="use6324"
             y="134.765"
             x="223.43201"
             xlink:href="#textext-718ab090-1" />
          <use
             height="1052.3622"
             width="744.09448"
             id="use6326"
             y="134.765"
             x="230.62698"
             xlink:href="#textext-718ab090-2" />
          <use
             height="1052.3622"
             width="744.09448"
             id="use6328"
             y="134.765"
             x="235.60829"
             xlink:href="#textext-718ab090-3" />
          <use
             height="1052.3622"
             width="744.09448"
             id="use6330"
             y="134.765"
             x="239.51064"
             xlink:href="#textext-718ab090-2" />
          <use
             height="1052.3622"
             width="744.09448"
             id="use6332"
             y="134.765"
             x="244.49194"
             xlink:href="#textext-718ab090-4" />
          <use
             height="1052.3622"
             width="744.09448"
             id="use6334"
             y="134.765"
             x="248.91933"
             xlink:href="#textext-718ab090-5" />
        </g>
        <g
           id="g6336"
           style="fill:#000000;fill-opacity:1">
          <use
             height="1052.3622"
             width="744.09448"
             id="use6338"
             y="134.765"
             x="252.51482"
             xlink:href="#textext-718ab090-6" />
        </g>
        <g
           id="g6340"
           style="fill:#000000;fill-opacity:1">
          <use
             height="1052.3622"
             width="744.09448"
             id="use6342"
             y="134.765"
             x="252.79378"
             xlink:href="#textext-718ab090-7" />
          <use
             height="1052.3622"
             width="744.09448"
             id="use6344"
             y="134.765"
             x="257.22116"
             xlink:href="#textext-718ab090-3" />
          <use
             height="1052.3622"
             width="744.09448"
             id="use6346"
             y="134.765"
             x="261.1235"
             xlink:href="#textext-718ab090-8" />
          <use
             height="1052.3622"
             width="744.09448"
             id="use6348"
             y="134.765"
             x="263.89111"
             xlink:href="#textext-718ab090-9" />
          <use
             height="1052.3622"
             width="744.09448"
             id="use6350"
             y="134.765"
             x="267.82037"
             xlink:href="#textext-718ab090-5" />
          <use
             height="1052.3622"
             width="744.09448"
             id="use6352"
             y="134.765"
             x="271.69482"
             xlink:href="#textext-718ab090-8" />
          <use
             height="1052.3622"
             width="744.09448"
             id="use6354"
             y="134.765"
             x="274.46243"
             xlink:href="#textext-718ab090-10" />
          <use
             height="1052.3622"
             width="744.09448"
             id="use6356"
             y="134.765"
             x="279.7207"
             xlink:href="#textext-718ab090-11" />
          <use
             height="1052.3622"
             width="744.09448"
             id="use6358"
             y="134.765"
             x="285.25592"
             xlink:href="#textext-718ab090-7" />
        </g>
        <g
           id="g6360"
           style="fill:#000000;fill-opacity:1">
          <use
             height="1052.3622"
             width="744.09448"
             id="use6362"
             y="134.765"
             x="293.00082"
             xlink:href="#textext-718ab090-12" />
        </g>
      </g>
    </g>
    <path
       id="path9757"
       d="M 358.65712,320.99774 338.70661,301.04722"
       style="fill:none;stroke:#000000;stroke-width:1px;stroke-linecap:butt;stroke-linejoin:miter;stroke-opacity:1;marker-mid:none;marker-end:url(#Arrow1Mend)" />
    <rect
       transform="matrix(0.70710678,-0.70710678,0.70710678,0.70710678,0,0)"
       y="475.73077"
       x="26.60404"
       height="5.0446429"
       width="5.0446429"
       id="rect10521"
       style="fill:none;stroke:#000000;stroke-width:0.5;stroke-miterlimit:4;stroke-opacity:1;stroke-dasharray:none;stroke-dashoffset:0" />
    <g
       transform="matrix(1.3,0,0,1.3,58.004286,134.12248)"
       ns0:text="$\\vec w $"
       ns0:preamble=""
       id="g11423">
      <defs
         id="defs11425">
        <g
           id="g11427">
          <symbol
             style="overflow:visible"
             overflow="visible"
             id="textext-062856ca-0">
            <path
               style="stroke:none"
               d=""
               id="path11430" />
          </symbol>
          <symbol
             style="overflow:visible"
             overflow="visible"
             id="textext-062856ca-1">
            <path
               style="stroke:none"
               d="m 5.359375,-5.9375 c -0.140625,0.140625 -0.46875,0.421875 -0.46875,0.59375 0,0.09375 0.09375,0.203125 0.1875,0.203125 0.09375,0 0.140625,-0.078125 0.203125,-0.140625 C 5.390625,-5.421875 5.625,-5.703125 6.0625,-5.921875 6.125,-5.96875 6.234375,-6.015625 6.234375,-6.125 6.234375,-6.234375 6.15625,-6.28125 6.09375,-6.328125 5.875,-6.484375 5.765625,-6.65625 5.6875,-6.890625 5.65625,-6.984375 5.625,-7.125 5.484375,-7.125 c -0.140625,0 -0.203125,0.140625 -0.203125,0.21875 0,0.046875 0.078125,0.359375 0.234375,0.578125 l -3.359375,0 c -0.15625,0 -0.34375,0 -0.34375,0.203125 0,0.1875 0.1875,0.1875 0.34375,0.1875 l 3.203125,0 z m 0,0"
               id="path11433" />
          </symbol>
          <symbol
             style="overflow:visible"
             overflow="visible"
             id="textext-062856ca-2">
            <path
               style="stroke:none"
               d="M 4.609375,-3.375 C 4.65625,-3.59375 4.75,-3.96875 4.75,-4.03125 c 0,-0.171875 -0.140625,-0.265625 -0.28125,-0.265625 -0.125,0 -0.296875,0.078125 -0.375,0.28125 -0.03125,0.0625 -0.5,1.96875 -0.5625,2.234375 C 3.453125,-1.484375 3.4375,-1.3125 3.4375,-1.125 c 0,0.109375 0,0.125 0.015625,0.171875 -0.234375,0.53125 -0.53125,0.84375 -0.921875,0.84375 -0.796875,0 -0.796875,-0.734375 -0.796875,-0.90625 0,-0.3125 0.046875,-0.703125 0.515625,-1.9375 0.109375,-0.296875 0.171875,-0.4375 0.171875,-0.640625 0,-0.4375 -0.328125,-0.8125 -0.8125,-0.8125 -0.953125,0 -1.3125,1.453125 -1.3125,1.53125 0,0.109375 0.09375,0.109375 0.109375,0.109375 0.109375,0 0.109375,-0.03125 0.15625,-0.1875 C 0.84375,-3.875 1.21875,-4.1875 1.578125,-4.1875 c 0.09375,0 0.25,0.015625 0.25,0.328125 0,0.25 -0.109375,0.53125 -0.1875,0.703125 -0.4375,1.171875 -0.546875,1.625 -0.546875,2.015625 0,0.90625 0.65625,1.25 1.40625,1.25 0.171875,0 0.640625,0 1.03125,-0.703125 0.265625,0.640625 0.953125,0.703125 1.25,0.703125 0.75,0 1.1875,-0.625 1.453125,-1.21875 0.328125,-0.78125 0.65625,-2.125 0.65625,-2.59375 0,-0.546875 -0.265625,-0.703125 -0.4375,-0.703125 -0.25,0 -0.5,0.265625 -0.5,0.484375 0,0.125 0.0625,0.1875 0.140625,0.265625 0.109375,0.109375 0.359375,0.359375 0.359375,0.84375 0,0.34375 -0.28125,1.3125 -0.546875,1.828125 -0.25,0.53125 -0.609375,0.875 -1.09375,0.875 -0.46875,0 -0.734375,-0.296875 -0.734375,-0.875 0,-0.265625 0.0625,-0.578125 0.109375,-0.71875 L 4.609375,-3.375 z m 0,0"
               id="path11436" />
          </symbol>
        </g>
      </defs>
      <g
         id="textext-062856ca-3">
        <g
           style="fill:#000000;fill-opacity:1"
           id="g11439">
          <use
             height="1052.3622"
             width="744.09448"
             xlink:href="#textext-062856ca-1"
             x="224.70599"
             y="134.765"
             id="use11441" />
        </g>
        <g
           style="fill:#000000;fill-opacity:1"
           id="g11443">
          <use
             height="1052.3622"
             width="744.09448"
             xlink:href="#textext-062856ca-2"
             x="223.43079"
             y="134.765"
             id="use11445" />
        </g>
      </g>
    </g>
    <g
       id="g12016"
       transform="matrix(1.3,0,0,1.3,-7.1213102,174.05632)"
       ns0:preamble=""
       ns0:text="$\\frac{1}{\\Vert \\vec w \\Vert }$">
      <defs
         id="defs12018">
        <g
           id="g12020">
          <symbol
             style="overflow:visible"
             id="textext-656f602f-0"
             overflow="visible">
            <path
               id="path12023"
               d=""
               style="stroke:none" />
          </symbol>
          <symbol
             style="overflow:visible"
             id="textext-656f602f-1"
             overflow="visible">
            <path
               id="path12026"
               d="m 2.328125,-4.4375 c 0,-0.1875 0,-0.1875 -0.203125,-0.1875 -0.453125,0.4375 -1.078125,0.4375 -1.359375,0.4375 l 0,0.25 c 0.15625,0 0.625,0 1,-0.1875 l 0,3.546875 c 0,0.234375 0,0.328125 -0.6875,0.328125 l -0.265625,0 0,0.25 c 0.125,0 0.984375,-0.03125 1.234375,-0.03125 0.21875,0 1.09375,0.03125 1.25,0.03125 l 0,-0.25 -0.265625,0 c -0.703125,0 -0.703125,-0.09375 -0.703125,-0.328125 l 0,-3.859375 z m 0,0"
               style="stroke:none" />
          </symbol>
          <symbol
             style="overflow:visible"
             id="textext-656f602f-2"
             overflow="visible">
            <path
               id="path12029"
               d=""
               style="stroke:none" />
          </symbol>
          <symbol
             style="overflow:visible"
             id="textext-656f602f-3"
             overflow="visible">
            <path
               id="path12032"
               d="m 1.4375,-4.96875 c 0,-0.09375 0,-0.25 -0.171875,-0.25 -0.171875,0 -0.171875,0.171875 -0.171875,0.28125 l 0,6.390625 c 0,0.109375 0,0.28125 0.171875,0.28125 0.171875,0 0.171875,-0.15625 0.171875,-0.25 l 0,-6.453125 z m 1.53125,0.03125 c 0,-0.109375 0,-0.28125 -0.171875,-0.28125 -0.15625,0 -0.15625,0.15625 -0.15625,0.25 l 0,6.453125 c 0,0.09375 0,0.25 0.15625,0.25 0.171875,0 0.171875,-0.171875 0.171875,-0.28125 l 0,-6.390625 z m 0,0"
               style="stroke:none" />
          </symbol>
          <symbol
             style="overflow:visible"
             id="textext-656f602f-4"
             overflow="visible">
            <path
               id="path12035"
               d=""
               style="stroke:none" />
          </symbol>
          <symbol
             style="overflow:visible"
             id="textext-656f602f-5"
             overflow="visible">
            <path
               id="path12038"
               d="m 4.03125,-4.125 c -0.046875,0.0625 -0.296875,0.265625 -0.296875,0.375 0,0.109375 0.078125,0.1875 0.171875,0.1875 0.078125,0 0.125,-0.046875 0.15625,-0.109375 0.1875,-0.203125 0.390625,-0.34375 0.578125,-0.4375 0.09375,-0.03125 0.171875,-0.078125 0.171875,-0.1875 0,-0.09375 -0.0625,-0.125 -0.125,-0.15625 C 4.453125,-4.59375 4.390625,-4.78125 4.359375,-4.859375 4.34375,-4.90625 4.296875,-5.015625 4.1875,-5.015625 c -0.0625,0 -0.171875,0.046875 -0.171875,0.171875 0,0.109375 0.109375,0.296875 0.171875,0.390625 l -2.515625,0 c -0.109375,0 -0.265625,0 -0.265625,0.15625 0,0.171875 0.15625,0.171875 0.265625,0.171875 l 2.359375,0 z m 0,0"
               style="stroke:none" />
          </symbol>
          <symbol
             style="overflow:visible"
             id="textext-656f602f-6"
             overflow="visible">
            <path
               id="path12041"
               d="m 3.671875,-2.21875 c 0.046875,-0.1875 0.125,-0.53125 0.125,-0.5625 C 3.796875,-2.921875 3.6875,-3 3.5625,-3 3.4375,-3 3.3125,-2.921875 3.265625,-2.796875 3.25,-2.75 3.171875,-2.453125 3.125,-2.28125 3.03125,-1.875 3.03125,-1.875 2.921875,-1.484375 2.84375,-1.09375 2.828125,-1.03125 2.8125,-0.84375 2.84375,-0.703125 2.78125,-0.5625 2.625,-0.359375 2.53125,-0.25 2.390625,-0.125 2.15625,-0.125 1.875,-0.125 1.53125,-0.21875 1.53125,-0.765625 1.53125,-1.125 1.71875,-1.640625 1.859375,-2 1.984375,-2.296875 2,-2.359375 2,-2.484375 2,-2.8125 1.71875,-3.078125 1.34375,-3.078125 0.640625,-3.078125 0.328125,-2.125 0.328125,-2 c 0,0.078125 0.09375,0.078125 0.125,0.078125 0.09375,0 0.09375,-0.03125 0.125,-0.109375 C 0.75,-2.609375 1.046875,-2.875 1.328125,-2.875 1.4375,-2.875 1.5,-2.796875 1.5,-2.640625 c 0,0.171875 -0.0625,0.3125 -0.09375,0.40625 C 1,-1.21875 1,-1.078125 1,-0.859375 1,-0.03125 1.75,0.0625 2.125,0.0625 c 0.140625,0 0.46875,0 0.78125,-0.453125 C 3.078125,-0.078125 3.453125,0.0625 3.875,0.0625 4.5,0.0625 4.8125,-0.46875 4.953125,-0.75 5.25,-1.34375 5.4375,-2.203125 5.4375,-2.53125 c 0,-0.515625 -0.296875,-0.546875 -0.34375,-0.546875 -0.1875,0 -0.390625,0.1875 -0.390625,0.375 0,0.109375 0.078125,0.171875 0.125,0.203125 C 5,-2.359375 5.09375,-2.15625 5.09375,-1.9375 c 0,0.09375 -0.296875,1.8125 -1.1875,1.8125 -0.5625,0 -0.5625,-0.5 -0.5625,-0.625 0,-0.1875 0.03125,-0.296875 0.125,-0.6875 l 0.203125,-0.78125 z m 0,0"
               style="stroke:none" />
          </symbol>
        </g>
      </defs>
      <g
         id="textext-656f602f-7">
        <g
           id="g12044"
           style="fill:#000000;fill-opacity:1">
          <use
             height="1052.3622"
             width="744.09448"
             id="use12046"
             y="130.842"
             x="229.69901"
             xlink:href="#textext-656f602f-1" />
        </g>
        <path
           id="path12048"
           transform="matrix(1,0,0,-1,224.628,132.274)"
           d="m 9.0625e-4,5.625e-4 14.11328075,0"
           style="fill:none;stroke:#000000;stroke-width:0.398;stroke-linecap:butt;stroke-linejoin:miter;stroke-miterlimit:10;stroke-opacity:1" />
        <g
           id="g12050"
           style="fill:#000000;fill-opacity:1">
          <use
             height="1052.3622"
             width="744.09448"
             id="use12052"
             y="138.2"
             x="224.62801"
             xlink:href="#textext-656f602f-3" />
        </g>
        <g
           id="g12054"
           style="fill:#000000;fill-opacity:1">
          <use
             height="1052.3622"
             width="744.09448"
             id="use12056"
             y="138.2"
             x="229.75101"
             xlink:href="#textext-656f602f-5" />
        </g>
        <g
           id="g12058"
           style="fill:#000000;fill-opacity:1">
          <use
             height="1052.3622"
             width="744.09448"
             id="use12060"
             y="138.2"
             x="228.70702"
             xlink:href="#textext-656f602f-6" />
        </g>
        <g
           id="g12062"
           style="fill:#000000;fill-opacity:1">
          <use
             height="1052.3622"
             width="744.09448"
             id="use12064"
             y="138.2"
             x="234.661"
             xlink:href="#textext-656f602f-3" />
        </g>
      </g>
    </g>
    <g
       ns0:text="$\\vec w . x + b = 1$"
       ns0:preamble=""
       transform="matrix(0.91923881,-0.91923881,0.91923881,0.91923881,17.32028,353.53734)"
       id="g12633">
      <defs
         id="defs12635">
        <g
           id="g12637">
          <symbol
             style="overflow:visible"
             overflow="visible"
             id="textext-5ed50e7c-0">
            <path
               style="stroke:none"
               d=""
               id="path12640" />
          </symbol>
          <symbol
             style="overflow:visible"
             overflow="visible"
             id="textext-5ed50e7c-1">
            <path
               style="stroke:none"
               d="m 5.359375,-5.9375 c -0.140625,0.140625 -0.46875,0.421875 -0.46875,0.59375 0,0.09375 0.09375,0.203125 0.1875,0.203125 0.09375,0 0.140625,-0.078125 0.203125,-0.140625 C 5.390625,-5.421875 5.625,-5.703125 6.0625,-5.921875 6.125,-5.96875 6.234375,-6.015625 6.234375,-6.125 6.234375,-6.234375 6.15625,-6.28125 6.09375,-6.328125 5.875,-6.484375 5.765625,-6.65625 5.6875,-6.890625 5.65625,-6.984375 5.625,-7.125 5.484375,-7.125 c -0.140625,0 -0.203125,0.140625 -0.203125,0.21875 0,0.046875 0.078125,0.359375 0.234375,0.578125 l -3.359375,0 c -0.15625,0 -0.34375,0 -0.34375,0.203125 0,0.1875 0.1875,0.1875 0.34375,0.1875 l 3.203125,0 z m 0,0"
               id="path12643" />
          </symbol>
          <symbol
             style="overflow:visible"
             overflow="visible"
             id="textext-5ed50e7c-2">
            <path
               style="stroke:none"
               d="M 4.609375,-3.375 C 4.65625,-3.59375 4.75,-3.96875 4.75,-4.03125 c 0,-0.171875 -0.140625,-0.265625 -0.28125,-0.265625 -0.125,0 -0.296875,0.078125 -0.375,0.28125 -0.03125,0.0625 -0.5,1.96875 -0.5625,2.234375 C 3.453125,-1.484375 3.4375,-1.3125 3.4375,-1.125 c 0,0.109375 0,0.125 0.015625,0.171875 -0.234375,0.53125 -0.53125,0.84375 -0.921875,0.84375 -0.796875,0 -0.796875,-0.734375 -0.796875,-0.90625 0,-0.3125 0.046875,-0.703125 0.515625,-1.9375 0.109375,-0.296875 0.171875,-0.4375 0.171875,-0.640625 0,-0.4375 -0.328125,-0.8125 -0.8125,-0.8125 -0.953125,0 -1.3125,1.453125 -1.3125,1.53125 0,0.109375 0.09375,0.109375 0.109375,0.109375 0.109375,0 0.109375,-0.03125 0.15625,-0.1875 C 0.84375,-3.875 1.21875,-4.1875 1.578125,-4.1875 c 0.09375,0 0.25,0.015625 0.25,0.328125 0,0.25 -0.109375,0.53125 -0.1875,0.703125 -0.4375,1.171875 -0.546875,1.625 -0.546875,2.015625 0,0.90625 0.65625,1.25 1.40625,1.25 0.171875,0 0.640625,0 1.03125,-0.703125 0.265625,0.640625 0.953125,0.703125 1.25,0.703125 0.75,0 1.1875,-0.625 1.453125,-1.21875 0.328125,-0.78125 0.65625,-2.125 0.65625,-2.59375 0,-0.546875 -0.265625,-0.703125 -0.4375,-0.703125 -0.25,0 -0.5,0.265625 -0.5,0.484375 0,0.125 0.0625,0.1875 0.140625,0.265625 0.109375,0.109375 0.359375,0.359375 0.359375,0.84375 0,0.34375 -0.28125,1.3125 -0.546875,1.828125 -0.25,0.53125 -0.609375,0.875 -1.09375,0.875 -0.46875,0 -0.734375,-0.296875 -0.734375,-0.875 0,-0.265625 0.0625,-0.578125 0.109375,-0.71875 L 4.609375,-3.375 z m 0,0"
               id="path12646" />
          </symbol>
          <symbol
             style="overflow:visible"
             overflow="visible"
             id="textext-5ed50e7c-3">
            <path
               style="stroke:none"
               d="m 1.90625,-0.53125 c 0,-0.28125 -0.234375,-0.53125 -0.515625,-0.53125 -0.296875,0 -0.53125,0.25 -0.53125,0.53125 C 0.859375,-0.234375 1.09375,0 1.390625,0 1.671875,0 1.90625,-0.234375 1.90625,-0.53125 z m 0,0"
               id="path12649" />
          </symbol>
          <symbol
             style="overflow:visible"
             overflow="visible"
             id="textext-5ed50e7c-4">
            <path
               style="stroke:none"
               d="M 3.328125,-3.015625 C 3.390625,-3.265625 3.625,-4.1875 4.3125,-4.1875 c 0.046875,0 0.296875,0 0.5,0.125 C 4.53125,-4 4.34375,-3.765625 4.34375,-3.515625 c 0,0.15625 0.109375,0.34375 0.375,0.34375 0.21875,0 0.53125,-0.171875 0.53125,-0.578125 0,-0.515625 -0.578125,-0.65625 -0.921875,-0.65625 -0.578125,0 -0.921875,0.53125 -1.046875,0.75 -0.25,-0.65625 -0.78125,-0.75 -1.078125,-0.75 -1.03125,0 -1.609375,1.28125 -1.609375,1.53125 0,0.109375 0.109375,0.109375 0.125,0.109375 0.078125,0 0.109375,-0.03125 0.125,-0.109375 0.34375,-1.0625 1,-1.3125 1.34375,-1.3125 0.1875,0 0.53125,0.09375 0.53125,0.671875 0,0.3125 -0.171875,0.96875 -0.53125,2.375 -0.15625,0.609375 -0.515625,1.03125 -0.953125,1.03125 -0.0625,0 -0.28125,0 -0.5,-0.125 0.25,-0.0625 0.46875,-0.265625 0.46875,-0.546875 0,-0.265625 -0.21875,-0.34375 -0.359375,-0.34375 -0.3125,0 -0.546875,0.25 -0.546875,0.578125 0,0.453125 0.484375,0.65625 0.921875,0.65625 0.671875,0 1.03125,-0.703125 1.046875,-0.75 0.125,0.359375 0.484375,0.75 1.078125,0.75 1.03125,0 1.59375,-1.28125 1.59375,-1.53125 0,-0.109375 -0.078125,-0.109375 -0.109375,-0.109375 -0.09375,0 -0.109375,0.046875 -0.140625,0.109375 -0.328125,1.078125 -1,1.3125 -1.3125,1.3125 -0.390625,0 -0.546875,-0.3125 -0.546875,-0.65625 0,-0.21875 0.046875,-0.4375 0.15625,-0.875 l 0.34375,-1.375 z m 0,0"
               id="path12652" />
          </symbol>
          <symbol
             style="overflow:visible"
             overflow="visible"
             id="textext-5ed50e7c-5">
            <path
               style="stroke:none"
               d="m 2.375,-6.8125 c 0,0 0,-0.109375 -0.125,-0.109375 -0.21875,0 -0.953125,0.078125 -1.21875,0.109375 -0.078125,0 -0.1875,0.015625 -0.1875,0.1875 0,0.125 0.09375,0.125 0.25,0.125 0.46875,0 0.484375,0.0625 0.484375,0.171875 0,0.0625 -0.078125,0.40625 -0.125,0.609375 l -0.828125,3.25 c -0.109375,0.5 -0.15625,0.671875 -0.15625,1.015625 0,0.9375 0.53125,1.5625 1.265625,1.5625 1.171875,0 2.40625,-1.484375 2.40625,-2.921875 0,-0.90625 -0.53125,-1.59375 -1.328125,-1.59375 -0.453125,0 -0.875,0.296875 -1.171875,0.59375 l 0.734375,-3 z M 1.453125,-3.046875 C 1.5,-3.265625 1.5,-3.28125 1.59375,-3.390625 2.078125,-4.03125 2.53125,-4.1875 2.796875,-4.1875 c 0.359375,0 0.625,0.296875 0.625,0.9375 0,0.59375 -0.328125,1.734375 -0.515625,2.109375 -0.328125,0.671875 -0.78125,1.03125 -1.171875,1.03125 -0.34375,0 -0.671875,-0.265625 -0.671875,-1 0,-0.203125 0,-0.390625 0.15625,-1.015625 l 0.234375,-0.921875 z m 0,0"
               id="path12655" />
          </symbol>
          <symbol
             style="overflow:visible"
             overflow="visible"
             id="textext-5ed50e7c-6">
            <path
               style="stroke:none"
               d=""
               id="path12658" />
          </symbol>
          <symbol
             style="overflow:visible"
             overflow="visible"
             id="textext-5ed50e7c-7">
            <path
               style="stroke:none"
               d="m 4.078125,-2.296875 2.78125,0 C 7,-2.296875 7.1875,-2.296875 7.1875,-2.5 7.1875,-2.6875 7,-2.6875 6.859375,-2.6875 l -2.78125,0 0,-2.796875 c 0,-0.140625 0,-0.328125 -0.203125,-0.328125 -0.203125,0 -0.203125,0.1875 -0.203125,0.328125 l 0,2.796875 -2.78125,0 c -0.140625,0 -0.328125,0 -0.328125,0.1875 0,0.203125 0.1875,0.203125 0.328125,0.203125 l 2.78125,0 0,2.796875 c 0,0.140625 0,0.328125 0.203125,0.328125 0.203125,0 0.203125,-0.1875 0.203125,-0.328125 l 0,-2.796875 z m 0,0"
               id="path12661" />
          </symbol>
          <symbol
             style="overflow:visible"
             overflow="visible"
             id="textext-5ed50e7c-8">
            <path
               style="stroke:none"
               d="m 6.84375,-3.265625 c 0.15625,0 0.34375,0 0.34375,-0.1875 C 7.1875,-3.65625 7,-3.65625 6.859375,-3.65625 l -5.96875,0 c -0.140625,0 -0.328125,0 -0.328125,0.203125 0,0.1875 0.1875,0.1875 0.328125,0.1875 l 5.953125,0 z m 0.015625,1.9375 c 0.140625,0 0.328125,0 0.328125,-0.203125 0,-0.1875 -0.1875,-0.1875 -0.34375,-0.1875 l -5.953125,0 c -0.140625,0 -0.328125,0 -0.328125,0.1875 0,0.203125 0.1875,0.203125 0.328125,0.203125 l 5.96875,0 z m 0,0"
               id="path12664" />
          </symbol>
          <symbol
             style="overflow:visible"
             overflow="visible"
             id="textext-5ed50e7c-9">
            <path
               style="stroke:none"
               d="m 2.9375,-6.375 c 0,-0.25 0,-0.265625 -0.234375,-0.265625 C 2.078125,-6 1.203125,-6 0.890625,-6 l 0,0.3125 c 0.203125,0 0.78125,0 1.296875,-0.265625 l 0,5.171875 c 0,0.359375 -0.03125,0.46875 -0.921875,0.46875 l -0.3125,0 0,0.3125 c 0.34375,-0.03125 1.203125,-0.03125 1.609375,-0.03125 0.390625,0 1.265625,0 1.609375,0.03125 l 0,-0.3125 -0.3125,0 c -0.90625,0 -0.921875,-0.109375 -0.921875,-0.46875 l 0,-5.59375 z m 0,0"
               id="path12667" />
          </symbol>
        </g>
      </defs>
      <g
         id="textext-5ed50e7c-10">
        <g
           style="fill:#000000;fill-opacity:1"
           id="g12670">
          <use
             height="1052.3622"
             width="744.09448"
             xlink:href="#textext-5ed50e7c-1"
             x="224.70599"
             y="134.765"
             id="use12672" />
        </g>
        <g
           style="fill:#000000;fill-opacity:1"
           id="g12674">
          <use
             height="1052.3622"
             width="744.09448"
             xlink:href="#textext-5ed50e7c-2"
             x="223.43079"
             y="134.765"
             id="use12676" />
        </g>
        <g
           style="fill:#000000;fill-opacity:1"
           id="g12678">
          <use
             height="1052.3622"
             width="744.09448"
             xlink:href="#textext-5ed50e7c-3"
             x="230.832"
             y="134.765"
             id="use12680" />
          <use
             height="1052.3622"
             width="744.09448"
             xlink:href="#textext-5ed50e7c-4"
             x="233.59961"
             y="134.765"
             id="use12682" />
        </g>
        <g
           style="fill:#000000;fill-opacity:1"
           id="g12684">
          <use
             height="1052.3622"
             width="744.09448"
             xlink:href="#textext-5ed50e7c-7"
             x="241.508"
             y="134.765"
             id="use12686" />
        </g>
        <g
           style="fill:#000000;fill-opacity:1"
           id="g12688">
          <use
             height="1052.3622"
             width="744.09448"
             xlink:href="#textext-5ed50e7c-5"
             x="251.47"
             y="134.765"
             id="use12690" />
        </g>
        <g
           style="fill:#000000;fill-opacity:1"
           id="g12692">
          <use
             height="1052.3622"
             width="744.09448"
             xlink:href="#textext-5ed50e7c-8"
             x="258.513"
             y="134.765"
             id="use12694" />
        </g>
        <g
           style="fill:#000000;fill-opacity:1"
           id="g12696">
          <use
             height="1052.3622"
             width="744.09448"
             xlink:href="#textext-5ed50e7c-9"
             x="269.03152"
             y="134.765"
             id="use12698" />
        </g>
      </g>
    </g>
    <g
       id="g13275"
       transform="matrix(0.91923881,-0.91923881,0.91923881,0.91923881,52.980545,396.56347)"
       ns0:preamble=""
       ns0:text="$\\vec w . x + b = 0$">
      <defs
         id="defs13277">
        <g
           id="g13279">
          <symbol
             style="overflow:visible"
             id="textext-7a004315-0"
             overflow="visible">
            <path
               id="path13282"
               d=""
               style="stroke:none" />
          </symbol>
          <symbol
             style="overflow:visible"
             id="textext-7a004315-1"
             overflow="visible">
            <path
               id="path13285"
               d="m 5.359375,-5.9375 c -0.140625,0.140625 -0.46875,0.421875 -0.46875,0.59375 0,0.09375 0.09375,0.203125 0.1875,0.203125 0.09375,0 0.140625,-0.078125 0.203125,-0.140625 C 5.390625,-5.421875 5.625,-5.703125 6.0625,-5.921875 6.125,-5.96875 6.234375,-6.015625 6.234375,-6.125 6.234375,-6.234375 6.15625,-6.28125 6.09375,-6.328125 5.875,-6.484375 5.765625,-6.65625 5.6875,-6.890625 5.65625,-6.984375 5.625,-7.125 5.484375,-7.125 c -0.140625,0 -0.203125,0.140625 -0.203125,0.21875 0,0.046875 0.078125,0.359375 0.234375,0.578125 l -3.359375,0 c -0.15625,0 -0.34375,0 -0.34375,0.203125 0,0.1875 0.1875,0.1875 0.34375,0.1875 l 3.203125,0 z m 0,0"
               style="stroke:none" />
          </symbol>
          <symbol
             style="overflow:visible"
             id="textext-7a004315-2"
             overflow="visible">
            <path
               id="path13288"
               d="M 4.609375,-3.375 C 4.65625,-3.59375 4.75,-3.96875 4.75,-4.03125 c 0,-0.171875 -0.140625,-0.265625 -0.28125,-0.265625 -0.125,0 -0.296875,0.078125 -0.375,0.28125 -0.03125,0.0625 -0.5,1.96875 -0.5625,2.234375 C 3.453125,-1.484375 3.4375,-1.3125 3.4375,-1.125 c 0,0.109375 0,0.125 0.015625,0.171875 -0.234375,0.53125 -0.53125,0.84375 -0.921875,0.84375 -0.796875,0 -0.796875,-0.734375 -0.796875,-0.90625 0,-0.3125 0.046875,-0.703125 0.515625,-1.9375 0.109375,-0.296875 0.171875,-0.4375 0.171875,-0.640625 0,-0.4375 -0.328125,-0.8125 -0.8125,-0.8125 -0.953125,0 -1.3125,1.453125 -1.3125,1.53125 0,0.109375 0.09375,0.109375 0.109375,0.109375 0.109375,0 0.109375,-0.03125 0.15625,-0.1875 C 0.84375,-3.875 1.21875,-4.1875 1.578125,-4.1875 c 0.09375,0 0.25,0.015625 0.25,0.328125 0,0.25 -0.109375,0.53125 -0.1875,0.703125 -0.4375,1.171875 -0.546875,1.625 -0.546875,2.015625 0,0.90625 0.65625,1.25 1.40625,1.25 0.171875,0 0.640625,0 1.03125,-0.703125 0.265625,0.640625 0.953125,0.703125 1.25,0.703125 0.75,0 1.1875,-0.625 1.453125,-1.21875 0.328125,-0.78125 0.65625,-2.125 0.65625,-2.59375 0,-0.546875 -0.265625,-0.703125 -0.4375,-0.703125 -0.25,0 -0.5,0.265625 -0.5,0.484375 0,0.125 0.0625,0.1875 0.140625,0.265625 0.109375,0.109375 0.359375,0.359375 0.359375,0.84375 0,0.34375 -0.28125,1.3125 -0.546875,1.828125 -0.25,0.53125 -0.609375,0.875 -1.09375,0.875 -0.46875,0 -0.734375,-0.296875 -0.734375,-0.875 0,-0.265625 0.0625,-0.578125 0.109375,-0.71875 L 4.609375,-3.375 z m 0,0"
               style="stroke:none" />
          </symbol>
          <symbol
             style="overflow:visible"
             id="textext-7a004315-3"
             overflow="visible">
            <path
               id="path13291"
               d="m 1.90625,-0.53125 c 0,-0.28125 -0.234375,-0.53125 -0.515625,-0.53125 -0.296875,0 -0.53125,0.25 -0.53125,0.53125 C 0.859375,-0.234375 1.09375,0 1.390625,0 1.671875,0 1.90625,-0.234375 1.90625,-0.53125 z m 0,0"
               style="stroke:none" />
          </symbol>
          <symbol
             style="overflow:visible"
             id="textext-7a004315-4"
             overflow="visible">
            <path
               id="path13294"
               d="M 3.328125,-3.015625 C 3.390625,-3.265625 3.625,-4.1875 4.3125,-4.1875 c 0.046875,0 0.296875,0 0.5,0.125 C 4.53125,-4 4.34375,-3.765625 4.34375,-3.515625 c 0,0.15625 0.109375,0.34375 0.375,0.34375 0.21875,0 0.53125,-0.171875 0.53125,-0.578125 0,-0.515625 -0.578125,-0.65625 -0.921875,-0.65625 -0.578125,0 -0.921875,0.53125 -1.046875,0.75 -0.25,-0.65625 -0.78125,-0.75 -1.078125,-0.75 -1.03125,0 -1.609375,1.28125 -1.609375,1.53125 0,0.109375 0.109375,0.109375 0.125,0.109375 0.078125,0 0.109375,-0.03125 0.125,-0.109375 0.34375,-1.0625 1,-1.3125 1.34375,-1.3125 0.1875,0 0.53125,0.09375 0.53125,0.671875 0,0.3125 -0.171875,0.96875 -0.53125,2.375 -0.15625,0.609375 -0.515625,1.03125 -0.953125,1.03125 -0.0625,0 -0.28125,0 -0.5,-0.125 0.25,-0.0625 0.46875,-0.265625 0.46875,-0.546875 0,-0.265625 -0.21875,-0.34375 -0.359375,-0.34375 -0.3125,0 -0.546875,0.25 -0.546875,0.578125 0,0.453125 0.484375,0.65625 0.921875,0.65625 0.671875,0 1.03125,-0.703125 1.046875,-0.75 0.125,0.359375 0.484375,0.75 1.078125,0.75 1.03125,0 1.59375,-1.28125 1.59375,-1.53125 0,-0.109375 -0.078125,-0.109375 -0.109375,-0.109375 -0.09375,0 -0.109375,0.046875 -0.140625,0.109375 -0.328125,1.078125 -1,1.3125 -1.3125,1.3125 -0.390625,0 -0.546875,-0.3125 -0.546875,-0.65625 0,-0.21875 0.046875,-0.4375 0.15625,-0.875 l 0.34375,-1.375 z m 0,0"
               style="stroke:none" />
          </symbol>
          <symbol
             style="overflow:visible"
             id="textext-7a004315-5"
             overflow="visible">
            <path
               id="path13297"
               d="m 2.375,-6.8125 c 0,0 0,-0.109375 -0.125,-0.109375 -0.21875,0 -0.953125,0.078125 -1.21875,0.109375 -0.078125,0 -0.1875,0.015625 -0.1875,0.1875 0,0.125 0.09375,0.125 0.25,0.125 0.46875,0 0.484375,0.0625 0.484375,0.171875 0,0.0625 -0.078125,0.40625 -0.125,0.609375 l -0.828125,3.25 c -0.109375,0.5 -0.15625,0.671875 -0.15625,1.015625 0,0.9375 0.53125,1.5625 1.265625,1.5625 1.171875,0 2.40625,-1.484375 2.40625,-2.921875 0,-0.90625 -0.53125,-1.59375 -1.328125,-1.59375 -0.453125,0 -0.875,0.296875 -1.171875,0.59375 l 0.734375,-3 z M 1.453125,-3.046875 C 1.5,-3.265625 1.5,-3.28125 1.59375,-3.390625 2.078125,-4.03125 2.53125,-4.1875 2.796875,-4.1875 c 0.359375,0 0.625,0.296875 0.625,0.9375 0,0.59375 -0.328125,1.734375 -0.515625,2.109375 -0.328125,0.671875 -0.78125,1.03125 -1.171875,1.03125 -0.34375,0 -0.671875,-0.265625 -0.671875,-1 0,-0.203125 0,-0.390625 0.15625,-1.015625 l 0.234375,-0.921875 z m 0,0"
               style="stroke:none" />
          </symbol>
          <symbol
             style="overflow:visible"
             id="textext-7a004315-6"
             overflow="visible">
            <path
               id="path13300"
               d=""
               style="stroke:none" />
          </symbol>
          <symbol
             style="overflow:visible"
             id="textext-7a004315-7"
             overflow="visible">
            <path
               id="path13303"
               d="m 4.078125,-2.296875 2.78125,0 C 7,-2.296875 7.1875,-2.296875 7.1875,-2.5 7.1875,-2.6875 7,-2.6875 6.859375,-2.6875 l -2.78125,0 0,-2.796875 c 0,-0.140625 0,-0.328125 -0.203125,-0.328125 -0.203125,0 -0.203125,0.1875 -0.203125,0.328125 l 0,2.796875 -2.78125,0 c -0.140625,0 -0.328125,0 -0.328125,0.1875 0,0.203125 0.1875,0.203125 0.328125,0.203125 l 2.78125,0 0,2.796875 c 0,0.140625 0,0.328125 0.203125,0.328125 0.203125,0 0.203125,-0.1875 0.203125,-0.328125 l 0,-2.796875 z m 0,0"
               style="stroke:none" />
          </symbol>
          <symbol
             style="overflow:visible"
             id="textext-7a004315-8"
             overflow="visible">
            <path
               id="path13306"
               d="m 6.84375,-3.265625 c 0.15625,0 0.34375,0 0.34375,-0.1875 C 7.1875,-3.65625 7,-3.65625 6.859375,-3.65625 l -5.96875,0 c -0.140625,0 -0.328125,0 -0.328125,0.203125 0,0.1875 0.1875,0.1875 0.328125,0.1875 l 5.953125,0 z m 0.015625,1.9375 c 0.140625,0 0.328125,0 0.328125,-0.203125 0,-0.1875 -0.1875,-0.1875 -0.34375,-0.1875 l -5.953125,0 c -0.140625,0 -0.328125,0 -0.328125,0.1875 0,0.203125 0.1875,0.203125 0.328125,0.203125 l 5.96875,0 z m 0,0"
               style="stroke:none" />
          </symbol>
          <symbol
             style="overflow:visible"
             id="textext-7a004315-9"
             overflow="visible">
            <path
               id="path13309"
               d="m 4.578125,-3.1875 c 0,-0.796875 -0.046875,-1.59375 -0.390625,-2.328125 -0.453125,-0.96875 -1.28125,-1.125 -1.6875,-1.125 -0.609375,0 -1.328125,0.265625 -1.75,1.1875 -0.3125,0.6875 -0.359375,1.46875 -0.359375,2.265625 0,0.75 0.03125,1.640625 0.453125,2.40625 0.421875,0.796875 1.15625,1 1.640625,1 0.53125,0 1.296875,-0.203125 1.734375,-1.15625 0.3125,-0.6875 0.359375,-1.46875 0.359375,-2.25 z M 2.484375,0 C 2.09375,0 1.5,-0.25 1.328125,-1.203125 1.21875,-1.796875 1.21875,-2.71875 1.21875,-3.3125 c 0,-0.640625 0,-1.296875 0.078125,-1.828125 0.1875,-1.1875 0.9375,-1.28125 1.1875,-1.28125 0.328125,0 0.984375,0.1875 1.171875,1.171875 0.109375,0.5625 0.109375,1.3125 0.109375,1.9375 0,0.75 0,1.421875 -0.109375,2.0625 C 3.5,-0.296875 2.9375,0 2.484375,0 z m 0,0"
               style="stroke:none" />
          </symbol>
        </g>
      </defs>
      <g
         id="textext-7a004315-10">
        <g
           id="g13312"
           style="fill:#000000;fill-opacity:1">
          <use
             height="1052.3622"
             width="744.09448"
             id="use13314"
             y="134.765"
             x="224.70599"
             xlink:href="#textext-7a004315-1" />
        </g>
        <g
           id="g13316"
           style="fill:#000000;fill-opacity:1">
          <use
             height="1052.3622"
             width="744.09448"
             id="use13318"
             y="134.765"
             x="223.43079"
             xlink:href="#textext-7a004315-2" />
        </g>
        <g
           id="g13320"
           style="fill:#000000;fill-opacity:1">
          <use
             height="1052.3622"
             width="744.09448"
             id="use13322"
             y="134.765"
             x="230.832"
             xlink:href="#textext-7a004315-3" />
          <use
             height="1052.3622"
             width="744.09448"
             id="use13324"
             y="134.765"
             x="233.59961"
             xlink:href="#textext-7a004315-4" />
        </g>
        <g
           id="g13326"
           style="fill:#000000;fill-opacity:1">
          <use
             height="1052.3622"
             width="744.09448"
             id="use13328"
             y="134.765"
             x="241.508"
             xlink:href="#textext-7a004315-7" />
        </g>
        <g
           id="g13330"
           style="fill:#000000;fill-opacity:1">
          <use
             height="1052.3622"
             width="744.09448"
             id="use13332"
             y="134.765"
             x="251.47"
             xlink:href="#textext-7a004315-5" />
        </g>
        <g
           id="g13334"
           style="fill:#000000;fill-opacity:1">
          <use
             height="1052.3622"
             width="744.09448"
             id="use13336"
             y="134.765"
             x="258.513"
             xlink:href="#textext-7a004315-8" />
        </g>
        <g
           id="g13338"
           style="fill:#000000;fill-opacity:1">
          <use
             height="1052.3622"
             width="744.09448"
             id="use13340"
             y="134.765"
             x="269.03152"
             xlink:href="#textext-7a004315-9" />
        </g>
      </g>
    </g>
    <g
       ns0:text="$\\vec w . x + b = -1$"
       ns0:preamble=""
       transform="matrix(0.91923881,-0.91923881,0.91923881,0.91923881,83.638667,444.49521)"
       id="g13919">
      <defs
         id="defs13921">
        <g
           id="g13923">
          <symbol
             style="overflow:visible"
             overflow="visible"
             id="textext-d3f65bb2-0">
            <path
               style="stroke:none"
               d=""
               id="path13926" />
          </symbol>
          <symbol
             style="overflow:visible"
             overflow="visible"
             id="textext-d3f65bb2-1">
            <path
               style="stroke:none"
               d="m 5.359375,-5.9375 c -0.140625,0.140625 -0.46875,0.421875 -0.46875,0.59375 0,0.09375 0.09375,0.203125 0.1875,0.203125 0.09375,0 0.140625,-0.078125 0.203125,-0.140625 C 5.390625,-5.421875 5.625,-5.703125 6.0625,-5.921875 6.125,-5.96875 6.234375,-6.015625 6.234375,-6.125 6.234375,-6.234375 6.15625,-6.28125 6.09375,-6.328125 5.875,-6.484375 5.765625,-6.65625 5.6875,-6.890625 5.65625,-6.984375 5.625,-7.125 5.484375,-7.125 c -0.140625,0 -0.203125,0.140625 -0.203125,0.21875 0,0.046875 0.078125,0.359375 0.234375,0.578125 l -3.359375,0 c -0.15625,0 -0.34375,0 -0.34375,0.203125 0,0.1875 0.1875,0.1875 0.34375,0.1875 l 3.203125,0 z m 0,0"
               id="path13929" />
          </symbol>
          <symbol
             style="overflow:visible"
             overflow="visible"
             id="textext-d3f65bb2-2">
            <path
               style="stroke:none"
               d="M 4.609375,-3.375 C 4.65625,-3.59375 4.75,-3.96875 4.75,-4.03125 c 0,-0.171875 -0.140625,-0.265625 -0.28125,-0.265625 -0.125,0 -0.296875,0.078125 -0.375,0.28125 -0.03125,0.0625 -0.5,1.96875 -0.5625,2.234375 C 3.453125,-1.484375 3.4375,-1.3125 3.4375,-1.125 c 0,0.109375 0,0.125 0.015625,0.171875 -0.234375,0.53125 -0.53125,0.84375 -0.921875,0.84375 -0.796875,0 -0.796875,-0.734375 -0.796875,-0.90625 0,-0.3125 0.046875,-0.703125 0.515625,-1.9375 0.109375,-0.296875 0.171875,-0.4375 0.171875,-0.640625 0,-0.4375 -0.328125,-0.8125 -0.8125,-0.8125 -0.953125,0 -1.3125,1.453125 -1.3125,1.53125 0,0.109375 0.09375,0.109375 0.109375,0.109375 0.109375,0 0.109375,-0.03125 0.15625,-0.1875 C 0.84375,-3.875 1.21875,-4.1875 1.578125,-4.1875 c 0.09375,0 0.25,0.015625 0.25,0.328125 0,0.25 -0.109375,0.53125 -0.1875,0.703125 -0.4375,1.171875 -0.546875,1.625 -0.546875,2.015625 0,0.90625 0.65625,1.25 1.40625,1.25 0.171875,0 0.640625,0 1.03125,-0.703125 0.265625,0.640625 0.953125,0.703125 1.25,0.703125 0.75,0 1.1875,-0.625 1.453125,-1.21875 0.328125,-0.78125 0.65625,-2.125 0.65625,-2.59375 0,-0.546875 -0.265625,-0.703125 -0.4375,-0.703125 -0.25,0 -0.5,0.265625 -0.5,0.484375 0,0.125 0.0625,0.1875 0.140625,0.265625 0.109375,0.109375 0.359375,0.359375 0.359375,0.84375 0,0.34375 -0.28125,1.3125 -0.546875,1.828125 -0.25,0.53125 -0.609375,0.875 -1.09375,0.875 -0.46875,0 -0.734375,-0.296875 -0.734375,-0.875 0,-0.265625 0.0625,-0.578125 0.109375,-0.71875 L 4.609375,-3.375 z m 0,0"
               id="path13932" />
          </symbol>
          <symbol
             style="overflow:visible"
             overflow="visible"
             id="textext-d3f65bb2-3">
            <path
               style="stroke:none"
               d="m 1.90625,-0.53125 c 0,-0.28125 -0.234375,-0.53125 -0.515625,-0.53125 -0.296875,0 -0.53125,0.25 -0.53125,0.53125 C 0.859375,-0.234375 1.09375,0 1.390625,0 1.671875,0 1.90625,-0.234375 1.90625,-0.53125 z m 0,0"
               id="path13935" />
          </symbol>
          <symbol
             style="overflow:visible"
             overflow="visible"
             id="textext-d3f65bb2-4">
            <path
               style="stroke:none"
               d="M 3.328125,-3.015625 C 3.390625,-3.265625 3.625,-4.1875 4.3125,-4.1875 c 0.046875,0 0.296875,0 0.5,0.125 C 4.53125,-4 4.34375,-3.765625 4.34375,-3.515625 c 0,0.15625 0.109375,0.34375 0.375,0.34375 0.21875,0 0.53125,-0.171875 0.53125,-0.578125 0,-0.515625 -0.578125,-0.65625 -0.921875,-0.65625 -0.578125,0 -0.921875,0.53125 -1.046875,0.75 -0.25,-0.65625 -0.78125,-0.75 -1.078125,-0.75 -1.03125,0 -1.609375,1.28125 -1.609375,1.53125 0,0.109375 0.109375,0.109375 0.125,0.109375 0.078125,0 0.109375,-0.03125 0.125,-0.109375 0.34375,-1.0625 1,-1.3125 1.34375,-1.3125 0.1875,0 0.53125,0.09375 0.53125,0.671875 0,0.3125 -0.171875,0.96875 -0.53125,2.375 -0.15625,0.609375 -0.515625,1.03125 -0.953125,1.03125 -0.0625,0 -0.28125,0 -0.5,-0.125 0.25,-0.0625 0.46875,-0.265625 0.46875,-0.546875 0,-0.265625 -0.21875,-0.34375 -0.359375,-0.34375 -0.3125,0 -0.546875,0.25 -0.546875,0.578125 0,0.453125 0.484375,0.65625 0.921875,0.65625 0.671875,0 1.03125,-0.703125 1.046875,-0.75 0.125,0.359375 0.484375,0.75 1.078125,0.75 1.03125,0 1.59375,-1.28125 1.59375,-1.53125 0,-0.109375 -0.078125,-0.109375 -0.109375,-0.109375 -0.09375,0 -0.109375,0.046875 -0.140625,0.109375 -0.328125,1.078125 -1,1.3125 -1.3125,1.3125 -0.390625,0 -0.546875,-0.3125 -0.546875,-0.65625 0,-0.21875 0.046875,-0.4375 0.15625,-0.875 l 0.34375,-1.375 z m 0,0"
               id="path13938" />
          </symbol>
          <symbol
             style="overflow:visible"
             overflow="visible"
             id="textext-d3f65bb2-5">
            <path
               style="stroke:none"
               d="m 2.375,-6.8125 c 0,0 0,-0.109375 -0.125,-0.109375 -0.21875,0 -0.953125,0.078125 -1.21875,0.109375 -0.078125,0 -0.1875,0.015625 -0.1875,0.1875 0,0.125 0.09375,0.125 0.25,0.125 0.46875,0 0.484375,0.0625 0.484375,0.171875 0,0.0625 -0.078125,0.40625 -0.125,0.609375 l -0.828125,3.25 c -0.109375,0.5 -0.15625,0.671875 -0.15625,1.015625 0,0.9375 0.53125,1.5625 1.265625,1.5625 1.171875,0 2.40625,-1.484375 2.40625,-2.921875 0,-0.90625 -0.53125,-1.59375 -1.328125,-1.59375 -0.453125,0 -0.875,0.296875 -1.171875,0.59375 l 0.734375,-3 z M 1.453125,-3.046875 C 1.5,-3.265625 1.5,-3.28125 1.59375,-3.390625 2.078125,-4.03125 2.53125,-4.1875 2.796875,-4.1875 c 0.359375,0 0.625,0.296875 0.625,0.9375 0,0.59375 -0.328125,1.734375 -0.515625,2.109375 -0.328125,0.671875 -0.78125,1.03125 -1.171875,1.03125 -0.34375,0 -0.671875,-0.265625 -0.671875,-1 0,-0.203125 0,-0.390625 0.15625,-1.015625 l 0.234375,-0.921875 z m 0,0"
               id="path13941" />
          </symbol>
          <symbol
             style="overflow:visible"
             overflow="visible"
             id="textext-d3f65bb2-6">
            <path
               style="stroke:none"
               d=""
               id="path13944" />
          </symbol>
          <symbol
             style="overflow:visible"
             overflow="visible"
             id="textext-d3f65bb2-7">
            <path
               style="stroke:none"
               d="m 4.078125,-2.296875 2.78125,0 C 7,-2.296875 7.1875,-2.296875 7.1875,-2.5 7.1875,-2.6875 7,-2.6875 6.859375,-2.6875 l -2.78125,0 0,-2.796875 c 0,-0.140625 0,-0.328125 -0.203125,-0.328125 -0.203125,0 -0.203125,0.1875 -0.203125,0.328125 l 0,2.796875 -2.78125,0 c -0.140625,0 -0.328125,0 -0.328125,0.1875 0,0.203125 0.1875,0.203125 0.328125,0.203125 l 2.78125,0 0,2.796875 c 0,0.140625 0,0.328125 0.203125,0.328125 0.203125,0 0.203125,-0.1875 0.203125,-0.328125 l 0,-2.796875 z m 0,0"
               id="path13947" />
          </symbol>
          <symbol
             style="overflow:visible"
             overflow="visible"
             id="textext-d3f65bb2-8">
            <path
               style="stroke:none"
               d="m 6.84375,-3.265625 c 0.15625,0 0.34375,0 0.34375,-0.1875 C 7.1875,-3.65625 7,-3.65625 6.859375,-3.65625 l -5.96875,0 c -0.140625,0 -0.328125,0 -0.328125,0.203125 0,0.1875 0.1875,0.1875 0.328125,0.1875 l 5.953125,0 z m 0.015625,1.9375 c 0.140625,0 0.328125,0 0.328125,-0.203125 0,-0.1875 -0.1875,-0.1875 -0.34375,-0.1875 l -5.953125,0 c -0.140625,0 -0.328125,0 -0.328125,0.1875 0,0.203125 0.1875,0.203125 0.328125,0.203125 l 5.96875,0 z m 0,0"
               id="path13950" />
          </symbol>
          <symbol
             style="overflow:visible"
             overflow="visible"
             id="textext-d3f65bb2-9">
            <path
               style="stroke:none"
               d="m 2.9375,-6.375 c 0,-0.25 0,-0.265625 -0.234375,-0.265625 C 2.078125,-6 1.203125,-6 0.890625,-6 l 0,0.3125 c 0.203125,0 0.78125,0 1.296875,-0.265625 l 0,5.171875 c 0,0.359375 -0.03125,0.46875 -0.921875,0.46875 l -0.3125,0 0,0.3125 c 0.34375,-0.03125 1.203125,-0.03125 1.609375,-0.03125 0.390625,0 1.265625,0 1.609375,0.03125 l 0,-0.3125 -0.3125,0 c -0.90625,0 -0.921875,-0.109375 -0.921875,-0.46875 l 0,-5.59375 z m 0,0"
               id="path13953" />
          </symbol>
          <symbol
             style="overflow:visible"
             overflow="visible"
             id="textext-d3f65bb2-10">
            <path
               style="stroke:none"
               d=""
               id="path13956" />
          </symbol>
          <symbol
             style="overflow:visible"
             overflow="visible"
             id="textext-d3f65bb2-11">
            <path
               style="stroke:none"
               d="m 6.59375,-2.296875 c 0.140625,0 0.328125,0 0.328125,-0.203125 0,-0.1875 -0.1875,-0.1875 -0.328125,-0.1875 l -5.4375,0 c -0.140625,0 -0.328125,0 -0.328125,0.1875 0,0.203125 0.1875,0.203125 0.328125,0.203125 l 5.4375,0 z m 0,0"
               id="path13959" />
          </symbol>
        </g>
      </defs>
      <g
         id="textext-d3f65bb2-12">
        <g
           style="fill:#000000;fill-opacity:1"
           id="g13962">
          <use
             height="1052.3622"
             width="744.09448"
             xlink:href="#textext-d3f65bb2-1"
             x="224.70599"
             y="134.765"
             id="use13964" />
        </g>
        <g
           style="fill:#000000;fill-opacity:1"
           id="g13966">
          <use
             height="1052.3622"
             width="744.09448"
             xlink:href="#textext-d3f65bb2-2"
             x="223.43079"
             y="134.765"
             id="use13968" />
        </g>
        <g
           style="fill:#000000;fill-opacity:1"
           id="g13970">
          <use
             height="1052.3622"
             width="744.09448"
             xlink:href="#textext-d3f65bb2-3"
             x="230.832"
             y="134.765"
             id="use13972" />
          <use
             height="1052.3622"
             width="744.09448"
             xlink:href="#textext-d3f65bb2-4"
             x="233.59961"
             y="134.765"
             id="use13974" />
        </g>
        <g
           style="fill:#000000;fill-opacity:1"
           id="g13976">
          <use
             height="1052.3622"
             width="744.09448"
             xlink:href="#textext-d3f65bb2-7"
             x="241.508"
             y="134.765"
             id="use13978" />
        </g>
        <g
           style="fill:#000000;fill-opacity:1"
           id="g13980">
          <use
             height="1052.3622"
             width="744.09448"
             xlink:href="#textext-d3f65bb2-5"
             x="251.47"
             y="134.765"
             id="use13982" />
        </g>
        <g
           style="fill:#000000;fill-opacity:1"
           id="g13984">
          <use
             height="1052.3622"
             width="744.09448"
             xlink:href="#textext-d3f65bb2-8"
             x="258.513"
             y="134.765"
             id="use13986" />
        </g>
        <g
           style="fill:#000000;fill-opacity:1"
           id="g13988">
          <use
             height="1052.3622"
             width="744.09448"
             xlink:href="#textext-d3f65bb2-11"
             x="269.02899"
             y="134.765"
             id="use13990" />
        </g>
        <g
           style="fill:#000000;fill-opacity:1"
           id="g13992">
          <use
             height="1052.3622"
             width="744.09448"
             xlink:href="#textext-d3f65bb2-9"
             x="276.77802"
             y="134.765"
             id="use13994" />
        </g>
      </g>
    </g>
  </g>
</svg>
